
<svg version="1.1" id="layer" xmlns="http://www.w3.org/2000/svg" xmlns:xlink="http://www.w3.org/1999/xlink" x="0px" y="0px"
	 viewBox="0 0 652 652" style="enable-background:new 0 0 652 652;" xml:space="preserve">
<style type="text/css">
	.st0{fill:#7B3BAD;}
	.st1{fill:#FFFFFF;}
</style>
<path class="st0" d="M622,382.6c0,15.5-12.6,28.1-28.1,28.1H49.9c-15.4,0-27.9-12.5-27.9-27.9V257.1c0-14.8,12.1-26.9,26.9-26.9
	h546.2c14.9,0,26.9,12,26.9,26.9V382.6z"/>
<path class="st1" d="M214,331.8c0-12.7,9.2-22.6,22.1-22.6c9.8,0,18.2,5.6,20.6,15.7l-7.8,1.9c-1.1-6-6.4-10.2-12.5-10
	c-8.3,0-13.9,6.7-13.9,15c0,8.3,5.9,15,14,15c6,0.3,11.3-3.9,12.5-9.8l7.9,1.8c-2.4,10-10.8,15.6-20.6,15.6
	C223,354.4,214,344.5,214,331.8z M261.8,346.3h8.3v-47.5h-8.3v-7.2h16.6v54.7h8.3v7.1h-24.9V346.3z M296.3,317.4h-7.8v-7.1h16v43.1
	h-8.2V317.4z M295,297.7c0-3,2.5-5.5,5.5-5.4c3,0,5.5,2.5,5.4,5.5c0,3-2.5,5.5-5.5,5.4c-2.9,0.1-5.4-2.2-5.5-5.2
	C295,297.9,295,297.8,295,297.7z M316.3,291.6h8.2v34.8h6.3l11.4-16h9.6l-13.9,19v0.7l14.8,23.3h-9.7L331,333.8h-6.5v19.6h-8.2
	V291.6z M358.7,343l22.5-22.5c2.6-2.7,4.4-5.4,4.4-9.1c0-5.1-3.6-9.1-9.6-9.1c-5.1-0.1-9.4,4-9.5,9.1c0,0.2,0,0.4,0,0.7h-7.8
	c0-8.3,5.9-17.6,17.5-17.6c11.6,0,17.9,8.1,17.9,16.6c0,6.1-2.8,10-6.4,13.7l-21,20.2v0.7h27.7v7.7h-35.7L358.7,343L358.7,343z
	 M404.1,310.4h8v5.9h0.7c3-4.5,8.2-7.2,13.6-7c11.9,0,20.8,9.5,20.8,22.5s-8.4,22.6-20.2,22.6c-8.3,0-12.5-4.6-14-7.2h-0.7v25.1
	h-8.2L404.1,310.4L404.1,310.4z M438.8,331.8c0-9.1-5.9-15-13.4-15c-8.1,0-13.2,6.8-13.2,15c0,9.6,6,15.1,13.3,15.1
	C433.1,346.9,438.8,340.7,438.8,331.8z M453.3,331.8c0-12.9,8.3-22.6,20.2-22.6c5.6-0.1,10.9,2.6,13.9,7.3h0.7v-6.1h8.2V344
	c0,1.3,0.8,2,2.1,2h1.9v7.5h-5.9c-3.2,0.3-6-2.1-6.2-5.3c0-0.2,0-0.4,0-0.6h-0.6c-3,4.6-8.2,7.2-13.7,7
	C462,354.4,453.3,344.9,453.3,331.8z M488.3,331.9c0-9.6-6.1-15.1-13.5-15.1c-7.3,0-13.3,6.3-13.3,15.1c0,8.8,5.9,15,13.4,15
	C483.1,346.9,488.3,340.1,488.3,331.9L488.3,331.9z M506.1,364.9h5.5c2.9,0.2,5.6-1.7,6.4-4.5l2.7-6.9h-2.1l-15.3-43h8.9l11.3,35.1
	h0.6l12.2-35.2h9L524.9,364c-2.2,5.8-6.8,8.3-13.3,8.3h-5.4L506.1,364.9z M551.4,302.1h-2.5v-1.8h6.9v1.8h-2.5v8h-1.9V302.1z
	 M557.2,300.3h3.3l2,8.1h0.2l2.1-8.1h3.3v9.9h-1.9v-8h-0.2l-2,8h-2.8l-2.1-8.1h-0.2v8.1h-1.9V300.3z M122.3,304.9l-8.8,2.6v-17.3
	c0-15.3,13.1-21.4,24.3-21.4c14.9,0,23.7,9.2,23.7,19.7v7.6c0,16.9-13.3,18.8-24.8,21.7l-12.7,3.3c-8.6,2.2-16.1,4.9-16.1,14.8v28.8
	h50.7v7.6H99.2v-37c0-17,13.3-19.8,24.8-22.7l12.7-3.3c8.7-2.2,16.2-4.6,16.2-13.3v-7.4c0-6.1-4.5-11.9-15-11.9
	c-10.5,0-15.6,5.2-15.6,13.6V304.9z M161.3,315.3c8.2,2.9,15.1,7.7,15.1,20v37h-8.7v-36.5c0-7.5-4.3-10.8-10-12.9L161.3,315.3z
	 M144.4,338.6c0.1-3.7-2.9-6.7-6.5-6.8c-3.7-0.1-6.7,2.9-6.8,6.5c0,2,0.8,3.9,2.4,5.2v9.8h8.7v-9.8
	C143.6,342.4,144.4,340.5,144.4,338.6L144.4,338.6L144.4,338.6z"/>
</svg>
