
<svg version="1.1" id="layer" xmlns="http://www.w3.org/2000/svg" xmlns:xlink="http://www.w3.org/1999/xlink" x="0px" y="0px"
	 viewBox="-153 -46 652 652" style="enable-background:new -153 -46 652 652;" xml:space="preserve">
<style type="text/css">
	.st0{fill:#D1232A;}
</style>
<path id="XMLID_1_" class="st0" d="M366,266.4h27.2c2.8,0,5.1,2.2,5.1,5V291c0,2.7-2.3,4.9-5.1,4.9H366 M395.1,255.1H356
	c-0.9,0-1.6,0.7-1.6,1.5v49.1c0,0.9,0.7,1.5,1.6,1.5h39.1c8.1,0,14.8-6.5,14.8-14.4v-23.3C409.8,261.5,403.2,255.1,395.1,255.1
	 M71.3,271.3c0-2.7,2.3-4.9,5.1-4.9h24.1c2.8,0,5.1,2.2,5.1,5V291c0,2.7-2.3,4.9-5.1,4.9H76.4c-2.8,0-5.1-2.2-5.1-4.9 M102.4,255.1
	H74.5c-8.1,0-14.8,6.5-14.8,14.4v23.3c0,8,6.6,14.4,14.8,14.4h27.9c8.1,0,14.8-6.5,14.8-14.4v-23.3
	C117.1,261.5,110.5,255.1,102.4,255.1 M342.6,255.1L342.6,255.1l-2.8,0v0c-2.5,0.3-4.3,2.3-4.3,4.8v33.7c0,1.6-1.3,2.9-2.9,2.9
	c-0.4,0-1.1-0.4-2-1.4l-23.2-34.7c-2-3.4-6.3-5.4-11.3-5.4c-8,0-14.5,6.4-14.5,14.2v33.1c0,2.5,1.9,4.5,4.4,4.8v0l2.8,0v0
	c2.5-0.3,4.3-2.3,4.3-4.8v-33.1c0-1.5,1.3-2.9,2.8-2.9c0.8,0,1.6,0.3,2.2,0.9l24.2,36.1l0.1,0.2c3.1,4.2,8,4.2,10.1,4.2
	c8,0,14.5-6.4,14.5-14.2v-33.8C347,257.5,345.1,255.4,342.6,255.1 M228.9,269.5c0-1.7,1.4-3.1,3.2-3.1h26.7c1.8,0,3.2,1.4,3.2,3.1
	v3.9c0,1.6-1.3,2.9-3,2.9h-30.2 M258.8,255.1h-26.7c-8.1,0-14.8,6.5-14.8,14.4v23.3c0,8,6.6,14.4,14.8,14.4h35.4
	c2.5,0,4.6-1.9,4.9-4.3h0l0-2.8h0c-0.3-2.4-2.4-4.2-4.9-4.2h-35.3c-1.8,0-3.2-1.4-3.2-3.1v-5.1h30.2c8,0,14.5-6.4,14.5-14.2v-3.9
	C273.6,261.5,267,255.1,258.8,255.1 M19.7,266.4H50c2.5,0,4.6-1.9,4.9-4.3h0l0-2.8h0c-0.3-2.4-2.4-4.2-4.9-4.2H17.8
	c-8.1,0-14.8,6.5-14.8,14.4v23.3c0,8,6.6,14.4,14.8,14.4H50c2.5,0,4.6-1.9,4.9-4.3h0l0-2.8h0c-0.3-2.4-2.4-4.2-4.9-4.2H19.7
	c-2.8,0-5.1-2.2-5.1-4.9l0-19.6C14.6,268.6,16.9,266.4,19.7,266.4 M429.2,271.3c0-2.7,2.3-4.9,5.1-4.9h22.4c2.8,0,5.1,2.2,5.1,5v8.9
	h-32.5 M458.5,255.1h-26.1c-8.1,0-14.8,6.5-14.8,14.4v32.9c0,2.5,1.9,4.5,4.4,4.8v0l2.8,0v0c2.5-0.3,4.3-2.3,4.3-4.8v-10.7h32.5
	v10.8c0,2.5,1.9,4.5,4.4,4.8l2.3,0l0.5,0v0c2.5-0.3,4.3-2.3,4.3-4.8v-32.8C473.3,261.5,466.7,255.1,458.5,255.1 M194.7,255.1h-0.2
	c-0.1,0-0.2,0-0.2,0c-5.3,0.2-10.1,3.2-12.5,7.8l-14.6,28.1l-14.6-28.1c-2.4-4.7-7.3-7.7-12.7-7.8h0c-0.1,0-0.2,0-0.3,0
	c-8,0-14.5,6.4-14.5,14.2v33.1c0,2.6,2.2,4.8,4.9,4.9l2.3,0v0c2.5-0.3,4.3-2.3,4.4-4.8v-32.8c0-1.7,1.3-3,3-3.1
	c1.1,0,2.1,0.6,2.6,1.6l18.8,36.4l0.1,0.2c0.9,1.6,2.5,2.6,4.4,2.6l3.1,0h0l0.6,0v0c1.6-0.2,2.9-1.1,3.7-2.5l19-36.7
	c0.5-0.9,1.5-1.6,2.5-1.6c1.7,0,3.1,1.4,3.1,3.1v32.9c0,2.6,2.2,4.8,4.9,4.9l2.3,0v0c2.5-0.3,4.3-2.3,4.3-4.8v-33.1
	C209.2,261.4,202.7,255.1,194.7,255.1 M-73.9,313.8c-2.2-1.1-4.5-1.7-6.5-2c-4.5-0.9-8.6-3.4-12.5-7.6c-1.2-1.3-2.3-2.7-3.4-4.1
	c-0.5-0.7-1-1.3-1.6-2c-0.3-0.3-0.7-0.4-1.1-0.3c-0.4,0.1-0.7,0.5-0.7,0.9c0,0.1,0,0.3,0,0.5c0,0.8,0.1,1.5,0.1,2.3
	c0.1,1.8,0.1,3.6,0.3,5.3c0.9,7.3,3.3,13.1,7.4,17.9c2.2,2.5,5.2,5.7,9.3,7.6c1.8,0.8,3.5,1.3,5.1,1.3c0.5,0,1.1,0,1.6-0.1
	c2.6-0.4,5-2,6.5-4.3c1.6-2.3,2.1-5.2,1.5-7.8C-68.7,318-70.7,315.5-73.9,313.8 M-51.9,288.7l-0.7,0.7c0.2,0.2,0.4,0.3,0.7,0.3
	c0.2,0,0.4-0.1,0.6-0.2c0.6-0.4,1.2-0.8,1.8-1.2c1.4-0.9,2.8-1.9,4.2-2.9c6.8-5.2,11-11.2,12.9-18.3c0.9-3.4,1.6-7.4,0.7-11.5
	c-1.2-5.1-5.6-8.4-10.8-7.7c-5.8,0.7-9.8,5.7-9.3,11.6c0.2,1.9,0.7,3.6,1.2,5.3c0.1,0.4,0.3,0.9,0.4,1.4c0.5,1.8,1,3.6,1.1,5.4
	c0.3,5-0.9,10.2-3.6,15.8c-0.1,0.2-0.2,0.3-0.2,0.5l-0.1,0.3c-0.2,0.4,0,1,0.3,1.3 M-85,244c2,1.6,4.5,2.7,7.6,3.2
	c4.3,0.7,8,2.6,11.4,5.6c2.5,2.3,4.8,4.9,6.6,7.8c0.1,0.2,0.2,0.3,0.3,0.5l0.1,0.2c0.2,0.3,0.6,0.4,1,0.4c0.1,0,0.2,0,0.3,0
	c0.4-0.1,0.8-0.5,0.8-1l0-0.3c0-0.2,0-0.5,0-0.7c0-0.7-0.1-1.5-0.1-2.2c-0.1-1.6-0.1-3.3-0.4-5c-1-7.8-3.7-14.1-8.4-19.1
	c-2.4-2.6-5.4-5.4-9.4-6.9c-2.9-1.1-5.7-1-8.1,0.1c-3.1,1.5-5.2,4.6-5.6,8.1C-89.4,238.3-88,241.7-85,244 M-85.9,253.2l1.3-0.1
	c0.4,0,0.8-0.6,0.9-1c0.1-0.5-0.1-0.9-0.5-1.2c-0.6-0.3-1.2-0.6-1.7-0.9c-1.3-0.7-2.6-1.3-3.9-1.9c-4.8-2.1-9.4-3.3-14-3.5
	c-4.2-0.2-8.4,0.6-13,2.3c-3.1,1.2-5.5,2.7-7.3,4.8c-1.7,2-2.6,4.2-2.6,6.5c0,5.5,4.8,10.1,10.4,10.1c0.8,0,1.5-0.1,2.3-0.3
	c3.4-0.8,5.8-3,7.5-4.8l1-1.1c1.2-1.3,2.5-2.7,3.9-3.8c3.3-2.5,7.3-4,13.1-5C-87.7,253.3-86.8,253.3-85.9,253.2 M-105,269.6
	l-0.4,0.2c-0.2,0.1-0.4,0.2-0.6,0.3l-1,0.6c-0.9,0.6-1.8,1.2-2.7,1.8c-8,5.7-12.8,12.3-14.7,20.2c-0.8,3.2-1.4,7-0.5,10.9
	c1.1,4.7,4.9,7.8,9.5,7.8c0.4,0,0.7,0,1.1-0.1c2.9-0.3,5.5-1.7,7.3-3.9c1.7-2.2,2.5-4.9,2.2-7.8c-0.2-2-0.8-3.9-1.3-5.6l-0.2-0.7
	c-0.6-1.9-1.1-3.6-1.2-5.5c-0.2-4.3,0.6-8.8,2.6-13.6c0.3-0.7,0.6-1.4,0.9-2.2l0.5-1.2c0.2-0.4,0.1-0.9-0.2-1.2
	C-104.1,269.5-104.6,269.4-105,269.6 M-40.4,290.9c-1.7,0-3.4,0.4-5,1.2c-2.4,1.2-4.2,3.1-5.7,4.8c-0.9,1-1.9,2.1-2.9,3
	c-3.2,2.8-7.2,4.5-13,5.6c-1.2,0.2-2.4,0.4-3.6,0.5c-0.5,0.1-1.1,0.1-1.6,0.2c-0.4,0.1-0.7,0.3-0.8,0.7l-0.1,0.2
	c-0.2,0.5,0,1.1,0.5,1.3c0.6,0.3,1.3,0.6,1.9,1c1.4,0.7,2.8,1.4,4.2,2c5,2.2,9.9,3.3,14.6,3.3c3.6,0,7.1-0.6,10.6-1.8
	c3.1-1.1,5.5-2.4,7.3-4c2.8-2.5,4.1-5.3,3.8-8.5C-30.6,295-35,290.9-40.4,290.9"/>
</svg>
