<svg xmlns="http://www.w3.org/2000/svg" viewBox="0 0 525 500"><g fill="none" stroke-width="2"><path stroke="#aaa" d="M300.5 207.21q-1.06-.39-1.25-1.42" vector-effect="non-scaling-stroke"/><path stroke="#818181" d="M299.25 205.79q2.72-1.18 5.12.05.61.31.78-.35l.46-1.71q.16-.6.69-.28l1.68 1.02q.54.33.79-.26l.8-1.91q.17-.39.54-.19l1.61.86q.62.33.88-.32l.72-1.82q.23-.57.7-.17l1.3 1.12q.63.54.91-.25l.67-1.96q.22-.64.8-.29l1.54.95q.55.33.77-.28l.67-1.82q.21-.55.72-.27l1.51.81q.61.33.87-.31l.75-1.79q.23-.56.71-.18l1.12.89q.43.35.78-.09l2.76-3.48q.35-.44.11-.96c-1.75-3.64-4.69-2.63-8.47-1.83q-8.02 1.7-16.03 3.74-.49.12-.82-.24l-2.01-2.19q-.49-.53-1.18-.3-4.25 1.41-8.39-.28-.56-.23-1.11.03l-6.7 3.05q-.51.23-1.06.16c-2.53-.31-3.82-.39-6.45.54q-2.27.81-3.76.28-23.26-8.28-46.5-.9c-2.33.74-10.1 2.47-10.29-1.48q-.02-.51.35-.86 3.47-3.34 8.14-4.83c14.94-4.76 29.76-6.81 42.8-16.21 2.46-1.77 8.13-7.73 6.84-10.97q-.29-.71-.73-.08l-1.28 1.88q-.3.44-.83.43-2.59-.04-4.27 1.89-.35.41-.85.22-2.65-1-3.91 1.3-.31.57-.9.28l-1.81-.91q-.58-.3-1.05.15l-1.91 1.83q-.43.42-1.02.26l-2.08-.55q-.57-.15-1.06.17l-2.71 1.81q-.44.29-.88.01l-1.34-.85q-.51-.32-.97.08l-3.07 2.7q-.51.45-.95-.06l-1.51-1.72q-.4-.45-.87-.08l-3.38 2.59a1.08 1.08 0 0 1-1.52-.22l-.99-1.34q-.44-.59-1.03-.14l-3.44 2.67q-.44.35-.84-.06l-1.43-1.48q-.46-.47-.96-.05l-3.03 2.5q-.38.32-.81.08l-1.53-.85q-.48-.27-.9.09l-2.92 2.54q-.47.41-1.04.17l-1.64-.68q-.64-.27-1.09.24l-3.22 3.61q-.35.39-.83.18l-1.07-.46q-.55-.24-.93.24l-3.47 4.31q-.32.4-.83.27l-.99-.25q-.48-.11-.81.24c-10.01 10.65-12.31 25.94-7.73 39.56a1.06 1.06 0 0 0 1.76.4c.96-.97 2.15-3.92 3.24-4.41a.46.46 0 0 1 .62.56c-2.27 6.84-5.81 12.18 1.55 17.9a.79.79 0 0 0 1.27-.67q-.1-1.58 1.39-1.6.45-.01.78.29 1.03.96 2.44 1.03.6.03.8-.55l.82-2.43q.25-.72.93-.39l2.02.96q.33.16.56-.13c3.02-3.93 1.68-10.21-4.61-8.79q-.78.18-.57-.59c1.49-5.45 4.16-12.01-4.71-12.49a.35.34 40.1 0 1-.06-.68c8.02-1.8 9.05 5.79 7.31 11.39a.56.55 5.1 0 0 .6.71q3.92-.5 5.2 3.02.18.51.71.64c3.89.94 12.24 2.45 15.78.47q.44-.25.67-.71 3.72-7.39 12.08-8.55.65-.09 1.02.25a.51.5-27.3 0 1-.28.87c-4.73.57-10.24 3.92-10.04 9.17q.12 3.22 3.45 4.8.51.24.73.76l2.46 5.84a.96.96 0 0 0 1.58.29l2.3-2.43q.41-.43.84-.01l1.1 1.11q.98.98 1.63-.24l1.29-2.41q.44-.83.94-.03 1.06 1.72 2.62 1.17.45-.16.63-.6l.87-2.12q.34-.82.91-.14.42.51 1.08.76a1.51 1.5 11.2 0 0 2.05-1.37c.1-4.89-6.83-6.77-10.8-7.62a.48.48 0 0 1-.37-.59l.09-.34q.1-.42.53-.34 20.09 3.73 38.99-3.67.5-.19 1.03-.11c6.72 1.04 35.9 4.36 40.69-2.56q.28-.42 0-.83-2.08-3-5.41-2.4-.58.11-.66-.47l-.06-.46q-.1-.75-.82-.5l-1.42.49q-.56.19-.76-.37l-.25-.68q-.23-.62-.87-.44l-1.46.41q-.48.13-.71-.31l-.46-.88q-.38-.72-1.09-.33-1.89 1.05-2.39-.84-.14-.56-.66-.31l-1.12.55q-.71.35-1.05-.36l-.44-.91q-.27-.58-.87-.35c-3.49 1.36-6.82-1.12-9.86-2.65" vector-effect="non-scaling-stroke"/><path stroke="#2b2b2b" d="M299.25 205.79q-4.11-1.75-8.5-1.89c-3.51-.12-6.26 1.98-9.24 3.64q-.42.23-.87.08l-2.95-1.04q-.48-.18-.19.24c2.94 4.14 6.38-.82 9.65-1.09 6.31-.52 9.3 12.31 15.9 8q.5-.33 1 .02l1.82 1.29q.44.31.91.07l1.05-.53q.75-.38.88.45.13.84 1.27 1.29.6.23 1.05-.22l.4-.4q.43-.44.85.01l1.34 1.41q.39.42.84.05 1.77-1.51 2.84.73.27.57.87.37 1.97-.64 3.78.24.41.2.54-.24c.17-.61-14.71-4.69-16.25-5.04q-4.21-.97-6.33-4.83-.27-.49.07-.92.19-.25.52-.27" vector-effect="non-scaling-stroke"/><path stroke="#818181" d="M128.39 286.74c-4.75-14.96 11.28-26.57 22.31-13.83 8.95 10.33 22.06-2.22 11.28-12.64-11.98-11.59-31.22-11.34-43.19-.97-11.09 9.61-12.92 26.48-5.07 38.63 10.73 16.6 39.07 18.54 50.97 2.25 4.99-6.83-2.35-14.83-10.1-11.96-1.67.62-3.07 2.23-4.44 3.42-7.49 6.55-18.59 5.06-21.76-4.9M289.89 281.54a31.73 30.03 0 0 0-31.73-30.03 31.73 30.03 0 0 0-31.73 30.03 31.73 30.03 0 0 0 31.73 30.03 31.73 30.03 0 0 0 31.73-30.03M319.81 289.47c-5.77-11.81 2.73-27.4 17.01-20.2 3.54 1.79 5.06 5.63 8.65 6.97 5.53 2.08 11.88-2.87 11.06-8.67-1.01-7.11-10.5-13.21-16.78-14.83-18.39-4.75-38.09 5.24-40.27 25.26-2.51 23.11 18.06 37.05 39.29 32.49q9.22-1.98 15.32-9.15c5.69-6.69-.12-16-8.53-13.37-2.87.89-4.84 3.77-6.9 5.19-5.64 3.89-15.46 3.24-18.85-3.69M392.01 290.44c2.5.67 5.74 2.13 3.02 5.23q-.31.35-.75.49c-6.17 1.98-12.1.59-17.38-2.84q-3.28-2.13-4.7-2.41c-6.6-1.28-10.84 6.41-7.01 11.4q2.69 3.52 8.74 5.97c12.45 5.04 35.16 5.67 38.57-11.26 5.24-25.91-28.72-20.55-29.59-27.35-.59-4.65 6.39-4.07 8.87-3.65 4.81.81 9.02 6.21 13.51 5.93 3.9-.24 7.14-4.06 6.6-8.01-2.1-15.41-48.54-20.11-45.09 8.57 1.62 13.46 14.69 15.07 25.21 17.93M194.34 260.02c-3.31-11.77-18.95-9.33-18.62 4.24q.28 11.02.16 36.93c-.05 11.27 14.67 13.63 17.93 3.81 3.18-9.61-3.82-27.72 10.68-32.15q3.51-1.07 7.24-.29c13.57 2.84 16.03-19.61-1.74-18.64q-8.37.45-14.86 6.32-.58.52-.79-.22M222.02 178.88l2.45 1.39a.24.24 0 0 0 .33-.09l.08-.15a1.97 1.57-60.6 0 0-.4-2.49l-.14-.08a1.97 1.57-60.6 0 0-2.33.95l-.08.15a.24.24 0 0 0 .09.32M220.09 181.54l.15-1.95a.24.24 0 0 0-.22-.26l-.13-.01a2.95 1.21 4.4 0 0-3.03.98l-.01.02a2.95 1.21 4.4 0 0 2.85 1.44l.13.01a.24.24 0 0 0 .26-.23M213.67 181.08l-1.86.81q-.95.41-.03.87l1.95.99q.55.27.81-.29.56-1.22-.17-2.2-.28-.37-.7-.18M218.29 186.99l.18-2.01a.23.23 0 0 0-.2-.25l-.12-.01a2.93 1.23 5.2 0 0-3.03.96v.02a2.93 1.23 5.2 0 0 2.8 1.49l.12.01a.23.23 0 0 0 .25-.21M209.21 185.87a.64.63-46.3 0 0 .02 1.12l1.77.88q.65.32.88-.37l.37-1.13q.19-.59-.39-.76-1.43-.41-2.65.26M206.51 189.21l-.04-1.68a.34.34 0 0 0-.35-.33h-.19a2.61 1.18-1.6 0 0-2.58 1.25 2.61 1.18-1.6 0 0 2.64 1.11h.19a.34.34 0 0 0 .33-.35M212.66 190.42l2.09 1.57a.26.26 0 0 0 .37-.05l.03-.05a2.42 1.41-53 0 0 .33-2.78l-.25-.19a2.42 1.41-53 0 0-2.59 1.08l-.03.05a.26.26 0 0 0 .05.37M206.87 192.25l2.25 1.33a.27.27 0 0 0 .37-.09l.09-.16a2.19 1.51-59.3 0 0-.18-2.65l-.12-.07a2.19 1.51-59.3 0 0-2.41 1.11l-.09.16a.27.27 0 0 0 .09.37M203.69 194.99l.12-1.65a.49.49 0 0 0-.46-.53l-.15-.01a2.56 1.23 4.1 0 0-2.64 1.05l-.01.18a2.56 1.23 4.1 0 0 2.46 1.41l.15.01a.49.49 0 0 0 .53-.46M251.46 194.81l.07-1.5a.42.42 0 0 0-.4-.43l-.19-.01a2.53 1.13 2.7 0 0-2.58 1.01v.08a2.53 1.13 2.7 0 0 2.47 1.24l.19.01a.42.42 0 0 0 .44-.4M244.96 195.16l.02-1.66a.43.43 0 0 0-.43-.43h-.08a2.91 1.21.5 0 0-2.92 1.19v.1a2.91 1.21.5 0 0 2.9 1.23h.08a.43.43 0 0 0 .43-.43M258.04 195.47l.1-1.88a.24.24 0 0 0-.23-.25l-.14-.01a2.9 1.14 3.1 0 0-2.96.98v.08a2.9 1.14 3.1 0 0 2.83 1.3h.14a.24.24 0 0 0 .26-.22M303.276 194.47a1.27.94-8.6 0 0-1.397-.74 1.27.94-8.6 0 0-1.115 1.12 1.27.94-8.6 0 0 1.397.74 1.27.94-8.6 0 0 1.115-1.12M237.51 196.59a.53.53 0 0 0 .76-.45l.09-1.9a.53.53 0 0 0-.71-.53l-2.34.84a.53.53 0 0 0-.05.98l2.25 1.06M215.2 196.36l.06-1.58a.42.42 0 0 0-.4-.44h-.16a2.86 1.09 2.3 0 0-2.9.97l-.01.24a2.86 1.09 2.3 0 0 2.81 1.2l.16.01a.42.42 0 0 0 .44-.4M263.71 194.11l-2.4.89a.25.25 0 0 0-.15.32l.05.14a2.1 1.48 69.8 0 0 2.11 1.46l.1-.03a2.1 1.48 69.8 0 0 .66-2.49l-.05-.14a.25.25 0 0 0-.32-.15M292.88 197.34l3.52-.36a.46.46 0 0 0 .41-.5l-.01-.1a2.1 2.08-5.9 0 0-2.31-1.86l-.25.03a2.1 2.08-5.9 0 0-1.88 2.29l.01.09a.46.46 0 0 0 .51.41M230.84 198.41a.53.53 0 0 0 .75-.45l.1-1.86a.53.53 0 0 0-.7-.53l-2.36.8a.53.53 0 0 0-.06.98l2.27 1.06M206.74 196.28q-.42.09-.76.29-.62.36 0 .71l2.22 1.24q.81.45.91-.47l.18-1.6q.09-.79-.71-.7-.54.07-1.08.27-.67.25-.76.26M224.35 199.88a.46.46 0 0 0 .66-.37l.16-1.81a.46.46 0 0 0-.57-.49l-2.54.68a.46.46 0 0 0-.08.86l2.37 1.13M203.25 200.05v-1.6a.43.43 0 0 0-.43-.43h-.12a2.93 1.13.1 0 0-2.93 1.13v.2a2.93 1.13.1 0 0 2.93 1.13h.12a.43.43 0 0 0 .43-.43M217.35 201.25a.53.53 0 0 0 .79-.4l.21-1.89a.53.53 0 0 0-.68-.57l-2.34.7a.53.53 0 0 0-.11.97l2.13 1.19M250.41 200.36l.1-1.53a.46.46 0 0 0-.43-.49l-.16-.01a2.58 1.13 3.8 0 0-2.65.95l-.01.2a2.58 1.13 3.8 0 0 2.5 1.3l.16.01a.46.46 0 0 0 .49-.43M243.62 198.66q-1.78-.48-2.73.6-.45.5.13.84l1.92 1.14q.55.33.74-.28l.44-1.39a.72.71 16.6 0 0-.5-.91M256.04 198.38l-2.08.71q-1.15.39-.1 1.01l1.82 1.08q.76.45.99-.39l.4-1.43a.8.8 0 0 0-1.03-.98M237.19 201.52l.09-1.71a.44.44 0 0 0-.42-.46l-.09-.01a2.87 1.21 2.9 0 0-2.92 1.06l-.01.18a2.87 1.21 2.9 0 0 2.8 1.36h.09a.44.44 0 0 0 .46-.42M263.15 201.66l.11-1.61a.43.43 0 0 0-.4-.46l-.08-.01a2.87 1.13 3.9 0 0-2.94.94l-.01.21a2.87 1.13 3.9 0 0 2.78 1.33h.08a.43.43 0 0 0 .46-.4M211.09 200.38l-2.43.59q-.87.21-.22.84 1.02.98 2.37 1.31.71.18.75-.55l.1-1.71q.04-.63-.57-.48M267.92 200.58l-1.78.71q-.87.35-.05.8l2.02 1.12q.39.21.66-.13.73-.91.42-1.9a.96.95-19.4 0 0-1.27-.6M229.59 204.3a.54.54 0 0 0 .81-.42l.19-2.05a.54.54 0 0 0-.73-.55l-2.23.83a.54.54 0 0 0-.08.97l2.04 1.22M202.62 204.12l2.19 1.19q.66.36.75-.39l.22-1.78q.1-.83-.72-.69l-2.22.37a.7.7 0 0 0-.22 1.3M223.19 202.65l-2.3.82q-.97.35-.06.84l2.02 1.08q.64.34.9-.34l.49-1.33a.83.83 0 0 0-1.05-1.07M217.25 205.51v-1.58a.44.44 0 0 0-.44-.44h-.11a2.93 1.14.1 0 0-2.93 1.14v.18a2.93 1.14.1 0 0 2.93 1.14h.11a.44.44 0 0 0 .44-.44M242.28 203.51l-2.03.71q-.58.21-.19.69.96 1.22 2.54 1.38.67.07.61-.61l-.14-1.66q-.06-.76-.79-.51M249.41 205.9l.13-1.58a.46.46 0 0 0-.42-.49l-.17-.02a2.59 1.13 4.6 0 0-2.68.92l-.01.24a2.59 1.13 4.6 0 0 2.49 1.33l.17.02a.46.46 0 0 0 .49-.42M254.97 206.52a.47.47 0 0 0 .7-.33l.31-1.94a.47.47 0 0 0-.56-.54l-2.66.57a.47.47 0 0 0-.14.87l2.35 1.37M261.15 207.19a.53.53 0 0 0 .76-.44l.12-1.91a.53.53 0 0 0-.7-.54l-2.37.81a.53.53 0 0 0-.07.97l2.26 1.11M235.46 207.56a.47.47 0 0 0 .69-.36l.2-2.07a.47.47 0 0 0-.62-.49l-2.42.82a.47.47 0 0 0-.08.85l2.23 1.25M210.2 208.42l.1-1.62a.44.44 0 0 0-.41-.47h-.11a2.93 1.14 3.6 0 0-3 .95l-.01.22a2.93 1.14 3.6 0 0 2.85 1.32l.11.01a.44.44 0 0 0 .47-.41M229.18 209.26c1.86-3.49-1.51-2.17-2.74-1.54q-1.04.52.03.99l1.88.83q.55.24.83-.28M219.72 208.63q-.68.22-.2.76 1.01 1.13 2.53 1.13.65 0 .65-.64v-1.55q0-.67-.64-.46l-2.34.76M212.66 210.22l2.22 1.28a.27.27 0 0 0 .37-.1l.08-.16a2.13 1.47-60.1 0 0-.21-2.58l-.14-.08a2.13 1.47-60.1 0 0-2.33 1.12l-.09.15a.27.27 0 0 0 .1.37" vector-effect="non-scaling-stroke"/><path stroke="#818181" d="M258.074 296.06a14.43 13.05 90.3 0 0 13.126-14.362 14.43 13.05 90.3 0 0-12.974-14.498 14.43 13.05 90.3 0 0-13.126 14.362 14.43 13.05 90.3 0 0 12.974 14.498" vector-effect="non-scaling-stroke"/></g><path fill="#fff" d="M0 0h525v500H0V0Zm300.5 207.21q-1.06-.39-1.25-1.42 2.72-1.18 5.12.05.61.31.78-.35l.46-1.71q.16-.6.69-.28l1.68 1.02q.54.33.79-.26l.8-1.91q.17-.39.54-.19l1.61.86q.62.33.88-.32l.72-1.82q.23-.57.7-.17l1.3 1.12q.63.54.91-.25l.67-1.96q.22-.64.8-.29l1.54.95q.55.33.77-.28l.67-1.82q.21-.55.72-.27l1.51.81q.61.33.87-.31l.75-1.79q.23-.56.71-.18l1.12.89q.43.35.78-.09l2.76-3.48q.35-.44.11-.96c-1.75-3.64-4.69-2.63-8.47-1.83q-8.02 1.7-16.03 3.74-.49.12-.82-.24l-2.01-2.19q-.49-.53-1.18-.3-4.25 1.41-8.39-.28-.56-.23-1.11.03l-6.7 3.05q-.51.23-1.06.16c-2.53-.31-3.82-.39-6.45.54q-2.27.81-3.76.28-23.26-8.28-46.5-.9c-2.33.74-10.1 2.47-10.29-1.48q-.02-.51.35-.86 3.47-3.34 8.14-4.83c14.94-4.76 29.76-6.81 42.8-16.21 2.46-1.77 8.13-7.73 6.84-10.97q-.29-.71-.73-.08l-1.28 1.88q-.3.44-.83.43-2.59-.04-4.27 1.89-.35.41-.85.22-2.65-1-3.91 1.3-.31.57-.9.28l-1.81-.91q-.58-.3-1.05.15l-1.91 1.83q-.43.42-1.02.26l-2.08-.55q-.57-.15-1.06.17l-2.71 1.81q-.44.29-.88.01l-1.34-.85q-.51-.32-.97.08l-3.07 2.7q-.51.45-.95-.06l-1.51-1.72q-.4-.45-.87-.08l-3.38 2.59a1.08 1.08 0 0 1-1.52-.22l-.99-1.34q-.44-.59-1.03-.14l-3.44 2.67q-.44.35-.84-.06l-1.43-1.48q-.46-.47-.96-.05l-3.03 2.5q-.38.32-.81.08l-1.53-.85q-.48-.27-.9.09l-2.92 2.54q-.47.41-1.04.17l-1.64-.68q-.64-.27-1.09.24l-3.22 3.61q-.35.39-.83.18l-1.07-.46q-.55-.24-.93.24l-3.47 4.31q-.32.4-.83.27l-.99-.25q-.48-.11-.81.24c-10.01 10.65-12.31 25.94-7.73 39.56a1.06 1.06 0 0 0 1.76.4c.96-.97 2.15-3.92 3.24-4.41a.46.46 0 0 1 .62.56c-2.27 6.84-5.81 12.18 1.55 17.9a.79.79 0 0 0 1.27-.67q-.1-1.58 1.39-1.6.45-.01.78.29 1.03.96 2.44 1.03.6.03.8-.55l.82-2.43q.25-.72.93-.39l2.02.96q.33.16.56-.13c3.02-3.93 1.68-10.21-4.61-8.79q-.78.18-.57-.59c1.49-5.45 4.16-12.01-4.71-12.49a.35.34 40.1 0 1-.06-.68c8.02-1.8 9.05 5.79 7.31 11.39a.56.55 5.1 0 0 .6.71q3.92-.5 5.2 3.02.18.51.71.64c3.89.94 12.24 2.45 15.78.47q.44-.25.67-.71 3.72-7.39 12.08-8.55.65-.09 1.02.25a.51.5-27.3 0 1-.28.87c-4.73.57-10.24 3.92-10.04 9.17q.12 3.22 3.45 4.8.51.24.73.76l2.46 5.84a.96.96 0 0 0 1.58.29l2.3-2.43q.41-.43.84-.01l1.1 1.11q.98.98 1.63-.24l1.29-2.41q.44-.83.94-.03 1.06 1.72 2.62 1.17.45-.16.63-.6l.87-2.12q.34-.82.91-.14.42.51 1.08.76a1.51 1.5 11.2 0 0 2.05-1.37c.1-4.89-6.83-6.77-10.8-7.62a.48.48 0 0 1-.37-.59l.09-.34q.1-.42.53-.34 20.09 3.73 38.99-3.67.5-.19 1.03-.11c6.72 1.04 35.9 4.36 40.69-2.56q.28-.42 0-.83-2.08-3-5.41-2.4-.58.11-.66-.47l-.06-.46q-.1-.75-.82-.5l-1.42.49q-.56.19-.76-.37l-.25-.68q-.23-.62-.87-.44l-1.46.41q-.48.13-.71-.31l-.46-.88q-.38-.72-1.09-.33-1.89 1.05-2.39-.84-.14-.56-.66-.31l-1.12.55q-.71.35-1.05-.36l-.44-.91q-.27-.58-.87-.35c-3.49 1.36-6.82-1.12-9.86-2.65Zm-172.11 79.53c-4.75-14.96 11.28-26.57 22.31-13.83 8.95 10.33 22.06-2.22 11.28-12.64-11.98-11.59-31.22-11.34-43.19-.97-11.09 9.61-12.92 26.48-5.07 38.63 10.73 16.6 39.07 18.54 50.97 2.25 4.99-6.83-2.35-14.83-10.1-11.96-1.67.62-3.07 2.23-4.44 3.42-7.49 6.55-18.59 5.06-21.76-4.9Zm161.5-5.2a31.73 30.03 0 0 0-31.73-30.03 31.73 30.03 0 0 0-31.73 30.03 31.73 30.03 0 0 0 31.73 30.03 31.73 30.03 0 0 0 31.73-30.03Zm29.92 7.93c-5.77-11.81 2.73-27.4 17.01-20.2 3.54 1.79 5.06 5.63 8.65 6.97 5.53 2.08 11.88-2.87 11.06-8.67-1.01-7.11-10.5-13.21-16.78-14.83-18.39-4.75-38.09 5.24-40.27 25.26-2.51 23.11 18.06 37.05 39.29 32.49q9.22-1.98 15.32-9.15c5.69-6.69-.12-16-8.53-13.37-2.87.89-4.84 3.77-6.9 5.19-5.64 3.89-15.46 3.24-18.85-3.69Zm72.2.97c2.5.67 5.74 2.13 3.02 5.23q-.31.35-.75.49c-6.17 1.98-12.1.59-17.38-2.84q-3.28-2.13-4.7-2.41c-6.6-1.28-10.84 6.41-7.01 11.4q2.69 3.52 8.74 5.97c12.45 5.04 35.16 5.67 38.57-11.26 5.24-25.91-28.72-20.55-29.59-27.35-.59-4.65 6.39-4.07 8.87-3.65 4.81.81 9.02 6.21 13.51 5.93 3.9-.24 7.14-4.06 6.6-8.01-2.1-15.41-48.54-20.11-45.09 8.57 1.62 13.46 14.69 15.07 25.21 17.93Zm-197.67-30.42c-3.31-11.77-18.95-9.33-18.62 4.24q.28 11.02.16 36.93c-.05 11.27 14.67 13.63 17.93 3.81 3.18-9.61-3.82-27.72 10.68-32.15q3.51-1.07 7.24-.29c13.57 2.84 16.03-19.61-1.74-18.64q-8.37.45-14.86 6.32-.58.52-.79-.22Z"/><path fill="#020202" d="M299.25 205.79q-4.11-1.75-8.5-1.89c-3.51-.12-6.26 1.98-9.24 3.64q-.42.23-.87.08l-2.95-1.04q-.48-.18-.19.24c2.94 4.14 6.38-.82 9.65-1.09 6.31-.52 9.3 12.31 15.9 8q.5-.33 1 .02l1.82 1.29q.44.31.91.07l1.05-.53q.75-.38.88.45.13.84 1.27 1.29.6.23 1.05-.22l.4-.4q.43-.44.85.01l1.34 1.41q.39.42.84.05 1.77-1.51 2.84.73.27.57.87.37 1.97-.64 3.78.24.41.2.54-.24c.17-.61-14.71-4.69-16.25-5.04q-4.21-.97-6.33-4.83-.27-.49.07-.92.19-.25.52-.27c3.04 1.53 6.37 4.01 9.86 2.65q.6-.23.87.35l.44.91q.34.71 1.05.36l1.12-.55q.52-.25.66.31.5 1.89 2.39.84.71-.39 1.09.33l.46.88q.23.44.71.31l1.46-.41q.64-.18.87.44l.25.68q.2.56.76.37l1.42-.49q.72-.25.82.5l.06.46q.08.58.66.47 3.33-.6 5.41 2.4.28.41 0 .83c-4.79 6.92-33.97 3.6-40.69 2.56q-.53-.08-1.03.11-18.9 7.4-38.99 3.67-.43-.08-.53.34l-.09.34a.48.48 0 0 0 .37.59c3.97.85 10.9 2.73 10.8 7.62a1.51 1.5 11.2 0 1-2.05 1.37q-.66-.25-1.08-.76-.57-.68-.91.14l-.87 2.12q-.18.44-.63.6-1.56.55-2.62-1.17-.5-.8-.94.03l-1.29 2.41q-.65 1.22-1.63.24l-1.1-1.11q-.43-.42-.84.01l-2.3 2.43a.96.96 0 0 1-1.58-.29l-2.46-5.84q-.22-.52-.73-.76-3.33-1.58-3.45-4.8c-.2-5.25 5.31-8.6 10.04-9.17a.51.5-27.3 0 0 .28-.87q-.37-.34-1.02-.25-8.36 1.16-12.08 8.55-.23.46-.67.71c-3.54 1.98-11.89.47-15.78-.47q-.53-.13-.71-.64-1.28-3.52-5.2-3.02a.56.55 5.1 0 1-.6-.71c1.74-5.6.71-13.19-7.31-11.39a.35.34 40.1 0 0 .06.68c8.87.48 6.2 7.04 4.71 12.49q-.21.77.57.59c6.29-1.42 7.63 4.86 4.61 8.79q-.23.29-.56.13l-2.02-.96q-.68-.33-.93.39l-.82 2.43q-.2.58-.8.55-1.41-.07-2.44-1.03-.33-.3-.78-.29-1.49.02-1.39 1.6a.79.79 0 0 1-1.27.67c-7.36-5.72-3.82-11.06-1.55-17.9a.46.46 0 0 0-.62-.56c-1.09.49-2.28 3.44-3.24 4.41a1.06 1.06 0 0 1-1.76-.4c-4.58-13.62-2.28-28.91 7.73-39.56q.33-.35.81-.24l.99.25q.51.13.83-.27l3.47-4.31q.38-.48.93-.24l1.07.46q.48.21.83-.18l3.22-3.61q.45-.51 1.09-.24l1.64.68q.57.24 1.04-.17l2.92-2.54q.42-.36.9-.09l1.53.85q.43.24.81-.08l3.03-2.5q.5-.42.96.05l1.43 1.48q.4.41.84.06l3.44-2.67q.59-.45 1.03.14l.99 1.34a1.08 1.08 0 0 0 1.52.22l3.38-2.59q.47-.37.87.08l1.51 1.72q.44.51.95.06l3.07-2.7q.46-.4.97-.08l1.34.85q.44.28.88-.01l2.71-1.81q.49-.32 1.06-.17l2.08.55q.59.16 1.02-.26l1.91-1.83q.47-.45 1.05-.15l1.81.91q.59.29.9-.28 1.26-2.3 3.91-1.3.5.19.85-.22 1.68-1.93 4.27-1.89.53.01.83-.43l1.28-1.88q.44-.63.73.08c1.29 3.24-4.38 9.2-6.84 10.97-13.04 9.4-27.86 11.45-42.8 16.21q-4.67 1.49-8.14 4.83-.37.35-.35.86c.19 3.95 7.96 2.22 10.29 1.48q23.24-7.38 46.5.9 1.49.53 3.76-.28c2.63-.93 3.92-.85 6.45-.54q.55.07 1.06-.16l6.7-3.05q.55-.26 1.11-.03 4.14 1.69 8.39.28.69-.23 1.18.3l2.01 2.19q.33.36.82.24 8.01-2.04 16.03-3.74c3.78-.8 6.72-1.81 8.47 1.83q.24.52-.11.96l-2.76 3.48q-.35.44-.78.09l-1.12-.89q-.48-.38-.71.18l-.75 1.79q-.26.64-.87.31l-1.51-.81q-.51-.28-.72.27l-.67 1.82q-.22.61-.77.28l-1.54-.95q-.58-.35-.8.29l-.67 1.96q-.28.79-.91.25l-1.3-1.12q-.47-.4-.7.17l-.72 1.82q-.26.65-.88.32l-1.61-.86q-.37-.2-.54.19l-.8 1.91q-.25.59-.79.26l-1.68-1.02q-.53-.32-.69.28l-.46 1.71q-.17.66-.78.35-2.4-1.23-5.12-.05Zm-77.23-26.91 2.45 1.39a.24.24 0 0 0 .33-.09l.08-.15a1.97 1.57-60.6 0 0-.4-2.49l-.14-.08a1.97 1.57-60.6 0 0-2.33.95l-.08.15a.24.24 0 0 0 .09.32Zm-1.93 2.66.15-1.95a.24.24 0 0 0-.22-.26l-.13-.01a2.95 1.21 4.4 0 0-3.03.98l-.01.02a2.95 1.21 4.4 0 0 2.85 1.44l.13.01a.24.24 0 0 0 .26-.23Zm-6.42-.46-1.86.81q-.95.41-.03.87l1.95.99q.55.27.81-.29.56-1.22-.17-2.2-.28-.37-.7-.18Zm4.62 5.91.18-2.01a.23.23 0 0 0-.2-.25l-.12-.01a2.93 1.23 5.2 0 0-3.03.96v.02a2.93 1.23 5.2 0 0 2.8 1.49l.12.01a.23.23 0 0 0 .25-.21Zm-9.08-1.12a.64.63-46.3 0 0 .02 1.12l1.77.88q.65.32.88-.37l.37-1.13q.19-.59-.39-.76-1.43-.41-2.65.26Zm-2.7 3.34-.04-1.68a.34.34 0 0 0-.35-.33h-.19a2.61 1.18-1.6 0 0-2.58 1.25 2.61 1.18-1.6 0 0 2.64 1.11h.19a.34.34 0 0 0 .33-.35Zm6.15 1.21 2.09 1.57a.26.26 0 0 0 .37-.05l.03-.05a2.42 1.41-53 0 0 .33-2.78l-.25-.19a2.42 1.41-53 0 0-2.59 1.08l-.03.05a.26.26 0 0 0 .05.37Zm-5.79 1.83 2.25 1.33a.27.27 0 0 0 .37-.09l.09-.16a2.19 1.51-59.3 0 0-.18-2.65l-.12-.07a2.19 1.51-59.3 0 0-2.41 1.11l-.09.16a.27.27 0 0 0 .09.37Zm-3.18 2.74.12-1.65a.49.49 0 0 0-.46-.53l-.15-.01a2.56 1.23 4.1 0 0-2.64 1.05l-.01.18a2.56 1.23 4.1 0 0 2.46 1.41l.15.01a.49.49 0 0 0 .53-.46Zm47.77-.18.07-1.5a.42.42 0 0 0-.4-.43l-.19-.01a2.53 1.13 2.7 0 0-2.58 1.01v.08a2.53 1.13 2.7 0 0 2.47 1.24l.19.01a.42.42 0 0 0 .44-.4Zm-6.5.35.02-1.66a.43.43 0 0 0-.43-.43h-.08a2.91 1.21.5 0 0-2.92 1.19v.1a2.91 1.21.5 0 0 2.9 1.23h.08a.43.43 0 0 0 .43-.43Zm13.08.31.1-1.88a.24.24 0 0 0-.23-.25l-.14-.01a2.9 1.14 3.1 0 0-2.96.98v.08a2.9 1.14 3.1 0 0 2.83 1.3h.14a.24.24 0 0 0 .26-.22Zm45.236-1a1.27.94-8.6 0 0-1.397-.74 1.27.94-8.6 0 0-1.115 1.12 1.27.94-8.6 0 0 1.397.74 1.27.94-8.6 0 0 1.115-1.12Zm-65.766 2.12a.53.53 0 0 0 .76-.45l.09-1.9a.53.53 0 0 0-.71-.53l-2.34.84a.53.53 0 0 0-.05.98l2.25 1.06Zm-22.31-.23.06-1.58a.42.42 0 0 0-.4-.44h-.16a2.86 1.09 2.3 0 0-2.9.97l-.01.24a2.86 1.09 2.3 0 0 2.81 1.2l.16.01a.42.42 0 0 0 .44-.4Zm48.51-2.25-2.4.89a.25.25 0 0 0-.15.32l.05.14a2.1 1.48 69.8 0 0 2.11 1.46l.1-.03a2.1 1.48 69.8 0 0 .66-2.49l-.05-.14a.25.25 0 0 0-.32-.15Zm29.17 3.23 3.52-.36a.46.46 0 0 0 .41-.5l-.01-.1a2.1 2.08-5.9 0 0-2.31-1.86l-.25.03a2.1 2.08-5.9 0 0-1.88 2.29l.01.09a.46.46 0 0 0 .51.41Zm-62.04 1.07a.53.53 0 0 0 .75-.45l.1-1.86a.53.53 0 0 0-.7-.53l-2.36.8a.53.53 0 0 0-.06.98l2.27 1.06Zm-24.1-2.13q-.42.09-.76.29-.62.36 0 .71l2.22 1.24q.81.45.91-.47l.18-1.6q.09-.79-.71-.7-.54.07-1.08.27-.67.25-.76.26Zm17.61 3.6a.46.46 0 0 0 .66-.37l.16-1.81a.46.46 0 0 0-.57-.49l-2.54.68a.46.46 0 0 0-.08.86l2.37 1.13Zm-21.1.17v-1.6a.43.43 0 0 0-.43-.43h-.12a2.93 1.13.1 0 0-2.93 1.13v.2a2.93 1.13.1 0 0 2.93 1.13h.12a.43.43 0 0 0 .43-.43Zm14.1 1.2a.53.53 0 0 0 .79-.4l.21-1.89a.53.53 0 0 0-.68-.57l-2.34.7a.53.53 0 0 0-.11.97l2.13 1.19Zm33.06-.89.1-1.53a.46.46 0 0 0-.43-.49l-.16-.01a2.58 1.13 3.8 0 0-2.65.95l-.01.2a2.58 1.13 3.8 0 0 2.5 1.3l.16.01a.46.46 0 0 0 .49-.43Zm-6.79-1.7q-1.78-.48-2.73.6-.45.5.13.84l1.92 1.14q.55.33.74-.28l.44-1.39a.72.71 16.6 0 0-.5-.91Zm12.42-.28-2.08.71q-1.15.39-.1 1.01l1.82 1.08q.76.45.99-.39l.4-1.43a.8.8 0 0 0-1.03-.98Zm-18.85 3.14.09-1.71a.44.44 0 0 0-.42-.46l-.09-.01a2.87 1.21 2.9 0 0-2.92 1.06l-.01.18a2.87 1.21 2.9 0 0 2.8 1.36h.09a.44.44 0 0 0 .46-.42Zm25.96.14.11-1.61a.43.43 0 0 0-.4-.46l-.08-.01a2.87 1.13 3.9 0 0-2.94.94l-.01.21a2.87 1.13 3.9 0 0 2.78 1.33h.08a.43.43 0 0 0 .46-.4Zm-52.06-1.28-2.43.59q-.87.21-.22.84 1.02.98 2.37 1.31.71.18.75-.55l.1-1.71q.04-.63-.57-.48Zm56.83.2-1.78.71q-.87.35-.05.8l2.02 1.12q.39.21.66-.13.73-.91.42-1.9a.96.95-19.4 0 0-1.27-.6Zm-38.33 3.72a.54.54 0 0 0 .81-.42l.19-2.05a.54.54 0 0 0-.73-.55l-2.23.83a.54.54 0 0 0-.08.97l2.04 1.22Zm-26.97-.18 2.19 1.19q.66.36.75-.39l.22-1.78q.1-.83-.72-.69l-2.22.37a.7.7 0 0 0-.22 1.3Zm20.57-1.47-2.3.82q-.97.35-.06.84l2.02 1.08q.64.34.9-.34l.49-1.33a.83.83 0 0 0-1.05-1.07Zm-5.94 2.86v-1.58a.44.44 0 0 0-.44-.44h-.11a2.93 1.14.1 0 0-2.93 1.14v.18a2.93 1.14.1 0 0 2.93 1.14h.11a.44.44 0 0 0 .44-.44Zm25.03-2-2.03.71q-.58.21-.19.69.96 1.22 2.54 1.38.67.07.61-.61l-.14-1.66q-.06-.76-.79-.51Zm7.13 2.39.13-1.58a.46.46 0 0 0-.42-.49l-.17-.02a2.59 1.13 4.6 0 0-2.68.92l-.01.24a2.59 1.13 4.6 0 0 2.49 1.33l.17.02a.46.46 0 0 0 .49-.42Zm5.56.62a.47.47 0 0 0 .7-.33l.31-1.94a.47.47 0 0 0-.56-.54l-2.66.57a.47.47 0 0 0-.14.87l2.35 1.37Zm6.18.67a.53.53 0 0 0 .76-.44l.12-1.91a.53.53 0 0 0-.7-.54l-2.37.81a.53.53 0 0 0-.07.97l2.26 1.11Zm-25.69.37a.47.47 0 0 0 .69-.36l.2-2.07a.47.47 0 0 0-.62-.49l-2.42.82a.47.47 0 0 0-.08.85l2.23 1.25Zm-25.26.86.1-1.62a.44.44 0 0 0-.41-.47h-.11a2.93 1.14 3.6 0 0-3 .95l-.01.22a2.93 1.14 3.6 0 0 2.85 1.32l.11.01a.44.44 0 0 0 .47-.41Zm18.98.84c1.86-3.49-1.51-2.17-2.74-1.54q-1.04.52.03.99l1.88.83q.55.24.83-.28Zm-9.46-.63q-.68.22-.2.76 1.01 1.13 2.53 1.13.65 0 .65-.64v-1.55q0-.67-.64-.46l-2.34.76Zm-7.06 1.59 2.22 1.28a.27.27 0 0 0 .37-.1l.08-.16a2.13 1.47-60.1 0 0-.21-2.58l-.14-.08a2.13 1.47-60.1 0 0-2.33 1.12l-.09.15a.27.27 0 0 0 .1.37Z"/><path fill="#fff" d="M222.02 178.88a.24.24 0 0 1-.09-.32l.08-.15a1.97 1.57-60.6 0 1 2.33-.95l.14.08a1.97 1.57-60.6 0 1 .4 2.49l-.08.15a.24.24 0 0 1-.33.09l-2.45-1.39ZM220.09 181.54a.24.24 0 0 1-.26.23l-.13-.01a2.95 1.21 4.4 0 1-2.85-1.44l.01-.02a2.95 1.21 4.4 0 1 3.03-.98l.13.01a.24.24 0 0 1 .22.26l-.15 1.95ZM213.67 181.08q.42-.19.7.18.73.98.17 2.2-.26.56-.81.29l-1.95-.99q-.92-.46.03-.87l1.86-.81ZM218.29 186.99a.23.23 0 0 1-.25.21l-.12-.01a2.93 1.23 5.2 0 1-2.8-1.49v-.02a2.93 1.23 5.2 0 1 3.03-.96l.12.01a.23.23 0 0 1 .2.25l-.18 2.01ZM209.21 185.87q1.22-.67 2.65-.26.58.17.39.76l-.37 1.13q-.23.69-.88.37l-1.77-.88a.64.63-46.3 0 1-.02-1.12ZM206.51 189.21a.34.34 0 0 1-.33.35h-.19a2.61 1.18-1.6 0 1-2.64-1.11 2.61 1.18-1.6 0 1 2.58-1.25h.19a.34.34 0 0 1 .35.33l.04 1.68ZM212.66 190.42a.26.26 0 0 1-.05-.37l.03-.05a2.42 1.41-53 0 1 2.59-1.08l.25.19a2.42 1.41-53 0 1-.33 2.78l-.03.05a.26.26 0 0 1-.37.05l-2.09-1.57ZM206.87 192.25a.27.27 0 0 1-.09-.37l.09-.16a2.19 1.51-59.3 0 1 2.41-1.11l.12.07a2.19 1.51-59.3 0 1 .18 2.65l-.09.16a.27.27 0 0 1-.37.09l-2.25-1.33ZM203.69 194.99a.49.49 0 0 1-.53.46l-.15-.01a2.56 1.23 4.1 0 1-2.46-1.41l.01-.18a2.56 1.23 4.1 0 1 2.64-1.05l.15.01a.49.49 0 0 1 .46.53l-.12 1.65ZM251.46 194.81a.42.42 0 0 1-.44.4l-.19-.01a2.53 1.13 2.7 0 1-2.47-1.24v-.08a2.53 1.13 2.7 0 1 2.58-1.01l.19.01a.42.42 0 0 1 .4.43l-.07 1.5ZM244.96 195.16a.43.43 0 0 1-.43.43h-.08a2.91 1.21.5 0 1-2.9-1.23v-.1a2.91 1.21.5 0 1 2.92-1.19h.08a.43.43 0 0 1 .43.43l-.02 1.66ZM258.04 195.47a.24.24 0 0 1-.26.22h-.14a2.9 1.14 3.1 0 1-2.83-1.3v-.08a2.9 1.14 3.1 0 1 2.96-.98l.14.01a.24.24 0 0 1 .23.25l-.1 1.88Z"/><ellipse fill="#fff" rx="1.27" ry=".94" transform="rotate(-8.6 1445.458 -1911.039)"/><path fill="#fff" d="m237.51 196.59-2.25-1.06a.53.53 0 0 1 .05-.98l2.34-.84a.53.53 0 0 1 .71.53l-.09 1.9a.53.53 0 0 1-.76.45ZM215.2 196.36a.42.42 0 0 1-.44.4l-.16-.01a2.86 1.09 2.3 0 1-2.81-1.2l.01-.24a2.86 1.09 2.3 0 1 2.9-.97h.16a.42.42 0 0 1 .4.44l-.06 1.58ZM263.71 194.11a.25.25 0 0 1 .32.15l.05.14a2.1 1.48 69.8 0 1-.66 2.49l-.1.03a2.1 1.48 69.8 0 1-2.11-1.46l-.05-.14a.25.25 0 0 1 .15-.32l2.4-.89ZM292.88 197.34a.46.46 0 0 1-.51-.41l-.01-.09a2.1 2.08-5.9 0 1 1.88-2.29l.25-.03a2.1 2.08-5.9 0 1 2.31 1.86l.01.1a.46.46 0 0 1-.41.5l-3.52.36ZM230.84 198.41l-2.27-1.06a.53.53 0 0 1 .06-.98l2.36-.8a.53.53 0 0 1 .7.53l-.1 1.86a.53.53 0 0 1-.75.45ZM207.5 196.02q.54-.2 1.08-.27.8-.09.71.7l-.18 1.6q-.1.92-.91.47l-2.22-1.24q-.62-.35 0-.71.34-.2.76-.29.09-.01.76-.26ZM224.35 199.88l-2.37-1.13a.46.46 0 0 1 .08-.86l2.54-.68a.46.46 0 0 1 .57.49l-.16 1.81a.46.46 0 0 1-.66.37ZM203.25 200.05a.43.43 0 0 1-.43.43h-.12a2.93 1.13.1 0 1-2.93-1.13v-.2a2.93 1.13.1 0 1 2.93-1.13h.12a.43.43 0 0 1 .43.43v1.6ZM217.35 201.25l-2.13-1.19a.53.53 0 0 1 .11-.97l2.34-.7a.53.53 0 0 1 .68.57l-.21 1.89a.53.53 0 0 1-.79.4ZM250.41 200.36a.46.46 0 0 1-.49.43l-.16-.01a2.58 1.13 3.8 0 1-2.5-1.3l.01-.2a2.58 1.13 3.8 0 1 2.65-.95l.16.01a.46.46 0 0 1 .43.49l-.1 1.53ZM243.62 198.66a.72.71 16.6 0 1 .5.91l-.44 1.39q-.19.61-.74.28l-1.92-1.14q-.58-.34-.13-.84.95-1.08 2.73-.6ZM256.04 198.38a.8.8 0 0 1 1.03.98l-.4 1.43q-.23.84-.99.39l-1.82-1.08q-1.05-.62.1-1.01l2.08-.71ZM237.19 201.52a.44.44 0 0 1-.46.42h-.09a2.87 1.21 2.9 0 1-2.8-1.36l.01-.18a2.87 1.21 2.9 0 1 2.92-1.06l.09.01a.44.44 0 0 1 .42.46l-.09 1.71ZM263.15 201.66a.43.43 0 0 1-.46.4h-.08a2.87 1.13 3.9 0 1-2.78-1.33l.01-.21a2.87 1.13 3.9 0 1 2.94-.94l.08.01a.43.43 0 0 1 .4.46l-.11 1.61ZM211.09 200.38q.61-.15.57.48l-.1 1.71q-.04.73-.75.55-1.35-.33-2.37-1.31-.65-.63.22-.84l2.43-.59ZM267.92 200.58a.96.95-19.4 0 1 1.27.6q.31.99-.42 1.9-.27.34-.66.13l-2.02-1.12q-.82-.45.05-.8l1.78-.71ZM229.59 204.3l-2.04-1.22a.54.54 0 0 1 .08-.97l2.23-.83a.54.54 0 0 1 .73.55l-.19 2.05a.54.54 0 0 1-.81.42ZM202.62 204.12a.7.7 0 0 1 .22-1.3l2.22-.37q.82-.14.72.69l-.22 1.78q-.09.75-.75.39l-2.19-1.19ZM223.19 202.65a.83.83 0 0 1 1.05 1.07l-.49 1.33q-.26.68-.9.34l-2.02-1.08q-.91-.49.06-.84l2.3-.82ZM217.25 205.51a.44.44 0 0 1-.44.44h-.11a2.93 1.14.1 0 1-2.93-1.14v-.18a2.93 1.14.1 0 1 2.93-1.14h.11a.44.44 0 0 1 .44.44v1.58ZM242.28 203.51q.73-.25.79.51l.14 1.66q.06.68-.61.61-1.58-.16-2.54-1.38-.39-.48.19-.69l2.03-.71ZM249.41 205.9a.46.46 0 0 1-.49.42l-.17-.02a2.59 1.13 4.6 0 1-2.49-1.33l.01-.24a2.59 1.13 4.6 0 1 2.68-.92l.17.02a.46.46 0 0 1 .42.49l-.13 1.58ZM254.97 206.52l-2.35-1.37a.47.47 0 0 1 .14-.87l2.66-.57a.47.47 0 0 1 .56.54l-.31 1.94a.47.47 0 0 1-.7.33Z"/><path fill="#545454" d="M299.25 205.79q.19 1.03 1.25 1.42-.33.02-.52.27-.34.43-.07.92 2.12 3.86 6.33 4.83c1.54.35 16.42 4.43 16.25 5.04q-.13.44-.54.24-1.81-.88-3.78-.24-.6.2-.87-.37-1.07-2.24-2.84-.73-.45.37-.84-.05l-1.34-1.41q-.42-.45-.85-.01l-.4.4q-.45.45-1.05.22-1.14-.45-1.27-1.29-.13-.83-.88-.45l-1.05.53q-.47.24-.91-.07l-1.82-1.29q-.5-.35-1-.02c-6.6 4.31-9.59-8.52-15.9-8-3.27.27-6.71 5.23-9.65 1.09q-.29-.42.19-.24l2.95 1.04q.45.15.87-.08c2.98-1.66 5.73-3.76 9.24-3.64q4.39.14 8.5 1.89Z"/><path fill="#fff" d="m261.15 207.19-2.26-1.11a.53.53 0 0 1 .07-.97l2.37-.81a.53.53 0 0 1 .7.54l-.12 1.91a.53.53 0 0 1-.76.44ZM235.46 207.56l-2.23-1.25a.47.47 0 0 1 .08-.85l2.42-.82a.47.47 0 0 1 .62.49l-.2 2.07a.47.47 0 0 1-.69.36ZM210.2 208.42a.44.44 0 0 1-.47.41l-.11-.01a2.93 1.14 3.6 0 1-2.85-1.32l.01-.22a2.93 1.14 3.6 0 1 3-.95h.11a.44.44 0 0 1 .41.47l-.1 1.62ZM226.44 207.72c1.23-.63 4.6-1.95 2.74 1.54q-.28.52-.83.28l-1.88-.83q-1.07-.47-.03-.99ZM219.72 208.63l2.34-.76q.64-.21.64.46v1.55q0 .64-.65.64-1.52 0-2.53-1.13-.48-.54.2-.76ZM212.66 210.22a.27.27 0 0 1-.1-.37l.09-.15a2.13 1.47-60.1 0 1 2.33-1.12l.14.08a2.13 1.47-60.1 0 1 .21 2.58l-.08.16a.27.27 0 0 1-.37.1l-2.22-1.28Z"/><path fill="#020202" d="M150.7 272.91c-11.03-12.74-27.06-1.13-22.31 13.83 3.17 9.96 14.27 11.45 21.76 4.9 1.37-1.19 2.77-2.8 4.44-3.42 7.75-2.87 15.09 5.13 10.1 11.96-11.9 16.29-40.24 14.35-50.97-2.25-7.85-12.15-6.02-29.02 5.07-38.63 11.97-10.37 31.21-10.62 43.19.97 10.78 10.42-2.33 22.97-11.28 12.64ZM289.89 281.54a31.73 30.03 0 0 1-31.73 30.03 31.73 30.03 0 0 1-31.73-30.03 31.73 30.03 0 0 1 31.73-30.03 31.73 30.03 0 0 1 31.73 30.03Zm-31.816 14.52a14.43 13.05 90.3 0 0 13.126-14.362 14.43 13.05 90.3 0 0-12.974-14.498 14.43 13.05 90.3 0 0-13.126 14.362 14.43 13.05 90.3 0 0 12.974 14.498ZM336.82 269.27c-14.28-7.2-22.78 8.39-17.01 20.2 3.39 6.93 13.21 7.58 18.85 3.69 2.06-1.42 4.03-4.3 6.9-5.19 8.41-2.63 14.22 6.68 8.53 13.37q-6.1 7.17-15.32 9.15c-21.23 4.56-41.8-9.38-39.29-32.49 2.18-20.02 21.88-30.01 40.27-25.26 6.28 1.62 15.77 7.72 16.78 14.83.82 5.8-5.53 10.75-11.06 8.67-3.59-1.34-5.11-5.18-8.65-6.97ZM395.03 295.67c2.72-3.1-.52-4.56-3.02-5.23-10.52-2.86-23.59-4.47-25.21-17.93-3.45-28.68 42.99-23.98 45.09-8.57.54 3.95-2.7 7.77-6.6 8.01-4.49.28-8.7-5.12-13.51-5.93-2.48-.42-9.46-1-8.87 3.65.87 6.8 34.83 1.44 29.59 27.35-3.41 16.93-26.12 16.3-38.57 11.26q-6.05-2.45-8.74-5.97c-3.83-4.99.41-12.68 7.01-11.4q1.42.28 4.7 2.41c5.28 3.43 11.21 4.82 17.38 2.84q.44-.14.75-.49ZM195.13 260.24q6.49-5.87 14.86-6.32c17.77-.97 15.31 21.48 1.74 18.64q-3.73-.78-7.24.29c-14.5 4.43-7.5 22.54-10.68 32.15-3.26 9.82-17.98 7.46-17.93-3.81q.12-25.91-.16-36.93c-.33-13.57 15.31-16.01 18.62-4.24q.21.74.79.22Z"/><ellipse fill="#fff" rx="14.43" ry="13.05" transform="rotate(90.3 -11.005 269.216)"/></svg>