
<svg version="1.1" id="layer" xmlns="http://www.w3.org/2000/svg" xmlns:xlink="http://www.w3.org/1999/xlink" x="0px" y="0px"
	 viewBox="0 0 652 652" style="enable-background:new 0 0 652 652;" xml:space="preserve">
<style type="text/css">
	.st0{fill:#273B90;}
</style>
<path class="st0" d="M306.3,343.7c-3.6,24.2-19.8,38.8-44.3,38.8c-33.6,0-48.5-31-48.5-60.6c0-29.6,15-60.6,48.5-60.6
	c24.2,0,40.4,13.9,44.3,38.8l-22.4,3c-2.3-12.2-7.7-23.3-21.9-23.3c-20.3,0-24.3,26.9-24.3,42c0,15.1,4.1,42,24.3,42
	c14.1,0,19.6-11,21.9-23.1L306.3,343.7z M377.5,263.1v73.8c0,19.6-5.9,25.7-17.8,25.7c-11.9,0-17.8-6-17.8-25.7v-73.8h-23.6v81.3
	c0,24.2,16.6,38.1,41.4,38.1c24.8,0,41.4-13.9,41.4-38.1v-81.3H377.5z M415.1,263.1v117.6h23.6v-48.8h18l21.2,48.8h24.8l-23.4-53.7
	c11.9-4.8,20-16.8,20-29.6c0-15-10.6-34.3-37.6-34.3H415.1z M438.7,311.9v-28.9h8.8c11.6,0,27.5-1.4,27.5,14.8
	c0,14.7-15.7,14.1-26,14.1H438.7z M590.9,263.1h-84.7v20h30.5v97.7h23.6v-97.7h30.5V263.1z M598.6,380.7h23.6V263.1h-23.6V380.7z
	 M90.3,349.6c5.3,0,29,0,31.6,0v39.9c0.5,0,7.3,0,7.6,0c37.3-0.5,67.3-30.9,67.3-68.3c0-37.4-30-67.7-67.3-68.3c0,0-0.2,0-7.6,0v40
	c-3.6,0-24.5,0-31.6,0h0h0h-0.1c0,0,0,0,0,0C74.6,293,62,305.7,62,321.3c0,15.1,11.8,27.4,26.7,28.3c0.3,0,0.6,0,0.9,0H90.3
	L90.3,349.6L90.3,349.6z M97.1,389.5h8.2v-23.3h-8.2c-4.7,0-1,0-6.7,0c-24.8,0-44.9-20.1-44.9-44.9c0-24.8,20.1-44.9,44.9-44.9
	c5.8,0,2.9,0,6.5,0h8.4V253H97c-1.2,0-7.2,0-7.5,0c-37.3,0.5-67.3,30.9-67.3,68.3s30.1,67.7,67.3,68.3
	C89.5,389.5,89.8,389.5,97.1,389.5L97.1,389.5z"/>
</svg>
