
<svg version="1.1" id="layer" xmlns="http://www.w3.org/2000/svg" xmlns:xlink="http://www.w3.org/1999/xlink" x="0px" y="0px"
	 viewBox="0 0 652 652" style="enable-background:new 0 0 652 652;" xml:space="preserve">
<style type="text/css">
	.st0{fill:#ED2924;}
	.st1{fill:#5C5C52;}
</style>
<path class="st0" d="M117.5,309.7c0.9,1.4,0.6,3.7-1.9,5.1l-54.9,33.9c-1.8,1-3,1.2-4.3,1.2c-4.1,0-6.6-3.6-5.5-7.8l7.1-25.7
	c0,0-31.6,11.6-33.1,12c-1.8,0.5-3.1-0.2-3.5-1.3c-0.4-1.2,0-2.6,1.9-3.8c1.4-1,45.9-26.7,45.9-26.7c1.3-0.6,2.7-1.1,4-1
	c4.3,0.3,6.6,3.9,5.3,8.5l-6.2,22.3l40.6-17.5C115,308,116.9,308.7,117.5,309.7"/>
<path class="st1" d="M294.9,356l-20.8-42.1v47c0,2.1-0.7,4.2-2.2,5.8c-1.4,1.5-3.6,2.5-6,2.5c-2.4,0-4.5-1-5.9-2.5
	c-1.4-1.5-2.2-3.6-2.2-5.7v-80.8c0-2.4,0.8-4.5,2.3-6c1.5-1.4,3.6-2.1,5.8-2.1c1.8,0,3.5,0.5,4.7,1.4c1.3,0.9,2.2,2.2,2.9,3.6
	l28.1,57.5l27.9-57.5c0.7-1.4,1.6-2.7,2.9-3.6c1.3-0.9,2.9-1.4,4.7-1.4c2.2,0,4.2,0.7,5.8,2.1c1.5,1.4,2.4,3.6,2.3,6v80.8
	c0,2.1-0.7,4.2-2.2,5.7c-1.4,1.5-3.5,2.5-5.9,2.5c-2.5,0-4.7-0.9-6.1-2.5c-1.4-1.5-2.2-3.6-2.2-5.8v-47l-20.6,41.9
	c-1.1,2.6-3.7,4.5-6.8,4.5C298.6,360.3,296,358.5,294.9,356 M60.3,280.8c0,4.5,3.6,8.1,8.1,8.1l30.7,0c10.1,0,17.7,3.3,22.9,8.8
	c5.2,5.5,8.1,13.4,8.1,22.8c0,9.4-2.9,17.3-8.1,22.8c-5.2,5.5-12.9,8.9-22.9,8.9H68.5c-4.5,0-8.1,3.6-8.1,8.1c0,4.5,3.6,8.1,8.1,8.1
	l31.2-0.1c14.6,0,26.7-5.1,35-13.7c8.4-8.6,12.9-20.6,12.9-34.2c0-13.6-4.6-25.6-12.9-34.2c-8.3-8.6-20.4-13.7-35.1-13.7H68.5
	C64,272.6,60.3,276.3,60.3,280.8 M543.5,275.4c-1.5,1.5-2.4,3.6-2.4,5.9c0,4.5,3.8,7.9,8.2,8h22.9v71.2c0,2.3,0.9,4.5,2.4,6.1
	c1.5,1.6,3.7,2.5,6.3,2.5c2.4,0,4.6-1,6-2.6c1.5-1.6,2.3-3.8,2.3-6.1v-71.2H613c4.5,0,8.2-3.5,8.2-8c0-2.3-0.9-4.4-2.4-5.8
	c-1.5-1.5-3.6-2.4-5.9-2.4h-63.6C547.1,273.1,545,274,543.5,275.4 M505.3,288.7c7.3,0,13.3,5.9,13.3,13.3c0,7.3-6,13.3-13.3,13.3
	h-23v-26.6H505.3 M465.3,360.5c0,2.3,0.9,4.5,2.4,6.1c1.5,1.6,3.7,2.6,6.2,2.6c2.4,0,4.6-1,6.1-2.6c1.5-1.6,2.3-3.8,2.3-6.1v-29.5
	l21.4,0l16.3,33.3c0.6,1.4,1.5,2.6,2.8,3.5c1.3,0.9,2.9,1.3,4.9,1.3c2.5,0,4.7-1.1,6.1-2.7c1.4-1.6,2.2-3.7,2.2-5.8
	c0-1.3-0.4-2.5-0.9-3.7l-14.9-30.9c8.3-5,13.9-14.1,13.9-24.5c0-15.7-12.7-28.4-28.4-28.4h-23.8H474c-2.5,0-4.7,0.9-6.3,2.4
	c-1.6,1.6-2.4,3.8-2.4,6.2v7.1V360.5z M197.7,298l13.7,31.8H184L197.7,298z M241.4,357.4c0,0-5.8-13-36-80.4c-0.7-1.6-1.7-2.9-3-3.8
	c-1.3-0.9-3-1.3-4.7-1.3c-1.7,0-3.3,0.4-4.7,1.3c-1.3,0.9-2.3,2.2-3,3.7l-36.1,80.5c-0.4,1-0.8,2.2-0.8,3.5c0,2,0.6,4,2,5.6
	c1.4,1.5,3.5,2.5,6.1,2.5l0.3,0c3.7,0,6.4-2.4,7.4-5l8.6-18.8h40.4l8.6,18.8c1,2.6,3.8,5.1,7.7,5c2.5,0,4.7-1,6-2.5
	c1.4-1.6,2-3.6,2-5.6C242.3,359.7,241.9,358.5,241.4,357.4 M405.2,298l13.7,31.8h-27.4L405.2,298z M448.9,357.4c0,0-5.8-13-36-80.4
	c-0.7-1.6-1.7-2.9-3-3.8c-1.3-0.9-3-1.3-4.7-1.3c-1.7,0-3.3,0.4-4.7,1.3c-1.3,0.9-2.3,2.2-3,3.7l-36.1,80.5c-0.4,1-0.8,2.2-0.8,3.5
	c0,2,0.6,4,2,5.6c1.4,1.5,3.5,2.5,6.1,2.5l0.3,0c3.7,0,6.4-2.4,7.4-5l8.6-18.8h40.4l8.6,18.8c1,2.6,3.8,5.1,7.7,5c2.5,0,4.6-1,6-2.5
	c1.4-1.6,2-3.6,2-5.6C449.9,359.7,449.4,358.5,448.9,357.4"/>
</svg>
