
<svg version="1.1" id="layer" xmlns="http://www.w3.org/2000/svg" xmlns:xlink="http://www.w3.org/1999/xlink" x="0px" y="0px"
	 viewBox="0 0 652 652" style="enable-background:new 0 0 652 652;" xml:space="preserve">
<path d="M136.1,474.6c-0.4-4.2,1.1-7.8,1.2-7.9l-0.8-0.3c-0.5,1.2-1.2,2.6-1.6,3.7c-1.8,4.4-4.8,7.7-7.6,9.2
	c-2.2,1.3-5.4,2.1-7.7,2.2v0.5h31v-0.5C145.5,481.3,136.7,480.1,136.1,474.6 M198.2,479.5c-2.8-1.7-3.9-3.5-4.8-5.9
	c-4.4-10.9-16.8-43.4-28.8-73.6h-1.1c-1.4,3.5-2.9,7.2-4.4,11l24.2,63.2c0.4,0.8,0.5,2,0.5,2.8c0,3-8.6,4.3-12.7,4.5v0.5h34.2v-0.5
	C203.1,481.4,200.4,480.8,198.2,479.5 M238.7,476.4c0-2.6,1.1-4.8,2.6-7.1l-0.8-0.5c-0.8,1.1-2.1,2.8-2.9,3.8
	c-2.5,3.2-5.1,5.3-9.7,7.3c-2.4,1.1-5.5,1.4-7.3,1.5v0.5h31.2v-0.5C247.1,481.5,238.7,481.3,238.7,476.4 M274.1,401.3v0.5
	c1.7,0,6.1,0.2,8,0.6c3.8,0.7,5.5,1.7,5.5,4c0,2-1.4,5.8-4,10.2l0.8,0.5l5-6.4c1.9-2.4,4.4-5.3,9-7.3c2.4-1.1,6-1.4,7.8-1.5v-0.5
	H274.1z M302.3,480.1c-2.1-1.4-5.9-5.4-7.7-7.6c-5.2-6.4-17.5-22.6-27.3-35.3c-17.7-23.6-20.2-28.7-20.2-31c0-2,1.8-3,4.1-3.5
	c2-0.5,7.3-0.8,9.2-0.9v-0.5h-39.6v0.5c1.4,0,6,0.7,7.4,1.5c2.8,1.5,5.7,4.7,7.7,7.3c5.9,7.6,21.2,27.9,25.8,34
	c13.7,17.7,21.7,28.9,21.7,32.6c0,1.2-0.7,2.5-3.2,3.2c-3.3,0.9-8.3,0.9-10.3,1.1v0.5h39.6v-0.5C306.7,481.4,303.7,481,302.3,480.1
	 M360.4,474.3c0,2.6-0.8,4.8-3.7,5.9c-1.5,0.6-7.6,1.2-9.7,1.3v0.5h36.3v-0.5c-2.1-0.1-8.3-1.3-9.7-1.9c-2.7-1.2-3.7-3.3-3.7-5.9
	v-72.4h-9.7L360.4,474.3z M345.5,401.3h-16.6v21.4h0.6c1.2-5.2,7.2-18.3,12.7-20c1-0.3,2.2-0.5,3.3-0.6L345.5,401.3z M384.8,401.3
	h16.6v21.4h-0.6c-1.2-5.2-7.2-18.3-12.7-20c-1-0.3-2.2-0.5-3.3-0.6V401.3z M530.2,401.3v0.4c3.8,0.5,11,3,13.9,5.4
	c0.5,0.4,0.9,0.8,1.2,1.1l0,0l0.2,0.2c0.1,0.1,0.2,0.3,0.3,0.4L606,483h0.8v-13.8l-55.2-68H530.2z M43.4,471.2v-66.9v-2v-1.1H22v0.5
	c2.1,0.1,5.4,0.6,8.3,1.8c2.8,1.2,3.7,3.4,3.7,6v65.1c0,2.6-0.8,4.7-3.7,5.8c-1.5,0.6-6.4,1.1-8.7,1.1v0.5h31.4v-0.8
	C45.9,480.6,43.4,477.9,43.4,471.2 M58.5,401.3h-2.3v0.8C76.7,403,90,419,90,442.2c0,19.9-8,35.1-25.1,38.5v0.7
	c19-2.9,36.6-15.3,36.6-39.2C101.5,409.8,74.1,401.3,58.5,401.3 M495.3,411.9c-7.3-7.2-14.9-10.8-23-12v0.9
	c14,3.3,22.7,18.3,22.7,40.6c0,20.7-7.4,37.4-22.8,40.9v0.9c8.8-1.3,16.1-5.1,22-11.1c8.6-8.6,11.8-19,11.8-31.1
	C506.1,430,502.1,418.7,495.3,411.9 M459.7,482.5c-15.3-3.5-22.8-20.3-22.8-39.7c0-23.5,8.8-38.6,22.8-41.8V400
	c-8.3,1.3-16.1,5.1-22.1,11.2c-7.2,7.3-11.8,17.6-11.8,31.3c0,12.8,4.6,22.6,12.2,29.9c6.1,5.9,13.5,9.7,21.7,10.9V482.5z
	 M552.6,477.7c-2.2-1.8-4-5.4-4.5-11.8h-0.8c-0.5,7.3-2.2,11.2-4.5,12.5c-1.4,0.8-8.4,2.8-10.6,3.1v0.5h33v-0.5
	C563.1,481.4,554.6,479.4,552.6,477.7 M601.1,405.5c2.2,1.8,4,5.4,4.5,11.8h0.8c0.5-7.3,2.2-11.2,4.5-12.5c1.4-0.8,8.4-2.8,10.6-3.1
	v-0.5h-33v0.5C590.6,401.9,599.1,403.9,601.1,405.5"/>
<path d="M254,322.1c-2.3-13.7-3.5-27.4-4.3-41c-0.8-13.7-1.2-27.4-1.2-41c0-13.7,0.4-27.4,1.2-41c0.9-13.7,2-27.4,4.3-41
	c2.3,13.7,3.5,27.4,4.3,41c0.8,13.7,1.2,27.4,1.2,41c0,13.7-0.4,27.4-1.2,41C257.5,294.8,256.3,308.4,254,322.1 M273.5,321.7
	c1.8-0.1,3.5-1.4,4.8-2.7c1.3-1.4,2.3-3,3.3-4.5c1.9-3.2,3.3-6.6,4.6-10.1c2.5-6.9,4.2-14,5.5-21.2c2.6-14.3,3.7-28.8,3.7-43.2
	c0-14.4-1.1-28.9-3.8-43.2c-1.4-7.1-3.1-14.2-5.6-21.1c-1.3-3.4-2.7-6.9-4.6-10.1c-1-1.6-2-3.1-3.3-4.5c-1.3-1.3-3-2.6-4.8-2.7
	c1.7,0.8,2.7,2.2,3.5,3.7c0.8,1.5,1.4,3.1,1.9,4.8c1,3.3,1.7,6.7,2.2,10.2c1.1,6.9,1.8,13.9,2.2,20.9c1,14,1.3,28.1,1.3,42.1
	c0,14.1-0.3,28.1-1.3,42.1c-0.5,7-1.1,14-2.2,20.9c-0.5,3.5-1.2,6.9-2.2,10.2c-0.5,1.7-1.1,3.3-1.9,4.8
	C276.2,319.5,275.2,321,273.5,321.7 M293,321.3c2-0.1,3.9-0.6,5.8-1.3c1.9-0.7,3.6-1.8,5.3-3c3.3-2.4,6.1-5.4,8.6-8.6
	c4.9-6.5,8.4-13.9,11.1-21.4c5.3-15.2,7.5-31.2,7.5-47.1c0-15.9-2.3-31.9-7.7-47c-2.8-7.5-6.3-14.9-11.2-21.3
	c-2.5-3.2-5.3-6.2-8.7-8.5c-1.7-1.1-3.4-2.2-5.3-2.9c-1.9-0.7-3.8-1.2-5.8-1.3c7.4,2.9,11.9,9.2,15.3,15.7
	c3.4,6.6,5.7,13.7,7.5,20.9c3.5,14.5,4.9,29.5,4.9,44.5c0,15-1.3,30.1-4.8,44.6c-1.7,7.2-4,14.4-7.3,21c-1.6,3.3-3.7,6.4-6.1,9.2
	C299.7,317.5,296.7,319.9,293,321.3 M312.5,320.9c8.6-0.6,17-4.3,24.1-9.7c7.1-5.4,13-12.4,17.4-20.1c9-15.5,13.1-33.5,13.1-51.2
	c-0.1-17.8-4.4-35.8-13.6-51.1c-4.6-7.7-10.5-14.6-17.6-19.9c-7.1-5.3-15.5-9-24.1-9.6c8.1,3,15,7.7,20.6,13.6
	c5.7,5.8,10.1,12.7,13.6,20c7,14.6,10,30.9,10.2,47c-0.1,16.2-3,32.5-9.8,47.2c-3.4,7.3-7.7,14.3-13.4,20.1
	C327.5,313.1,320.6,317.9,312.5,320.9 M332.1,320.5c9.5-0.7,18.8-3.5,27.5-7.9c8.6-4.5,16.5-10.6,23.1-18
	c6.6-7.4,11.8-16.1,15.3-25.4c3.5-9.4,5.3-19.4,5.3-29.4c0-10-1.9-20.1-5.6-29.4c-3.6-9.3-9-17.9-15.7-25.2
	c-13.3-14.6-31.8-24.1-50.7-25.6c17.9,6,33.3,16.9,44.1,31.1c10.9,14.2,16.9,31.5,16.9,49c0.1,17.5-5.6,35-16.3,49.3
	C365.3,303.5,350,314.5,332.1,320.5"/>
</svg>
