
<svg version="1.1" id="layer" xmlns="http://www.w3.org/2000/svg" xmlns:xlink="http://www.w3.org/1999/xlink" x="0px" y="0px"
	 viewBox="0 0 652 652" style="enable-background:new 0 0 652 652;" xml:space="preserve">
<style type="text/css">
	.st0{fill-rule:evenodd;clip-rule:evenodd;fill:#7ACDC8;}
	.st1{fill:#7ACDC8;}
</style>
<g>
	<rect x="194.2" y="253.4" class="st0" width="5.7" height="148"/>
	<path d="M249.6,297.3L249.6,297.3H226v21.4h23.6v6.4H226v21.8H219v-55.6h30.5V297.3z M292.8,346.9L292.8,346.9v-55.6h54.5v6.1
		h-47.8v17.5h45.8v6.1h-45.8v19.6h47.8v6.1H292.8z M387.6,291.3L387.6,291.3v5.8v-0.2L369,328.8h18.7v5.7h-22l-7.1,12.3h-7.7
		l32.1-55.6H387.6z M260.9,297.3L260.9,297.3h-11.3v-6h9.1c8.9,0,14.7,1,17.5,2.8c3,2,4.4,5.3,4.4,10.5v6.5c0,3.4-0.6,6-2.2,7.5
		c-1.4,1.6-4,2.8-7.5,3.6c3,0.4,5.3,1.4,6.9,3.2c1.4,1.8,2.2,4.4,2.2,7.5v13.9H273v-12.5c0-3.6-0.8-5.9-2.4-7.3
		c-1.6-1.4-5.2-2-10.9-2h-10.1v-6.4h11.3c5,0,8.3-0.6,9.9-2c1.6-1.2,2.6-3.6,2.6-7.3v-2.8c0-3.6-1-6.2-2.6-7.4
		C269.2,298.1,265.8,297.3,260.9,297.3 M387.6,334.6L387.6,334.6v-5.7h18.8l-18.8-31.8v-5.8h4.4l32.3,55.6H417l-7.1-12.3H387.6z
		 M474.3,340.7L474.3,340.7h-36.5v-49.4h-6.7v55.6h43.2V340.7z M474.3,291.3L474.3,291.3v6.1h-6.9v-6.1H474.3z M562.6,346.9
		L562.6,346.9v-23.2l-31.3-32.3h9.7l25.4,26l25.4-26h9.7l-31.5,32.3v23.2H562.6z M474.3,297.5L474.3,297.5H495v49.4h6.7v-49.4h27.6
		v-6.1h-55V297.5z M474.3,340.7h6.7v6.1h-6.7V340.7z"/>
	<path class="st1" d="M466.6,366.9L466.6,366.9h-3.7v18h16.4v-3.3h-12.7V366.9z M490.8,384.9L490.8,384.9h17.8v-3.3h-14.3v-4.2H508
		v-3.4h-13.7v-3.8h14.3v-3.3h-17.8V384.9z M419.6,370.3L419.6,370.3h8.1v14.7h3.5v-14.7l8.1,0v-3.3h-19.8V370.3z M529.9,381
		L529.9,381l-7.7-14H518l10,18h3.7l10-18h-4.1L529.9,381z M585.6,381.6L585.6,381.6v-14.7h-3.7v18h16.4v-3.3H585.6z M552.1,384.9
		L552.1,384.9h17.8v-3.3h-14.3v-4.2h13.7v-3.4h-13.7v-3.8l14.3,0v-3.3h-17.8V384.9z M218,370.3L218,370.3h8.3v14.7h3.5v-14.7h8.2
		v-3.3h-20V370.3z M266.6,374.1L266.6,374.1h-13.3v-7.1h-3.8v18h3.8v-7.5h13.3v7.5h3.5v-18h-3.5V374.1z M343,380.5L343,380.5
		l-13.8-13.6H325v18h3.5v-13.6l14,13.6h4.3v-18H343V380.5z M359.7,384.9L359.7,384.9h17.8v-3.3h-14.3v-4.2h13.7v-3.4h-13.7v-3.8
		h14.3v-3.3h-17.8V384.9z M283.3,384.9L283.3,384.9h17.8v-3.3h-14.3v-4.2h13.7v-3.4h-13.7v-3.8h14.3v-3.3h-17.8V384.9z M410.5,366.9
		h-5l-6.6,6.4l-6.6-6.4h-5l8.5,8.5l-9.7,9.5h5.2l7.6-7.4l7.6,7.4h5.2l-9.7-9.5L410.5,366.9z"/>
	<path d="M615.6,280.9L615.6,280.9h-2.2v4.1h2.2c1.2,0,2.1-0.2,2.6-0.5c0.5-0.3,0.7-0.8,0.7-1.6c0-0.8-0.3-1.3-0.8-1.6
		C617.6,281.1,616.7,280.9,615.6,280.9 M615.9,279.7c1.6,0,2.8,0.3,3.6,0.8c0.8,0.5,1.2,1.3,1.2,2.4c0,0.8-0.2,1.5-0.7,2
		c-0.5,0.5-1.1,0.9-2,1l2.6,5.3h-2l-2.4-5.1h-2.7v5.1h-1.7v-11.6H615.9z"/>
	<path d="M624.4,289.3L624.4,289.3c-0.4,1.1-1.1,2-2,2.9c-0.9,0.9-2,1.6-3.1,2.1c-1.1,0.5-2.3,0.7-3.5,0.7c-1.2,0-2.4-0.2-3.5-0.7
		c-1.1-0.5-2.1-1.1-3-2c-0.9-0.9-1.6-1.9-2-3c-0.5-1.1-0.7-2.3-0.7-3.5c0-1.2,0.2-2.4,0.7-3.5c0.5-1.1,1.2-2.2,2.1-3.1
		c0.9-0.9,1.9-1.5,3-2c1.1-0.4,2.3-0.7,3.5-0.7c1.3,0,2.5,0.2,3.6,0.7c1.1,0.5,2.1,1.1,3,2c0.9,0.9,1.5,1.9,2,3
		c0.4,1.1,0.7,2.3,0.7,3.6C625.1,287,624.8,288.2,624.4,289.3 M625.4,281.7c-0.5-1.3-1.3-2.4-2.2-3.3c-1-1-2.1-1.8-3.4-2.3
		c-1.3-0.5-2.6-0.8-4.1-0.8c-1.4,0-2.8,0.3-4,0.8c-1.2,0.5-2.3,1.3-3.3,2.2c-1,1-1.8,2.2-2.3,3.5c-0.5,1.3-0.8,2.6-0.8,4
		c0,1.4,0.3,2.7,0.8,4c0.5,1.3,1.3,2.4,2.3,3.4c1,1,2.1,1.8,3.4,2.3c1.2,0.5,2.6,0.8,4,0.8c1.4,0,2.7-0.3,4-0.8
		c1.3-0.5,2.4-1.3,3.4-2.3c1-1,1.7-2.1,2.2-3.3c0.5-1.2,0.8-2.6,0.8-4C626.2,284.3,625.9,282.9,625.4,281.7"/>
	<path class="st1" d="M81.8,324.2L81.8,324.2c0,3.1-0.8,5.3-2.6,6.9c-1.6,1.4-4.1,2.1-7.9,2.1H43.1v-28.1h26.3
		c4.1,0,7.3,0.8,9.2,2.3c2.2,1.4,3.1,3.7,3.1,7.1V324.2z M92.8,295.9c-3.7-2.8-9.8-4.3-18.3-4.3H26.2v55h53.2
		c6.7,0,11.4-1.4,14.5-4.3c2.9-2.7,4.5-7.3,4.5-13.4v-18.9C98.5,303.6,96.5,298.9,92.8,295.9"/>
	<path class="st1" d="M159.3,332.8L159.3,332.8c-0.8,0.8-2,1.2-3.3,1.2h-31v-9.8h31c1.4,0,2.6,0.4,3.3,1.4c0.8,0.8,1.2,2,1.2,3.6
		C160.5,330.7,160.1,331.9,159.3,332.8 M125,304L125,304h29.5c1.4,0,2.4,0.4,3.1,1.2c0.8,0.8,1.2,2,1.2,3.3c0,1.4-0.4,2.6-1,3.3
		c-0.8,0.8-2,1.2-3.3,1.2H125V304z M175.4,322.6c-1.6-2.2-4.1-3.5-7.5-4.1c2.7-1,4.7-2.6,6.1-4.3c1.4-2,2-4.3,2-7.3
		c0-5.1-1.6-9-4.5-11.6c-3.1-2.4-7.7-3.7-13.7-3.7h-49.5v55h52c6.1,0,10.6-1.2,13.4-3.6c2.7-2.3,4.3-6.3,4.3-11.4
		C178,327.7,177,324.6,175.4,322.6"/>
</g>
</svg>
