
<svg version="1.1" id="layer" xmlns="http://www.w3.org/2000/svg" xmlns:xlink="http://www.w3.org/1999/xlink" x="0px" y="0px"
	 viewBox="0 0 652 652" style="enable-background:new 0 0 652 652;" xml:space="preserve">
<style type="text/css">
	.st0{fill:#6F6F6E;}
	.st1{fill:#FFC425;}
	.st2{fill:#07601F;}
</style>
<path class="st0" d="M175.3,381.3h4.5l-5.7-21.9h-4.9L175.3,381.3L175.3,381.3z M180.2,379.8l2.9-13l3.2,14.5h4.5l-5.4-21.9h-4.7
	l-2.6,12L180.2,379.8L180.2,379.8z M191.2,379.9l5.8-20.5h-4.9l-3,11.6C189.1,371.1,191.2,379.9,191.2,379.9z M204.7,377.9
	c-1-0.2-3.5-0.6-3.5-5c0-1,0-4.6,3.5-5.1V364c-5.7,0.4-8.4,4.4-8.4,8.9c0,1.8,0.5,8.5,8.4,8.9C204.7,381.8,204.7,377.9,204.7,377.9z
	 M205.5,381.8c5.6-0.4,8.3-4.7,8.3-9.1c0-3.8-2.1-8.4-8.3-8.8v3.8c2.1,0.2,3.4,1.9,3.4,4.9c0,4.3-2.3,4.9-3.4,5.2V381.8z
	 M216.2,381.3h4.9v-16.8h-4.9L216.2,381.3L216.2,381.3z M222,369.7c0.5-0.7,1.2-1.2,3.2-1.2c0.5,0,0.7,0,1,0.1v-4.4
	c-0.2,0-0.5-0.1-0.9-0.1c-2.3,0-3.1,1.1-3.3,1.4C222,365.5,222,369.7,222,369.7z M227.5,381.3h4.8v-21.9h-4.8V381.3z M233.2,374.7
	l4.9,6.6h6.1l-7.6-9.8l7.1-7h-6.2l-4.3,4.8L233.2,374.7L233.2,374.7z M245.4,381.3h4.8v-16.8h-4.8V381.3z M245.4,363.6h4.8v-4.2
	h-4.8V363.6z M253.4,381.3h4.8v-16.8h-4.8V381.3z M259.1,369.5c0.3-0.3,0.9-1.1,2.3-1.1c2.3,0,2.5,2.1,2.5,2.9v10.1h4.9V371
	c0-1.7-0.1-4.1-2.3-5.6c-0.9-0.6-2.1-1.1-3.5-1.1c-1.8,0-2.8,0.6-3.9,1.4C259.1,365.6,259.1,369.5,259.1,369.5z M282.2,374.8
	c-0.7,0.9-1.7,1.5-2.9,1.5c-2,0-3.5-1.6-3.5-4.1c0-2.9,2-4.1,3.7-4.1c1.5,0,2.3,1,2.7,1.4v-3.8c-1-1-2.5-1.6-3.9-1.6
	c-4,0-7.1,3.3-7.1,8.2c0,4.3,2.4,8,7.1,8c1.8,0,2.8-0.6,3.9-1.2C282.2,379.1,282.2,374.8,282.2,374.8z M287.8,364.5H283v15.2
	c0,1.2,0,3.5-3.2,3.5c-0.7,0-1.3-0.2-1.8-0.4c-0.4-0.3-0.8-0.7-0.9-1.1H272c0.1,0.6,0.3,1.8,1.1,2.8c1.8,2.5,5.3,2.5,6.3,2.5
	c2.5,0,6.6-0.6,7.9-4.1c0.4-1.1,0.4-1.9,0.5-3.8V364.5z M300.6,368.1v8.7c0.1,2.3,0.2,4.7,4.8,4.7c0.9,0,1.5-0.1,3.2-0.2v-3.7
	c-0.7,0.1-0.9,0.1-1.3,0.1c-1.8,0-1.9-0.5-1.9-2.5v-7h3.2v-3.6h-3.2v-3h-4.8v3h-2.3v3.6H300.6L300.6,368.1z M318,377.9
	c-1-0.2-3.5-0.6-3.5-5c0-1,0-4.6,3.5-5.1V364c-5.7,0.4-8.4,4.4-8.4,8.9c0,1.8,0.5,8.5,8.4,8.9C318,381.8,318,377.9,318,377.9z
	 M318.8,381.8c5.6-0.4,8.3-4.7,8.3-9.1c0-3.8-2.1-8.4-8.3-8.8v3.8c2.1,0.2,3.4,1.9,3.4,4.9c0,4.3-2.3,4.9-3.4,5.2V381.8z
	 M339.8,374.8c-0.7,0.9-1.7,1.5-2.9,1.5c-2,0-3.5-1.6-3.5-4.1c0-2.9,2-4.1,3.7-4.1c1.5,0,2.3,1,2.7,1.4v-3.8c-1-1-2.5-1.6-3.9-1.6
	c-4,0-7.1,3.3-7.1,8.2c0,4.3,2.4,8,7.1,8c1.8,0,2.8-0.6,3.9-1.2L339.8,374.8L339.8,374.8z M345.4,364.5h-4.8v15.2
	c0,1.2,0,3.5-3.2,3.5c-0.7,0-1.3-0.2-1.8-0.4c-0.4-0.3-0.8-0.7-0.9-1.1h-5.1c0.1,0.6,0.3,1.8,1.1,2.8c1.8,2.5,5.3,2.5,6.3,2.5
	c2.5,0,6.6-0.6,7.9-4.1c0.4-1.1,0.4-1.9,0.5-3.8L345.4,364.5L345.4,364.5z M359.7,376.1c-0.2,0.4-0.9,1.8-3.1,1.8
	c-3,0-3.9-2.8-3.9-5.2c0-3.8,2-4.9,3.8-4.9c1,0,2,0.4,2.5,1.2c0.2,0.3,0.5,0.9,0.7,1.7h-6c-0.2,0.7-0.2,1.2-0.2,1.9
	c0,0.7,0.1,1.2,0.2,1.7h11c0-2.7-0.5-5.4-2-7.4c-1.2-1.6-3.3-2.9-6.2-2.9c-5.2,0-8.7,3.8-8.7,9c0,4.7,2.9,8.8,8.6,8.8
	c2.5,0,5-0.9,6.6-2.8c0.9-1.1,1.2-2,1.5-2.6L359.7,376.1L359.7,376.1z M367.9,368.1v8.7c0.1,2.3,0.2,4.7,4.8,4.7
	c0.9,0,1.5-0.1,3.2-0.2v-3.7c-0.7,0.1-0.9,0.1-1.3,0.1c-1.8,0-1.9-0.5-1.9-2.5v-7h3.2v-3.6h-3.2v-3h-4.8v3h-2.3v3.6
	C365.6,368.1,367.9,368.1,367.9,368.1z M377.7,381.3h4.8v-21.9h-4.8C377.7,359.4,377.7,381.3,377.7,381.3z M383.3,369.2
	c0.4-0.4,1.1-1.1,2.4-1.1c2.5,0,2.5,2.3,2.5,3.6v9.6h4.8v-10.9c0-1.4-0.1-3.8-2.1-5.3c-0.8-0.6-2-1.1-3.4-1.1
	c-1.2,0-2.7,0.4-4.1,1.5L383.3,369.2L383.3,369.2z M407.3,376.1c-0.2,0.4-0.9,1.8-3.1,1.8c-3,0-3.9-2.8-3.9-5.2c0-3.8,2-4.9,3.8-4.9
	c1,0,2,0.4,2.5,1.2c0.2,0.3,0.5,0.9,0.7,1.7h-6c-0.2,0.7-0.2,1.2-0.2,1.9c0,0.7,0.1,1.2,0.2,1.7h11c0-2.7-0.5-5.4-2-7.4
	c-1.2-1.6-3.3-2.9-6.2-2.9c-5.2,0-8.7,3.8-8.7,9c0,4.7,2.9,8.8,8.6,8.8c2.5,0,5-0.9,6.6-2.8c0.9-1.1,1.2-2,1.5-2.6L407.3,376.1
	L407.3,376.1z M414.6,381.3h4.9v-16.8h-4.9V381.3z M420.3,369.7c0.5-0.7,1.2-1.2,3.2-1.2c0.5,0,0.7,0,1,0.1v-4.4
	c-0.3,0-0.6-0.1-0.9-0.1c-2.3,0-3.1,1.1-3.3,1.4L420.3,369.7L420.3,369.7z M442.3,377.9c-1-0.2-3.5-0.6-3.5-5c0-1,0-4.6,3.5-5.1V364
	c-5.7,0.4-8.4,4.4-8.4,8.9c0,1.8,0.5,8.5,8.4,8.9V377.9z M443.1,381.8c5.6-0.4,8.3-4.7,8.3-9.1c0-3.8-2.1-8.4-8.3-8.8v3.8
	c2.1,0.2,3.4,1.9,3.4,4.9c0,4.3-2.3,4.9-3.4,5.2V381.8z M453.8,381.3h4.8v-16.8h-4.8V381.3z M459.4,369.5c0.3-0.3,0.9-1.1,2.3-1.1
	c2.3,0,2.5,2.1,2.5,2.9v10.1h4.9V371c0-1.7-0.1-4.1-2.3-5.6c-0.9-0.6-2.1-1.1-3.5-1.1c-1.8,0-2.8,0.6-3.8,1.4L459.4,369.5
	L459.4,369.5z M481.8,368.1v8.7c0.1,2.3,0.2,4.7,4.8,4.7c0.9,0,1.5-0.1,3.2-0.2v-3.7c-0.7,0.1-0.9,0.1-1.3,0.1
	c-1.8,0-1.9-0.5-1.9-2.5v-7h3.2v-3.6h-3.2v-3h-4.8v3h-2.3v3.6L481.8,368.1L481.8,368.1z M499.3,377.9c-1-0.2-3.5-0.6-3.5-5
	c0-1,0-4.6,3.5-5.1V364c-5.7,0.4-8.4,4.4-8.4,8.9c0,1.8,0.5,8.5,8.4,8.9C499.3,381.8,499.3,377.9,499.3,377.9z M500.1,381.8
	c5.6-0.4,8.3-4.7,8.3-9.1c0-3.8-2.1-8.4-8.3-8.8v3.8c2.1,0.2,3.4,1.9,3.4,4.9c0,4.3-2.3,4.9-3.4,5.2V381.8z M515.6,381.3v-16.8h-4.8
	v16.8L515.6,381.3z M516.4,369c0.3-0.2,0.8-0.5,1.7-0.5c0.5,0,1.4,0.2,1.9,0.9c0.5,0.7,0.6,1.6,0.6,3.3v8.8h4.8v-9.6
	c0-1.1,0.1-3.3,2.5-3.3c2.4,0,2.4,2.2,2.4,3.3v9.6h4.8v-9.5c0-3.4-0.1-4.9-1.5-6.3c-1-0.9-2.3-1.5-3.9-1.5c-3.2,0-4.6,2-5.1,2.8
	c-0.7-2-2.5-2.8-4.6-2.8c-1.3,0-2.5,0.3-3.6,1.3C516.4,365.3,516.4,369,516.4,369z M545.9,377.9c-1-0.2-3.5-0.6-3.5-5
	c0-1,0-4.6,3.5-5.1V364c-5.7,0.4-8.4,4.4-8.4,8.9c0,1.8,0.5,8.5,8.4,8.9C545.9,381.8,545.9,377.9,545.9,377.9z M546.7,381.8
	c5.6-0.4,8.3-4.7,8.3-9.1c0-3.8-2.1-8.4-8.3-8.8v3.8c2.1,0.2,3.4,1.9,3.4,4.9c0,4.3-2.3,4.9-3.4,5.2V381.8z M557.4,381.3h4.9v-16.8
	h-4.9V381.3z M563.1,369.7c0.5-0.7,1.2-1.2,3.2-1.2c0.5,0,0.7,0,1,0.1v-4.4c-0.3,0-0.6-0.1-0.9-0.1c-2.3,0-3.1,1.1-3.3,1.4
	L563.1,369.7L563.1,369.7z M568.7,381.3h4.9v-16.8h-4.9V381.3z M574.4,369.7c0.5-0.7,1.2-1.2,3.2-1.2c0.5,0,0.7,0,1,0.1v-4.4
	c-0.3,0-0.6-0.1-0.9-0.1c-2.3,0-3.1,1.1-3.3,1.4V369.7z M587.6,377.9c-1-0.2-3.5-0.6-3.5-5c0-1,0-4.6,3.5-5.1V364
	c-5.7,0.4-8.4,4.4-8.4,8.9c0,1.8,0.5,8.5,8.4,8.9C587.6,381.8,587.6,377.9,587.6,377.9z M588.4,381.8c5.6-0.4,8.3-4.7,8.3-9.1
	c0-3.8-2.1-8.4-8.3-8.8v3.8c2.1,0.2,3.4,1.9,3.4,4.9c0,4.3-2.3,4.9-3.4,5.2V381.8z M602.1,381.3h4.4l-4.4-16.8h-4.9L602.1,381.3z
	 M606.9,380.1c1.4-5.6,1.8-7.2,2.5-10.3c0.3,1.7,0.4,2.2,1,4.6l1.8,7h3.7l-4.3-16.8h-4.2l-2.2,8.3L606.9,380.1L606.9,380.1z
	 M616.7,381.3l4.9-16.8h-4.9l-2.1,8.5L616.7,381.3z M107.7,265.1l-4.7-2.9l-9.1,4.4l10.8,11.4l5.2,0.2l-7.1-8.8L107.7,265.1z
	 M130.1,342.6l-7.1,6l7.9,1.4l3,13.7l4.6-6.2l-1.5-12.2L130.1,342.6z M105,355.2l8.9,11.6l-6.5,18.2l9.2-6l5.8-15.9l-7.6-9.4
	L105,355.2z M85.5,368.3l-20,16.7l14.4,2.1l17.4-16.8l-3.6-17.7l-13-4.4L85.5,368.3z M64.2,325.1l8.3,11.7l-7.2,21l-28.7,3.5
	l-11-15.5l28.5-1.4L64.2,325.1z M21.6,308.8l20.9,14.3L62.2,310l0.2-12.5l-18.6,9.7l-21.3-15.3L21.6,308.8z M71.2,286.3l-22.3,1.1
	l-6.2-18.5l8.5-8.1l6.6,14.9l17.6,2.2L71.2,286.3z M72.8,256.7l-1.1,12.1l12.1,7.2l9.4-1.7l-11.1-7.9l1.3-10.7L72.8,256.7z
	 M120.4,274.1l-4.5,0.2l0.1,6.1l6.5,8.4l-1.5-6.9l4.1-2L120.4,274.1z"/>
<path class="st1" d="M108.3,278.2l-7.1-8.8l5.5-4.9l2,1.2l-4.5,3.9l7.1,8.8L108.3,278.2z M132.9,364.7l-3-13.7l-8.1-1.5l2.2-1.8
	l7.7,1.4l3,13.7L132.9,364.7z M103.9,355.4l8.8,11.6l-6.7,19l3-2l6.1-17.4l-8.9-11.6L103.9,355.4z M84.3,367.9l-20.4,16.9l2.9,0.4
	l19.9-16.5l-4.9-20.1l-2.6-0.8L84.3,367.9z M26.4,346.9l-1.6-2.1l28.7-1.4l10-19.4l1.4,2l-10.1,19.5L26.4,346.9z M22.4,293.2
	l21.3,15.3l18.7-9.8l-0.1-2.4l-18.5,9.7l-21.3-15.4L22.4,293.2z M74.8,279l-17.8-2.3l-6.7-15.1l1.8-1.5l6.4,14.6l17.4,2.3L74.8,279z
	 M82.3,255.9L81,267l10.8,7.7l2.8-0.7L83.3,266l1.2-10.3L82.3,255.9z M120.8,286.8l-0.9-7l4.5-0.6l1.2,1.4l-3.8,1.2l1.1,7.8
	L120.8,286.8z"/>
<path class="st2" d="M85.9,291.6h23.1c12.7,0,18.4,4.7,18.4,17.7v9.5c0,12.5-4,18.4-16.7,18.4H85.9L85.9,291.6L85.9,291.6z
	 M98.1,326.7h10.6c4.5,0,6.1-3,6.1-7.8v-9.5c0-5.9-1.9-7.1-6.1-7.1H98.1L98.1,326.7L98.1,326.7z M144.8,309.9h19.5v8.4h-19.5v8.9
	h21.2v10h-33.3v-45.6h32.9v10h-20.7V309.9z M184.6,337.2h-12.2v-45.6h19.3l8.7,28.6h0.4l8.3-28.6h19.8v45.6h-12.2l1.2-35h-0.4
	l-11.6,35h-10.5l-11.7-35h-0.4L184.6,337.2z M236.1,337.2v-45.6H259c11.3,0,15.6,4.8,15.6,16.7c0,12.8-2.9,17.2-15.6,17.2h-10.8
	v11.7C248.2,337.2,236.1,337.2,236.1,337.2z M256.6,315c4.8-0.2,5.5-0.7,5.5-6.6c0-4.7-0.7-6.1-5.5-6.1h-8.3V315L256.6,315
	L256.6,315z M300.3,309.5c13.5,1,16.8,2.7,16.8,13.1c0,7.5,0.3,15-19.8,15c-11.6,0-19.3-0.2-19.3-15.2h11.7c0,4.7,1.7,5.2,7.7,5.2
	c5.7,0,7.6-0.4,7.6-4.2c0-4-0.7-3.9-6.4-4.3l-2.7-0.2c-11.3-0.8-17.8-0.7-17.8-13.8s7.4-13.9,19.3-13.9c10,0,18.5,0.2,18.5,12.8v1.9
	h-11.7c0-4.7-1.9-4.7-6.8-4.7c-6.6,0-7.1,1.3-7.1,3.9c0,3.6,1.8,3.8,5,4L300.3,309.5L300.3,309.5z M334.2,309.9h19.5v8.4h-19.5v8.9
	h21.2v10H322v-45.6h32.9v10h-20.7L334.2,309.9z M386.7,321.2v16h-12.2v-16l-16.2-29.6h13.9l8.1,17.6h0.4l8.4-17.6h14.1L386.7,321.2z
	 M472.5,291.6h12.2l-10.1,45.6h-17.6l-6.2-28.6h-0.5l-6.6,28.6h-17.4l-9.9-45.6h12.3l6.6,35.1h0.4l8.6-35.1h12.7l8.1,35.1h0.4
	L472.5,291.6z M486.2,320.9V308c0-14,8.8-16.7,21.1-16.7c12.3,0,21.1,2.7,21.1,16.7v12.9c0,14-8.8,16.7-21.1,16.7
	C495,337.6,486.2,334.9,486.2,320.9 M515.9,319.5v-10.3c0-6.7-2.3-7.4-8.6-7.4c-6.3,0-8.4,0.7-8.6,7.4v10.3c0.2,6.8,2.3,7.5,8.6,7.5
	C513.6,327,515.9,326.4,515.9,319.5 M532.4,320.9V308c0-14,8.8-16.7,21.1-16.7c12.4,0,21.1,2.7,21.1,16.7v12.9
	c0,14-8.8,16.7-21.1,16.7C541.2,337.6,532.4,334.9,532.4,320.9 M562.1,319.5v-10.3c0-6.7-2.3-7.4-8.6-7.4c-6.3,0-8.4,0.7-8.6,7.4
	v10.3c0.2,6.8,2.2,7.5,8.6,7.5C559.9,327,562.1,326.4,562.1,319.5 M579.8,291.6h23.1c12.7,0,18.4,4.7,18.4,17.7v9.5
	c0,12.5-4,18.4-16.7,18.4h-24.8L579.8,291.6L579.8,291.6z M592,326.7h10.6c4.5,0,6.1-3,6.1-7.8v-9.5c0-5.9-1.9-7.1-6.1-7.1H592
	V326.7L592,326.7z"/>
</svg>
