
<svg version="1.1" id="layer" xmlns="http://www.w3.org/2000/svg" xmlns:xlink="http://www.w3.org/1999/xlink" x="0px" y="0px"
	 viewBox="0 0 652 652" style="enable-background:new 0 0 652 652;" xml:space="preserve">
<style type="text/css">
	.st0{fill:#22353F;}
	.st1{fill:#169969;}
	.st2{fill:#FFFFFF;}
</style>
<path class="st0" d="M67.2,306.3c-3.9-2.9-9.2-4.5-16.2-5.2c-2.6-0.3-8.4-0.3-17.3-0.3c-4.7,0-8.1,0-10.2,0.3c-0.8,0-1.3,0.5-1.3,1
	c0,3.4,0,8.4,0.3,14.9c0.5,6.6,0.8,11.8,0.8,14.9s0,7.9-0.3,14.4c-0.3,6.3-0.3,11.3-0.3,14.4c0,0.8,0.5,1,1.3,1c1.3,0,3.7,0,6.6,0
	s5,0.3,6.3,0.3c7.6,0,12.3,0,13.9,0c8.6-0.3,15.5-3.1,20.4-8.9c5.5-6.3,8.1-13.6,8.1-22.3c0-4.7-1-9.2-3.1-13.6
	C73.7,312.6,70.8,308.9,67.2,306.3z M58.3,343.5c-2.9,3.4-6.8,5-11.8,5c-4.7,0-7.1-0.5-7.1-1.8c0-1.8,0-4.2,0-7.6c0-3.4,0-6,0-7.6
	c0-1.8,0-4.2,0-7.6c0-3.4,0-6,0-7.6c0-1.3,2.4-1.8,6.8-1.8c5,0,8.9,1.6,11.8,4.7c2.9,3.1,4.5,7.1,4.5,12.1
	C62.2,336.2,60.9,340.4,58.3,343.5z M105.2,318.4c-6.8,0-12.1,2.1-16,6.3c-3.9,4.2-5.8,9.7-5.8,16.2c0,6.3,2.1,11.5,6.3,15.7
	c4.2,4.2,9.4,6,15.7,6c6.6,0,11.8-2.1,16-6.3c3.9-4.2,6-9.4,6-16c0-6.6-2.1-11.8-6-16C117.2,320.2,111.7,318.4,105.2,318.4z
	 M110.9,346.4c-1.6,1.8-3.4,2.6-5.5,2.6c-2.4,0-4.2-0.8-5.8-2.6c-1.3-1.6-2.1-3.7-2.1-6c0-2.4,0.8-4.5,2.1-6
	c1.6-1.8,3.4-2.6,5.8-2.6c2.4,0,4.2,0.8,5.5,2.6c1.3,1.8,2.1,3.7,2.1,6C113,342.7,112.2,344.8,110.9,346.4z M148.7,300.8h-15.5
	c-0.8,0-1,0.3-1,1c0,0.3,0,0.5,0,0.8c0.5,4.7,1,10.2,1,16.5c0-1,0,4.5,0,16.8c0,2.6,0,6.3,0,11.5c0,5.2,0,8.9,0,11.5
	c0,1,0,1.8,0,1.8c0,0.5,0.5,1,1,1c1,0.3,3.1,0.3,6.6,0.3s5.8,0,7.1-0.3c0.8,0,1-0.5,1-1c0-0.8,0-1.8-0.3-3.4c0-1.6,0-2.9,0-3.4
	c0-4.2,0-10.2,0-18.3c0-9.7,0.3-20.7,1-33.3v-0.8C149.7,301.1,149.4,300.8,148.7,300.8z M172.5,300.8h-15.7c-0.8,0-1,0.3-1,1
	c0,0.3,0,0.5,0,0.8c0.5,4.7,1,10.2,1,16.5c0-1,0,4.5,0,16.8c0,2.6,0,6.3,0,11.5c0,5.2,0,8.9,0,11.5c0,1,0,1.8,0,1.8c0,0.5,0.5,1,1,1
	c1,0.3,3.1,0.3,6.6,0.3s5.8,0,7.1-0.3c0.8,0,1-0.5,1-1c0-0.8,0-1.8-0.3-3.4c0-1.6,0-2.9,0-3.4c0-4.2,0-10.2,0-18.3
	c0-9.7,0.3-20.7,1-33.3v-0.8C173.5,301.1,173,300.8,172.5,300.8z M224.9,321.8c-1.3-0.5-3.4-0.8-6.3-1.6c-3.1-0.5-5-0.8-6-0.8
	c-0.5,0-0.8,0.8-1.3,2.1c-0.3,1.3-0.5,2.1-0.8,2.1c0,0-0.3,0-0.3-0.3c-2.6-3.1-6.3-4.7-10.7-4.7c-6.6,0-11.8,2.1-15.5,6.3
	c-3.7,4.2-5.5,9.4-5.5,16.2c0,5.8,1.8,10.7,5.2,14.9c3.7,4.5,8.4,6.8,14.1,6.8c3.7,0,7.1-1.6,10.5-5c0.3-0.3,0.8-0.5,0.8-0.8
	c0.3,0,0.5,0.8,0.8,2.6c0.3,1.6,0.5,2.6,1,2.6c4.7,0,8.6,0,12.3-0.3c1,0,1.6-0.8,1.6-1.8c0-2.1,0-5.5-0.3-10s-0.3-7.9-0.3-10
	c0-5.8,0.5-11.5,1.3-16.8c0-0.5,0.3-0.8,0.3-0.8C225.4,322.3,225.2,322,224.9,321.8z M207.6,346.4c-1.6,1.6-3.7,2.4-6,2.4
	c-2.4,0-4.2-0.8-6-2.6c-1.6-1.6-2.4-3.7-2.4-6c0-2.6,0.8-4.5,2.4-6c1.6-1.6,3.7-2.4,6-2.4c2.4,0,4.5,0.8,6,2.4
	c1.6,1.6,2.4,3.7,2.4,6C210,342.7,209.2,344.8,207.6,346.4z M261.8,320.7c0-0.8-0.8-1-2.4-1c-2.6,0-5.2,0.8-8.1,2.4
	c-2.6,1.3-3.7,2.1-3.7,2.4c-0.3,0-0.5-1-0.8-2.6c-0.3-1.8-0.5-2.6-1-2.6c-0.3,0-2.6,0.5-7.1,1.3c-3.1,0.5-5.5,0.8-7.1,1
	c-0.5,0.3-0.5,0.5-0.5,0.8c0,0.3,0,0.3,0,0.5c1.3,4.5,1.8,10,1.8,16.8c0,2.4,0,5.8,0,10.5s0,8.1,0,10.5c0,0.8,0.5,1.3,1.3,1.3
	c1.6,0.3,3.9,0.3,6.6,0.3c2.9,0,5,0,6.3-0.3c1,0,1.3-0.5,1.3-1c0-0.8,0-2.1-0.3-3.7c0-1.6-0.3-2.9-0.3-3.7c0-1.3,0-3.1,0-5.8
	s0-4.5,0-5.8c0-2.4,0.5-3.9,1.3-4.5c0.8-0.8,2.6-1,5-1c0.5,0,1.3,0,2.4,0c1,0,1.8,0,2.4,0c1.3,0,1.8-0.5,1.8-1.6c0-0.5,0-1.6,0-3.4
	c0-1.3,0-2.6,0-3.4c0-0.8,0.3-1.8,0.3-3.7C261.8,322.8,261.8,321.8,261.8,320.7z M316.1,330.2c-0.8-0.5-1-0.8-1-1
	c0,0,0.5-0.5,1.6-1.6c1.3-1.3,2.1-2.6,2.9-4.2c1-1.8,1.6-3.7,1.6-5.5c0-6.6-2.4-11.3-6.8-13.9c-3.4-2.1-8.6-3.1-15.7-3.4
	c-1.6,0-7.1,0-16.2,0c-5.8,0-9.2,0-10,0.3c-1,0-1.3,0.5-1.3,1v0.5c0.3,4.7,0.3,8.4,0.5,10.7c0.3,9.2,0.5,15.7,0.5,18.9
	s-0.3,7.9-0.5,14.1c-0.3,6.3-0.5,11-0.5,14.1c0,0.8,0.5,1,1.3,1.3c2.1,0.5,8.4,0.5,19.1,0.5c0.8,0,1.6,0,3.1,0c1.3,0,2.4,0,3.1,0
	c9.4,0,16.2-2.1,19.9-6c3.4-3.4,5-7.9,5-13.4c0-2.6-0.5-5-1.6-7.3C319.7,333.3,318.2,331.5,316.1,330.2z M288.3,316
	c0-1,0.3-1.8,0.3-2.6c0-0.5,1.6-0.8,4.7-0.8s5.5,0.3,6.8,0.5c2.6,0.8,3.7,2.4,3.7,5c0,3.7-3.1,5.2-9.4,5.2c-3.4,0-5.2,0-5.5-0.3
	c-0.5-0.3-0.8-2.1-0.8-5C288,318.1,288,317.3,288.3,316z M301.9,348c-1.3,0.5-3.4,0.8-6.6,0.8c-3.9,0-5.8-0.3-6.3-0.5
	c-0.3-0.3-0.5-2.4-0.5-5.8c0-3.4,0.3-5,0.5-5.2c0.3-0.3,2.4-0.5,6-0.5c3.1,0,5.5,0.3,6.8,0.8c2.1,1,3.1,2.6,3.1,5.2
	C305.1,345.4,304,347.2,301.9,348z M354.6,319.7c-2.6,0-5.2,0.8-8.1,2.4c-2.6,1.3-3.7,2.1-3.7,2.4c-0.3,0-0.5-1-0.8-2.6
	c-0.3-1.8-0.5-2.6-1-2.6c-0.3,0-2.6,0.5-7.1,1.3c-3.1,0.5-5.5,0.8-7.1,1c-0.5,0.3-0.5,0.5-0.5,0.8c0,0.3,0,0.3,0,0.5
	c1.3,4.5,1.8,10,1.8,16.8c0,2.4,0,5.8,0,10.5s0,8.1,0,10.5c0,0.8,0.5,1.3,1.3,1.3c1.6,0.3,3.9,0.3,6.6,0.3c2.9,0,5,0,6.3-0.3
	c1,0,1.3-0.5,1.3-1c0-0.8,0-2.1-0.3-3.7c0-1.6-0.3-2.9-0.3-3.7c0-1.3,0-3.1,0-5.8s0-4.5,0-5.8c0-2.4,0.5-3.9,1.3-4.5
	c0.8-0.8,2.6-1,5-1c0.5,0,1.3,0,2.4,0s1.8,0,2.4,0c1.3,0,1.8-0.5,1.8-1.6c0-0.5,0-1.6,0-3.4c0-1.3,0-2.6,0-3.4c0-0.8,0-1.8,0.3-3.7
	c0.3-1.6,0.3-2.6,0.3-3.7C356.9,320.2,356.2,319.7,354.6,319.7z M381.6,317.6c-6.6,0-12.1,2.1-16,6.6c-3.9,4.2-5.8,9.7-5.8,16.5
	s2.1,12.3,6.6,16.5c4.2,3.9,9.7,6,16.8,6c7.3,0,12.8-1.8,16.5-5.8c0.5-0.5,0.5-0.8,0.5-1c0-0.8-0.8-2.4-2.1-5
	c-1.3-2.6-2.4-4.2-3.1-4.5c-1,0.8-2.1,1.3-3.4,2.1c-2.6,1.3-5.2,2.1-7.9,2.1c-2.1,0-4.2-0.5-5.8-1.3c-2.1-1-3.4-2.4-3.7-4.2
	c6.8-0.5,11.8-1,15.2-1.3c5.8-0.5,8.6-0.8,8.9-1c1.8-0.5,2.9-2.1,2.9-5c0-5.5-1.8-10.5-5.8-14.4
	C391.8,319.7,387.1,317.6,381.6,317.6z M384.7,336.2c-4.5,0.8-7.9,1-10,1c-0.8,0-1.3-0.3-1.3-1c0-1.8,0.5-3.7,1.6-5
	c1.3-1.6,2.6-2.4,4.5-2.4c1.8,0,3.4,0.8,4.5,2.1c1.3,1.3,1.8,2.9,1.8,4.7C386.3,335.9,385.8,336.2,384.7,336.2z M451,321.8
	c-1.3-0.5-3.4-0.8-6.3-1.6c-3.1-0.5-5-0.8-6-0.8c-0.5,0-0.8,0.8-1.3,2.1c-0.3,1.3-0.5,2.1-0.8,2.1c0,0-0.3,0-0.3-0.3
	c-2.6-3.1-6.3-4.7-10.7-4.7c-6.6,0-11.8,2.1-15.5,6.3c-3.7,4.2-5.5,9.4-5.5,16.2c0,5.8,1.8,10.7,5.2,14.9c3.7,4.5,8.4,6.8,14.1,6.8
	c3.7,0,7.1-1.6,10.5-5c0.3-0.3,0.8-0.5,0.8-0.8c0.3,0,0.5,0.8,0.8,2.6c0.3,1.6,0.5,2.6,1,2.6c4.7,0,8.6,0,12.3-0.3
	c1,0,1.6-0.8,1.6-1.8c0-2.1-0.3-5.5-0.3-10c-0.3-4.5-0.3-7.9-0.3-10c0-5.8,0.5-11.5,1.3-16.8c0-0.5,0-0.8,0-0.8
	C451.5,322.3,451.3,322,451,321.8z M433.7,346.4c-1.6,1.6-3.7,2.4-6,2.4c-2.4,0-4.2-0.8-6-2.6c-1.6-1.6-2.4-3.7-2.4-6
	c0-2.6,0.8-4.5,2.4-6s3.7-2.4,6-2.4c2.6,0,4.5,0.8,6,2.4c1.6,1.6,2.4,3.7,2.4,6C436.1,342.7,435.3,344.8,433.7,346.4z M496.6,349
	c0-0.3,0.3-0.5,0.8-0.8c6.3-3.4,9.4-8.1,9.4-14.7c0-5-1.6-8.6-5-11.3c-2.9-2.4-7.1-3.4-12.1-3.4c-5.5,0-10,1.8-13.6,5.8
	c-0.5,0.5-0.8,0.8-1,1c-0.3,0-0.3-0.5-0.3-1.3c0-3.4,0.3-8.4,0.3-14.4c0-0.8,0.3-2.4,0.3-4.5c0.3-1.8,0.3-3.4,0.3-4.5
	c0-0.8-0.3-1.3-0.8-1.3c-1,0-2.4,0-4.2,0.3c-2.1,0.3-3.4,0.5-4.2,0.5c-3.1,0-5.5,0-6.8,0c-0.8,0-1,0.3-1,1c0,3.7,0,8.9,0.3,16
	c0.3,7.1,0.3,12.6,0.3,16v26.7c0,1,0.3,1.6,1,1.8c0.5,0,2.6,0.3,6,0.3c4.2,0,6.3,0,6.8,0c0.8,0,1.3-0.5,1.3-1.3c0-1,0-2.4,0-4.5
	s0-3.4,0-4.2c5,0.3,7.6,0.5,7.9,0.5c2.4,3.7,4.2,6.3,5.5,8.4c0.5,0.8,2.1,1,5.2,1c7.6,0,11.5-0.3,11.5-1c0-0.3-1.3-2.1-3.9-5.8
	C498.2,351.4,496.6,349.6,496.6,349z M480.9,342.5c-2.9,0-4.5-0.3-5-0.5c-0.8-0.5-1-1.8-1-4.5c0-1.6,1-3.1,3.1-4.7
	c2.1-1.3,3.9-2.1,5.8-2.1c3.9,0,6,1.8,6,5.2C489.8,340.4,486.9,342.5,480.9,342.5z"/>
<path id="XMLID_487_" class="st0" d="M554.5,368.7c-19.7,0-35.6-15.7-35.6-35.4c-0.3-19.7,15.7-35.9,35.4-36.2l0,0
	c9.7-0.3,18.6,3.4,25.4,10.2s10.7,15.7,10.7,25.2s-3.4,18.6-10.2,25.4s-15.7,10.7-25.2,10.7C554.8,368.7,554.5,368.7,554.5,368.7z
	 M554.2,302.4c-17,0.3-30.4,14.1-30.4,30.9c0.3,16.8,13.9,30.4,30.7,30.4h0.3c8.1,0,16-3.4,21.5-9.2c5.8-5.8,8.9-13.6,8.6-21.7
	C584.6,316,571,302.4,554.2,302.4C554.2,302.4,554.2,302.4,554.2,302.4L554.2,302.4z"/>
<circle id="XMLID_485_" class="st1" cx="554.5" cy="333.1" r="31.4"/>
<path id="XMLID_479_" class="st2" d="M554.8,360c-14.9,0.3-27.2-11.8-27.5-27c-0.3-14.9,11.8-27.2,27-27.5
	c14.9-0.3,27.2,11.8,27.5,27C581.8,347.7,569.7,360,554.8,360z M554.2,309.2c-13.1,0.3-23.8,11-23.6,24.1s11,23.8,24.1,23.6
	c13.1-0.3,23.8-11,23.6-24.1C578.1,319.7,567.3,308.9,554.2,309.2z"/>
<path id="XMLID_473_" class="st2" d="M546.9,344.3c-1.3-1-1.8-2.9-2.1-5.5v-1h7.1v0.8c0,1,0.3,2.1,0.8,2.4c0.5,0.5,1,0.5,1.8,0.5
	s1.3-0.3,1.8-0.8s0.5-1,0.5-1.8c0-0.8-0.3-1.6-0.8-2.1s-1.3-1-2.1-1.3c-0.8-0.3-1.8-0.8-2.9-1c-1-0.3-1.8-0.8-2.9-1.6
	c-0.8-0.5-1.6-1.3-2.1-2.4c-0.5-1-0.8-2.4-0.8-3.9c0-5,2.4-7.6,7.1-8.6v-2.4h3.7v2.4c2.6,0.3,4.5,1,5.8,2.4c1.3,1.3,1.8,3.4,1.8,6
	h-6.8v-0.5c0-0.8-0.3-1.6-0.5-2.1c-0.3-0.5-0.8-0.8-1.6-0.8c-0.8,0-1.3,0.3-1.8,0.8c-0.3,0.5-0.5,1-0.5,1.6c0,0.8,0.3,1.6,0.8,2.1
	c0.5,0.5,1.3,1,2.1,1.3c0.8,0.3,1.8,0.8,2.9,1c1,0.3,2.1,0.8,2.9,1.3c0.8,0.5,1.6,1.3,2.4,2.4c0.5,1,0.8,2.4,1,3.9
	c0,2.6-0.5,4.7-2.1,6c-1.3,1.3-3.4,2.1-6,2.4v3.4h-3.7v-3.4C550,346.2,548.2,345.4,546.9,344.3z"/>
<path class="st0" d="M579.7,297.9c0,0,0.5-2.1,1.8-4.5c0.5-1.3,1.6-2.6,2.6-4.2c1-1.3,2.4-2.9,3.7-4.2c2.4-2.9,4.7-5.8,6.8-8.1
	c1.8-2.1,3.1-3.7,3.1-3.7l0.3,0.3c0,0-1,1.6-2.4,4.2c-1.6,2.4-3.4,5.8-5.5,8.9c-1,1.6-1.8,3.4-2.9,4.7c-1,1.6-2.1,2.6-3.1,3.7
	c-2.1,2.1-3.7,3.1-3.7,3.1L579.7,297.9z M587,305.5c0,0,1-1.8,3.1-3.7c1-1,2.4-2.1,3.7-3.1c1.6-1,3.1-1.8,4.7-2.9
	c3.4-1.8,6.6-3.9,9.2-5.2c2.4-1.3,4.2-2.4,4.2-2.4l0.3,0.3c0,0-1.6,1.3-3.7,3.1c-2.1,1.8-5.2,4.2-8.1,6.6c-1.6,1-2.9,2.4-4.5,3.4
	s-2.9,1.8-4.2,2.4c-2.6,1.3-4.7,1.8-4.7,1.8V305.5z M593,314.7c0,0,1.6-1.3,4.2-2.4c1.3-0.5,2.9-1.3,4.5-1.8c1.8-0.5,3.7-0.8,5.5-1
	c3.7-0.8,7.3-1.6,10.2-2.1s4.7-0.8,4.7-0.8v0.3c0,0-1.8,0.8-4.5,1.8c-2.6,1-6.3,2.4-10,3.7c-1.8,0.5-3.7,1.3-5.2,1.8
	c-1.8,0.5-3.4,0.8-4.7,1c-2.9,0.3-5,0.3-5,0.3L593,314.7z"/>
</svg>
