
<svg version="1.1" id="layer" xmlns="http://www.w3.org/2000/svg" xmlns:xlink="http://www.w3.org/1999/xlink" x="0px" y="0px"
	 viewBox="0 0 652 652" style="enable-background:new 0 0 652 652;" xml:space="preserve">
<g>
	<path d="M20.6,352.2v-56h13.1c7.5,0,13.3,2,17.4,6c5.5,5.2,8.2,12.6,8.2,22c0,9.3-2.3,16.5-6.9,21.5c-3.9,4.3-9.8,6.5-17.6,6.5
		H20.6z M35.7,338.8c5.4-0.3,8.1-4.9,8.1-14c0-4.5-0.7-8-2.1-10.6c-1.4-2.6-3.2-3.9-5.6-3.9h-0.5V338.8z"/>
	<path d="M104.9,324.4c0,8.2-1.9,14.9-5.8,20.1c-3.9,5.1-8.9,7.7-15.1,7.7c-5.5,0-10.2-2-14.2-5.9c-5-5-7.4-12.5-7.4-22.5
		c0-9.6,2.6-16.9,7.8-22c3.8-3.8,8.4-5.6,13.7-5.6c6.5,0,11.6,2.5,15.4,7.6C102.9,308.9,104.9,315.8,104.9,324.4 M89.2,324.5
		c0-9.9-1.8-14.9-5.4-14.9c-1.8,0-3.2,1.3-4.3,3.9c-1,2.4-1.6,6-1.6,10.7c0,4.6,0.5,8.2,1.5,10.8c1,2.5,2.3,3.8,4.1,3.8
		c1.8,0,3.2-1.3,4.1-3.8C88.6,332.5,89.2,329,89.2,324.5"/>
	<path d="M147.8,352.2h-16.4l-7.5-19.9c-0.1-0.3-0.2-0.8-0.4-1.3c-0.2-0.6-0.4-1.2-0.7-2l0.1,3.7v19.6h-15v-56h15.5
		c6.8,0,11.9,1.3,15.3,4c4.3,3.4,6.5,8.3,6.5,14.6c0,6.8-2.9,11.4-8.7,14L147.8,352.2z M123.1,321.3h1c1.7,0,3.2-0.7,4.4-2
		c1.2-1.3,1.7-3,1.7-5.1c0-4.2-2.2-6.3-6.6-6.3h-0.5V321.3z"/>
	<path d="M208.3,352.2H193l-0.6-25.5l-0.5-10.2c-0.2,2-0.4,3.8-0.6,5.6c-0.2,1.8-0.5,3.5-0.8,5.2l-4.9,24.9h-12.6l-4.1-25
		c-0.2-1.4-0.6-3.9-1-7.5c0-0.5-0.2-1.6-0.3-3.3l-0.4,10.3l-1.3,25.4h-16.1l6.5-56h18.8l3.2,18.9c0.3,1.5,0.5,3.2,0.7,5
		c0.2,1.8,0.4,3.8,0.6,5.9c0.3-3.6,0.7-6.7,1.3-9.5l3.8-20.3h18.3L208.3,352.2z"/>
	<polygon points="212.4,352.2 212.4,296.2 240.5,296.2 240.5,309.6 227.5,309.6 227.5,316.7 239.1,316.7 239.1,330.2 227.5,330.2 
		227.5,338.8 240.5,338.8 240.5,352.2 	"/>
	<path d="M286,352.2h-16.4l-7.5-19.9c-0.1-0.3-0.2-0.8-0.4-1.3c-0.2-0.6-0.4-1.2-0.7-2l0.1,3.7v19.6h-15v-56h15.5
		c6.8,0,11.9,1.3,15.3,4c4.3,3.4,6.5,8.3,6.5,14.6c0,6.8-2.9,11.4-8.7,14L286,352.2z M261.3,321.3h1c1.7,0,3.2-0.7,4.4-2
		c1.2-1.3,1.7-3,1.7-5.1c0-4.2-2.2-6.3-6.6-6.3h-0.5V321.3z"/>
	<path d="M363.1,352.5V296h15.4c6.8,0,11.8,1.4,15.6,3.9c4.4,3.1,6.6,8,6.6,14.8c0,5.4-1.2,9.7-3.7,12.7c-3.4,4.4-9,6.6-16.6,6.6
		h-1.9v18.5H363.1z M378.5,321.3c2.2,0,3.9-0.7,5.1-1.7c1-1,1.5-2.5,1.5-4.6s-0.5-3.7-1.7-4.9c-1.2-1.4-2.7-2-4.9-2V321.3z"/>
	<path d="M404.5,352.5V296h14.7c7.9,0,13.9,1.5,17.6,4.6c3.4,2.9,5.2,7.3,5.2,13.2c0,3.9-0.7,7.1-2.2,9.7c-1.4,2.5-3.5,4.4-6.6,5.6
		l11.3,23.4h-16.4l-8.5-23.2v23.2H404.5z M419.8,322.2c2.4,0,4.1-0.7,5.2-1.9c1.2-1.4,1.9-3.1,1.9-5.3c0-2-0.7-3.7-1.9-4.9
		c-1.4-1.2-3-1.9-5.2-1.9V322.2z"/>
	<path d="M489.8,352.5H474l-1-7.3h-10.5l-1,7.3h-15.9l13.5-56.5h18.6L489.8,352.5z M464.7,333.2h6.3l-2.7-23.6L464.7,333.2z"/>
	<polygon points="550.8,352.5 535.1,352.5 533.5,317.1 527.1,352.5 514.8,352.5 509.4,317.1 507.7,352.5 491.4,352.5 498,296 
		517,296 521.4,326.1 526.6,296 545.4,296 	"/>
	<polygon points="554.2,352.5 554.2,296 582.2,296 582.2,309.6 569.2,309.6 569.2,317.3 581.1,317.3 581.1,330.7 569.2,330.7 
		569.2,339.3 582.2,339.3 582.2,352.5 	"/>
</g>
<g>
	<polygon points="611.8,352.5 596.9,352.5 596.9,309.6 588.1,309.6 588.1,296 620.6,296 620.6,309.6 611.8,309.6 	"/>
	<path d="M335.4,301.4c-12.7-3.3-24.7,0.5-29.7,9.3l-11.2-11.9c2.7-2.3,5.9-4.2,9.3-5.5c2.8-1,5.8-1.7,8.8-2c4.2-0.4,8.6-0.1,13,1.1
		c0.7,0.2,1.4,0.4,2.1,0.6C331.2,295.6,333.7,298.5,335.4,301.4"/>
</g>
<g>
	<path d="M335.2,352.2c27.3-21.4,16.3-48-3.3-57.6c3.7,3.6,6,7.4,7.1,11.4l0,0c1,3.3,1.1,6.8,0.4,10.4c-0.1,0.3-0.1,0.6-0.2,1
		c-0.9,3.8-2.7,7.6-5.2,11.2c-7,10-21.9,18.9-36.9,23.6L335.2,352.2z"/>
</g>
</svg>
