
<svg version="1.1" id="layer" xmlns="http://www.w3.org/2000/svg" xmlns:xlink="http://www.w3.org/1999/xlink" x="0px" y="0px"
	 viewBox="0 0 652 652" style="enable-background:new 0 0 652 652;" xml:space="preserve">
<style type="text/css">
	.st0{fill:#CE1126;}
</style>
<path class="st0" d="M26.4,346.6v-77.3h42.2v17H45.4v12.6h22.9v17.4H45.4v13.4h22.9v17C68.3,346.6,26.4,346.6,26.4,346.6z
	 M119.5,340.2c-5.1,5.1-10.3,6.7-17.4,6.7s-13-2.4-18.1-6.7c-6.7-5.9-10.3-13.8-10.3-22.9c0-8.3,3.2-15.8,9.5-21.7
	c5.5-5.5,12.2-7.9,19.3-7.9c7.1,0,12.6,2.4,16.6,7.5v-26h17.4v77.3h-16.6L119.5,340.2L119.5,340.2z M106.1,331.6
	c7.5,0,13.8-5.9,13.8-14.2s-6.3-14.6-14.2-14.6c-8.3,0-14.6,6.7-14.6,14.6C90.7,325.3,97.1,331.6,106.1,331.6z M142.4,282.7v-13.4
	h17v13.4H142.4z M142.4,346.6v-58.4h17v58.4H142.4z M164.1,346.6v-58.4h16.2l-0.4,7.9c3.6-5.9,9.1-9.1,16.6-9.1
	c12.2,0,20.1,7.5,20.1,20.9v38.7h-17V315c0-8.3-1.6-11.8-8.3-11.8c-6.7,0-10.3,3.9-10.3,11.8v31.6H164.1z M266.3,340.2
	c-5.1,5.1-10.3,6.7-17.4,6.7c-7.1,0-13-2.4-18.1-6.7c-6.7-5.9-10.3-13.8-10.3-22.9c0-8.3,3.2-15.8,9.5-21.7
	c5.5-5.5,12.2-7.9,19.3-7.9c7.1,0,12.6,2.4,16.6,7.5v-7.1h17.4v58.4h-16.6L266.3,340.2L266.3,340.2z M252.5,331.6
	c7.5,0,13.4-5.9,13.4-14.2s-6.3-14.6-14.2-14.6c-8.3,0-14.6,6.7-14.6,14.6C237.5,325.3,243.8,331.6,252.5,331.6z M306.1,346.6v-77.3
	h25.6c8.3,0,14.2,0.4,19.7,4.3c6.7,4.7,10.7,12.2,10.7,21.7c0,12.6-6.7,21.7-17.4,24.9l18.9,26.4h-23.3l-15-24.9v24.9
	C325.5,346.6,306.1,346.6,306.1,346.6z M328.6,304.7c9.5,0,13.8-2.4,13.8-9.5c0-6.3-3.9-9.1-12.2-9.1h-5.1v18.5L328.6,304.7
	L328.6,304.7z M422.1,329.6c-5.5,12.2-15.4,18.5-28.4,18.5c-9.1,0-16.2-3.2-22.1-9.5c-5.5-5.9-8.7-13.4-8.7-21.7
	c0-8.3,3.2-15.8,9.1-21.3c5.9-5.9,13.8-9.1,21.7-9.1c18.5,0,31.2,13.4,31.2,35.1c0,0.4,0,1.2,0,2h-44.2c1.6,6.3,5.9,9.5,13.4,9.5
	c3.6,0,6.3-0.8,9.1-3.2h18.9V329.6z M407.5,311.1c-2-5.9-7.1-9.1-13.8-9.1c-7.1,0-12.2,3.6-13.4,9.1H407.5z M475,340.2
	c-5.1,5.1-10.3,6.7-17.4,6.7c-7.1,0-13-2.4-18.1-6.7c-6.7-5.9-10.3-13.8-10.3-22.9c0-8.3,3.2-15.8,9.5-21.7
	c5.5-5.5,12.2-7.9,19.3-7.9c7.1,0,12.6,2.4,16.6,7.5v-7.1h17.4v58.4h-16.6v-6.3H475z M461.6,331.6c7.5,0,13.8-5.9,13.8-14.2
	s-6.3-14.6-14.2-14.6c-8.3,0-14.6,6.7-14.6,14.6C446.6,325.3,452.9,331.6,461.6,331.6z M515.2,269.2v77.3h-17v-77.3H515.2z
	 M519.5,301.2v-13h7.5v-18.9h17.4v18.9h7.9v13h-7.9V347H527v-45.8H519.5z"/>
<polygon class="st0" points="595.3,288.2 582.7,322.1 571.6,288.2 552.7,288.2 574.4,343 565.3,365.5 565.3,365.5 565.3,365.1 
	26.1,365.1 26.1,382.5 576.3,382.1 613.8,288.2 "/>
<path class="st0" d="M616.6,332.8c2.4,0,4.3,0.8,5.9,2.4s2.4,3.6,2.4,6.3c0,2.4-0.8,4.3-2.4,5.9c-1.6,1.6-3.9,2.4-6.3,2.4
	s-4.3-0.8-5.9-2.4s-2.4-3.9-2.4-5.9c0-2.4,0.8-4.3,2.8-5.9C612.2,333.5,614.2,332.8,616.6,332.8z M616.6,331.2
	c-2.8,0-5.1,0.8-7.1,2.8c-2,2-3.2,4.3-3.2,7.1c0,2.8,1.2,5.1,2.8,7.1c2,2,4.3,3.2,7.1,3.2c2.8,0,5.1-1.2,7.1-2.8
	c2-2,2.8-4.3,2.8-7.1c0-2.8-1.2-5.1-2.8-7.1S619.3,331.2,616.6,331.2z M612.6,335.5V347h2.4v-4.7h1.6l2.4,4.7h2.8l-2.4-5.1
	c1.6-0.4,2.4-1.6,2.4-3.2c0-2-1.6-3.2-4.7-3.2C617,335.5,612.6,335.5,612.6,335.5z M615,337.1h1.6c2,0,2.8,0.4,2.8,2
	c0,1.2-0.8,1.6-2.8,1.6H615V337.1z"/>
</svg>
