
<svg version="1.1" id="layer" xmlns="http://www.w3.org/2000/svg" xmlns:xlink="http://www.w3.org/1999/xlink" x="0px" y="0px"
	 viewBox="0 0 652 652" style="enable-background:new 0 0 652 652;" xml:space="preserve">
<style type="text/css">
	.st0{fill:#FFC222;}
	.st1{fill:#002B54;}
</style>
<g>
	<g>
		<g>
			<g>
				<polygon class="st0" points="557.4,328.3 557.4,402 461,402 461,305.7 534.8,305.7 534.8,291.4 446.8,291.4 446.8,416.3 
					571.7,416.3 571.7,328.3 				"/>
				<polygon class="st0" points="557.4,236.7 557.4,268.8 571.7,268.8 571.7,251 612.1,251 612.1,291.4 594.4,291.4 594.4,305.7 
					626.4,305.7 626.4,236.7 				"/>
				<polygon class="st1" points="31.3,327.3 26.4,327.3 26.4,274.3 61.2,274.3 61.2,278.7 31.3,278.7 31.3,296.7 58.1,296.7 
					58.1,301 31.3,301 				"/>
			</g>
		</g>
	</g>
</g>
<g>
	<path class="st1" d="M93,317.9c-0.5,1.3-1.5,3.3-3.4,5.4c-1.1,1.1-4.5,5-12.3,5c-11.9,0-17.1-9.1-17.1-19.1
		c0-11.9,7.8-18.5,16.6-18.5c10.8,0,16.5,9.5,16.2,18.8H65.2c-0.1,1.9,0.1,4.7,1.1,7.4c2.9,7.4,9.6,7.4,11.1,7.4
		c3.9,0,8.4-1.4,11.5-7.5L93,317.9z M88,305.8c-0.4-3.2-1.4-6.2-3.8-8.5c-1.5-1.4-3.9-2.7-7.4-2.7c-6.2,0-10.7,4.4-11.5,11.2H88z"/>
</g>
<g>
	<path class="st1" d="M126.6,327.3h-4.4v-6.5c-1.4,4.2-5.6,7.3-11,7.3c-8.4,0-14.8-7.3-14.8-18.8c0-11.6,6.9-18.6,15.5-18.6
		c5.3,0,9.3,3,10.3,6.5v-23h4.4V327.3z M120.1,298.6c-1.4-1.9-4.1-3.8-8-3.8c-7.1,0-10.8,6.3-10.8,14.6c0,5.4,1.7,14.6,10.7,14.6
		c10.3,0,10.4-10.9,10.5-14.2C122.5,304.8,121.8,301,120.1,298.6z"/>
</g>
<g>
	<path class="st1" d="M163.9,317.9c-0.5,1.3-1.5,3.3-3.4,5.4c-1.1,1.1-4.5,5-12.3,5c-11.9,0-17.1-9.1-17.1-19.1
		c0-11.9,7.8-18.5,16.5-18.5c10.8,0,16.5,9.5,16.2,18.8H136c-0.1,1.9,0.1,4.7,1.1,7.4c2.9,7.4,9.6,7.4,11.1,7.4
		c3.9,0,8.4-1.4,11.5-7.5L163.9,317.9z M158.8,305.8c-0.4-3.2-1.4-6.2-3.8-8.5c-1.5-1.4-3.9-2.7-7.4-2.7c-6.2,0-10.7,4.4-11.5,11.2
		H158.8z"/>
</g>
<g>
	<path class="st1" d="M173.5,327.3h-4.4v-35.8h4.4v5.7c2.3-4.7,6-6.3,10.5-6.3c1.1,0,1.6,0.1,2.5,0.2v4c-1.4-0.2-1.5-0.2-2.7-0.2
		c-1.2,0-4.7,0.1-7.4,2.9c-2.8,3.1-2.8,6.8-2.9,14.1V327.3z"/>
</g>
<g>
	<path class="st1" d="M220,327.3c-5.4,0-9.3-0.5-9.6-5.9v-0.7c-0.2,0.3-0.2,0.5-0.3,0.7c-2.1,4.4-7.3,6.6-12.5,6.6
		c-8.9,0-11.3-6-11.3-9.8c0-8.3,8.5-10.2,19.8-12.8l4.3-1v-1.8c0-2.6,0-8.3-8.7-8.3c-8.8,0-9.3,5-9.4,8.7l-4.9-0.8
		c0.3-1.8,0.7-4.1,2.1-6.2c2.6-4.1,7.2-5.6,12-5.6c4.4,0,11,1.1,12.6,7c0.5,1.7,0.5,3.4,0.5,6.9v11.6c0,6.3,0.1,7.8,5.4,7.7V327.3z
		 M210.4,308.4l-2.3,0.5c-5,1.4-7,1.9-8.9,2.4c-4.1,1.1-8.6,2.5-8.6,6.9c0,2.9,2.1,5.9,7.1,5.9c3.4,0,7.2-1.6,9.6-3.9
		c2.8-2.8,2.9-5.6,3-9.2V308.4z"/>
</g>
<g>
	<g>
		<g>
			<g>
				<rect x="223.6" y="274.3" class="st1" width="4.4" height="53.1"/>
			</g>
		</g>
	</g>
</g>
<g>
	<path class="st1" d="M290.9,327.3h-6.3l-16.8-23.5h-12.5v23.5h-5v-53.1h14.9c9.3,0.1,11.6,0.1,14.9,1.2c8.7,3.1,9.3,11.4,9.3,14
		c0,5.6-2.4,8.6-4,10.2c-3.8,3.6-8.9,3.9-11.7,4.1L290.9,327.3z M255.4,299.5h12.5c3.5,0,6.7-0.1,9-0.5c5.6-1.1,7.7-5.4,7.7-9.7
		c0-5.2-2.6-9.1-7.7-10.1c-1.5-0.3-2.2-0.3-8.9-0.4h-12.5V299.5z"/>
</g>
<g>
	<path class="st1" d="M324.1,317.9c-0.5,1.3-1.5,3.3-3.4,5.4c-1.1,1.1-4.5,5-12.3,5c-11.9,0-17.1-9.1-17.1-19.1
		c0-11.9,7.8-18.5,16.5-18.5c10.8,0,16.5,9.5,16.2,18.8h-27.8c-0.1,1.9,0.1,4.7,1.1,7.4c2.9,7.4,9.6,7.4,11.1,7.4
		c3.9,0,8.4-1.4,11.5-7.5L324.1,317.9z M319.1,305.8c-0.4-3.2-1.4-6.2-3.8-8.5c-1.5-1.4-3.9-2.7-7.5-2.7c-6.2,0-10.7,4.4-11.5,11.2
		H319.1z"/>
</g>
<g>
	<path class="st1" d="M361,327.3c-5.4,0-9.3-0.5-9.6-5.9v-0.7c-0.2,0.3-0.2,0.5-0.3,0.7c-2.1,4.4-7.3,6.6-12.5,6.6
		c-8.9,0-11.3-6-11.3-9.8c0-8.3,8.5-10.2,19.8-12.8l4.3-1v-1.8c0-2.6,0-8.3-8.7-8.3c-8.8,0-9.3,5-9.4,8.7l-4.9-0.8
		c0.3-1.8,0.7-4.1,2.1-6.2c2.6-4.1,7.1-5.6,12-5.6c4.4,0,11,1.1,12.6,7c0.4,1.7,0.4,3.4,0.4,6.9v11.6c0,6.3,0.1,7.8,5.4,7.7V327.3z
		 M351.4,308.4l-2.3,0.5c-5,1.4-7,1.9-8.9,2.4c-4.1,1.1-8.6,2.5-8.6,6.9c0,2.9,2.1,5.9,7.1,5.9c3.4,0,7.2-1.6,9.5-3.9
		c2.8-2.8,2.9-5.6,3-9.2V308.4z"/>
</g>
<g>
	<g>
		<g>
			<g>
				<rect x="365" y="274.3" class="st1" width="4.4" height="53.1"/>
			</g>
		</g>
	</g>
</g>
<g>
	<path class="st1" d="M385.3,319.7c0,3.4,1.2,4.4,2.9,4.4c1.6,0,3.4-1.1,5-2.3v4.4c-1.8,1.2-3.5,1.7-5.7,1.7
		c-6.5,0-6.5-3.6-6.5-10.4v-22.3h-7.5v-3.8h7.5v-15.3h4.3v15.3h7.9v3.8h-7.9L385.3,319.7L385.3,319.7z"/>
</g>
<g>
	<path class="st1" d="M427.3,291.5l-16.2,41c-2.7,6.7-3,7.4-3.8,8.9c-1.7,2.8-3.5,4.1-6.6,4.1c-2.5,0-4.1-0.9-4.8-1.4v-4.5
		c2.1,1.5,3.8,1.8,4.7,1.8c2.2,0,3.2-1.1,4.4-4.3c0.3-0.7,1.6-3.8,1.9-4.5l1.9-5.2l-12.4-35.8h4.3l10.5,30.5l11.7-30.5H427.3z"/>
</g>
<g>
	<g>
		<g>
			<g>
				<rect x="557.4" y="291.4" class="st1" width="14.4" height="14.3"/>
				<rect x="123.4" y="350.7" class="st1" width="3.2" height="17.4"/>
				<polygon class="st1" points="143.8,350.7 147,350.7 147,368.1 144.2,368.1 136.6,355.9 136.8,368.1 133.6,368.1 133.6,350.7 
					136.5,350.7 144.2,363 				"/>
				<polygon class="st1" points="165.5,350.7 160.6,368.1 156.2,368.1 151.1,350.7 154.5,350.7 158.4,364.4 162.2,350.7 				"/>
				<polygon class="st1" points="172.7,353.6 172.7,357.7 181.1,357.7 181.1,360.5 172.7,360.5 172.7,365.1 182.5,365.1 
					182.5,368.1 169.5,368.1 169.5,350.7 181.9,350.7 181.9,353.6 				"/>
			</g>
		</g>
	</g>
</g>
<g>
	<path class="st1" d="M189.2,362.9c0.4,0.6,1.7,2.6,5.4,2.6c0.6,0,1.3,0,1.9-0.3c1.3-0.5,1.5-1.4,1.5-2c0-1.1-0.8-1.5-1.3-1.7
		c-0.4-0.2-0.4-0.2-2-0.5l-2.1-0.5c-1.1-0.3-1.7-0.4-2.2-0.6c-0.8-0.3-2.9-1.4-2.9-4.3c0-3.3,2.8-5.4,6.9-5.4c3.7,0,5.8,1.8,7,3.5
		l-2.7,2c-0.6-0.9-1.7-2.6-4.5-2.6c-1.8,0-3.3,0.8-3.3,2.1c0,1.5,1.6,1.8,3.2,2.1l1.8,0.4c2.3,0.5,5.7,1.5,5.7,5.2
		c0,4-3.7,5.6-7.4,5.6c-1,0-2-0.1-3.1-0.4c-1.2-0.3-3.2-1.2-4.5-3.3L189.2,362.9z"/>
</g>
<g>
	<g>
		<g>
			<g>
				<polygon class="st1" points="217.6,353.6 212.7,353.6 212.7,368.1 209.5,368.1 209.5,353.6 204.8,353.6 204.8,350.7 
					217.6,350.7 				"/>
				<polygon class="st1" points="238,350.7 238,368.1 234.8,368.1 235.1,353.8 231.4,368.1 228.4,368.1 224.7,353.8 225,368.1 
					221.8,368.1 221.8,350.7 226.5,350.7 229.9,363.6 233.3,350.7 				"/>
				<polygon class="st1" points="248,353.6 248,357.7 256.4,357.7 256.4,360.5 248,360.5 248,365.1 257.8,365.1 257.8,368.1 
					244.8,368.1 244.8,350.7 257.1,350.7 257.1,353.6 				"/>
				<polygon class="st1" points="273.4,350.7 276.6,350.7 276.6,368.1 273.8,368.1 266.2,355.9 266.3,368.1 263.2,368.1 
					263.2,350.7 266.1,350.7 273.8,363 				"/>
				<polygon class="st1" points="293.8,353.6 289,353.6 289,368.1 285.7,368.1 285.7,353.6 281,353.6 281,350.7 293.8,350.7 				"/>
				<polygon class="st1" points="318,353.6 313.2,353.6 313.2,368.1 310,368.1 310,353.6 305.3,353.6 305.3,350.7 318,350.7 				"/>
			</g>
		</g>
	</g>
</g>
<g>
	<path class="st1" d="M322.4,350.7h5.6c2.3,0,3.9,0,5.4,1.3c1.1,0.9,1.9,2.3,1.9,4.3c0,3.3-2.4,4.5-3.4,4.8l3.9,7.1H332l-3.5-6.5
		h-2.9v6.5h-3.2V350.7z M325.7,353.5v5.4h1.1c1.1,0,1.5,0,2.1,0c0.7,0,3.1-0.1,3.1-2.7c0-0.4,0-1.7-1.4-2.3
		c-0.7-0.3-1.5-0.4-3.5-0.4H325.7z"/>
</g>
<g>
	<path class="st1" d="M355.2,350.7v11c0,2,0,3.6-1.9,5.2c-1.8,1.6-4.1,1.7-5.3,1.7c-1.1,0-2.1-0.1-3.1-0.5c-2.1-0.7-3.2-2.2-3.6-3.5
		c-0.2-0.8-0.2-1.3-0.2-3.5v-10.4h3.3v10.7c0,0.7,0,1.5,0.2,2.1c0.7,1.7,2.5,1.9,3.5,1.9c0.5,0,1.8,0,2.8-0.9c1-0.9,1-1.8,1-3.3
		v-10.5L355.2,350.7L355.2,350.7z"/>
</g>
<g>
	<path class="st1" d="M362.4,362.9c0.4,0.6,1.7,2.6,5.4,2.6c0.6,0,1.3,0,1.9-0.3c1.3-0.5,1.5-1.4,1.5-2c0-1.1-0.8-1.5-1.3-1.7
		c-0.4-0.2-0.5-0.2-2-0.5l-2.1-0.5c-1.1-0.3-1.7-0.4-2.2-0.6c-0.8-0.3-2.9-1.4-2.9-4.3c0-3.3,2.8-5.4,6.9-5.4c3.7,0,5.8,1.8,7,3.5
		l-2.7,2c-0.6-0.9-1.7-2.6-4.5-2.6c-1.8,0-3.3,0.8-3.3,2.1c0,1.5,1.6,1.8,3.2,2.1l1.8,0.4c2.3,0.5,5.7,1.5,5.7,5.2
		c0,4-3.7,5.6-7.4,5.6c-1,0-2-0.1-3.1-0.4c-1.2-0.3-3.2-1.2-4.5-3.3L362.4,362.9z"/>
</g>
<g>
	<g>
		<g>
			<g>
				<polygon class="st1" points="390.7,353.6 385.9,353.6 385.9,368.1 382.6,368.1 382.6,353.6 377.9,353.6 377.9,350.7 
					390.7,350.7 				"/>
			</g>
		</g>
	</g>
</g>
</svg>
