
<svg version="1.1" id="layer" xmlns="http://www.w3.org/2000/svg" xmlns:xlink="http://www.w3.org/1999/xlink" x="0px" y="0px"
	 viewBox="-153 -46 652 652" style="enable-background:new -153 -46 652 652;" xml:space="preserve">
<style type="text/css">
	.st0{fill:#E2001A;}
	.st1{fill:#717171;}
</style>
<polygon class="st0" points="-104.6,301.3 -104.6,332.8 -129.3,332.8 -129.3,250.3 -104.6,250.3 -104.6,280.9 -82,280.9 -82,250.3 
	-57.3,250.3 -57.3,332.8 -82,332.8 -82,301.3 "/>
<polygon class="st0" points="420.8,301.3 420.8,332.8 396.1,332.8 396.1,250.3 420.8,250.3 420.8,280.9 443.4,280.9 443.4,250.3 
	468.1,250.3 468.1,332.8 443.4,332.8 443.4,301.3 "/>
<path class="st0" d="M1.5,304h-16.8l8.3-31.7h0.3L1.5,304z M36.7,332.8L7.3,250.3h-28.8l-28.7,82.6h26.6l3.7-12.4H6l4,12.4H36.7z"/>
<polygon class="st0" points="132.3,332.8 103.6,285.4 103.6,332.8 79.1,332.8 79.1,250.3 104.6,250.3 133,298.3 133.2,250.3 
	157.7,250.3 157.7,332.8 "/>
<g>
	<path class="st1" d="M38.2,215.1c-5.7,3.3-11.4,6.6-17.1,9.9c7.3,10.7,19.5,17.8,33.5,17.8c13.9,0,26.1-7,33.4-17.7
		c-5.7-3.3-11.3-6.5-17-9.8c-5.4,3.1-10.9,6.3-16.3,9.4C49.2,221.4,43.7,218.3,38.2,215.1"/>
	<path class="st0" d="M289.1,250.3h25.8v50.9c0,2.7-0.2,5.4-0.7,8.1c-0.4,2.3-1,4.6-1.9,6.8c-0.8,2-1.8,3.9-3,5.6
		c-1.2,1.7-2.6,3.2-4.1,4.5c-1.6,1.4-3.3,2.5-5.1,3.5c-2,1-4,1.9-6.2,2.5c-2.3,0.7-4.7,1.2-7.1,1.5c-2.7,0.3-5.3,0.5-8,0.5
		c-2.7,0-5.3-0.2-8-0.5c-2.4-0.3-4.8-0.8-7.1-1.5c-2.1-0.6-4.2-1.5-6.2-2.5c-1.8-1-3.6-2.1-5.1-3.5c-1.5-1.3-2.9-2.8-4.1-4.5
		c-1.2-1.7-2.2-3.6-3-5.6c-0.9-2.2-1.5-4.5-1.9-6.8c-0.5-2.7-0.7-5.4-0.7-8.1v-50.9h25.8v48.1c0,1.4,0,2.8,0.1,4.2
		c0.1,0.8,0.2,1.6,0.3,2.3c0.3,1.4,0.7,2.7,1.5,3.8c0.4,0.6,0.9,1.2,1.4,1.6c0.6,0.5,1.2,0.9,1.9,1.2c0.7,0.3,1.5,0.6,2.3,0.7
		c0.9,0.2,1.8,0.2,2.7,0.2c0.9,0,1.8-0.1,2.7-0.2c0.8-0.1,1.6-0.4,2.3-0.7c0.7-0.3,1.3-0.7,1.9-1.2c0.5-0.5,1-1,1.4-1.6
		c0.4-0.6,0.7-1.2,0.9-1.8c0.2-0.6,0.4-1.3,0.5-2c0.2-0.8,0.2-1.6,0.3-2.4c0.1-1.4,0.1-2.8,0.1-4.2V250.3z"/>
	<path class="st1" d="M74,210.2c5.6,3.2,11.2,6.5,16.9,9.7c2.6-5.3,4-11.3,4-17.6c0-21.3-16.5-38.7-37.4-40.2v19.5
		c5.5,3.2,11,6.3,16.5,9.5V210.2z"/>
	<path class="st1" d="M51.6,181.8v-19.7c-20.9,1.5-37.5,18.9-37.5,40.3c0,6.3,1.4,12.2,4,17.5c5.7-3.3,11.5-6.6,17.2-9.9v-18.7
		C40.8,188,46.2,184.9,51.6,181.8"/>
	<path class="st0" d="M212.3,306.9c0,0.4,0,0.9-0.1,1.3c-0.1,0.8-0.4,1.6-0.8,2.4c-0.4,0.7-0.8,1.4-1.4,1.9c-0.5,0.5-1.1,1-1.8,1.4
		c-0.6,0.3-1.1,0.6-1.7,0.8c-0.6,0.2-1.1,0.4-1.7,0.5c-1.1,0.2-2.3,0.4-3.4,0.5c-1.2,0.1-2.5,0.1-3.7,0.1h-6v-17.8h5.6
		c1.1,0,2.2,0,3.4,0c0.7,0,1.4,0.1,2,0.2c0.9,0.1,1.9,0.3,2.8,0.5c0.9,0.2,1.8,0.5,2.6,1c0.7,0.4,1.3,0.8,1.9,1.3
		c0.3,0.3,0.6,0.6,0.8,0.9c0.3,0.4,0.6,0.9,0.8,1.3c0.2,0.4,0.3,0.8,0.4,1.2c0.1,0.4,0.2,0.9,0.3,1.3
		C212.3,306.1,212.3,306.5,212.3,306.9 M208.9,275.7c0,0.6-0.1,1.2-0.2,1.8c-0.2,0.7-0.4,1.4-0.8,2c-0.4,0.6-0.8,1.1-1.4,1.6
		c-0.4,0.4-1,0.7-1.5,1c-0.4,0.2-0.8,0.4-1.2,0.5c-0.6,0.2-1.2,0.4-1.8,0.5c-0.6,0.1-1.2,0.2-1.8,0.3c-1.1,0.1-2.1,0.1-3.2,0.1h-5.3
		v-16h4.7c0.6,0,1.1,0,1.7,0c0.6,0,1.3,0,1.9,0c1,0,2.1,0.2,3.1,0.4c0.5,0.1,1,0.3,1.5,0.5c0.3,0.1,0.6,0.3,0.9,0.5
		c0.6,0.4,1.2,0.9,1.7,1.4c0.5,0.6,0.9,1.3,1.2,2c0.2,0.6,0.4,1.3,0.4,2C208.9,274.9,208.9,275.3,208.9,275.7 M232.1,273.2
		c0-19-16.3-22.9-32.3-22.9H168v82.6h37.7c14.4,0,30.2-5.8,30.2-22.8c0-9.9-5.5-16.6-14.4-19.6c-0.4-0.1-0.9-0.2-1.3-0.3
		c0.3-0.1,0.7-0.2,1-0.3C228.5,287.6,232.1,280.4,232.1,273.2"/>
</g>
<rect x="41.7" y="250.3" class="st1" width="25.9" height="82.6"/>
<g>
	<path class="st0" d="M385.7,306.8c0,8,0,16-0.1,24c-4.8,2.3-16,3.3-21.3,3.3c-23.5,0-41.9-18.3-41.9-41.8
		c0-24.1,18.9-43.4,43.1-43.4c6.8,0,13.8,1.2,20.1,3.4c0,7.9,0,15.8,0.1,23.7c-0.9-0.6-1.9-1.2-2.9-1.7c-1-0.5-2-1-3.1-1.3
		c-1.1-0.4-2.1-0.7-3.2-0.9c-0.9-0.2-1.9-0.3-2.8-0.5c-0.6-0.1-1.1-0.1-1.7-0.2c-0.6,0-1.1-0.1-1.7-0.1c-0.6,0-1.3,0-1.9,0
		c-0.9,0-1.7,0.1-2.6,0.2c-0.9,0.1-1.7,0.3-2.5,0.5c-0.9,0.2-1.8,0.6-2.6,0.9c-1.3,0.6-2.6,1.3-3.7,2.1c-1.4,1-2.6,2.1-3.7,3.4
		c-0.6,0.7-1.2,1.5-1.7,2.4c-0.9,1.4-1.6,3-2.1,4.6c-0.5,1.7-0.8,3.4-0.9,5.1c-0.1,1.8,0.1,3.5,0.5,5.3c0.4,1.7,1,3.4,1.8,4.9
		c0.8,1.5,1.8,2.9,2.9,4.1c1.1,1.2,2.4,2.4,3.9,3.3c1.4,0.9,2.9,1.7,4.5,2.3c1.3,0.5,2.7,0.8,4.1,1c0.9,0.1,1.7,0.2,2.6,0.2
		c0.6,0,1.3,0,1.9,0c0.6,0,1.2,0,1.7-0.1c0.6,0,1.1-0.1,1.7-0.2c0.4-0.1,0.8-0.1,1.1-0.2c0.5-0.1,1.1-0.2,1.6-0.3
		c1.1-0.3,2.1-0.6,3.2-1c1-0.4,2-0.9,3-1.5C384.1,308,384.9,307.5,385.7,306.8"/>
</g>
<polygon class="st1" points="-103.2,389.2 -107.1,389.2 -113.5,365.6 -113.6,365.6 -120.1,389.2 -124,389.2 -131.2,361.1 
	-127.4,361.1 -121.9,384.5 -121.8,384.5 -115.5,361.1 -111.4,361.1 -105.2,384.5 -105.1,384.5 -99.4,361.1 -95.7,361.1 "/>
<g>
	<path class="st1" d="M-88.8,375.2c0,1.4,0.2,2.8,0.5,4.2c0.4,1.4,0.9,2.6,1.7,3.7c0.8,1.1,1.8,2,3,2.7c1.2,0.7,2.7,1,4.4,1
		c1.7,0,3.2-0.3,4.4-1c1.2-0.7,2.2-1.6,3-2.7c0.8-1.1,1.4-2.3,1.7-3.7c0.4-1.4,0.6-2.8,0.6-4.2c0-1.4-0.2-2.8-0.6-4.2
		c-0.4-1.4-0.9-2.6-1.7-3.7c-0.8-1.1-1.8-2-3-2.7c-1.2-0.7-2.7-1-4.4-1c-1.7,0-3.2,0.3-4.4,1c-1.2,0.7-2.2,1.6-3,2.7
		c-0.8,1.1-1.4,2.3-1.7,3.7C-88.6,372.4-88.8,373.8-88.8,375.2 M-92.5,375.2c0-1.9,0.3-3.8,0.8-5.5c0.6-1.8,1.4-3.3,2.5-4.7
		c1.1-1.4,2.5-2.5,4.2-3.3c1.7-0.8,3.6-1.2,5.9-1.2c2.2,0,4.2,0.4,5.9,1.2c1.7,0.8,3.1,1.9,4.2,3.3c1.1,1.4,2,2.9,2.5,4.7
		c0.6,1.8,0.8,3.6,0.8,5.5c0,1.9-0.3,3.8-0.8,5.5c-0.6,1.8-1.4,3.3-2.5,4.7c-1.1,1.4-2.5,2.5-4.2,3.3c-1.7,0.8-3.6,1.2-5.9,1.2
		c-2.2,0-4.2-0.4-5.9-1.2c-1.7-0.8-3.1-1.9-4.2-3.3c-1.1-1.4-2-2.9-2.5-4.7C-92.3,378.9-92.5,377.1-92.5,375.2"/>
	<path class="st1" d="M-48.4,374.1c0.9,0,1.7-0.1,2.5-0.2c0.8-0.1,1.5-0.4,2.1-0.8c0.6-0.4,1.1-0.9,1.4-1.5c0.4-0.6,0.5-1.5,0.5-2.5
		c0-1.4-0.4-2.5-1.2-3.4c-0.8-0.9-2.1-1.4-3.8-1.4h-9.3v9.8H-48.4z M-59.9,361.1h13.2c2.6,0,4.7,0.7,6.3,2c1.5,1.3,2.3,3.1,2.3,5.4
		c0,1.7-0.4,3.2-1.2,4.5c-0.8,1.3-2,2.2-3.7,2.6v0.1c0.8,0.2,1.5,0.4,2,0.8c0.5,0.4,0.9,0.8,1.2,1.3c0.3,0.5,0.5,1.1,0.7,1.7
		c0.1,0.6,0.2,1.3,0.3,2c0.1,0.7,0.1,1.4,0.1,2.1c0,0.7,0.1,1.4,0.2,2.1c0.1,0.7,0.2,1.3,0.4,1.9c0.2,0.6,0.5,1.2,0.9,1.6h-4.2
		c-0.3-0.3-0.4-0.7-0.5-1.2c-0.1-0.5-0.2-1.1-0.2-1.7c0-0.6-0.1-1.3-0.1-2c0-0.7-0.1-1.4-0.2-2.1c-0.1-0.7-0.2-1.3-0.4-1.9
		c-0.2-0.6-0.4-1.2-0.7-1.6c-0.3-0.5-0.8-0.8-1.4-1.1c-0.6-0.3-1.3-0.4-2.2-0.4h-9.1v12h-3.7V361.1z"/>
</g>
<polygon class="st1" points="-31.7,361.1 -28,361.1 -28,375.2 -13.8,361.1 -8.9,361.1 -20.8,372.5 -8.5,389.2 -13.2,389.2 
	-23.3,375 -28,379.4 -28,389.2 -31.7,389.2 "/>
<polygon class="st1" points="-4.3,361.1 -0.6,361.1 -0.6,373.2 14.2,373.2 14.2,361.1 18,361.1 18,389.2 14.2,389.2 14.2,376.4 
	-0.6,376.4 -0.6,389.2 -4.3,389.2 "/>
<g>
	<path class="st1" d="M27.4,375.2c0,1.4,0.2,2.8,0.5,4.2c0.4,1.4,0.9,2.6,1.7,3.7c0.8,1.1,1.8,2,3,2.7c1.2,0.7,2.7,1,4.4,1
		c1.7,0,3.2-0.3,4.4-1c1.2-0.7,2.2-1.6,3-2.7c0.8-1.1,1.4-2.3,1.7-3.7c0.4-1.4,0.5-2.8,0.5-4.2c0-1.4-0.2-2.8-0.5-4.2
		c-0.4-1.4-0.9-2.6-1.7-3.7c-0.8-1.1-1.8-2-3-2.7c-1.2-0.7-2.7-1-4.4-1c-1.7,0-3.2,0.3-4.4,1c-1.2,0.7-2.2,1.6-3,2.7
		c-0.8,1.1-1.4,2.3-1.7,3.7C27.6,372.4,27.4,373.8,27.4,375.2 M23.7,375.2c0-1.9,0.3-3.8,0.8-5.5c0.6-1.8,1.4-3.3,2.5-4.7
		c1.1-1.4,2.5-2.5,4.2-3.3c1.7-0.8,3.6-1.2,5.9-1.2c2.2,0,4.2,0.4,5.9,1.2c1.7,0.8,3.1,1.9,4.2,3.3c1.1,1.4,2,2.9,2.5,4.7
		c0.6,1.8,0.8,3.6,0.8,5.5c0,1.9-0.3,3.8-0.8,5.5c-0.6,1.8-1.4,3.3-2.5,4.7c-1.1,1.4-2.5,2.5-4.2,3.3c-1.7,0.8-3.6,1.2-5.9,1.2
		c-2.2,0-4.2-0.4-5.9-1.2c-1.7-0.8-3.1-1.9-4.2-3.3c-1.1-1.4-2-2.9-2.5-4.7C24,378.9,23.7,377.1,23.7,375.2"/>
</g>
<polygon class="st1" points="56.4,361.1 60.1,361.1 60.1,386.1 75,386.1 75,389.2 56.4,389.2 "/>
<g>
	<path class="st1" d="M83.2,386.1h6.2c0.4,0,0.9,0,1.6-0.1c0.6-0.1,1.3-0.2,2-0.5c0.7-0.3,1.4-0.6,2.1-1.1c0.7-0.5,1.3-1.1,1.9-1.9
		c0.6-0.8,1-1.8,1.4-3c0.4-1.2,0.5-2.7,0.5-4.4c0-1.7-0.2-3.2-0.5-4.5c-0.3-1.3-0.9-2.4-1.6-3.4c-0.7-0.9-1.7-1.6-2.9-2.1
		c-1.2-0.5-2.6-0.7-4.4-0.7h-6.3V386.1z M79.4,361.1h9.6c4.3,0,7.7,1.1,10,3.3c2.3,2.2,3.5,5.6,3.5,10.1c0,2.4-0.3,4.5-0.8,6.3
		c-0.5,1.8-1.3,3.4-2.4,4.6c-1.1,1.2-2.5,2.2-4.2,2.9c-1.7,0.7-3.7,1-6.1,1h-9.6V361.1z"/>
</g>
<rect x="108.5" y="361.1" class="st1" width="3.7" height="28.1"/>
<polygon class="st1" points="119.6,361.1 123.6,361.1 138.4,383.9 138.5,383.9 138.5,361.1 142,361.1 142,389.2 137.9,389.2 
	123.3,366.7 123.2,366.7 123.2,389.2 119.6,389.2 "/>
<g>
	<path class="st1" d="M170.3,385.7c-0.6,0.7-1.2,1.4-1.9,1.9c-0.7,0.5-1.4,1-2.2,1.3c-0.8,0.3-1.6,0.6-2.4,0.7s-1.7,0.2-2.5,0.2
		c-2.1,0-4-0.4-5.6-1.2c-1.7-0.8-3.1-1.8-4.2-3.1c-1.2-1.3-2-2.8-2.6-4.5c-0.6-1.7-0.9-3.5-0.9-5.3c0-2,0.3-4,0.8-5.8
		c0.6-1.8,1.4-3.5,2.5-4.9c1.1-1.4,2.5-2.5,4.2-3.3c1.7-0.8,3.6-1.2,5.8-1.2c1.5,0,3,0.2,4.3,0.5c1.4,0.4,2.6,0.9,3.6,1.7
		c1.1,0.8,2,1.7,2.7,2.9c0.7,1.2,1.2,2.6,1.5,4.2h-3.7c-0.2-1-0.5-2-1-2.8c-0.5-0.8-1.1-1.4-1.8-1.9c-0.7-0.5-1.6-0.9-2.5-1.1
		c-0.9-0.2-1.9-0.4-3-0.4c-1.7,0-3.2,0.3-4.4,1c-1.2,0.7-2.2,1.6-3,2.7c-0.8,1.1-1.3,2.4-1.7,3.8c-0.4,1.4-0.5,2.9-0.5,4.4
		c0,1.5,0.2,2.9,0.6,4.2c0.4,1.4,1,2.5,1.8,3.6c0.8,1,1.8,1.9,3,2.5c1.2,0.6,2.6,0.9,4.2,0.9c1.4,0,2.7-0.2,3.9-0.7
		c1.1-0.5,2.1-1.1,2.9-1.9c0.8-0.8,1.4-1.8,1.8-2.9c0.4-1.1,0.5-2.3,0.5-3.6h-9v-3.1h12.3v14.8h-2.4L170.3,385.7z"/>
</g>
<polygon class="st1" points="198.8,364.3 189.4,364.3 189.4,361.1 211.9,361.1 211.9,364.3 202.5,364.3 202.5,389.2 198.8,389.2 "/>
<polygon class="st1" points="216.2,361.1 235.6,361.1 235.6,364.3 219.9,364.3 219.9,373.2 234.5,373.2 234.5,376.4 219.9,376.4 
	219.9,386.1 235.7,386.1 235.7,389.2 216.2,389.2 "/>
<g>
	<path class="st1" d="M261.2,369.6c-0.2-1-0.6-1.9-1-2.6c-0.5-0.7-1.1-1.4-1.8-1.9c-0.7-0.5-1.5-0.9-2.3-1.1
		c-0.9-0.2-1.8-0.4-2.8-0.4c-1.7,0-3.1,0.3-4.3,0.9c-1.2,0.6-2.2,1.5-3,2.5c-0.8,1.1-1.3,2.3-1.7,3.6c-0.4,1.4-0.5,2.8-0.5,4.2
		c0,1.6,0.2,3.1,0.5,4.5c0.4,1.4,0.9,2.7,1.7,3.7c0.8,1.1,1.8,1.9,3,2.5c1.2,0.6,2.6,0.9,4.3,0.9c1.2,0,2.3-0.2,3.3-0.6
		c1-0.4,1.8-1,2.5-1.7c0.7-0.7,1.2-1.6,1.6-2.6c0.4-1,0.6-2.1,0.7-3.2h3.7c-0.4,3.5-1.6,6.3-3.7,8.3c-2.1,2-4.9,3-8.5,3
		c-2.2,0-4.1-0.4-5.7-1.1c-1.6-0.8-3-1.8-4.1-3.1c-1.1-1.3-1.9-2.9-2.4-4.6c-0.5-1.8-0.8-3.7-0.8-5.7c0-2,0.3-4,0.9-5.8
		c0.6-1.8,1.4-3.4,2.5-4.7c1.1-1.3,2.5-2.4,4.2-3.2c1.7-0.8,3.6-1.2,5.7-1.2c1.5,0,2.9,0.2,4.2,0.6c1.3,0.4,2.5,1,3.5,1.7
		c1,0.8,1.9,1.7,2.6,2.9c0.7,1.1,1.1,2.5,1.3,4H261.2z"/>
</g>
<polygon class="st1" points="271,361.1 274.7,361.1 274.7,373.2 289.5,373.2 289.5,361.1 293.3,361.1 293.3,389.2 289.5,389.2 
	289.5,376.4 274.7,376.4 274.7,389.2 271,389.2 "/>
<polygon class="st1" points="300.6,361.1 304.5,361.1 319.3,383.9 319.4,383.9 319.4,361.1 323,361.1 323,389.2 318.9,389.2 
	304.2,366.7 304.1,366.7 304.1,389.2 300.6,389.2 "/>
<g>
	<path class="st1" d="M332.4,375.2c0,1.4,0.2,2.8,0.5,4.2c0.4,1.4,0.9,2.6,1.7,3.7c0.8,1.1,1.8,2,3,2.7c1.2,0.7,2.7,1,4.4,1
		c1.7,0,3.2-0.3,4.4-1c1.2-0.7,2.2-1.6,3-2.7c0.8-1.1,1.4-2.3,1.7-3.7c0.4-1.4,0.5-2.8,0.5-4.2c0-1.4-0.2-2.8-0.5-4.2
		c-0.4-1.4-0.9-2.6-1.7-3.7c-0.8-1.1-1.8-2-3-2.7c-1.2-0.7-2.7-1-4.4-1c-1.7,0-3.2,0.3-4.4,1c-1.2,0.7-2.2,1.6-3,2.7
		c-0.8,1.1-1.4,2.3-1.7,3.7C332.5,372.4,332.4,373.8,332.4,375.2 M328.6,375.2c0-1.9,0.3-3.8,0.8-5.5c0.6-1.8,1.4-3.3,2.5-4.7
		c1.1-1.4,2.5-2.5,4.2-3.3c1.7-0.8,3.6-1.2,5.9-1.2c2.2,0,4.2,0.4,5.9,1.2c1.7,0.8,3.1,1.9,4.2,3.3c1.1,1.4,2,2.9,2.5,4.7
		c0.6,1.8,0.8,3.6,0.8,5.5c0,1.9-0.3,3.8-0.8,5.5c-0.6,1.8-1.4,3.3-2.5,4.7c-1.1,1.4-2.5,2.5-4.2,3.3c-1.7,0.8-3.6,1.2-5.9,1.2
		c-2.2,0-4.2-0.4-5.9-1.2c-1.7-0.8-3.1-1.9-4.2-3.3c-1.1-1.4-2-2.9-2.5-4.7C328.9,378.9,328.6,377.1,328.6,375.2"/>
</g>
<polygon class="st1" points="361.3,361.1 365,361.1 365,386.1 379.9,386.1 379.9,389.2 361.3,389.2 "/>
<g>
	<path class="st1" d="M386.5,375.2c0,1.4,0.2,2.8,0.5,4.2c0.4,1.4,0.9,2.6,1.7,3.7c0.8,1.1,1.8,2,3,2.7c1.2,0.7,2.7,1,4.4,1
		c1.7,0,3.2-0.3,4.4-1c1.2-0.7,2.2-1.6,3-2.7c0.8-1.1,1.4-2.3,1.7-3.7c0.4-1.4,0.5-2.8,0.5-4.2c0-1.4-0.2-2.8-0.5-4.2
		c-0.4-1.4-0.9-2.6-1.7-3.7c-0.8-1.1-1.8-2-3-2.7c-1.2-0.7-2.7-1-4.4-1c-1.7,0-3.2,0.3-4.4,1c-1.2,0.7-2.2,1.6-3,2.7
		c-0.8,1.1-1.4,2.3-1.7,3.7C386.7,372.4,386.5,373.8,386.5,375.2 M382.8,375.2c0-1.9,0.3-3.8,0.8-5.5c0.6-1.8,1.4-3.3,2.5-4.7
		c1.1-1.4,2.5-2.5,4.2-3.3c1.7-0.8,3.6-1.2,5.9-1.2c2.2,0,4.2,0.4,5.9,1.2c1.7,0.8,3.1,1.9,4.2,3.3c1.1,1.4,2,2.9,2.5,4.7
		c0.6,1.8,0.8,3.6,0.8,5.5c0,1.9-0.3,3.8-0.8,5.5c-0.6,1.8-1.4,3.3-2.5,4.7c-1.1,1.4-2.5,2.5-4.2,3.3c-1.7,0.8-3.6,1.2-5.9,1.2
		c-2.2,0-4.2-0.4-5.9-1.2c-1.7-0.8-3.1-1.9-4.2-3.3c-1.1-1.4-2-2.9-2.5-4.7C383,378.9,382.8,377.1,382.8,375.2"/>
	<path class="st1" d="M436.4,385.7c-0.5,0.7-1.2,1.4-1.9,1.9c-0.7,0.5-1.4,1-2.2,1.3c-0.8,0.3-1.6,0.6-2.4,0.7
		c-0.8,0.2-1.7,0.2-2.5,0.2c-2.1,0-4-0.4-5.6-1.2c-1.7-0.8-3.1-1.8-4.2-3.1c-1.2-1.3-2-2.8-2.6-4.5c-0.6-1.7-0.9-3.5-0.9-5.3
		c0-2,0.3-4,0.8-5.8c0.6-1.8,1.4-3.5,2.5-4.9c1.1-1.4,2.5-2.5,4.2-3.3c1.7-0.8,3.6-1.2,5.8-1.2c1.5,0,3,0.2,4.3,0.5
		c1.4,0.4,2.6,0.9,3.6,1.7c1.1,0.8,2,1.7,2.7,2.9c0.7,1.2,1.2,2.6,1.5,4.2h-3.7c-0.2-1-0.5-2-1-2.8c-0.5-0.8-1.1-1.4-1.8-1.9
		c-0.7-0.5-1.6-0.9-2.5-1.1c-0.9-0.2-1.9-0.4-3-0.4c-1.7,0-3.2,0.3-4.4,1c-1.2,0.7-2.2,1.6-3,2.7c-0.8,1.1-1.3,2.4-1.7,3.8
		c-0.4,1.4-0.6,2.9-0.6,4.4c0,1.5,0.2,2.9,0.6,4.2c0.4,1.4,1,2.5,1.8,3.6c0.8,1,1.8,1.9,3,2.5c1.2,0.6,2.6,0.9,4.2,0.9
		c1.4,0,2.7-0.2,3.9-0.7c1.1-0.5,2.1-1.1,2.9-1.9c0.8-0.8,1.4-1.8,1.7-2.9c0.4-1.1,0.5-2.3,0.5-3.6h-9v-3.1h12.3v14.8h-2.4
		L436.4,385.7z"/>
</g>
<polygon class="st1" points="458.1,377.7 458.1,389.2 454.3,389.2 454.3,377.7 443.5,361.1 447.9,361.1 456.3,374.5 464.6,361.1 
	468.8,361.1 "/>
</svg>
