
<svg version="1.1" id="layer" xmlns="http://www.w3.org/2000/svg" xmlns:xlink="http://www.w3.org/1999/xlink" x="0px" y="0px"
	 viewBox="0 0 652 652" style="enable-background:new 0 0 652 652;" xml:space="preserve">
<style type="text/css">
	.st0{fill:#1F355E;}
</style>
<path class="st0" d="M54.8,325.7v-25.2h-6.7v23.2c0,8.6-2.1,10.9-9.6,10.9c-7.4,0-10.6-2.4-10.6-7.6v-4.5h-6.7v5.2
	c0,8.8,5.4,13,16.6,13C49.9,340.8,54.8,336.5,54.8,325.7 M98.2,324.1h-14c0.5-0.8,6.5-12.6,7.1-13.6
	C91.9,311.5,97.7,323.2,98.2,324.1 M106.2,339.6h7.3l-20.1-39.1h-4.2l-20,39.1h7.2c0,0,4.8-9.4,4.9-9.8h19.9
	C101.4,330.2,106.2,339.6,106.2,339.6 M160,339.6v-39.1h-6.6v26.4c-1.2-1.3-24-26.4-24-26.4h-3.6v39.1h6.6v-26.4
	c1.2,1.3,24,26.4,24,26.4H160z M188.8,300.4h-6.5v39.4h6.8v-39.4H188.8z M247.5,300.5h-36.4v39.1h38.4v-6.2h-31.7v-11.5h19.7v-6.2
	h-19.7v-8.9h30.1v-6.2H247.5z M415.1,301v23.2c0,8.6-2.1,10.9-9.6,10.9c-7.4,0-10.6-2.4-10.6-7.6V323h-6.7v5.2c0,8.8,5.4,13,16.6,13
	c12.1,0,17-4.5,17-15.2v-25H415.1L415.1,301z M465.3,324.5h-14c0.5-0.9,6.5-12.6,7.1-13.6C459,311.9,464.9,323.7,465.3,324.5
	 M460.3,301h-4l-19.9,39.1h7.2c0,0,4.8-9.4,4.9-9.8h19.9c0.2,0.4,4.9,9.8,4.9,9.8h7.3L460.5,301C460.5,301,460.3,301,460.3,301z
	 M529.5,326.8c-3.9,5.5-8.9,8.2-15.6,8.2c-9.5,0-16.7-6.2-16.7-14.5c0-8.3,7.1-14.5,16.7-14.5c6.3,0,11.5,2.4,14.7,6.7l0.2,0.2
	l5.4-3.8l-0.2-0.2c-4.2-5.9-11.5-9.2-20-9.2c-13.6,0-23.6,8.7-23.6,20.7s9.9,20.7,23.6,20.7c9.2,0,16.7-3.9,21-10.8l0.1-0.2
	l-5.4-3.8C529.7,326.5,529.5,326.8,529.5,326.8z M587.8,301H579c-0.2,0.1-16.8,14-20,16.7V301h-6.7v39h6.7v-14.6
	c0.2-0.2,7.1-6,7.5-6.3c0.5,0.6,15.9,21,15.9,21h7.6c0,0-18.3-24.5-18.8-25C571.7,314.6,587.8,301,587.8,301 M293.3,322.2h-6.9
	c0.7-1.5,2.6-5.2,3.4-6.9C290.8,317.1,292.6,320.7,293.3,322.2 M291,309.1h-2.7l-11.3,23h4.6c0,0,2.5-5.1,2.8-5.8h10.9
	c0.4,0.7,2.9,5.8,2.9,5.8h4.7l-11.5-23H291L291,309.1z M325.7,309.1v14.7c-2.2-2.6-12.8-14.7-12.8-14.7h-2.6v23h4.2v-14.7
	c2.2,2.6,12.8,14.7,12.8,14.7h2.5v-23H325.7z M351.1,328h-5.8v-14.9h5.8c4.7,0,7.8,2.9,7.8,7.5C358.8,325.3,356,328,351.1,328
	 M351.1,309.1h-10v23h10c7.4,0,12.1-4.5,12.1-11.5C363.2,313.8,358.3,309.1,351.1,309.1 M606.2,326.7h-4v11.2h-1.4v-11.2h-4v-1.4
	h9.8L606.2,326.7z M607.8,325.2h2.4l4.3,9.8l4.3-9.8h2.4v12.7h-1.6v-10.6l-4.6,10.6h-0.8l-4.6-10.6v10.6h-1.4v-12.7H607.8z"/>
</svg>
