
<svg version="1.1" id="layer" xmlns="http://www.w3.org/2000/svg" xmlns:xlink="http://www.w3.org/1999/xlink" x="0px" y="0px"
	 viewBox="-153 -46 652 652" style="enable-background:new -153 -46 652 652;" xml:space="preserve">
<style type="text/css">
	.st0{fill:#3C3C3B;}
</style>
<path class="st0" d="M-131.5,299.1H468v6.5h-599.5V299.1z M-50.5,183.2h0.2l23.8,90.2l-22.2,3l-7.6-42.9h-0.2l-23.4,42.9h-0.5
	l-21.2-42.7h-0.2l-7.6,42.7l-22.7-3l24.3-90.2h0.2l28.1,54.5C-79.4,237.7-50.5,183.2-50.5,183.2z M25.4,219.2l11.8,22H13.4
	L25.4,219.2z M25.4,183.2L-22.1,272l21.5,4.6l9-19.2H42l9.3,19.2l22.4-4.6L25.4,183.2z M103.4,183.2v90.4l-22,2.1v-90.2
	C81.5,185.5,103.4,183.2,103.4,183.2z M170,208.9c-5.1-4.4-9-6.9-16-6.9c-3.9,0-9.7,2.3-9.7,6.9c0,14.3,39.7,4.9,39.7,37.6
	c0,20.1-15.5,29.7-33.9,29.7c-10.9,0-22.4-3.2-30.9-10.4l13.2-16.9c4.2,4.9,10.2,7.2,16.7,7.2c4.6,0,11.6-2.3,11.6-8.1
	c0-13.9-39.7-5.6-39.7-37.6c0-17.6,16.4-27.4,32.3-27.4c10.4,0,20.6,3.7,28.3,10.4C181.6,193.4,170,208.9,170,208.9z M244.2,203.3
	c14.1,0,25.4,12.7,25.4,26.5s-11.3,26.5-25.4,26.5c-14.1,0-25.4-12.7-25.4-26.5C218.5,216.2,230.1,203.3,244.2,203.3z M244.2,183.2
	c-25.9,0-47.5,20.6-47.5,46.6s21.5,46.6,47.5,46.6c26.1,0,47.5-20.6,47.5-46.6C291.5,204,269.9,183.2,244.2,183.2z M386.7,276.4
	l-58.2-50.8v47.8l-22,2.1v-92.3h0.2l58.2,49.8v-47.8l22-2.1v93.2C387,276.4,386.7,276.4,386.7,276.4z M453.5,208.9
	c-5.1-4.4-9-6.9-16-6.9c-3.9,0-9.7,2.3-9.7,6.9c0,14.3,39.7,4.9,39.7,37.6c0,20.1-15.5,29.7-33.9,29.7c-10.9,0-22.4-3.2-30.9-10.4
	l13.2-16.9c4.2,4.9,10.2,7.2,16.7,7.2c4.6,0,11.6-2.3,11.6-8.1c0-13.9-39.7-5.6-39.7-37.6c0-17.6,16.4-27.4,32.3-27.4
	c10.4,0,20.6,3.7,28.3,10.4L453.5,208.9L453.5,208.9z M-120.6,330h3.5c7.2,0,13,6.2,13,13.2s-5.8,13.2-13,13.2h-3.5
	C-120.6,356.3-120.6,330-120.6,330z M-131.7,365.6h15.7c13,0,23.1-9.7,23.1-22.7c0-12.7-10.4-22.7-23.1-22.7h-15.7V365.6z
	 M-12.4,350.1c0,10.4-8.1,16.7-19.7,16.7c-10.4,0-17.8-4.9-17.8-16v-30.4l11.1-0.9v28.1c0,4.9,1.4,8.8,6.9,8.8
	c7.2,0,8.1-5.1,8.1-11.3v-24.7l11.1-0.9L-12.4,350.1z M126.5,319.3l12,45.7l-11.3,1.6l-3.9-21.7H123l-12,21.9h-0.2L99.9,345h-0.2
	l-3.9,21.7l-11.3-1.6l12.5-45.7h0.2l14.3,27.4L126.5,319.3z M201.3,329.7c7.2,0,13,6.5,13,13.4c0,6.9-5.8,13.4-13,13.4
	s-13-6.5-13-13.4C188.3,336.2,194.3,329.7,201.3,329.7z M201.3,319.3c-13.2,0-24.3,10.4-24.3,23.8c0,13.2,10.9,23.8,24.3,23.8
	s24.3-10.4,24.3-23.8C225.4,329.7,214.7,319.3,201.3,319.3z M309.5,366.7L280,340.8v24.3l-11.1,0.9v-46.8h0.2l29.5,25.4v-24.3
	l11.1-0.9L309.5,366.7z M366.3,330h3.5c7.2,0,13,6.2,13,13.2s-5.8,13.2-13,13.2h-3.5C366.3,356.3,366.3,330,366.3,330z M355.2,365.6
	h15.7c13,0,23.1-9.7,23.1-22.7c0-12.7-10.4-22.7-23.1-22.7h-15.7V365.6z M437.5,365.6v-45.1h25.4l1.9,9.5h-16.4v7.9h11.6v9.5h-11.6
	v8.6h17.6l-2.8,9.5L437.5,365.6L437.5,365.6z"/>
</svg>
