
<svg version="1.1" id="layer" xmlns="http://www.w3.org/2000/svg" xmlns:xlink="http://www.w3.org/1999/xlink" x="0px" y="0px"
	 viewBox="0 0 652 652" style="enable-background:new 0 0 652 652;" xml:space="preserve">
<style type="text/css">
	.st0{fill:none;stroke:#C2C2C2;stroke-width:2.5719;stroke-miterlimit:10;}
	.st1{fill:#F89632;}
	.st2{fill:#1E8AC6;}
</style>
<path class="st0" d="M612,286.1H461.5c-3.8,0-7.1,2.3-8.5,5.8l-24,62.4c-1.8,4.7,0.5,10,5.2,11.8c1,0.4,2.1,0.6,3.3,0.6l173.9,0.6
	c5,0,9.1-4,9.2-9l0.5-63C621.1,290.3,617.1,286.2,612,286.1C612,286.1,612,286.1,612,286.1z"/>
<path class="st1" d="M524.3,319c-4.3,0.1-7.6,3.7-7.5,7.9c0,0.1,0,0.3,0,0.4l0,0c-0.3,4.4,3.1,8.2,7.5,8.5c0.1,0,0.2,0,0.3,0
	c4.3-0.2,7.5-3.8,7.3-8.1c0-0.1,0-0.1,0-0.2l0,0c0.4-4.4-2.9-8.3-7.3-8.6C524.5,319,524.4,319,524.3,319z M464.3,345.9
	c0,0.4-0.3,0.7-0.7,0.7h-10.7c-0.4,0.1-0.7-0.2-0.8-0.6c0,0,0-0.1,0-0.1v-10.8c0-0.4,0.3-0.7,0.7-0.7h10.7c0.4,0,0.7,0.3,0.7,0.7
	L464.3,345.9z M486.7,347.3c-10.5-0.1-18.9-8.7-18.7-19.2c0-0.1,0-0.2,0-0.4l0,0c-0.3-10.5,8-19.3,18.5-19.6c0.2,0,0.5,0,0.7,0
	c6.3-0.3,12.2,3,15.3,8.4l-8.5,6.7c-1.8-3.6-6.2-5-9.8-3.2c-2.8,1.4-4.4,4.5-3.9,7.6l0,0c0,4.9,2.9,8.6,7.1,8.6
	c2.8-0.1,5.4-1.5,6.9-3.9l8.4,6.4c-3.3,5.6-9.5,8.8-15.9,8.5L486.7,347.3z M544.2,327.6c0.1,10.8-8.6,19.6-19.4,19.7
	c-0.2,0-0.3,0-0.5,0c-10.7,0.2-19.5-8.3-19.7-19c0-0.2,0-0.4,0-0.6l0,0c0-10.9,8.9-19.8,19.8-19.8c10.9,0,19.8,8.9,19.8,19.8V327.6z
	 M607.2,346.4h-12.6v-20.6c0-4.1-1.9-6.3-4.9-6.3s-5.1,2.2-5.1,6.3v20.6H572v-20.6c0-4.1-1.9-6.3-4.9-6.3s-5.1,2.2-5.1,6.3v20.6
	h-12.6v-37.8H562v5.1c2.3-3.6,6.3-5.9,10.6-6c4.3-0.2,8.4,2.2,10.3,6.1c2.8-3.9,7.2-6.1,12-6.1c7.7,0,12.2,5.1,12.2,13.8
	L607.2,346.4z"/>
<path class="st2" d="M73.6,254.4h2.2c0.1,0.1,0.1,0.2,0,0.3c0,0,0,0,0,0c-0.7,0.3-1.4,0.3-2.1,0C73.6,254.7,73.5,254.6,73.6,254.4
	C73.6,254.4,73.6,254.4,73.6,254.4z M75.9,254.6v-0.2h1.8v0.2C77.2,255.1,76.4,255.1,75.9,254.6C75.9,254.6,75.9,254.6,75.9,254.6z
	 M73.6,254.4v0.2c-0.5,0.5-1.2,0.5-1.7,0c0,0,0,0,0,0v-0.2H73.6z M378.2,388.6h-0.6c-3.4-0.5-6.7-1.4-9.8-2.8
	c-1.1-0.5-2.2-1.1-3.3-1.7c-1.1-0.6-0.9-0.5-0.5-1.4c2-4.6,4-9.2,6-13.9c0.5-1.1,1-2.2,1.4-3.3c0.5,0.1,0.9,0.3,1.3,0.6
	c3.1,1.9,6.8,2.4,10.3,1.5c3.3-0.8,6.1-3.1,7.5-6.3c0.5-1.1,0.9-2.2,1.4-3.2c0.3-0.6,0.3-1.4,0-2c-4.1-9.3-8.2-18.7-12.2-28
	c-6.1-14-12.2-28-18.3-42c-0.2-0.4-0.3-0.8-0.4-1.2c0.4-0.1,0.9-0.1,1.3,0h25.4c1.5,0,1.3-0.2,1.7,1.2c3.5,11,7,21.9,10.5,32.9
	c1.1,3.5,1.9,7.1,2.6,10.7v0.4c0.3,0,0.3-0.3,0.4-0.5c2-10.3,5-20.1,7.7-30.1c1.2-4.6,2.6-9.1,3.7-13.6c0.3-1.1,0.3-1.1,1.3-1.1H441
	h0.4c0.2,0.5-0.1,0.9-0.3,1.3l-14.5,39.1c-5,13.5-10,27-15,40.5c-1.9,5.6-5.1,10.6-9.4,14.7c-4.6,4.2-10.4,6.9-16.5,7.7l-1.6,0.3h-6
	L378.2,388.6z M155.3,295.9c1.2-1.9,2.6-3.7,4.2-5.3c3.9-3.9,9-6.3,14.5-7c4.7-0.7,9.5-0.4,14.1,0.7c7.8,1.7,13.9,7.6,15.8,15.3
	c1,3.3,1.5,6.8,1.4,10.3c0,15.8,0,31.6,0,47.3c0,0.2,0,0.5,0,0.7c0,0.4-0.2,0.6-0.6,0.6h-23.7c-0.5,0-0.7-0.2-0.6-0.7v-42.3
	c0-1.6-0.1-3.2-0.5-4.7c-0.7-3-3.3-5.1-6.3-5.1c-2.4-0.2-4.9,0.1-7.1,0.9c-3.7,1.4-6.6,4.2-8.1,7.9c-1.5,3.7-2.2,7.6-2.1,11.6
	c0,10.3,0,20.3,0,30.5v0.7c0,1.2,0,1.2-1.2,1.2h-22.9c-0.5,0-0.8-0.2-0.8-0.7c0-0.5,0-0.6,0-0.9v-70.5c0-1.8,0-1.6,1.6-1.6h21.1
	c1.1,0,1.1,0,1.1,1.1c0,2.9,0,5.8-0.2,8.6C155.1,295.1,155.2,295.5,155.3,295.9z M335.6,348.1c-3.4,5.8-9,10-15.6,11.4
	c-6,1.5-12.4,1.3-18.2-0.7c-6.7-2.1-11.9-7.5-13.7-14.3c-1.1-3.6-1.6-7.3-1.5-11.1c0-9.2,0-18.4,0-27.6v-19.2c0-0.3,0-0.7,0-1
	s0.2-0.7,0.7-0.7s0.5,0,0.8,0h22.4c1.1,0,1.1,0,1.1,1v42.5c0,1.5,0.2,3,0.5,4.4c0.7,3,3.3,5.1,6.4,5.1c5.8,0.5,11.3-2.6,13.8-7.9
	c1.5-2.8,2.3-5.8,2.6-9c0.2-1.8,0.2-3.6,0.2-5.3c0-9.7,0-19.4,0-29.1v-1c0-0.5,0.2-0.7,0.7-0.6s0.5,0,0.8,0h22c1.5,0,1.4,0,1.4,1.3
	v71.3c0,1.1,0,1.1-1.1,1.1h-21.5c-1.1,0-1.1,0-1.1-1.2c0-2.8,0-5.6,0-8.4C335.9,348.8,336.4,348.3,335.6,348.1z M335.6,348.1
	c0-0.2,0-0.3,0.3-0.4c0.3,0,0.3,0.2,0.2,0.3c0,0.4,0,0.7-0.2,1.1C335.8,348.8,336,348.4,335.6,348.1z M126.8,294.2
	c-4.3-17.8-15.4-29.8-32.7-36.3c-5.3-1.9-10.9-3-16.5-3.2c-0.6,0.1-1.2,0.1-1.7,0c-0.8,0.1-1.5,0.1-2.3,0c-0.6,0.1-1.2,0.1-1.7,0
	c-3.6,0.2-7.2,0.7-10.8,1.5c-9.5,2.1-18.2,6.9-25.1,13.8c-8.7,8.6-13.9,20.1-14.8,32.3c0.1,1.1,0,2.2-0.2,3.3v3
	c0.2,1.1,0.3,2.2,0.2,3.3c0.2,3.2,0.7,6.3,1.5,9.3c3.7,15.4,14.3,28.1,28.7,34.5c12.5,5.8,26.7,6.7,39.9,2.6
	c11.8-3.4,21.8-11,28.3-21.4C128,324.2,130.5,308.7,126.8,294.2z M96.4,326.1c-3.9,5.6-9.8,9.5-16.5,10.9c-1.7,0.3-3.4,0.5-5.1,0.5
	c-9.9,0-19-5.6-23.5-14.4c-5.2-9-5.7-20-1.2-29.3c3.5-8.4,11.1-14.4,20.1-15.7c10.8-2.1,21.8,2.7,27.5,12.1
	c2.7,4.1,4.3,8.9,4.7,13.8C103.1,311.8,101,319.7,96.4,326.1z M284.1,320.7c-1.7-7.2-7.1-13-14.1-15.3c-0.3-0.1-0.6-0.2-0.8-0.4
	c0-0.1,0.1-0.2,0.1-0.2c0.2-0.2,0.4-0.3,0.6-0.4c1.9-1.2,3.7-2.8,5.1-4.5c6.3-7.9,7.7-18.7,3.5-28c-2.6-5.3-7-9.4-12.4-11.7
	c-5.7-2.6-11.9-3.9-18.2-3.8c-12.9,0-25.7,0-38.4,0H209c-0.3,0-0.5,0.2-0.5,0.4c0,0,0,0.1,0,0.1c0,0.2,0,0.4,0,0.6v99.9
	c0,1.2,0,1.2,1.2,1.2h36c3.8,0,7.7-0.2,11.5-0.8c4.6-0.7,9.1-2.2,13.3-4.3c4.4-2.2,8.1-5.5,10.7-9.7
	C285.3,336.9,286.4,328.5,284.1,320.7z M233.5,278.8c0-0.9,0-1,1-1h12.3c0.9,0,1.7,0.1,2.6,0.4c4.1,1.1,6.7,5.1,6,9.3
	c-0.1,1.2-0.4,2.5-0.9,3.6c-1.1,2.8-3.8,4.6-6.8,4.8c-1.9,0-3.8,0-5.6,0h-7.5c-1,0-1.1,0-1.1-1C233.5,294.8,233.5,278.8,233.5,278.8
	z M259.4,327.7c-0.1,0.7-0.2,1.4-0.4,2.1c-1,4.1-4.6,7.1-8.8,7.4c-1.8,0.1-3.6,0-5.4,0h-10c-1.2,0-1.2,0-1.2-1.3v-18.6
	c0-1.1,0-1.1,1.1-1.1c4.9,0,9.7,0,14.6,0c3.3-0.2,6.5,1.4,8.4,4.1C259.1,322.4,259.8,325.1,259.4,327.7L259.4,327.7z"/>
</svg>
