
<svg version="1.1" id="layer" xmlns="http://www.w3.org/2000/svg" xmlns:xlink="http://www.w3.org/1999/xlink" x="0px" y="0px"
	 viewBox="0 0 652 652" style="enable-background:new 0 0 652 652;" xml:space="preserve">
<style type="text/css">
	.st0{fill:#F29100;}
</style>
<path d="M187.9,311.8c0,0-2.7-31.5,22.6-50.1c11.4-9.1,27.4-11.7,38.6-12.3c6.9-0.4,9.6-0.2,11.9,0c11.5,0.8,29.9,7.1,39.3,18.7
	c7.6,9.5,12.2,23.7,12.2,44.1v88.7H279v-80.7c0-14.2-2-24.1-5.9-29.5c-3.9-5.5-10.9-8.3-21.1-8.3c-11.1,0-19,3.7-23.6,11
	c-4.6,7.2-6.8,19.8-6.8,37.8v69.7h-33.6V311.8z M439,256.3c-10.6-5-25.7-7.6-36-7c-22.2,0.1-40.9,7.6-56.1,22.5
	c-15.2,14.9-22.8,33.2-22.7,54.7c0.1,21.6,7.7,39.6,22.8,54.2c15.1,14.4,33.8,21.6,56.2,21.5c13.6,0,35.5-6.5,49.7-15.4l-11.4-31.6
	c-3.2,3.9-10.6,8.9-18.4,12.5c-7.6,3.5-13.4,4.7-21.5,4.7c-12.6,0-22.9-4.3-31.1-13c-8.1-8.7-12.1-19.8-12.1-33.4
	c0-13.3,4.1-24.3,12.4-33.2c8.3-8.8,18.7-13.3,31.3-13.3c8,0,15.7,1.7,22.2,4.3c6.7,2.6,11,6,15.3,10.2l12.3-30.3
	C451.8,263.7,449,261.1,439,256.3 M593.8,325.5c0-23.9-6.1-42.5-18.4-56c-12.4-13.6-29.2-20.4-50.5-20.4c-21.1,0-38,7-50.8,20.9
	c-12.7,14.2-19,32.7-19,55.6c0,23.1,6.5,41.6,19.6,55.6c13.1,13.9,30.4,20.8,52,20.8c7.5,0,14.5-0.8,20.9-2.4
	c6.4-1.6,12.4-4.1,18-7.5c5.5-3.4,10.7-7.8,15.6-13.1c4.9-5.3,9.5-11.7,13.8-19.1l-28.2-15.8c-6.8,10.7-12.9,18-18.3,22
	c-5.4,4-12.3,5.9-20.6,5.9c-10.7,0-19.5-3.5-26.3-10.4c-6.8-7-10.7-16.5-11.6-28.4h103.7L593.8,325.5z M492.2,306
	c1.1-4.2,2.7-7.9,4.8-11.1c2.1-3.3,4.6-6.1,7.5-8.4c2.9-2.3,6.2-4.1,9.7-5.3c3.6-1.2,7.4-1.9,11.4-1.9c17.8,0,29.1,8.9,33.7,26.7
	H492.2z M21.6,324.4c0,22.2,7.3,40.6,22,55.3C58.2,394.6,76.4,402,98.1,402c21.9,0,40.4-7.3,55.4-21.8c15-14.7,22.4-32.8,22.4-54.5
	c0-21.5-7.4-39.6-22.3-54.4c-15.1-14.8-33.4-22.1-55-22.1c-21.5,0-39.7,7.3-54.7,22C29.1,285.8,21.6,303.5,21.6,324.4 M55.8,325
	c0-13.5,4-24.5,11.9-33c7.9-8.5,18.3-12.8,31.1-12.8c13,0,23.4,4.3,31.3,12.8c7.8,8.4,11.7,19.7,11.7,33.7
	c0,14.1-3.9,25.3-11.7,33.7c-7.8,8.4-18.3,12.6-31.3,12.6c-13,0-23.4-4.3-31.3-12.8C59.6,350.9,55.8,339.5,55.8,325 M621.6,256.5
	c0-9.7-7.9-17.4-17.8-17.4c-10.1,0-18.2,7.8-18.2,17.4c0,9.9,8.1,17.6,18.1,17.6C613.7,274.1,621.6,266.4,621.6,256.5 M590.6,256.6
	c0-7.6,5.6-13.5,12.9-13.5c7.7,0,13.2,5.9,13.2,13.5c0,7.5-5.5,13.6-13,13.5C596.2,270.1,590.6,264.1,590.6,256.6 M601.1,258.9h1.8
	c1.9,0,2.8,0.7,3.1,2.5c0.4,1.8,0.7,3.2,1.2,3.8h5c-0.3-0.6-0.6-1.7-1.1-4c-0.5-2.3-1.5-3.6-3.2-4.3v-0.2c2.1-0.6,3.6-2.1,3.6-3.9
	c0-1.7-0.7-2.9-1.8-3.5c-1.1-0.8-2.7-1.3-6.2-1.3c-3.2,0-5.6,0.3-6.9,0.6v16.7h4.6V258.9z M601.3,251.2c0.4,0,1.1-0.1,2-0.1
	c2.1,0,3.2,0.8,3.2,2.3c0,1.6-1.5,2.3-3.5,2.3h-1.7V251.2z"/>
<path class="st0" d="M145.3,326.2c0,26-20.7,47-46.2,47c-25.5,0-46.2-21.1-46.2-47c0-26,20.7-47,46.2-47
	C124.6,279.2,145.3,300.3,145.3,326.2"/>
</svg>
