
<svg version="1.1" id="layer" xmlns="http://www.w3.org/2000/svg" xmlns:xlink="http://www.w3.org/1999/xlink" x="0px" y="0px"
	 viewBox="0 0 652 652" style="enable-background:new 0 0 652 652;" xml:space="preserve">
<style type="text/css">
	.st0{fill:#4A4AF4;}
	.st1{fill:#2ABC7A;}
	.st2{fill:#060809;}
</style>
<path class="st0" d="M91.5,298.4c6,0,11,2.7,13.1,6.5v-3.4c0-0.2,0-0.5,0.1-0.7c0.1-0.2,0.2-0.4,0.4-0.6c0.2-0.2,0.4-0.3,0.6-0.4
	c0.2-0.1,0.5-0.1,0.7-0.1h7.8c0.2,0,0.5,0,0.7,0.1c0.2,0.1,0.4,0.2,0.6,0.4c0.2,0.2,0.3,0.4,0.4,0.6c0.1,0.2,0.1,0.5,0.1,0.7v39.2
	c0,0.2,0,0.5-0.1,0.7c-0.1,0.2-0.2,0.4-0.4,0.6c-0.2,0.2-0.4,0.3-0.6,0.4c-0.2,0.1-0.5,0.1-0.7,0.1h-7.8c-0.2,0-0.5,0-0.7-0.1
	c-0.2-0.1-0.4-0.2-0.6-0.4c-0.2-0.2-0.3-0.4-0.4-0.6c-0.1-0.2-0.1-0.5-0.1-0.7v-3.4c-2.3,3.9-7.1,6.5-13.2,6.5
	c-11.1,0-21.4-8.9-21.4-22.7S80.3,298.4,91.5,298.4z M93.1,333.2c6.7,0,11.5-5.4,11.5-12.1c0-6.7-4.8-12-11.5-12
	c-1.5,0-3.1,0.3-4.5,1c-1.4,0.6-2.7,1.5-3.8,2.6c-1.1,1.1-1.9,2.4-2.5,3.9c-0.6,1.4-0.8,3-0.8,4.5C81.6,327.8,86.6,333.2,93.1,333.2
	L93.1,333.2z M47.3,298.4c-6.1,0-11,2.7-13.5,6.5v-3.4c0-0.2,0-0.5-0.1-0.7c-0.1-0.2-0.2-0.4-0.4-0.6c-0.2-0.2-0.4-0.3-0.6-0.4
	c-0.2-0.1-0.5-0.1-0.7-0.1h-7.7c-0.2,0-0.5,0-0.7,0.1c-0.2,0.1-0.4,0.2-0.6,0.4c-0.2,0.2-0.3,0.4-0.4,0.6c-0.1,0.2-0.1,0.5-0.1,0.7
	v57.4c0,0.2,0,0.5,0.1,0.7c0.1,0.2,0.2,0.4,0.4,0.6c0.2,0.2,0.4,0.3,0.6,0.4s0.5,0.1,0.7,0.1h7.8c0.2,0,0.5,0,0.7-0.1
	s0.4-0.2,0.6-0.4c0.2-0.2,0.3-0.4,0.4-0.6c0.1-0.2,0.1-0.5,0.1-0.7v-0.5l0.1-20.6c2.6,3.9,7.9,6,13.2,6c11.3,0,21.3-8.9,21.3-22.7
	C68.5,307.2,58.6,298.4,47.3,298.4z M45.4,333.2c-6.6,0-11.6-5.4-11.6-12.1c-0.1-1.6,0.2-3.1,0.8-4.6c0.6-1.5,1.4-2.8,2.5-3.9
	c1.1-1.1,2.4-2,3.8-2.6c1.4-0.6,3-0.9,4.5-0.9c6.7,0,11.4,5.4,11.4,12C56.9,327.7,52.1,333.2,45.4,333.2z M160.1,299.7h-8.4
	c-0.5,0-1.1,0.2-1.5,0.5c-0.4,0.3-0.7,0.8-0.8,1.3l-3.6,12.9l-5.4,16.6l-9-29.5c0-0.5-0.3-0.9-0.6-1.3c-0.3-0.3-0.8-0.5-1.3-0.6
	h-9.1c-2,0-2.3,1.3-1.8,2.8l13,38.2c0.1,0.5,0.4,1,0.8,1.3c0.4,0.3,0.9,0.5,1.5,0.5h3.1l-6,15.5c-0.6,1.7-0.1,2.8,1.6,2.8h8.4
	c0.5,0,1.1-0.2,1.5-0.5s0.7-0.8,0.8-1.3l0.5-2l5.2-14.3l12.9-40C162.3,300.8,161.8,299.7,160.1,299.7z"/>
<path class="st1" d="M238,299c1,0,2,0.4,2,2.3v7.7c0,0.3,0,0.6-0.1,0.9c-0.1,0.3-0.3,0.5-0.5,0.8c-0.2,0.2-0.5,0.4-0.7,0.5
	c-0.3,0.1-0.6,0.2-0.9,0.1h-2.2c-5.7,0-9,2.9-9,10.3v19.2c0,0.2-0.1,0.5-0.2,0.7c-0.1,0.2-0.2,0.4-0.4,0.6c-0.2,0.2-0.4,0.3-0.6,0.4
	c-0.2,0.1-0.5,0.1-0.7,0.1H217c-0.2,0-0.5-0.1-0.7-0.1c-0.2-0.1-0.4-0.2-0.6-0.4c-0.2-0.2-0.3-0.4-0.4-0.6c-0.1-0.2-0.1-0.5-0.1-0.7
	v-39.3c0-0.2,0-0.5,0.1-0.7c0.1-0.2,0.2-0.4,0.4-0.6c0.2-0.2,0.4-0.3,0.6-0.4c0.2-0.1,0.5-0.1,0.7-0.1h7.4c0.5,0,0.9,0.2,1.3,0.5
	c0.3,0.3,0.5,0.8,0.6,1.2v4.1c1-1.9,2.5-3.5,4.4-4.6c1.9-1.1,4-1.7,6.1-1.7C237.2,299,237.6,299,238,299L238,299z M241.2,286.7
	c0-1.4,0.4-2.8,1.2-3.9s1.9-2.1,3.2-2.6c1.3-0.5,2.7-0.7,4.1-0.4c1.4,0.3,2.6,1,3.6,2c1,1,1.7,2.3,2,3.6c0.3,1.4,0.1,2.8-0.4,4.1
	s-1.4,2.4-2.6,3.2c-1.2,0.8-2.5,1.2-3.9,1.2c-1.9,0-3.7-0.8-5.1-2.1C242,290.4,241.2,288.6,241.2,286.7z M244.5,342.4
	c-0.2,0-0.5,0-0.7-0.1c-0.2-0.1-0.4-0.2-0.6-0.4c-0.2-0.2-0.3-0.4-0.4-0.6c-0.1-0.2-0.1-0.5-0.1-0.7v-39.2c0-0.2,0-0.5,0.1-0.7
	c0.1-0.2,0.2-0.4,0.4-0.6c0.2-0.2,0.4-0.3,0.6-0.4c0.2-0.1,0.5-0.1,0.7-0.1h7.7c0.2,0,0.5,0,0.7,0.1c0.2,0.1,0.4,0.2,0.6,0.4
	c0.2,0.2,0.3,0.4,0.4,0.6c0.1,0.2,0.1,0.5,0.1,0.7v39.1c0,0.5-0.2,1-0.6,1.3c-0.3,0.3-0.8,0.5-1.3,0.6h-7.7L244.5,342.4z
	 M391.4,336.1l-2.7-4.4c-0.7-1.2-2.2-1.2-3.4-0.3c-1.2,0.8-2.6,1.3-4.1,1.3c-2,0-4.9-1.3-4.9-5.5V309h12.4c0.5,0,0.9-0.2,1.3-0.6
	c0.3-0.3,0.5-0.8,0.6-1.3v-5.9c0-0.5-0.2-1-0.5-1.3c-0.3-0.3-0.8-0.5-1.3-0.5h-12.4v-8.9c0-0.2,0-0.5-0.1-0.7
	c-0.1-0.2-0.2-0.4-0.4-0.6c-0.2-0.2-0.4-0.3-0.6-0.4c-0.2-0.1-0.5-0.1-0.7-0.1h-7.8c-0.2,0-0.5,0-0.7,0.1c-0.2,0.1-0.4,0.2-0.6,0.4
	c-0.2,0.2-0.3,0.4-0.4,0.6c-0.1,0.2-0.1,0.5-0.1,0.7v9h-5.9c-0.2,0-0.5,0-0.7,0.1c-0.2,0.1-0.4,0.2-0.6,0.4s-0.3,0.4-0.4,0.6
	s-0.1,0.5-0.1,0.7v5.9c0,0.2,0,0.5,0.1,0.7c0.1,0.2,0.2,0.4,0.4,0.6c0.2,0.2,0.4,0.3,0.6,0.4c0.2,0.1,0.5,0.1,0.7,0.1h5.9v20.7
	c0,9.7,7.2,13.5,14.2,13.5c4.9,0,9.3-1.5,12.1-4.3c0.4-0.4,0.7-0.9,0.7-1.4C391.8,337.1,391.7,336.5,391.4,336.1z M293.5,342.3v-5.7
	c-2.2,3.5-7,6.1-13,6.1c-11.8,0-21.7-8.4-21.7-22.2s10.1-22.3,21.2-22.3c6.1,0,11.3,2.8,13.4,6.5v-3.4c0-0.2,0-0.5,0.1-0.7
	c0.1-0.2,0.2-0.4,0.4-0.6c0.2-0.2,0.4-0.3,0.6-0.4c0.2-0.1,0.5-0.1,0.7-0.1h7.7c0.2,0,0.5,0,0.7,0.1c0.2,0.1,0.4,0.2,0.6,0.4
	c0.2,0.2,0.3,0.4,0.4,0.6c0.1,0.2,0.1,0.5,0.1,0.7v41.3c0,11.9-8.8,20.1-23,20.1c-11.4,0-19.8-7.3-21.9-15.5
	c-0.1-0.2-0.1-0.4-0.1-0.6c0-0.2,0-0.4,0.1-0.6s0.2-0.3,0.3-0.5c0.1-0.1,0.3-0.2,0.5-0.3h8.4c1.1,0,1.7,0.1,2,0.7
	c1,3.2,4.3,6.5,10.7,6.5C289.8,352.9,293.5,348.7,293.5,342.3z M282,332.6c6.6,0,11.5-5,11.5-11.8S288.6,309,282,309
	c-1.5,0-3.1,0.3-4.5,0.9c-1.4,0.6-2.7,1.5-3.8,2.6c-1.1,1.1-1.9,2.4-2.5,3.8c-0.6,1.4-0.8,3-0.7,4.5
	C270.5,327.5,275.4,332.6,282,332.6z M190.7,298.1c-6.1,0-11.2,2.8-13.3,6.3v-9l-0.1-12.1c0-0.5-0.2-0.9-0.6-1.3
	c-0.3-0.3-0.8-0.5-1.3-0.6h-7.7c-0.2,0-0.5,0-0.7,0.1c-0.2,0.1-0.4,0.2-0.6,0.4c-0.2,0.2-0.3,0.4-0.4,0.6c-0.1,0.2-0.1,0.5-0.1,0.7
	l0.1,12.1v45c0,0.2,0,0.5,0.1,0.7c0.1,0.2,0.2,0.4,0.4,0.6c0.2,0.2,0.4,0.3,0.6,0.4c0.2,0.1,0.5,0.1,0.7,0.1h7.7
	c0.2,0,0.5,0,0.7-0.1c0.2-0.1,0.4-0.2,0.6-0.4c0.2-0.2,0.3-0.4,0.4-0.6c0.1-0.2,0.1-0.5,0.1-0.7V337c2.5,3.9,7.1,6.5,13.2,6.5
	c11.3,0,21.4-8.9,21.4-22.7C212,306.9,201.8,298.1,190.7,298.1z M188.9,333c-6.5,0-11.4-5.4-11.4-12.1s4.9-12,11.4-12
	c1.5,0,3.1,0.3,4.5,1c1.4,0.6,2.7,1.5,3.8,2.6c1.1,1.1,1.9,2.4,2.5,3.9c0.6,1.4,0.8,3,0.8,4.5C200.4,327.6,195.4,333,188.9,333z
	 M337.3,298.1c-6.8,0-11.8,2.9-14.3,6.3v-21.2c0-0.5-0.2-0.9-0.6-1.2c-0.3-0.3-0.8-0.5-1.3-0.5h-7.8c-0.2,0-0.5,0-0.7,0.1
	c-0.2,0.1-0.4,0.2-0.6,0.4c-0.2,0.2-0.3,0.4-0.4,0.6c-0.1,0.2-0.1,0.5-0.1,0.7v57.1c0,0.2,0,0.5,0.1,0.7c0.1,0.2,0.2,0.4,0.4,0.6
	c0.2,0.2,0.4,0.3,0.6,0.4c0.2,0.1,0.5,0.1,0.7,0.1h7.8c0.5,0,0.9-0.2,1.3-0.5c0.3-0.3,0.5-0.8,0.6-1.2v-20.7
	c0-6.7,4.3-11.2,10.7-11.2c6.7,0,10.4,4.4,10.4,11.2v20.7c0,0.2,0.1,0.5,0.2,0.7c0.1,0.2,0.2,0.4,0.4,0.6c0.2,0.2,0.4,0.3,0.6,0.4
	c0.2,0.1,0.5,0.1,0.7,0.1h7.7c0.2,0,0.5,0,0.7-0.1c0.2-0.1,0.4-0.2,0.6-0.4c0.2-0.2,0.3-0.4,0.4-0.6c0.1-0.2,0.1-0.4,0.2-0.7v-23.8
	C355.7,306.1,348.6,298.1,337.3,298.1z"/>
<path d="M423.6,311.2h3.6v11.5h0.3c0.6-1.3,1.6-2.3,2.8-3c1.2-0.7,2.6-1.1,4-1c5.9,0,9.9,4.7,9.9,12s-4.1,12.1-9.9,12.1
	c-1.4,0.1-2.8-0.3-4-1c-1.2-0.7-2.2-1.8-2.8-3.1H427v3.6h-3.5V311.2z M433.8,339.5c4.5,0,6.8-4,6.8-8.9c0-5-2.2-8.8-6.8-8.8
	c-4.4,0-6.7,3.5-6.7,8.8C427.1,335.9,429.5,339.5,433.8,339.5L433.8,339.5z M448.5,350.5l0.9-3.1c2.6,0.7,4.2,0.3,5.5-3.2l0.7-1.8
	l-8.6-23.4h3.9l6.4,18.6h0.2l6.4-18.6h3.9l-9.9,26.6c-1.3,3.6-3.6,5.3-6.9,5.3C450.2,350.9,449.3,350.8,448.5,350.5L448.5,350.5z"/>
<path class="st2" d="M490.2,338.1c-1.8,0-2.6-0.9-2.6-2.3c0-2.6,2.9-3.5,8.3-4.1C495.9,335.3,493.5,338.1,490.2,338.1L490.2,338.1z
	 M492.5,318.4c-3.8,0.1-7.6,1.4-10.7,3.7l2.2,4.6c2.2-2,4.9-3.1,7.8-3.3c2.7,0,4.1,0.9,4.1,2.7c0,1.2-1,1.8-2.8,2.1
	c-6.9,0.9-12.3,2.8-12.3,8.1c0,4.2,3,6.8,7.7,6.8c1.5,0,3.1-0.4,4.4-1.2c1.3-0.8,2.5-1.8,3.3-3.2v3.6h6.2v-15.2
	C502.5,320.9,498.1,318.3,492.5,318.4 M555,319v23.3h6.7v-11.2c0-5.3,3.3-6.9,5.5-6.9c1,0,2,0.3,2.8,0.8l1.2-6.2
	c-0.9-0.4-2-0.6-3-0.5c-1.5-0.1-3,0.3-4.3,1.1c-1.3,0.8-2.2,2-2.7,3.5V319H555z M602.1,318.3c-1.5,0-3,0.4-4.3,1.1
	c-1.3,0.7-2.4,1.7-3.3,3c-0.7-1.3-1.8-2.3-3-3c-1.3-0.7-2.7-1.1-4.1-1.1c-1.4,0-2.9,0.4-4.1,1.1c-1.2,0.7-2.3,1.8-3,3.1V319h-6.4
	v23.3h6.7v-12c0-4.3,2.3-6.4,4.4-6.4c1.9,0,3.7,1.2,3.7,4.4v14h6.7v-12c0-4.4,2.2-6.4,4.4-6.4c1.8,0,3.6,1.3,3.6,4.4v14h6.7v-16.1
	C609.9,321,606.4,318.3,602.1,318.3 M538.8,319h-6v-2.4c0-3.1,1.8-4,3.3-4c1,0,2.1,0.3,3,0.7l2.1-4.7c-1.8-1-3.8-1.4-5.9-1.4
	c-4.3,0-9.1,2.4-9.1,9.9v1.8H516v-2.4c0-3.1,1.8-4,3.3-4c1,0,2.1,0.3,3,0.7l2.1-4.7c-1.8-1-3.8-1.4-5.9-1.4c-4.3,0-9.1,2.4-9.1,9.9
	v1.8h-3.9v5.1h3.9v18.2h6.7v-18.2h10.1v18.2h6.7v-18.2h6L538.8,319z M542.7,342.3h6.7V319h-6.7V342.3z"/>
<path class="st0" d="M581.6,286.5c-18,0-34,12.5-38.6,28.5h6.5c3.8-12,16.7-22.5,32-22.5c18.7,0,34.8,14.2,34.8,36.3
	c0.1,4.5-0.6,9-1.9,13.4h6.3l0.1-0.2c1-4.3,1.6-8.7,1.5-13.2C622.4,304.2,604.4,286.5,581.6,286.5"/>
</svg>
