
<svg version="1.1" id="layer" xmlns="http://www.w3.org/2000/svg" xmlns:xlink="http://www.w3.org/1999/xlink" x="0px" y="0px"
	 viewBox="0 0 652 652" style="enable-background:new 0 0 652 652;" xml:space="preserve">
<style type="text/css">
	.st0{fill:#1A123B;}
</style>
<path class="st0" d="M92.2,249.3c-61.8,0-70.7,8.9-70.7,70.7c0,61.8,9,70.7,70.7,70.7c61.8,0,70.7-9,70.7-70.7
	C163,258.3,154,249.3,92.2,249.3z M130.5,282.4c-1,10.3-1.3,18.5-1.3,29.2H55.7c-0.1-9.8-0.9-19.6-2.6-29.3
	C71.6,283.6,112.8,283.7,130.5,282.4z M54,357.8c1-10.3,1.3-18.5,1.3-29.2h73.5c0.1,9.8,0.9,19.6,2.6,29.3
	C112.9,356.5,71.7,356.4,54,357.8z"/>
<path class="st0" d="M223.1,276.3c-9.2,0.1-18.3,1.4-27.2,3.8c1.7,19.2,2.1,63.4-0.2,83.6c6.5-1,20.8-0.8,26.2-0.2
	c-0.6-5.6-1-12.9-1.2-20.9c29,4.3,46.3-10.3,46.3-32.4C267.1,286.1,248.3,276.3,223.1,276.3z M220.8,335.1l-0.1,0
	c-0.2-17.3,0.5-36.5,1.5-49.6c9.5-2.2,19.4,6.1,19.4,24.7C241.5,328.1,233.3,336.9,220.8,335.1z M323.4,347
	c-4.1,4.4-8.9,6.5-16.5,6.4c-8.2-0.2-12-5.3-13.9-12.1c3.6,1.9,7.7,2.8,12.3,2.8c12.5,0,20.6-8.3,20.6-19.9
	c0-13.8-9.9-23.8-25.8-23.8c-17.1,0-32.5,11.2-32.5,34.8c0,18.4,14.7,28.3,31.2,29.5c8.7,0.6,17.3-0.7,22.8-5.2
	C326.6,355.5,326.8,349.3,323.4,347z M300.7,310.3c3.8,0,7.5,4.8,7.5,10.8c0,9.5-7.8,14.3-16.3,11.2
	C292,318.1,294.6,310.3,300.7,310.3z M419.8,377.1c-14.8,0.6-24.2-9.2-24.2-31.3c0-17.1,0.4-29.6,1.7-42.4c-5,0.9-16.1,1.2-22,0
	c0.2,2.9,0.4,5.7,0.6,8.3c-3.9-7.3-10.6-11.5-20.2-11.5c-14.6,0-25,15.6-25,32c0,22.2,11,32.4,25,32.4c10,0,16.5-5.4,20.2-12.7
	c-0.1,3.7-0.1,7.5-0.1,11.5c0,16.9,10.3,29.8,26.1,29.8C414.2,393.1,420.9,385.3,419.8,377.1z M365.9,352.7c-6.5,0-9.5-6.8-9.4-19.6
	c0.1-13.5,3-21.6,9.4-21.6c6.1,0,9.5,8.5,9.4,21.5C375.2,344.1,372.1,352.7,365.9,352.7z M507.9,324.8c0-4.8,0.4-15.1,1.3-21.5
	c-5.3,0.8-19,0.8-24.7,0c1.2,10.1-0.3,27.6-0.3,39c0,14.5,6.9,22.3,18.2,22.3c4.8,0,9.2-1.5,11.2-3.5
	C507.3,352.6,507.9,339.3,507.9,324.8z M471.1,324.8c0-4.8,0.4-15.1,1.3-21.5c-5.3,0.8-19,0.8-24.7,0c0.8,6.5,0.4,16.1,0.1,25.1
	c-0.4,9.8-0.9,22.1-7.6,22.1c-6.5,0-8.7-9.1-8.7-25.7c0-4.8,0.4-15.1,1.3-21.5c-5.3,0.8-19,0.8-24.7,0c1.2,10.1,0.3,27.6,0.3,39
	c0,14,7.2,22.3,20.1,22.3c9.1,0,16.4-4.8,20.5-12c2.6,7.9,8.5,12,16.7,12c4.8,0,9.2-1.5,11.2-3.5C470.4,352.5,471.1,342,471.1,324.8
	z M545.4,314.4c2.6,0,5.4,0.1,6.9,0.2c0.1-3.8-0.1-7.6-0.6-11.3h-6.2c0.2-8.6,0.5-16.6,1-20c-5.3,0.8-19,0.8-24.7,0
	c0.3,2.7,0.4,10.4,0.4,20h-5.5c-0.8,3.3-1.1,8.5-1.1,11.9c1.4-0.2,4.1-0.4,6.5-0.5v3.2c0,8.4-0.7,17.4-0.7,24.3
	c0,14.5,6.9,22.3,18.2,22.3c4.8,0,9.2-1.5,11.2-3.5c-6.2-8.5-5.6-22-5.6-36.2C545.3,321.2,545.4,318.9,545.4,314.4z M621.5,303.3
	c-6.6,0.7-18.1,0.6-25,0c1.2,8.3,1.3,18.1,1.3,29.6c-0.2,9.5-2,17.5-7.6,17.5c-6.5,0-8.7-9.1-8.7-25.7c0-4.8,0.4-15.1,1.3-21.5
	c-5.3,0.8-19,0.8-24.7,0c1.2,10.1-0.3,27.6-0.3,39c0,13.2,6.7,22.3,20.5,22.3c8.2,0,14.8-3.7,19-9.5c-3.5,24.5-24,21.9-32,18.3
	c-2.1,9.4,4.6,19.7,22.2,19.7c19.3,0,33.1-14.8,33.1-35.2C620.6,351.2,620.6,318.7,621.5,303.3z M511.2,285.9
	c0,7.5-5.4,12.2-13.9,12.2c-8.4,0-13.9-4.7-13.9-12.2c0-7.5,5.4-12.2,13.9-12.2C505.8,273.7,511.2,278.4,511.2,285.9L511.2,285.9z"
	/>
</svg>
