
<svg version="1.1" id="layer" xmlns="http://www.w3.org/2000/svg" xmlns:xlink="http://www.w3.org/1999/xlink" x="0px" y="0px"
	 viewBox="-153 -46 652 652" style="enable-background:new -153 -46 652 652;" xml:space="preserve">
<style type="text/css">
	.st0{clip-path:url(#SVGID_2_);fill:url(#SVGID_3_);}
	.st1{opacity:0.3;fill:#1E1E1B;}
	.st2{clip-path:url(#SVGID_5_);fill:url(#SVGID_6_);}
	.st3{fill:#F5F5F5;}
	.st4{clip-path:url(#SVGID_8_);fill:url(#SVGID_9_);}
</style>
<g>
	<defs>
		<path id="SVGID_1_" d="M231.9,207.1c5.6,0,10.9,4.6,10.9,13h-21.6C221.1,211.7,226.4,207.1,231.9,207.1 M189.8,226.9
			c0,23.7,18.1,42.4,45.5,42.4c15.5,0,25.6-2.3,34.5-6.7l0.2-20.3c-9.1,4.6-20.7,7-28.8,7c-12.2,0-20.6-7.7-20-15.9h49.4
			c1.8-27.9-18.5-47.2-39.4-47.2C207.4,186.1,189.8,203.7,189.8,226.9 M274.5,227.4c0,19,15.6,41.8,45,41.8c9.1,0,17-2.2,23.4-5.8
			v-25.4c0,0-11.5,4.6-18.1,4.6c-12.2,0-18.3-7.6-18.3-15.4c0-7.6,6-15.2,18.2-15.2c6.8,0,18.1,4.7,18.1,4.7v-25.4
			c-6.4-3.5-14.3-5.6-23.3-5.6C289.9,185.7,274.5,208.6,274.5,227.4 M377.8,227.5c0-10.1,6.3-15.6,12.9-15.6
			c6.7,0,13.1,5.6,13.1,15.6c0,10.4-6.5,15.4-13.1,15.4C384.3,243,377.8,237.9,377.8,227.5 M345.7,227.4c0,19,15.6,41.8,45,41.8
			c29.4,0,45.2-22.7,45.2-42c0-19.2-15.8-41.6-45-41.6C361.2,185.7,345.7,208.6,345.7,227.4 M135.3,244.8c0-5,3.2-6.5,9.3-8
			c3.7-0.8,7.5-1.9,10.8-3.6v6.8c-0.4,7.7-5.3,11.5-11.5,11.5C138.9,251.6,135.3,248.3,135.3,244.8 M113.3,200.2
			c-2.7,4.7-3.7,7.8-3.9,13.3h25.3c1.9-5.4,6.2-8.3,10.7-8.3c3.8,0,7.5,2,9.7,5.8c0.4,0.6,0.5,1.2,0.5,1.9c0,5-3.2,5.9-7.2,6.7
			c-14.7,2.9-42.4,2-42.4,26.5c0,15,11.8,23.1,26.4,23.1c9.3,0,17.5-1.7,23.6-8.9l0.7,0.9c2.7,2.5,7.4,6.5,22.4,6.5h10.1v-22
			c-3.9-0.6-5.4-2.2-5.3-11l0-18.2c0-23.6-21.4-30.9-36.4-30.9C140.3,185.7,120.5,187.5,113.3,200.2 M-79,212.3v18l67.5-35.7
			c3.8,6.2,6,13.5,6,21.3c0,22.3-18.1,40.4-40.4,40.4c-6.3,0-12.2-1.4-17.5-4l-13.6,7.1l1.1,0.8c8.6,5.8,18.9,9.1,29.9,9.1
			c29.5,0,53.4-23.9,53.4-53.4c0-15.9-6.9-30.2-17.9-40L-79,212.3z M-99.4,215.9c0,15.8,6.9,30.1,17.9,39.9l69-36.7l0.1-18l-67.9,36
			l0,0c-3.8-6.2-6-13.4-6-21.2c0-22.3,18.1-40.4,40.4-40.4c6.3,0,12.1,1.4,17.4,3.9l13.6-7.1l-1.2-0.8c-8.5-5.7-18.8-9.1-29.9-9.1
			C-75.4,162.4-99.4,186.4-99.4,215.9 M31.3,194.8c0,4.4,0,16.6,16.8,26.7c13.4,8,17.8,10.5,17.8,14.9c0,2.1-1.6,6.5-11,6.5
			c-8.7,0-16.9-3.6-24.1-8.6v28c4.2,2.3,13.1,7.1,31.9,7.1c36.9,0,39.9-25.9,39.9-31c0-16.4-14.2-24.5-21.9-28.9
			c-9.5-5.4-15.5-8.7-15.5-13.8c0-2.9,2.6-6.6,8.6-6.6c9.1,0,18.7,8,24.3,13.2v-27.8c-6.5-6-17.5-11.9-31-11.9
			C46.3,162.4,31.3,174.9,31.3,194.8"/>
	</defs>
	<clipPath id="SVGID_2_">
		<use xlink:href="#SVGID_1_"  style="overflow:visible;"/>
	</clipPath>
	
		<linearGradient id="SVGID_3_" gradientUnits="userSpaceOnUse" x1="-123.1958" y1="578.2962" x2="-119.1298" y2="578.2962" gradientTransform="matrix(131.6556 0 0 131.6556 16120.0557 -75920.0938)">
		<stop  offset="0" style="stop-color:#9C9795"/>
		<stop  offset="0.5" style="stop-color:#D0CECD"/>
		<stop  offset="1" style="stop-color:#9C9795"/>
	</linearGradient>
	<rect x="-99.4" y="162.4" class="st0" width="535.3" height="106.9"/>
</g>
<path class="st1" d="M-63.4,252.3c5.3,2.5,11.2,4,17.5,4c22.3,0,40.4-18.1,40.4-40.4c0-7.8-2.2-15.1-6-21.3L-79,230.3v-18l68.6-36.4
	c11,9.8,17.9,24.1,17.9,40c0,29.5-23.9,53.4-53.4,53.4c-11.1,0-21.4-3.4-29.9-9.1l-1.1-0.8L-63.4,252.3z M-14.9,172.3l-1.2-0.8
	c-8.5-5.7-18.8-9.1-29.9-9.1c-29.5,0-53.4,23.9-53.4,53.5c0,15.8,6.9,30.1,17.9,39.9l69-36.7l0.1-18l-67.9,36l0-0.1
	c-3.8-6.2-6-13.4-6-21.2c0-22.3,18.1-40.4,40.4-40.4c6.3,0,12.1,1.4,17.4,3.9L-14.9,172.3z M403.8,227.5c0-10.1-6.3-15.6-13-15.6
	c-6.6,0-13,5.6-13,15.6c0,10.4,6.5,15.5,13,15.5C397.4,243,403.8,237.9,403.8,227.5 M435.9,227.3c0,19.3-15.7,42-45.2,42
	c-29.4,0-45-22.8-45-41.8c0-18.8,15.5-41.7,45.2-41.7C420.2,185.7,435.9,208,435.9,227.3 M155.4,233.3c-3.3,1.7-7.1,2.7-10.8,3.6
	c-6.1,1.4-9.3,3-9.3,8c0,3.5,3.6,6.8,8.6,6.8c6.2,0,11.1-3.9,11.5-11.5V233.3z M179.2,267.8c-15,0-19.7-3.9-22.4-6.5l-0.7-0.9
	c-6.1,7.2-14.3,8.9-23.6,8.9c-14.6,0-26.4-8.1-26.4-23.1c0-24.6,27.7-23.7,42.4-26.5c3.9-0.7,7.2-1.7,7.2-6.7c0-0.7-0.2-1.4-0.5-1.9
	c-2.2-3.8-5.9-5.8-9.7-5.8c-4.5,0-8.9,2.9-10.7,8.3h-25.4c0.2-5.5,1.3-8.6,3.9-13.3c7.2-12.7,27-14.5,34.4-14.5
	c15,0,36.4,7.3,36.4,30.9l0,18.2c-0.1,8.8,1.3,10.4,5.3,11v22H179.2z M342.9,216.7v-25.4c-6.4-3.5-14.3-5.6-23.3-5.6
	c-29.8,0-45.2,22.9-45.2,41.7c0,19,15.6,41.8,45,41.8c9.2,0,17-2.2,23.4-5.8v-25.4c0,0-11.5,4.6-18.1,4.6
	c-12.2,0-18.3-7.6-18.3-15.4c0-7.6,6-15.2,18.2-15.2C331.6,212,342.9,216.7,342.9,216.7 M30.8,262.2c4.2,2.3,13.1,7.1,31.9,7.1
	c36.9,0,39.9-25.9,39.9-31c0-16.4-14.2-24.5-21.9-28.9c-9.5-5.4-15.5-8.7-15.5-13.8c0-2.9,2.6-6.6,8.6-6.6c9.1,0,18.7,8,24.3,13.2
	v-27.8c-6.5-6-17.5-11.9-31.1-11.9c-20.7,0-35.8,12.5-35.8,32.3c0,4.4,0,16.6,16.8,26.7c13.4,8,17.8,10.5,17.8,14.9
	c0,2.1-1.6,6.5-11,6.5c-8.7,0-16.9-3.6-24.1-8.6V262.2z M242.7,220c0-8.3-5.2-13-10.9-13c-5.5,0-10.7,4.6-10.7,13H242.7
	 M221.1,233.3c-0.6,8.2,7.8,15.9,20,15.9c8.2,0,19.7-2.4,28.8-7l-0.2,20.3c-8.9,4.4-19,6.7-34.5,6.7c-27.4,0-45.5-18.6-45.5-42.4
	c0-23.2,17.6-40.8,41.4-40.8c21,0,41.3,19.3,39.4,47.2H221.1z"/>
<g>
	<defs>
		<rect id="SVGID_4_" x="-131.7" y="354.9" width="201.3" height="11.5"/>
	</defs>
	<clipPath id="SVGID_5_">
		<use xlink:href="#SVGID_4_"  style="overflow:visible;"/>
	</clipPath>
	
		<linearGradient id="SVGID_6_" gradientUnits="userSpaceOnUse" x1="-124.0159" y1="582.6552" x2="-119.948" y2="582.6552" gradientTransform="matrix(49.4822 0 0 49.4822 6004.8711 -28470.4023)">
		<stop  offset="0" style="stop-color:#194121"/>
		<stop  offset="6.979817e-002" style="stop-color:#1B4823"/>
		<stop  offset="1" style="stop-color:#3BA236"/>
	</linearGradient>
	<rect x="-131.7" y="354.9" class="st2" width="201.3" height="11.5"/>
</g>
<rect x="69.6" y="354.9" class="st3" width="201.3" height="11.5"/>
<g>
	<defs>
		<polygon id="SVGID_7_" points="468.3,354.9 270.9,354.9 270.9,354.9 270.9,366.4 270.9,366.4 468.3,366.4 468.3,366.4 
			468.3,354.9 		"/>
	</defs>
	<clipPath id="SVGID_8_">
		<use xlink:href="#SVGID_7_"  style="overflow:visible;"/>
	</clipPath>
	
		<linearGradient id="SVGID_9_" gradientUnits="userSpaceOnUse" x1="-121.6344" y1="586.7838" x2="-117.5664" y2="586.7838" gradientTransform="matrix(35.4255 -23.0056 23.0056 35.4255 -8892.8154 -23177.9414)">
		<stop  offset="0" style="stop-color:#CD1417"/>
		<stop  offset="0.4908" style="stop-color:#DF291D"/>
		<stop  offset="0.5469" style="stop-color:#D6271C"/>
		<stop  offset="1" style="stop-color:#921914"/>
	</linearGradient>
	<polygon class="st4" points="329.4,456.6 473.5,363 409.7,264.7 265.6,358.3 	"/>
</g>
</svg>
