
<svg version="1.1" id="layer" xmlns="http://www.w3.org/2000/svg" xmlns:xlink="http://www.w3.org/1999/xlink" x="0px" y="0px"
	 viewBox="0 0 652 652" style="enable-background:new 0 0 652 652;" xml:space="preserve">
<style type="text/css">
	.st0{fill:#E2231A;}
</style>
<path class="st0" d="M118.7,226.3c-4.6,12.3-4.1,25.6-0.5,37c7.4,23.4,32.1,34,53.1,35.9c24.8,2.5,49.6-6.5,65.1-23.4
	c12-13.1,17.7-31.3,16.1-49.6h-16.3c-1.6,0-2.7,1.9-1.6,3.3l3.3,4.4c0.5,0.8,0.5,1.6,0,2.5c-1.9,2.7-5.4,7.1-8.4,10.3
	c-15.8,16.1-38.1,23.4-60.5,22.1c-16.3-1.4-30.8-6-39.5-21.2c-2.5-4.1-3.3-9.8-3.5-11.4c0-0.5,0-1.4,0.5-1.6l3.5-4.4
	c1.4-1.6,0.5-3.5-1.9-3.5h-9.3V226.3z"/>
<path class="st0" d="M202.6,90.6c0-14.2,18.8-9.5,9,21C211.6,111.6,202.6,101.8,202.6,90.6 M191.1,179.7
	c17.4-16.1,23.7-40.6,23.7-40.6s25.1,26.4,34,39.5c11.7,16.9,18.2,29.7,21.2,40c9.3,29.1,3.8,62.4-17.2,85.2
	c-20.7,22.9-53.1,33.2-83.3,30.2c-30.2-3-60.7-18.5-70.3-49c-6.3-20.7-3.5-43.3,5.7-62.6c22.3-46.8,75.7-80.9,81.4-85.2
	c1.9-1.4,1.9-2.5,1.4-3.3c-0.5-0.5-1.4-0.8-3.3,0c-0.8,0.5-4.9,3-5.7,3.3c-12,7.6-16.6,10.9-25.6,17.4
	c-14.2,10.3-27.2,21.5-39.2,34.3c-7.1,7.9-14.2,17.2-20.4,27.8c-14.7,25.6-19.9,56.4-9.8,84.4c13.3,37.6,51.2,58.3,89.6,61
	c37.6,2.5,76.3-12.3,100.8-41.1c25.6-30.5,31.9-72.7,18.5-110c-4.6-12.3-10.9-23.7-17.7-33.8c-14.4-21-36.8-40-53.6-56.9
	c2.2-12,4.9-22.3,4.1-30.2c-0.8-9-6.3-19.3-17.4-19.1c-10.6,0.5-15.3,9.8-15.8,18.8c-1.1,18.8,14.7,39.8,14.7,39.8
	s-4.9,20.7-19.1,41.9C178.9,184.9,187.3,183.5,191.1,179.7"/>
<path class="st0" d="M407.4,527.7h13.1c11.7,0,18.8,6.3,19.1,17.4c0.5,12.8-7.1,25.3-22.9,25.3h-17.4L407.4,527.7z M416.1,563.7
	c11.2,0,13.9-10.9,13.9-18.5c-0.3-5.7-2.4-10.6-9.3-10.6h-4.9l-5.7,29.1H416.1z M440.9,557.7c-0.3-10.3,5.7-19.9,16.3-19.9
	c7.6,0,11.7,4.6,12,11.4c0,2.2-0.3,4.6-0.8,7.1h-18.8v1.1c0.3,5.2,2.4,7.1,6.3,7.1c3,0,5.4-0.8,7.9-2.2h3l-1.1,6
	c-2.2,1.4-5.7,2.4-10.4,2.4C446.3,570.7,441.1,566.4,440.9,557.7 M450.1,551.1h11.2c0.3-0.8,0.3-1.6,0.3-2.5c0-3.3-1.9-5.2-4.6-5.2
	C453.4,543.5,450.9,546.5,450.1,551.1z M468.9,567.8l1.1-6h3c1.4,1.6,3.8,2.7,7.1,2.7c2.7,0,5.2-0.8,4.9-3c0-1.6-1.4-2.5-4.4-3.5
	c-5.4-1.9-8.4-4.1-8.7-9c-0.3-6.5,4.6-10.9,12.5-10.9c4.9,0,8.2,1.4,10.4,3l-1.1,5.7H491c-1.4-1.4-3.8-2.5-6.5-2.5
	c-3,0-4.6,1.1-4.6,3c0,1.4,1.1,2.2,4.6,3.3c4.9,1.6,8.4,3.5,8.7,8.7c0.3,6.8-4.9,11.2-13.3,11.2
	C474.4,570.7,470.8,569.1,468.9,567.8 M516,566.4c-2.2,2.7-5.2,4.4-9,4.4c-5.7,0-10.4-3.3-10.6-11.7c-0.3-12,6.5-21.2,16.3-21.2
	c3.5,0,6,1.1,7.6,3l2.4-13.3h5.4c2.2,0,3.3,0.8,2.4,5.2l-7.4,37.6h-2.2C517.9,570.5,516.3,568.8,516,566.4 M516.3,562.3l3-15.8
	c-0.8-0.8-2.4-1.9-4.9-1.9c-6,0-9.3,6.3-9.3,14.2c0,4.1,1.4,6,4.9,6C512,564.8,514.1,563.9,516.3,562.3 M530.5,557.7
	c-0.3-10.3,5.7-19.9,16.3-19.9c7.6,0,11.7,4.6,12,11.4c0,2.2-0.3,4.6-0.8,7.1h-18.8v1.1c0.3,5.2,2.5,7.1,6.5,7.1
	c3,0,5.4-0.8,7.6-2.2h2.7l-1.1,6.3c-2.2,1.4-5.7,2.4-10.4,2.4C535.9,570.7,530.7,566.4,530.5,557.7 M539.7,551.1h11.2
	c0-0.8,0.3-1.6,0-2.5c0-3.3-1.9-5.2-4.6-5.2C543,543.5,540.5,546.5,539.7,551.1z M574.3,540.8h-2.4l1.1-6.8l12-6.3h6.5l-8.4,42.8
	h-9.5l6.3-32.4L574.3,540.8z M591.5,568.3l1.4-6.3h3.5c1.4,1.4,3.5,2.2,6.5,2.2c4.4,0,7.9-1.6,10.1-4.4c1.6-2.2,3-5.2,3.5-8.2
	c-2.4,2.2-6,3.3-10.3,3.3c-7.1,0-12-4.1-12-10.9c-0.3-9.5,7.1-16.6,16.9-16.6c8.7,0,15.3,5.4,15.5,14.7c0.3,8.2-1.6,15.3-5.7,20.7
	c-3.8,5.2-10.1,8.2-18.2,8.2C597.5,571,594.2,569.9,591.5,568.3 M616.8,546.5c0-1.6,0.3-3.3,0-5.2c0-4.4-1.6-7.9-6.3-7.9
	c-4.9,0-8.2,3.5-7.9,9.5c0.3,3.5,2.5,5.4,6.5,5.4C611.9,548.4,614.9,547.6,616.8,546.5z M661.7,568.3l1.4-6.3h3.5
	c1.6,1.4,3.5,2.2,6.5,2.2c4.4,0,7.9-1.6,10.1-4.4c1.9-2.2,3-5.2,3.5-8.4c-2.5,2.2-6,3.3-10.1,3.3c-7.1,0-12-4.1-12-10.9
	c-0.3-9.5,6.8-16.6,16.9-16.6c8.7,0,15.2,5.4,15.5,14.7c0.3,8.2-1.6,15.3-5.7,20.7c-3.8,5.2-10.1,8.2-18.2,8.2
	C667.7,571,664.5,569.9,661.7,568.3z M687.1,546.5c0.3-1.6,0.3-3.3,0-5.2c0-4.1-1.6-7.9-6.3-7.9c-4.9,0-8.2,3.5-7.9,9.5
	c0,3.5,2.2,5.4,6.3,5.4C682.2,548.4,685.4,547.6,687.1,546.5z M645.1,561.5h-19.1l1.6-7.9l24.5-25.6h9l-5.2,27h5.2l-1.4,6.5h-5.4
	l-1.9,9h-9.3L645.1,561.5z M646.2,554.7l3-15.8h-0.3l-14.4,15.3v0.3h11.7V554.7z M424,377.9c-1.6-1.1-6-2.2-12.3-2.2
	c-12,0-24.8,8.4-31.6,16.9l3.3-14.2h-43.8l-22.9,125.8h43l13.3-73.5c3.5-9,14.7-18,26.4-19.3c6.5-0.8,12.5-0.3,17.4,2.7L424,377.9z
	 M570.5,313.4l-34.3,189.3h44.1l0.3-0.8c0-0.8,33.8-188.5,33.8-188.5H570.5z M652.5,505.4c-14.4-0.5-29.7-4.6-38.9-14.4
	c-6.5-7.1-10.1-15.5-11.4-25.1c-1.4-10.9-0.5-21.8,2.7-32.4c4.6-15.3,12-28.6,23.7-39.8c3.3-3,6.5-5.7,10.1-8.2c0,0,0,0,0.3,0
	c8.7-6,18.2-9.8,28.9-11.2c10.9-1.6,21.8-1.6,32.4,2.5c4.1,1.6,7.6,3.8,10.4,6.8c6.5,5.7,10.1,14.4,7.6,26.1
	c-8.2,38.9-50.4,47.1-77.1,48.5c1.1,9.5,10.4,14.7,19.3,15.3c17.4,1.4,36.2-7.1,42.5-12.3l-6.3,35.7
	C696.6,496.9,677.3,506.2,652.5,505.4 M642.9,431.6c9.8-0.8,36.2-4.6,38.4-20.7c1.4-10.9-10.4-14.2-22.9-4.1
	c-9,7.4-13.9,19.9-14.7,22.1C643.2,429.7,643.2,430.8,642.9,431.6 M310.4,396.2c-8.2-11.4-19.9-17.7-32.1-18
	c-11.4-0.5-22.9,3.8-32.7,11.2l1.9-11.2h-42.2l-33.8,187.6h42.2l12-66.7c15.8,13.1,38.9,10.6,50.1,6c12.5-5.4,24.2-15.5,31.6-29.4
	c7.1-13.1,10.9-29.1,11.2-44.7C319.1,418.5,317,405.7,310.4,396.2 M277.5,441.4c0,0.3,0,0.5-0.3,0.5c0,0.3,0,0.3,0,0.5
	c-3.3,18-13.6,36.8-28.6,35.7c-8.7-0.5-12.8-3.5-17.4-8.2l8.4-50.7c4.9-7.9,12-13.3,21.2-13.6C276.7,404.9,280.5,423.4,277.5,441.4
	 M531,394.3c-9.8-11.4-24.5-18-40.8-18.2h-0.8h-0.8c-16.6,0.3-33.5,6.8-47.7,18.2c-15,12.5-23.2,29.7-26.4,47.7
	c-3.3,18-1.4,35.1,9.3,47.7c9.8,11.4,24.5,18,40.8,18.2h0.8h0.8c16.6-0.3,33.5-6.8,47.7-18.2c15.3-12.5,23.2-29.7,26.4-47.7
	C543.3,424,541.6,406.8,531,394.3z M499.7,440.3c0,0.3,0,0.5,0,0.5c-3.3,18.2-12.8,37.6-28.9,37.3c-16.3,0-18.5-19.3-15.3-37.3
	c0-0.3,0-0.3,0-0.5c0-0.3,0-0.3,0-0.5c3.3-18.2,12.8-37.6,28.9-37.3c16.1,0,18.5,19.3,15.3,37.3C499.7,440,499.7,440.3,499.7,440.3z
	 M176.2,394.3c-9.8-11.4-24.5-18-40.8-18.2h-0.8h-0.8c-16.6,0.3-33.5,6.8-47.7,18.2c-15.3,12.5-23.1,29.7-26.4,47.7
	c-3.3,18-1.4,35.1,9.3,47.7c9.8,11.4,24.2,18,40.8,18.2h0.8h0.8c16.6-0.3,33.5-6.8,47.7-18.2c15.3-12.5,23.1-29.7,26.4-47.7
	C188.4,424,186.8,406.8,176.2,394.3 M144.9,440.3c0,0.3,0,0.5,0,0.5c-3.3,18.2-12.8,37.6-28.9,37.3c-16.3,0-18.5-19.3-15.3-37.3
	c0-0.3,0-0.3,0.3-0.5c0-0.3,0-0.3,0-0.5c3.3-18.2,12.8-37.6,28.9-37.3c16.3,0,18.5,19.3,15.3,37.3
	C144.9,440,144.9,440.3,144.9,440.3z M4.3,383.1c-9.8-6.8-24.8-12.8-20.2-27.5c4.9-15.8,34-20.2,67,3.5l9.3-34
	c-12-12.3-58.3-27.2-92.3-6.5c-28.3,17.2-38.9,54.5-21,77.3c12.8,16.1,32.4,25.1,46,34.3c11.4,7.9,18.2,15.8,14.2,26.7
	c-9,24-62.4,6.3-79.8-13.1c0,0-17.7,22.6-1.9,41.4c9,10.6,20.4,15.5,26.4,17.4c1.4,0.3,3,0.8,4.4,1.1c7.1,1.6,14.7,2.7,22.1,3.3
	c24,1.1,63.2-10.6,71.6-51.7C59.1,410.1,26.4,398.9,4.3,383.1 M717,524.5l-3-4.4c-1.4-2.2-1.6-2.2-2.4-2.2h-0.3v6.5h-2.5v-15h4.6
	c3.5,0,5.4,1.4,5.4,4.1c0,2.5-1.6,3.8-3.8,4.1c0.3,0.3,0.8,0.8,1.6,2.2l3.3,4.6H717z M713.2,511.4h-1.9v4.6h1.9
	c1.9,0,2.7-0.8,2.7-2.2C716.2,512.2,715.1,511.4,713.2,511.4L713.2,511.4z"/>
<path class="st0" d="M713.7,529.4c-6.8,0-12.3-5.4-12.3-12.3c0-6.8,5.4-12.3,12.3-12.3c6.8,0,12.3,5.4,12.3,12.3
	C726.3,523.9,720.6,529.4,713.7,529.4z M713.7,506.5c-5.7,0-10.6,4.6-10.3,10.3c0,5.7,4.6,10.6,10.3,10.6c5.7,0,10.4-4.6,10.4-10.6
	C724.4,511.1,719.5,506.5,713.7,506.5z"/>
</svg>
