
<svg version="1.1" id="layer" xmlns="http://www.w3.org/2000/svg" xmlns:xlink="http://www.w3.org/1999/xlink" x="0px" y="0px"
	 viewBox="0 0 652 652" style="enable-background:new 0 0 652 652;" xml:space="preserve">
<path id="stanley-rogers" d="M119,313.1c-0.5-2.1-1.9-3.8-3.9-4.6c0.3-0.2,0.8-0.3,1.2-0.3l1.3-0.1l-0.9-1c-3.7-4.1-7.1-2.3-8.7-0.9
	c-1.7,1.2-3.5,2.2-5.5,3c-6-1.4-11-7.7-11.5-8.4c-0.5-1.1-0.9-2.2-0.9-3.4c0-0.8-0.1-1.5-0.4-2.3c2-1.3,10.1-6.9,11.2-12.4l0.2-0.9
	l-0.9,0.2c-1,0.2-1.5,0-1.7-0.5c-0.2-1.3,0.4-2.5,1.4-3.2c1.4-0.8,2.7-1.8,3.7-2.9l0.6-0.7l-0.8-0.4c-0.7-0.3-1.1-1-1.2-1.7
	c0.1-0.8,0.5-1.5,1-2c0.9-1.1,1.5-2.4,1.9-3.7v-0.1c0.3-1.8,0.1-3.6-0.8-5.2c-0.6-1.2-0.8-2.6-0.6-3.9l0.1-0.8l-0.8,0.1
	c-0.8,0.1-1.6,0.3-2.3,0.6c0.1-1.1-0.2-2.2-0.9-3c-0.5-0.6-0.8-1.3-0.9-2l-0.2-0.8L98,252c-2,0.9-3.5,2.7-4,4.9
	c-0.2,0-0.3,0-0.5-0.1c-0.3-0.3-0.5-0.7-0.5-1.1l-0.2-1.2l-0.9,0.8c-1.5,1.1-2.4,2.9-2.4,4.8c0.1,3.3,3.4,6.1,4.4,6.9
	c0.1,1.2,0,2.4-0.2,3.5c-1.1,4.7-7.7,9.5-10.1,11.1c0-0.3-0.1-0.6-0.1-0.9l-0.2-0.9l-0.7,0.5c-2.3,1.3-4.8,2.2-7.4,2.5
	c-2.4,0.2-5.5-1.5-7.3-2.7h1.9l0.1-0.4c0.4-0.7,1.3-1,2-0.7c1,0.2,2-0.4,2.3-1.4c0.4-1.5-0.1-3.1-1.4-4c-1.1-1-2.7-1.4-4.1-0.9
	l-1,0.1c-1.2,0.2-2.4,0.1-3.5-0.3c0.1-0.4,0.1-0.7,0.1-1.1c1.5,0.2,5.4,0.7,7.5-0.3c1.4-0.6,2.3-1.9,2.5-3.5c0.1-1.1-0.4-2.3-1.3-3
	c0.3-0.6,0.4-1.2,0.4-1.8v-0.1c0.1-0.7,0-1.3-0.2-2l-0.1-0.3l-0.3-0.1c-2.6-0.6-5.3-0.6-8-0.2c-0.4-0.6-3.1-4.4-7.3-3.9
	c-0.5-1.1-2.2-5.5-3.6-9.5c-2,2.7-1.6,4.3,0.2,4.9c0.5,1.1,1.4,3.5-0.2,4.3c-1.6,0.8-5.1-1.4-5.6-2.9c1.2-0.9,1.3-2.2,0-2.9
	c-1-0.5-2-0.8-3.1-1.1c-0.3,1.1-0.5,2.1-0.6,3.2c-0.1,1.4,1.1,2,2.5,1.4c0.9,1.2,1.1,5.3-0.4,6.3c-1.5,1-3-1.1-3.7-2
	c0.3-1.9-0.8-2.9-4.1-2.6c2.3,2.7,4.6,5.5,5.7,6.9c-0.8,0.2-1.7,0.2-2.5,0.1l-1.5-0.1l0.9,1.2l0.3,0.3c0.6,0.9,1.4,1.6,2.4,2
	c-3.3,1.9-3.5,3.7-3.6,4l-0.1,1l0.9-0.3c0.3-0.1,0.7-0.2,1-0.3c-1,1.3-1.6,2.8-1.9,4.4c-1.9-1-4.1-1.4-6.2-1.3c-5,0.1-8-2.1-8.9-6.6
	l-0.4-1.8l-0.8,1.7c-3.8,7.4,0.8,11.7,2.7,13.2c-1.8,1.6-3,3.9-3.1,6.4v1.1l0.9-0.5c2.5-1.3,5.2-2.1,8-2.2c3.9,0.1,5.9,1.3,6.9,2.7
	c0.8,1.6,0.8,3.4,0,5c-1,2.5-3.5,4.2-6.2,4.1c-1,0.1-2-0.4-2.5-1.3l-0.3-1l-0.7,0.8c-1.1,1.1-1.3,3.9-0.4,6.1
	c0.4,1.2,1.3,2.3,2.5,2.9c-1.1,1.1-1.9,2.5-2.3,4l-0.3,1.4l1.2-0.7c0.3-0.2,0.7-0.3,1.1-0.4c-2.2,3.9-2.7,8.5-1.4,12.7
	c1.3,4.3,4.6,7.6,8.9,8.9c4,1.4,8.3,0.9,11.9-1.2c-0.6,2.6-2.2,4.9-4.5,6.4c-1.2,0.8-2.7,1.1-4.1,0.8l-1.1-0.4l0.3,1.1
	c0.3,1.2,0.9,2.3,1.7,3.2c-1.8,0.5-3.6,1.1-5.3,1.8c-3.2,1.4-3.9,4.9-4.4,7.7c-0.1,0.6-0.2,1.2-0.4,1.7c-0.1,0.3-0.3,0.6-0.6,0.7
	c-1.7,0.4-3.4,0.2-4.9-0.5l-1.2-0.5l0.4,1.3c0.5,1.6,1.5,2.9,2.9,3.9c-0.8,1-1.9,1.7-3.1,2.1l-1.1,0.3l0.9,0.8
	c1.3,1.1,3.2,1.3,4.8,0.6c-0.2,2.6,0.7,5.2,2.5,7.1l0.3,0.4l0.5-0.3c1.3-0.9,3-0.6,4,0.6c0,0,0,0,0,0c0,0,0,0,0,0
	c0.5,1.4,1.7,2.4,3.2,2.6c0.3,0,0.6-0.1,0.9-0.2c0.7-0.3,1.2-0.8,1.4-1.5c0.3,0.3,0.7,0.5,1.2,0.6c0.3,0.1,0.5,0.1,0.8,0.1
	c0.7,0,1.3-0.2,1.9-0.6c0.7-0.3,1.3-1,1.4-1.8c1,0,2.1-0.4,2.9-1c0.7-0.7,1.1-1.6,1-2.6c0-0.7-0.3-1.5-0.8-2
	c-1.5-1.4-4.8-1.4-7.4-1.3h-1.3c-1.6-0.2-3-1.2-3.6-2.7c-0.7-1.6-0.4-3.4,0.8-4.7c1.7-2.3,4.5-3.4,7.3-2.9c1.8,0.2,3.5,0.2,5.3,0
	c0.1,0.9,0.5,1.8,1.2,2.4l0.8,0.7l0.3-1c0.4-0.9,0.9-1.7,1.6-2.4c1.2,1.1,2.7,1.9,4.4,2.3l1.7,0.4l-1-1.4c-1.4-2.1-1.4-4.9,0-7
	c1.7-2.5,2.5-5.6,2.2-8.7v-1.4c-0.1-1.2,0.1-2.4,0.5-3.5c6,0,18,4,18.7,9.2c0.5,2.2-0.4,4.4-2.2,5.7c-1.1,0.7-2.5,0.8-3.6,0.1
	l-0.7-0.5l-0.2,0.9c-0.3,1.7,0.4,3.5,1.8,4.5c-1.1,0.4-2.3,0.5-3.5,0.4l-1.1-0.2l0.3,1c0.3,1.2,1.2,2.3,2.3,2.9
	c-0.3,1.3-0.1,2.7,0.6,3.9c1,2,2.7,2.1,4.7,2.3c1.7,0.1,3.3,0.4,4.9,0.9c2.7,1.1,5,3,6.7,5.4c0.5,0.7,1.2,1.4,1.9,1.9
	c1.3,0.7,2.8,1.1,4.3,1.1c0.7,0,1.4-0.1,2.1-0.4c0.9-0.4,1.6-1.2,1.7-2.2c0.6,0.2,1.2,0.3,1.8,0.3c0.5,0,1-0.1,1.4-0.3
	c0.7-0.4,1.3-1.1,1.4-2c0.1-0.4,0.1-0.9,0.1-1.3c0.7-0.1,1.4-0.6,1.7-1.3c0.5-1.3,0.3-2.8-0.6-3.9c-1.2-1.8-3.2-1.6-6-1.2
	c-1.5,0.2-3,0.3-4.5,0.4c-1.8,0.1-3.5-0.6-4.8-1.8c-1.5-1.6-2.4-3.7-2.4-5.9c0-3.3,1.4-8.7,5.4-9.7c1.5-0.3,2.9-1,4-2.1l0.6-0.7
	l-0.9-0.3c-0.9-0.3-1.7-0.8-2.5-1.4c1.5,0.1,2.9-0.4,4-1.3c1-1.1,1.4-2.7,1.1-4.2l-0.1-0.6l-0.6,0.1c-2.5,0.6-4.7-1.7-7.1-3.7
	c-1.5-1.3-3.1-2.5-4.8-3.4c-3.8-2-11-2.5-14.3-2.6c1.7-1.3,3.2-2.9,4.5-4.5c2.5-0.8,4.3-3,4.9-5.5c2.1,1.4,3.2,4,2.9,6.5l-0.4,1.6
	l1.3-0.9c1-0.8,1.9-1.7,2.5-2.8l4.6,4.3l0.2-1c0.1-0.4,0.5-0.7,0.9-0.6c0.6,0.2,1.1,0.5,1.5,0.8c2,1.5,4.4,2.3,6.8,2.4
	c1.4,0.1,2.8-0.3,4-1c1-0.6,2.3-0.8,3.4-0.3l0.7,0.1V318c0.1-1.1-0.2-2.2-0.8-3.1c1.3-0.8,2.8-1.1,4.3-1l1,0.1L119,313.1z
	 M108.8,307.2c1.7-1.7,4.3-1.7,6.1-0.1c0,0,0.1,0.1,0.1,0.1c-0.4,0.1-0.7,0.4-1,0.7c-0.1,0.1-0.1,0.2-0.2,0.4
	c-1.8-0.1-3.6,0.1-5.4,0.6c-1.1,0.3-2.2,0.5-3.3,0.6C106.4,308.9,107.7,308.1,108.8,307.2L108.8,307.2z M91.1,260
	c0-1.1,0.4-2.2,1.2-3c0.2,0.3,0.4,0.7,0.8,0.9c0.3,0.2,0.6,0.3,0.9,0.3c-0.2,1.9-0.2,3.8,0,5.7c0,0.4,0.1,0.9,0.1,1.3
	C92.5,263.8,91.4,262,91.1,260L91.1,260z M83.8,283c1.7-1.1,10-6.5,11.4-12.3c0.4-2.3,0.4-4.6,0.1-6.9c-0.3-4.1-0.6-8.1,2.7-10.3
	c0.2,0.6,0.5,1.2,1,1.7c0.7,0.8,0.9,2,0.5,3c-1.2,0.9-1.9,2.4-1.8,4c0,0,2.2-4,4.9-4c-0.1,1.3,0.1,2.6,0.7,3.7
	c0.7,1.4,0.9,3,0.6,4.5c-0.4,1.2-1,2.3-1.8,3.3c-0.8,0.8-1.3,1.9-1.3,3.1c0.1,0.9,0.5,1.7,1.2,2.2c-0.9,0.8-1.8,1.6-2.9,2.1
	c-1.6,1-2.4,2.9-2,4.8c0.3,0.9,1.2,1.5,2.2,1.4c-1.5,4.5-8.1,9.1-10.2,10.5c-1.7-3-4.6-5.1-8-5.7C82.8,286.9,83.7,285,83.8,283
	L83.8,283z M44.4,269.7l0.7-0.9l-1.1-0.2c-0.5-0.1-1-0.1-1.5,0c1.1-1.3,2.5-2.3,4.1-2.9l2.6-1.1l-2.9-0.1c-1.1,0.1-2.1-0.3-2.9-1.1
	c3.1-0.4,5.9-1.6,8.4-3.5c1.7-1.2,3.5-2.1,5.4-2.6c2.5-0.3,4.9,0.8,6.3,2.9c-2.2,0.3-4.3,0.9-6.3,1.8c0.1,0,11.4-1.6,15.2-0.7
	c0.1,0.3,0.1,0.7,0,1.1v0.1c0.1,0.7-0.2,1.3-0.7,1.7c-1,0.5-2.2,0.5-3.2,0.1c0,0,0.8,1.7,3.9,0.9c0.6,0.5,0.9,1.2,0.8,2
	c-0.1,1.1-0.8,2-1.8,2.4c-1.9,0.9-6.1,0.4-7.5,0l-0.8-0.2c0.3,0.9,0.3,1.7,0,2.6l0,0c-0.1,0.2-0.2,0.4-0.3,0.6l0,0
	c-0.3,0.7-0.4,1.4-0.5,2.2c0,0.9,0.5,1.8,1.4,2.1c0.3,0.1,0.6,0.2,0.9,0.1c1,0,1.9-0.4,2.6-1.1c0.8-0.5,1.7-0.6,2.6-0.4
	c-0.9-1-2.3-1.3-3.5-0.6c-0.6,0.6-1.4,0.8-2.2,0.7c-0.4-0.1-0.6-0.5-0.6-0.9c0-0.5,0.1-1,0.3-1.4c1.3,0.5,2.7,0.7,4.1,0.4l1-0.1
	c1.1-0.4,2.4-0.1,3.2,0.7c0.8,0.6,1.2,1.6,0.9,2.5c-0.1,0.4-0.6,0.7-1,0.6c-1.2-0.3-2.4,0.2-3.1,1.2l-2.9,0.1
	c-1.6,0-3.2,1.2-4.7,3.5c-0.6,0.9-1.1,1.9-1.6,2.9c-2.2-0.7-2.9-4.9-2.9-6.5V277l-1.1,1.4c-0.7,0.9-1.3,1.9-1.7,3
	c-0.9-0.8-1.6-2-1.7-3.2v-0.5l-0.4-0.1c-0.4-0.1-0.8,0-1.1,0.2c-0.9,0.8-1.4,1.8-1.4,3c0,2-1.5,3.7-3.6,3.7c-0.1,0-0.3,0-0.5,0
	c1.3-2.1,1.7-4.6,1.2-7l-0.1-0.7l-0.7,0.2c-1.3,0.3-2.5,1-3.4,1.9C41.3,275.8,41.5,273.3,44.4,269.7L44.4,269.7z M50.2,302.3
	c0,0,4.8,1.3,7.6-2c1.4,2.6,0.5,6.5-2.4,9.2l-1.1,1l1.4,0.1c1.8,0.1,3.7-0.1,5.4-0.5c-1,1.6-2.4,3-4.1,3.9c-1.8,0.8-3.2,2.4-3.9,4.3
	c-0.1,0.5-0.4,1.1-0.8,1.4l-0.5,0.4c-2.3,2.3-5.6,3.3-8.8,2.7c-2.5-0.2-4.7-1.6-6-3.8c-1.4-2.6-1.1-6.2,0.8-10.6
	c0.7,1.4,1,3,0.9,4.6v1.3l1-0.7c2.4-1.7,2.2-4.1,2-6.7v-0.7c-0.2-2.3,0.2-2.7,1.8-4.9l0.7-1c1.3-2.2,2.2-4.6,2.5-7.1
	c0.6,0.6,1.3,1.2,2,1.7s0.9,0.7,1.3,1c2.2,1.9-0.1,5.5-0.1,5.5l-0.5,0.7L50.2,302.3z M33.9,303.6c0.9-0.2,1.7-0.8,2.1-1.6
	c-0.6,0.4-1.4,0.6-2.1,0.5c-1.4-0.1-2.7-1.1-3.1-2.4c-0.5-1.2-0.5-2.6-0.3-3.9c0.8,0.7,1.9,1.2,3,1.1c3.2,0.1,6.2-1.9,7.3-4.9
	c0.9-2.7,0.9-4.7-0.1-6.1c-1.3-1.8-3.5-3.2-7.9-3.3c-2.6,0.2-5.1,0.8-7.5,1.9c0.4-2,1.5-3.7,3.2-4.8l0.9-0.6l-0.9-0.5
	c-3.7-2-5.2-6.5-3.7-10.3c1.4,3.9,4.7,5.9,9.6,5.8c2.1-0.2,4.3,0.3,6.1,1.4c0.1,1.8,0.5,3.5,1.3,5.1l0.8,1.9l0.4-2.1
	c0.4-1.1,1.2-1.9,2.3-2.3c0.3,2.2-0.4,4.5-1.9,6.1l-1.1,1l1.5,0.1h0.8c-0.7,2.1-0.3,4.3,1,6.1c-0.2,2.7-1,5.4-2.3,7.8l-0.7,1
	c-1.7,2.3-2.2,3.1-2,5.8v0.7c0.3,1.5,0.2,3.1-0.4,4.5c-0.3-3.6-1.8-5.7-4.3-5.7c-1.5-0.1-3,0.2-4.4,0.7
	C31.5,306.5,32.3,303.9,33.9,303.6L33.9,303.6z M90.7,323.7c1.7,0.9,3.2,2,4.6,3.3c2.4,1.9,4.7,4.4,7.5,4c0.1,0.9-0.3,1.8-0.9,2.5
	c-0.8,0.9-2.3,1-4.2,0.9l-1.3-0.1c0.6,1.6,1.8,2.9,3.4,3.5c-0.8,0.5-1.7,0.9-2.6,1.1c-3.1,0.8-6.4,4.6-6.4,11c0,2.6,1,5,2.9,6.9
	c1.5,1.5,3.6,2.3,5.7,2.2c1.5-0.1,3.1-0.2,4.6-0.4c2.7-0.4,4.1-0.5,4.8,0.6c0.6,0.7,0.8,1.7,0.5,2.6c-0.2,0.4-0.6,0.6-1.1,0.7
	c-0.7-1-1.7-1.7-2.9-2c0.1,0,2.5,2.6,2,4.3c-0.1,0.5-0.4,0.9-0.8,1.1c-0.9,0.2-1.8,0.1-2.6-0.2c0-0.7-0.3-1.5-0.7-2
	c-0.5-0.7-1.3-1.1-2.2-1.1c1.7,1,2.1,3.2,1.1,4.9c-0.1,0.2-0.3,0.5-0.5,0.7c-1.7,0.5-3.6,0.3-5.2-0.7c-0.6-0.5-1.1-1.1-1.6-1.7
	c-1.9-2.5-4.4-4.5-7.3-5.7c-1.7-0.6-3.5-0.9-5.3-1c-2-0.1-3-0.3-3.6-1.6c-0.6-1-0.7-2.2-0.3-3.3l0.4-0.8l-0.9-0.2
	c-0.7-0.2-1.3-0.7-1.6-1.4c1.5-0.1,2.9-0.4,4.3-0.9l1.2-0.5l-1.1-0.7c-1.1-0.7-1.9-1.8-2.3-3.1c1.4,0.5,2.9,0.2,4.1-0.6
	c2.2-1.6,3.2-4.3,2.7-7c-0.8-5.9-12.8-10-19.3-10.3c1.4-2,3.3-3.6,5.5-4.7c1.4-0.8,2.8-1.7,4.1-2.7C77,321.3,86.4,321.4,90.7,323.7
	L90.7,323.7z M70.7,322.9c-7.3,4.3-7.3,7.8-7.3,10.6v1.5c0.3,2.8-0.4,5.6-2,8c-1.4,2.1-1.7,4.7-0.7,6.9c-1-0.3-1.9-0.9-2.5-1.8
	l-0.4-0.8l-0.7,0.6c-0.8,0.7-1.5,1.6-2,2.5c-0.2-0.4-0.2-0.8-0.1-1.2l0.3-1l-1.1,0.2c-1.9,0.3-3.9,0.3-5.8,0
	c-3.2-0.5-6.4,0.7-8.4,3.3c-1.5,1.6-1.9,4-1,6.1c0.8,1.9,2.7,3.2,4.7,3.4H45c2.1,0,5.4-0.1,6.5,1c0.3,0.3,0.4,0.7,0.4,1.1
	c0,0.6-0.2,1.2-0.6,1.7c-0.6,0.5-1.4,0.7-2.2,0.7c-0.2-0.7-0.7-1.3-1.4-1.6c0,0,1.5,2.6-0.5,3.6c-0.5,0.3-1.1,0.4-1.7,0.3
	c-0.5-0.2-1-0.5-1.3-1c0-0.7-0.4-1.4-1-1.8l0,0c0,0,0.3,3.1-1,3.6c-1.3,0.5-2.5-1.8-2.5-1.8l0,0c-1.1-1.8-3.4-2.4-5.2-1.4
	c-1.4-1.8-2.2-3-1.9-7l0.1-1.3l-1.1,0.7c-0.9,0.7-2.1,0.9-3.2,0.6c1.2-0.6,2.3-1.5,2.9-2.7l0.3-0.6l-0.7-0.2
	c-0.9-0.5-1.7-1.3-2.1-2.2c1.5,0.5,3.1,0.5,4.6,0c0.6-0.3,1.1-0.9,1.2-1.5c0.1-0.6,0.3-1.2,0.4-1.8c0.5-2.6,1.1-5.6,3.7-6.8
	c2-0.9,4.2-1.6,6.4-2l1.9-0.3l-1.8-1c-0.9-0.5-1.5-1.3-1.9-2.3c1.4,0.1,2.8-0.3,4.1-1.1c3-2.1,5-5.3,5.4-8.9l0.3-1.6l-1.3,1
	c-3.5,2.6-8,3.3-12.1,1.9c-3.9-1.2-6.9-4.2-8.1-8c-1.3-4.4-0.6-9.1,2-12.8c0.7-0.1,1.5-0.2,2.2-0.2c0.4,0,0.9,0.2,1.2,0.4
	c-2.3,5-2.6,9.1-1,12.2c1.5,2.5,4,4.2,6.9,4.5c0.7,0.1,1.4,0.2,2.2,0.2c2.9,0,5.6-1.1,7.7-3.1l0.5-0.4c0.6-0.5,1-1.2,1.2-1.9
	c0.5-1.6,1.7-2.9,3.3-3.7c2.3-1.1,4.1-3.1,5-5.5c1.9-0.8,3.5-2.1,4.8-3.7c1,2.7,0.5,5.7-1.3,7.9l-0.8,1.1l1.4-0.1
	c5-0.2,9.3-3.5,10.8-8.2c1,2,2.5,5.9,0.3,8.6l-1.2,1.4l1.8-0.3l0.6-0.1C76.7,318.8,73.8,321.1,70.7,322.9L70.7,322.9z M90.5,315
	c-0.2-2.9-1.8-5.4-4.3-6.8l-1-0.6v1.1c-0.2,3.9-3.1,5.2-5.3,5.9c1.9-4.3-1.6-9.8-1.8-10l-0.9-1.3l-0.3,1.6c-0.8,4.4-4.3,7.8-8.7,8.5
	c1.6-2.9,1.6-6.3,0.1-9.3l-0.6-1.1l-0.5,1.1c-0.1,0.2-2.3,5-9.9,5.2c2.7-3.4,3.3-7.8,1-10.6l-0.6-0.7l-0.5,0.8
	c-1.3,1.9-3.7,2.8-5.9,2.4c0.7-1.4,1.7-4.4-0.5-6.4c-0.4-0.4-0.9-0.7-1.3-1.1c-2.4-1.9-4.8-3.9-3.5-8.2c2.5-0.1,4.5-2.2,4.5-4.7
	c0.1-0.7,0.3-1.3,0.6-1.9c0.4,1.7,1.5,3.1,3,3.8l0.8,0.3v-0.9c0.1-0.6,0.3-1.3,0.7-1.8c0.3,2.2,1.3,5.7,4.3,6.1h0.5l0.2-0.4
	c0.7-1.6,2.9-5.7,5.2-6c1.1,0.8,5.8,4.3,9.5,3.9c2.5-0.3,4.9-1.1,7.1-2.3c0.4,2.5-1,5-3.3,6.1l-1.8,0.9l2,0.3c5.7,1,9.2,4.2,9.4,8.4
	c0.2,1.9,0.8,3.8,1.8,5.5c1.3,2.2,2,4.6,2.1,7.1C92.5,312,91.8,313.7,90.5,315L90.5,315z M113.3,314c-0.9-0.8-1.9-1.3-3.1-1.6
	c1.7,1.1,2.9,2.9,3.4,4.9c-1.2-0.3-2.5,0-3.5,0.6c-1,0.6-2.2,0.9-3.3,0.8c-2.2-0.1-4.4-0.8-6.1-2.2c-0.7-0.6-1.5-0.9-2.3-1
	c-0.6,0-1.2,0.3-1.6,0.7l-3.4-3.2c0.4-0.9,0.6-1.9,0.6-2.9c0-1.9-0.3-3.7-1.1-5.5c2.7,2.7,7.1,5.9,11.9,5.9c1.3-0.1,2.7-0.3,4-0.6
	c3.6-0.8,6.9-1.6,8.8,2.6C116,312.7,114.5,313.1,113.3,314L113.3,314L113.3,314z M61.8,264.3c-0.3,0.6-0.7,1.1-1.2,1.6
	c-0.8,0.5-1.7,0.8-2.6,0.9c1.3,0.7,2.9,0.5,4-0.5c0.7-0.8,1.1-1.7,1.4-2.7c-0.3-0.4-0.7-0.8-1.1-1.1c-0.3-0.3-0.7-0.3-1,0
	c-0.1,0.1-0.2,0.3-0.2,0.4c0,0.7-0.5,0.4-0.6,0.2c-0.7-0.9-1.4-0.3-1.3,0.3c0,0.2,0,0.4,0.1,0.6c-1.1,0.3-2.1,0.5-3.2,0.7
	C58.1,265.7,61.8,264.3,61.8,264.3L61.8,264.3z M60.4,326.9c-0.7,3.3-2.2,6.3-4.4,8.8c2.9-1.7,4.9-4.4,5.7-7.7
	c0.9-5.1,7.2-11.3,7.2-11.3S61.2,322,60.4,326.9L60.4,326.9z M36.7,378.9c0-0.8,0-1.7-0.1-2.5h7.4c-0.1,0.3-0.1,0.5-0.1,0.8
	c0,0.2,0,0.3,0,0.5v0.4h-4.3c0,0.7,0,1.4-0.1,2.1c0,0.7,0,1.4,0,2.1h2.3l2.1-0.4c0,0.2,0,0.3-0.1,0.5c0,0.1,0,0.2,0,0.4
	c0,0.1,0,0.2,0,0.3c0,0.2,0,0.3,0.1,0.5c-1.4-0.1-2.9-0.2-4.4-0.2v4.9h2.2c0.7,0,1.5-0.1,2.2-0.2v0.4c0,0.2,0,0.3,0,0.5
	c0,0.2,0,0.3,0,0.5c0,0.1,0,0.2,0,0.3h-7.3c0-0.8,0.1-1.6,0.1-2.4c0-0.8,0-1.8,0-2.9v-2.6C36.7,380.9,36.7,379.9,36.7,378.9
	L36.7,378.9z M46.4,387.9c0.1,0.2,0.3,0.3,0.4,0.5c0.4,0.3,1,0.5,1.5,0.5c0.4,0,0.7-0.1,1-0.3c0.2-0.2,0.3-0.5,0.4-0.7
	c0-0.3-0.1-0.5-0.3-0.7c-0.3-0.2-0.5-0.4-0.8-0.5c-0.3-0.1-0.7-0.3-1.1-0.5c-0.4-0.1-0.7-0.3-1.1-0.6c-0.3-0.3-0.6-0.5-0.8-0.9
	c-0.2-0.4-0.4-0.9-0.3-1.4c0-0.5,0.1-1,0.3-1.4c0.2-0.4,0.5-0.7,0.8-1c0.3-0.3,0.7-0.4,1.1-0.5c0.4-0.1,0.8-0.2,1.2-0.2
	c0.5,0,1,0.1,1.4,0.2c0.5,0.2,0.9,0.4,1.3,0.7c-0.1,0.3-0.2,0.5-0.3,0.8c-0.1,0.3-0.1,0.6-0.2,0.9h-0.5c-0.1-0.2-0.1-0.3-0.2-0.5
	c-0.1-0.2-0.2-0.4-0.4-0.5c-0.2-0.2-0.3-0.3-0.6-0.4c-0.3-0.1-0.5-0.2-0.8-0.2c-0.3,0-0.7,0.1-1,0.3c-0.3,0.2-0.4,0.5-0.4,0.8
	c0,0.3,0.1,0.6,0.3,0.7c0.3,0.2,0.5,0.4,0.8,0.5l1.1,0.4c0.4,0.1,0.7,0.3,1.1,0.5c0.3,0.2,0.6,0.5,0.8,0.9c0.2,0.4,0.4,0.9,0.3,1.4
	c0,0.5-0.1,1-0.3,1.4c-0.2,0.4-0.5,0.7-0.8,1c-0.3,0.3-0.7,0.5-1.2,0.6c-0.5,0.1-0.9,0.2-1.4,0.2c-0.5,0-1.1-0.1-1.5-0.3
	c-0.4-0.1-0.7-0.3-1.1-0.5c0.2-0.6,0.3-1.2,0.3-1.8H46C46.1,387.5,46.2,387.7,46.4,387.9L46.4,387.9z M58.2,381c0,0.2,0,0.3,0,0.5
	h-1.7c0,0.3,0,0.7-0.1,1c0,0.4,0,0.8,0,1.2v3.7c0,0.3,0.1,0.6,0.2,0.9c0.1,0.2,0.2,0.3,0.3,0.4c0.2,0.1,0.4,0.1,0.5,0.1
	c0.2,0,0.3,0,0.5,0l0.4-0.1v0.8c-0.3,0.1-0.6,0.2-1,0.3c-0.4,0.1-0.7,0.1-1.1,0.1c-1.6,0-2.4-1-2.4-2.9v-5.4h-1.3c0-0.2,0-0.3,0-0.5
	c0-0.2,0-0.3,0-0.5h1.3v-2.4c0.5-0.2,0.9-0.4,1.3-0.6c0.4-0.2,0.9-0.4,1.3-0.6l0.2,0.1c0,0.2,0,0.5-0.1,0.7c0,0.3,0,0.6,0,0.9v1.8
	h1.7C58.2,380.8,58.2,380.9,58.2,381L58.2,381z M60.1,387.3c0.6-0.6,1.6-0.6,2.2,0c0.3,0.3,0.5,0.7,0.5,1.1c0,0.4-0.1,0.8-0.5,1.1
	c-0.6,0.6-1.6,0.6-2.2,0c-0.3-0.3-0.5-0.7-0.5-1.1C59.7,388,59.9,387.6,60.1,387.3L60.1,387.3z M70.9,378v9.1c0,0.7,0,1.5,0.1,2.5
	c-0.3,0-0.5,0-0.7,0h-1.6c-0.3,0-0.5,0-0.8,0V379l-0.4,0.2l-0.6,0.3l-0.7,0.3l-0.6,0.3c-0.1-0.2-0.3-0.4-0.5-0.6
	c-0.1-0.2-0.3-0.3-0.4-0.5c1-0.4,1.9-0.7,2.9-1.1c1-0.4,1.9-0.9,2.9-1.4l0.4,0.2C70.9,377.1,71,377.5,70.9,378L70.9,378z
	 M77.1,388.9c0.3,0.2,0.7,0.2,1.1,0.2c0.4,0,0.8-0.1,1.1-0.3c0.4-0.3,0.8-0.6,1-1c0.3-0.5,0.6-1.1,0.8-1.7c0.2-0.8,0.3-1.6,0.3-2.4
	l0,0c-0.1,0.2-0.2,0.3-0.4,0.4c-0.2,0.1-0.3,0.3-0.5,0.3c-0.2,0.1-0.5,0.2-0.7,0.2c-0.3,0-0.6,0-0.9,0c-0.5,0-1-0.1-1.4-0.2
	c-0.4-0.1-0.8-0.4-1.2-0.7c-0.3-0.3-0.6-0.7-0.8-1.1c-0.2-0.5-0.3-1.1-0.3-1.6c0-0.6,0.1-1.2,0.3-1.8c0.2-0.5,0.5-1,0.9-1.4
	c0.4-0.4,0.9-0.7,1.4-0.9c1.2-0.4,2.5-0.4,3.7,0c0.5,0.2,1,0.6,1.4,1c0.4,0.5,0.8,1.1,1,1.7c0.2,0.8,0.3,1.6,0.3,2.4
	c0,1.1-0.1,2.2-0.4,3.3c-0.3,0.9-0.7,1.7-1.2,2.5c-0.5,0.6-1.2,1.1-1.9,1.5c-0.8,0.3-1.6,0.5-2.5,0.5c-0.3,0-0.5,0-0.8,0
	c-0.2,0-0.5-0.1-0.7-0.2l-0.2-0.6l-0.3-0.6l0.1-0.1C76.6,388.6,76.9,388.7,77.1,388.9L77.1,388.9z M80.9,378.3
	c-0.2-0.5-0.7-0.7-1.2-0.7c-0.5,0-1,0.3-1.2,0.8c-0.3,0.7-0.4,1.5-0.4,2.2c0,0.5,0,1,0.1,1.4c0.1,0.3,0.2,0.6,0.3,0.9
	c0.1,0.2,0.3,0.4,0.5,0.5c0.2,0.1,0.4,0.2,0.6,0.2s0.4-0.1,0.6-0.2c0.2-0.1,0.4-0.3,0.5-0.5c0.2-0.3,0.3-0.5,0.4-0.9
	c0.1-0.4,0.1-0.8,0.1-1.3C81.5,380,81.3,379.1,80.9,378.3L80.9,378.3z M88.9,382.6h0.2c0.6,0.1,1.3-0.2,1.7-0.7
	c0.4-0.6,0.6-1.3,0.5-2c0.1-0.6-0.1-1.3-0.4-1.8c-0.3-0.4-0.7-0.6-1.2-0.6c-0.3,0-0.5,0.1-0.8,0.2c-0.2,0.1-0.4,0.3-0.5,0.5
	c-0.2,0.2-0.3,0.5-0.4,0.7c-0.1,0.3-0.1,0.6-0.2,0.9h-0.3c-0.2-0.2-0.4-0.4-0.6-0.7l-0.7-0.6c0.3-0.6,0.8-1.1,1.3-1.4
	c0.8-0.4,1.6-0.5,2.4-0.5c0.6,0,1.3,0.1,1.9,0.2c0.5,0.1,0.9,0.3,1.2,0.7c0.3,0.3,0.5,0.6,0.7,1c0.1,0.4,0.2,0.7,0.2,1.1
	c0,0.7-0.2,1.4-0.7,1.9c-0.6,0.5-1.2,0.9-2,1.1v0.2c0.5,0.1,1,0.2,1.4,0.3c0.4,0.1,0.7,0.3,1,0.6c0.3,0.2,0.5,0.5,0.6,0.9
	c0.1,0.5,0.2,0.9,0.2,1.4c0,0.6-0.1,1.1-0.4,1.6c-0.3,0.5-0.6,0.9-1.1,1.2c-0.5,0.3-1,0.6-1.5,0.7c-0.6,0.2-1.2,0.2-1.8,0.2
	c-0.8,0-1.7-0.1-2.5-0.4c-0.5-0.2-1-0.6-1.4-1c0.2-0.3,0.4-0.5,0.6-0.8l0.6-0.9h0.2c0,0.3,0.1,0.6,0.2,0.9c0.1,0.3,0.2,0.5,0.4,0.7
	c0.2,0.2,0.4,0.4,0.6,0.5c0.3,0.1,0.5,0.2,0.8,0.2c0.3,0,0.6-0.1,0.8-0.2c0.3-0.1,0.5-0.3,0.7-0.6c0.2-0.3,0.4-0.6,0.5-0.9
	c0.1-0.4,0.2-0.7,0.2-1.1c0-0.7-0.2-1.5-0.6-2.1c-0.4-0.5-1-0.8-1.6-0.8h-0.8v-1L88.9,382.6z M97.9,378.4c0.8-1.1,2.1-1.8,3.5-1.7
	c1.3-0.1,2.5,0.5,3.3,1.6c0.9,1.4,1.3,3,1.2,4.7c0.1,1.8-0.3,3.5-1.1,5.1c-0.7,1.2-2.1,1.9-3.5,1.8c-0.7,0-1.4-0.1-2.1-0.5
	c-0.6-0.3-1.1-0.8-1.4-1.3c-0.4-0.7-0.7-1.4-0.8-2.1c-0.2-0.9-0.3-1.9-0.3-2.8C96.5,381.5,97,379.8,97.9,378.4L97.9,378.4z
	 M102.8,380.4c0-0.6-0.1-1.2-0.3-1.7c-0.1-0.3-0.3-0.7-0.5-0.9c-0.4-0.3-1-0.3-1.4,0c-0.3,0.2-0.5,0.5-0.5,0.9
	c-0.2,0.6-0.3,1.1-0.3,1.7c0,0.7-0.1,1.6-0.1,2.7v2.7c0,0.6,0.1,1.3,0.2,1.9c0.1,0.4,0.3,0.7,0.5,1.1c0.2,0.2,0.5,0.4,0.9,0.3
	c0.3,0,0.5-0.1,0.7-0.2c0.3-0.2,0.4-0.5,0.5-0.9c0.2-0.6,0.3-1.2,0.3-1.8c0-0.7,0.1-1.7,0.1-2.9S102.9,381.1,102.8,380.4
	L102.8,380.4z M110.9,382.1c0.4-0.3,0.9-0.5,1.4-0.5c0.4,0,0.7,0.1,1.1,0.2l1.1,0.5l1.1,0.5c0.3,0.1,0.5,0.2,0.8,0.2
	c0.3,0,0.7-0.1,0.9-0.4c0.3-0.3,0.6-0.7,0.8-1.1l0.8,1.4c-0.2,0.5-0.5,0.9-1,1.2c-0.4,0.3-0.9,0.5-1.4,0.5c-0.4,0-0.7-0.1-1.1-0.2
	c-0.4-0.1-0.8-0.3-1.2-0.5l-1.1-0.5c-0.3-0.1-0.5-0.2-0.8-0.2c-0.3,0-0.6,0.1-0.9,0.3c-0.3,0.3-0.6,0.7-0.8,1.1l-0.8-1.4
	C110.1,382.9,110.5,382.4,110.9,382.1L110.9,382.1z M24.5,382.1c0.4-0.3,0.9-0.5,1.4-0.5c0.4,0,0.7,0.1,1.1,0.2l1.1,0.5l1.1,0.5
	c0.3,0.1,0.5,0.2,0.8,0.2c0.3,0,0.7-0.1,0.9-0.4c0.3-0.3,0.6-0.7,0.8-1.1l0.8,1.4c-0.2,0.5-0.5,0.9-1,1.2c-0.4,0.3-0.9,0.5-1.4,0.5
	c-0.4,0-0.7-0.1-1.1-0.2l-1.1-0.5l-1.1-0.5c-0.3-0.1-0.5-0.2-0.8-0.2c-0.3,0-0.7,0.1-0.9,0.3c-0.3,0.3-0.6,0.7-0.8,1.1l-0.8-1.4
	C23.7,382.9,24.1,382.4,24.5,382.1L24.5,382.1z M189.7,370.5c-6,0-8.9-2.1-10.2-6.5c-0.5-2.6-0.7-5.2-0.6-7.8
	c0-7.5,0.1-13.3,0.2-20.8H174v-0.8c1.7-0.6,3.3-1.5,4.6-2.6c2.5-2.6,4.7-5.5,6.6-8.6h1.1v8.9h13.4v3.2h-13.4v21.5c0,6,0.9,10,7.7,10
	c1.8,0,3.6-0.4,5.2-1.1l0.5,1.2C199.7,367.2,196.6,370.5,189.7,370.5L189.7,370.5z M230.1,370.4c-2.7,0.3-5.1-1.6-5.4-4.3
	c0-0.3,0-0.6,0-0.9c-2.4,3.4-6.3,5.3-10.4,5.2c-10.4,0-10.7-8.2-10.7-9.8c0.1-4.9,2.9-9.3,7.2-11.5c3.1-1.4,8.9-1.5,13.7-1.5v-2
	c0.1-1.9,0-3.9-0.5-5.8c-1.2-3.5-4-4.7-7.5-4.7c-3.4-0.1-6.5,1.7-8.3,4.5l-1.2-0.7c0.8-2.7,4.4-7.7,12.5-7.7c5.9,0,8.9,1.9,10.6,4.6
	c1.4,2.4,1.7,5.8,1.7,9.8c0,5.7-0.3,12.5-0.3,15.2c0,2.4,0,5.3,3.3,5.3c0.7,0,1.3-0.2,1.8-0.6l0.7,0.9
	C235.8,368.9,233.1,370.4,230.1,370.4L230.1,370.4z M224.5,349.9c-5.6,0.2-8.3,0.5-9.8,1.4c-3.1,1.7-3.9,6.3-3.9,8.7
	c-0.3,3.3,2.2,6.3,5.5,6.5c0.4,0,0.8,0,1.2,0c2.5,0.1,5-0.7,7-2.2L224.5,349.9L224.5,349.9z M275.6,369.6c-3,0-6,0.1-9,0.3v-1.1
	c1.4-0.1,2.7-0.7,3.7-1.6c1.7-1.7,1.6-4.5,1.7-7.9c0.1-1.4,0.1-4.5,0.1-6.9c0.1-3-0.1-6.1-0.3-9.1c-0.5-4.3-2.6-8.2-9.2-8.2
	c-2.9-0.1-5.7,0.6-8.2,2v21.2c0,6.5,0.2,7.7,1.7,9.1c1,0.8,2.3,1.2,3.6,1.3v1.1c-3.2-0.1-6-0.3-8.9-0.3c-3,0-6.1,0.1-9.1,0.3v-1.1
	c1.5-0.1,3-0.8,4.1-1.9c1.4-1.6,1.5-3.9,1.5-11v-11.2c0-5.2-0.1-7.1-0.9-8.4c-1.2-1.2-2.8-1.8-4.5-1.7v-1.4c2.7,0,5.3-0.2,7.9-0.7
	c1.4-0.2,2.7-0.5,4.1-1l0.3,0.3v4.5c3.4-3,7.7-4.7,12.3-4.7c7.1,0,11.1,3.4,12.3,8.7c0.4,2.3,0.5,4.6,0.5,6.9v11.5
	c0,6.5,0.3,7.7,1.7,9.1c1,0.8,2.3,1.3,3.6,1.3v1.2C281.3,369.8,278.5,369.6,275.6,369.6L275.6,369.6z M299.1,369.6
	c-2.9,0-6,0-9.5,0.3v-1.1c1.7,0,3.2-0.7,4.4-1.8c1.4-1.6,1.4-4,1.4-11.1v-33.1c0-5.2-0.1-7.1-0.9-8.5c-1.1-1.2-2.7-1.8-4.4-1.7v-1.3
	c2.8-0.1,5.6-0.3,8.4-0.7c1.4-0.3,2.8-0.6,4.1-1l0.3,0.2c-0.3,3-0.3,9.1-0.3,15.4v33.3c0,6.5,0.2,7.7,1.7,9.1c1.2,0.8,2.6,1.2,4,1.3
	v1.1C305.1,369.8,302,369.6,299.1,369.6L299.1,369.6z M319.4,348.4v0.2c0,1.9,0.1,3.8,0.4,5.7c1.9,10.9,9.6,11.9,13.7,11.9
	c3.2,0.1,6.3-0.6,9.1-2.1l0.7,1.1c-2.7,3.3-8.1,5.2-13.5,5.2c-12.6,0-17.6-7.9-17.6-18.6c0-6.5,2.9-20.6,17.8-20.6
	c6,0,10,2.7,11.7,5.6c1.8,3.1,2.7,6.7,2.5,10.3v1.3L319.4,348.4L319.4,348.4z M336.5,345c0-3.2-0.2-10.8-8.6-10.8
	c-8,0-8.6,8.6-8.6,11.5h17.1L336.5,345L336.5,345z M446.3,378.8c-4.2,0.1-8-2.5-9.4-6.5c-2.4-6.4-9.7-25.7-17.7-25.7h-5.8v11.8
	c0,6.4,0.3,7.7,1.7,9c1,0.8,2.3,1.2,3.6,1.3v1.2c-3.2-0.2-6.1-0.3-8.9-0.3s-5.6,0-9.2,0.3v-1.2c1.5,0,3-0.7,4.1-1.8
	c1.4-1.6,1.5-3.9,1.5-11v-29c0-6.4-0.3-7.7-1.7-9c-1-0.8-2.3-1.2-3.6-1.3v-1.3c0,0,4.3,0.3,6.5,0.3c5.9,0,7.3-0.3,10.4-0.3
	c3.6-0.1,7.3,0.2,10.9,0.8c9.9,2.5,10.9,10,10.9,13.5c0,8.4-4.3,13.1-11,15.1c7.7,3.4,9.7,11.7,14.2,22.1c2.4,5.5,4.9,10.2,9.6,10.2
	v1.1C450.3,378.6,448.3,378.8,446.3,378.8L446.3,378.8z M417.5,318.3c-1.4,0-2.7,0.1-4.1,0.3v24.7c1.9,0.3,3.8,0.3,5.7,0.3
	c1,0,3.3-0.1,3.9-0.2c4.6-0.7,8.6-4.5,8.6-13C431.7,319.6,422.8,318.3,417.5,318.3L417.5,318.3z M463.9,370.7
	c-12.1,0-18.4-7.8-18.4-19.2c0-9,4.7-20.3,19.2-20.3c12.1,0,18.4,7.8,18.4,19.2C483.1,359.5,478.4,370.7,463.9,370.7L463.9,370.7z
	 M464.5,334.1c-2.2-0.1-4.4,0.6-6.1,2c-2.6,2.2-5.1,6.3-5.1,15c0,4.6,1.3,16.7,11,16.7c2.2,0.1,4.4-0.6,6.1-2
	c2.6-2.1,5.1-6.3,5.1-15C475.4,346.3,474.1,334.1,464.5,334.1L464.5,334.1z M534.8,348.4v0.2c0,1.9,0.1,3.8,0.4,5.7
	c1.9,10.9,9.6,11.9,13.7,11.9c3.2,0.1,6.3-0.6,9.1-2.1l0.7,1.1c-2.6,3.3-8.1,5.2-13.5,5.2c-12.6,0-17.6-7.9-17.6-18.6
	c0-6.5,2.8-20.6,17.8-20.6c6.1,0,10,2.7,11.7,5.6c1.8,3.1,2.7,6.7,2.5,10.3v1.3L534.8,348.4L534.8,348.4z M551.9,345
	c0-3.2-0.2-10.8-8.6-10.8c-8,0-8.5,8.6-8.5,11.5h17.1V345L551.9,345z M610.9,333.9c-6.6,0-6.6,4.5-6.6,5.8c0.1,3.3,2.9,4.8,4.8,6
	l5.4,3.1c3.6,2.1,8.4,4.5,8.6,10.3c0.3,9.4-8.7,11.2-14.6,11.2c-3.4,0.1-6.7-0.5-9.9-1.6v-1.7c0-2.5-0.3-5-0.7-7.5h1.4
	c0.1,1.8,0.9,3.5,2,4.9c2.1,2.4,4.5,2.9,7.6,2.9c1.3,0,8.1,0.1,7.9-6.2c-0.1-3.4-3-4.8-6.3-6.8l-5.7-3.5c-3-1.8-6.2-4.4-6.4-9.3
	c-0.4-3.7,1.5-7.3,4.9-9c2.4-1,4.9-1.4,7.5-1.3c2.9,0,5.7,0.3,8.5,0.9c0.1,2.9,0.3,5.7,0.6,8.6h-1.4c-0.1-3.9-3.4-6.9-7.3-6.8
	C611.1,333.9,611,333.9,610.9,333.9L610.9,333.9z M523.7,337.5c1.6,0,3-1.3,3-2.9v-0.1c0-2.9-3-3.9-5.3-3.9
	c-3.2,0.3-6.3,1.6-8.7,3.7c-0.7-0.5-1.5-0.9-2.3-1.2c-2.2-0.8-4.6-1.1-7-1.2c-10.1,0-15.6,5.9-15.6,13.7c-0.2,5.7,3.7,10.8,9.3,12.1
	c-5,3.2-6.5,6.1-6.5,8.8c-0.1,2.2,1.2,4.2,3.3,5c1.4,0.5,2.8,0.7,4.3,0.7h10.1c4.5,0,9.7,0.2,9.7,6.4c0,6.6-5.9,10.5-15.3,10.5
	c-4.1,0-11.7-1.2-11.7-8.7c-0.1-2.4,0.7-4.8,2.2-6.7l-0.3-0.4c-3.1,0.1-8.3,1-8.3,8.4c0,8.5,9.3,10.7,17.5,10.7
	c13.8,0,22.2-7.1,22.2-16.2c0-9.9-8.7-10.3-13.3-10.3c-2.7,0-5.9,0.2-8.7,0.2c-2.7,0-5.5-0.2-5.5-3.3c0.1-1.8,1.1-3.4,2.7-4.3
	c1.1,0.2,2.3,0.2,3.5,0.2c10.3,0,15.9-5.7,15.9-13.5c0-3.5-1.4-6.8-4-9.1l-0.3-0.3c0.9-0.8,2.1-1.3,3.3-1.4
	C520.7,334.3,520.9,337.5,523.7,337.5L523.7,337.5z M503.3,356.1c-5.9,0-8-5.5-8-10.8c0-2.9,0.1-10.8,8-10.8c5.9,0,8,5.5,8,10.8
	C511.4,348.1,511.2,356.1,503.3,356.1L503.3,356.1z M379.4,332.4c-2.3,0-4.9-0.3-7.2-0.3v1.2c1.4,0,2.7,0.4,3.9,1.1
	c0.5,0.5,0.7,1.1,0.7,1.7c-0.2,1.6-0.7,3.2-1.3,4.7l-8.3,22c-0.3-1.2-1.1-3.7-2.3-7l-5.6-15c-0.7-1.5-1.1-3.1-1.3-4.8
	c0-0.7,0.2-1.3,0.7-1.7c1-0.7,2.2-1.1,3.4-1.1v-1.2c-2.3,0-6.1,0.3-8.4,0.3c-2.3,0-5.7-0.2-8-0.3v1.2c1.7,0,3.2,0.9,3.9,2.5
	c0.4,0.7,1.2,3,1.6,3.7l12.4,31.6l-0.4,1.1l-4.7,13c-0.4,1.5-1.4,2.8-2.7,3.6c-2.4,1.5-3.8-1.5-6.8,0.4c-1.4,0.9-1.9,2.7-1,4.1l0,0
	c1.7,2.4,5.1,2.9,7.4,1.2c2.7-2,4.6-4.8,5.6-8l2.9-7.1l15.7-39.9c0.5-1.3,1-2.5,1.7-3.7c1.2-1.4,2.9-2.3,4.7-2.5v-1.1
	C383.6,332.2,381.6,332.4,379.4,332.4z M582.5,335.5c3.2,0.4,6.4,1.2,9.4,2.5l2.6-4.9c-6.4-4.1-11.6-1.4-16.7,2.4v-3.9l-0.3-0.3
	c-1.3,0.5-2.7,0.8-4.1,1c-2.6,0.5-5.3,0.8-7.9,0.7v1.4c1.7-0.1,3.3,0.5,4.5,1.7c0.8,1.3,0.9,3.2,0.9,8.5v11.3c0,7.1,0,9.4-1.4,11
	c-1.1,1.1-2.5,1.8-4.1,1.9v1.2c3.5-0.3,6.9-0.3,9.8-0.3s6.7,0.2,10,0.3v-1.3c-1.2,0-4.8-0.2-6.1-2.2c-0.8-1.2-1-3-1-8.3l-0.1-17.7
	C577.7,336.9,579.7,335.3,582.5,335.5L582.5,335.5z M154.8,336.4c-4.9-2.1-10.6-4.3-10.6-10.5c0-5.1,4.1-8.4,9.1-8.4
	c5,0,12.4,0.3,13.6,8.8h1.5c0,0-0.7-5.8-0.7-9.3c-4.7-1-9.5-1.5-14.3-1.7h-0.3c-8.5,0.1-15.5,5.4-15.5,14.4c0,9,7.7,12.9,15,15.7
	c5.8,2.3,12.1,5.2,12.1,12.4c0,6.5-5.2,9.4-11.4,9.4c-3.3,0-13.6-0.6-14.4-10.3h-1.8c0,0,0.9,7.4,0.9,11.6c5,0.9,10.1,1.4,15.2,1.4
	c9.3,0,19.1-5,19.1-15.5C172.3,344,163.1,339.8,154.8,336.4L154.8,336.4z"/>
</svg>
