
<svg version="1.1" id="layer" xmlns="http://www.w3.org/2000/svg" xmlns:xlink="http://www.w3.org/1999/xlink" x="0px" y="0px"
	 viewBox="0 0 652 652" style="enable-background:new 0 0 652 652;" xml:space="preserve">
<path d="M65,339.1c5,0,8.9-1.1,13-4.7l3.7,7.8c-5.6,6.2-14.3,11.3-23.9,11.3c-18.1,0-24.5-9-24.5-22.6v-43.1H22.3v-10.9h11.9
	l5.4-22.6h15.7v22.6h22.8v10.9H55.3v38.6C55.3,334.8,58.2,339.1,65,339.1 M458.7,339.1c-6.8,0-9.7-4.3-9.7-12.8v-38.6h22.8v-10.9
	h-22.8v-22.6h-15.7l-5.4,22.6H416v10.9h11.1v43.1c0,13.6,6.4,22.6,24.5,22.6c9.5,0,18.3-5.1,23.9-11.3l-3.7-7.8
	C467.6,338,463.8,339.1,458.7,339.1 M607.4,267.7c-7.4,0-13.4,5.5-13.4,12.4c0,5.5,4.1,9.9,9.4,9.9c2.4,0,4.6-0.9,6.4-2.5
	c0.7,11.7-5.7,28.8-22.3,46.8L577,276.9h-28.4v8.4c6.4,1.2,7.8,2.5,9.8,12.2l10.8,51.9c-16.2,11.1-24.4,19.5-24.4,28.1
	c0,5.6,3.1,10.2,8.9,10.2c9,0,17.2-9.6,23.5-32.1c31.8-25.7,45.2-49.3,45.2-69.4C622.3,274.8,616.7,267.7,607.4,267.7 M132.1,317.6
	c-17.1-1.1-21.7,3.7-21.7,12.2c0,6.2,3.7,10.3,10.6,10.3c6.1,0,11.1-4.3,11.1-9.3V317.6z M153.9,332.6c0,8,2.3,10,9.1,11v8.4h-25
	l-4-8.9c-4.6,6.3-12.8,10.3-22.1,10.3c-15.1,0-24.2-9.1-24.2-21.4c0-15.7,13.1-25.1,44.2-23.1v-8.1c0-9.5-4.5-15.1-14.7-15.1
	c-2.7,0-5.4,0.4-7.9,1.2c1.8,1.5,2.9,3.8,2.9,7c0,5.9-4.5,9.9-10.1,9.9c-5.9,0-9.8-4.4-9.8-10.2c0-11.8,13.6-18.1,31-18.1
	c20.1,0,30.6,10.8,30.6,26.4V332.6 M210.6,341.3c11.6,0,19.1-9.9,19.1-28.2c0-14.8-5.9-23.6-15.6-23.6c-10.1,0-16,8-16,21.2V337
	C201.8,339.9,206.1,341.4,210.6,341.3 M220.7,275.8c18.8,0,32.2,13.3,32.2,36.5c0,24.6-16,40.7-37.4,40.7c-7.4,0-13-1.7-17.3-4.1
	v26.4l12,2.5v8h-44.1v-8l10-2.3v-78.9c0-8-2.3-10.2-9.2-11.1v-8.4h29.8l-0.5,12.4C201.4,280.2,210.1,275.8,220.7,275.8 M531.1,275.5
	c-8.1,0-15.7,6-19.6,16.6l0.5-15.2h-29.4v8.4c6.8,1,9.1,3.2,9.1,11.1v45.3l-10,2.3v8h44.1v-8l-12-2.5v-31.9c0-9.2,3.6-15.9,9-19
	c1,4.5,5,7.6,9.5,7.5c6.3,0,10.6-5.1,10.6-11.1C543.1,281.1,539,275.5,531.1,275.5 M383.8,304.4c-11.5-2.3-17.7-2.9-17.7-9.6
	c0-4.9,4-8.8,11.3-8.8c9.4,0,15,4,17.5,12.2h7.6v-18.3c-6.5-2.6-16-4.4-24.5-4.4c-20.1,0-31.5,9.2-31.5,24.9
	c0,17.8,13.2,20.9,25,23.2c11.5,2.3,17.7,2.9,17.7,9.6c0,6-5.2,9.8-13.8,9.8c-11.7,0-17-4.9-20.3-15h-7.5v18.8
	c4.8,2.9,14.3,6.6,27.3,6.6c21.3,0,34-9.5,34-25.8C408.8,309.7,395.6,306.7,383.8,304.4 M312.3,305.4c-0.1-13-5.1-19.2-12.7-19.2
	c-7.2,0-13.5,5.6-14.6,19.2H312.3z M300.6,275.5c27.6,0,36.3,22,33,39.6h-48.5c1.4,15.9,9.7,24.7,23.3,24.7c6.7,0,13.4-2.9,19.2-8.6
	l5.3,5.1c-6.4,9.9-16.7,17.1-32.5,17.1c-24,0-38.6-15.9-38.6-38.2C262,291.9,276.6,275.5,300.6,275.5"/>
</svg>
