
<svg version="1.1" id="layer" xmlns="http://www.w3.org/2000/svg" xmlns:xlink="http://www.w3.org/1999/xlink" x="0px" y="0px"
	 viewBox="0 0 652 652" style="enable-background:new 0 0 652 652;" xml:space="preserve">
<style type="text/css">
	.st0{fill:#E5C23A;}
	.st1{fill:#FFB200;}
	.st2{fill:#0F1010;}
</style>
<path class="st0" d="M108.3,321.2L108.3,321.2z"/>
<circle class="st1" cx="108.3" cy="321.2" r="87.1"/>
<path class="st2" d="M573.3,339.6l-18.4,4.9c-19,6.8-28.3,11-32.5,20.9c-0.6,1.8-1.8,4.9-1.8,9.8c0,1.2,0,4.3,1.2,7.4
	c1.2,3.6,6.8,11,17.8,11c4.9,0,15.3-1.8,25.1-10.4c1.8-1.2,4.9-4.3,8.6-8.6V339.6L573.3,339.6z M572.7,328.6v-6.8
	c0-3.6-0.6-12.3-9.8-18.4c-1.8-1.2-6.8-3.6-12.9-3.6c-12.9,0-22.1,9.2-24.5,12.3c-2.4,3-3.6,5.6-4.3,6.8l-11-8
	c4.9-6.2,9.2-11.6,15.3-16c3.6-2.4,11.6-6.8,23.9-6.8c15.3,0,30.1,7.4,35.5,21.5c1.8,5.6,1.8,11.6,1.8,13.5v64.4
	c0.6,11,1.2,12.3,2.4,18.4h-15.3c-1.2-5.6-1.8-7.4-1.8-17.2c-1.8,1.8-3.6,3.6-5.6,5.6c-3.6,3.6-14.1,12.3-28.9,12.3
	c-2.4,0-8,0-14.1-3c-15.3-6.8-17.2-22.7-17.2-28.3c0-8.6,3-16.6,8.6-22.7C525.4,340.8,542,335.9,572.7,328.6z M418.1,318.8V374
	c1.2,1.8,2.4,3.6,3.6,5.6c1.8,2.4,11,15.3,23.9,15.3c8,0,16-4.9,20.9-11.6c6.8-9.2,8-23.9,8-35.5c0-2.4,0-24.5-9.8-36.9
	c-6.8-8.6-14.7-9.8-19-9.8c-3.6,0-10.4,0.6-17.2,6.2C423.6,310.8,418.7,317.6,418.1,318.8z M402.8,242h16v60.8
	c9.2-8.6,16.6-14.7,29.5-14.7c6.2,0,17.2,1.2,27.6,12.3c6.8,8,15.3,22.7,15.3,46.6c0,28.3-9.2,42.3-18.4,50.3
	c-9.8,8.6-19,9.8-23.9,9.8c-4.3,0-8-1.2-9.8-1.2c-9.2-3-14.7-8.6-20.9-15.3l-0.6,15.3h-14.1V242H402.8z M205.2,242v14.1h44.2v149.1
	h17.2V256.2h44.1V242H205.2z M308.3,336.5h55.2c-1.2-12.3-2.4-22.7-12.3-31.3c-1.8-1.8-7.4-6.2-14.7-6.2c-6.8,0-11.6,3.6-13.5,4.9
	C311.9,312,310.1,323.6,308.3,336.5z M378.8,349.5h-70.6c0,3,0.6,6.2,1.2,9.2c0.6,4.3,1.8,18.4,12.3,28.3c7.4,6.8,14.1,7.4,18.4,7.4
	c1.8,0,4.9,0,9.8-1.8c6.8-2.4,11-5.6,19.6-17.2l11,7.4c-4.3,6.2-15.3,25.1-40.5,25.1c-5.6,0-10.4-1.2-16-3
	c-23.3-9.2-30.7-37.5-30.7-60.2c0-19,5.6-37.5,21.5-49.1c3.6-2.4,11.6-8.6,23.9-8.6c6.2,0,21.5,1.8,31.3,15.3
	C378.2,315.6,378.8,332.8,378.8,349.5z M598.4,252.4v6.8h4.3c3,0,3.6-1.8,3.6-3c-0.6-3.6-3-3.6-4.3-3.6L598.4,252.4L598.4,252.4z
	 M598.4,270.9h-3V250h7.4c3.6,0,6.2,1.8,6.2,5.6s-2.4,4.9-3.6,5.6l4.9,9.8h-3.6l-4.3-9.2h-3.6L598.4,270.9z M602.2,242
	c10.4,0,19,8.6,19,19c0,10.4-8.6,19-19,19c-10.4,0-19-8.6-19-19C583.2,250.6,591.7,242,602.2,242z M602.2,245.1c-8.6,0-16,7.4-16,16
	c0,8.6,7.4,16,16,16c8.6,0,16-7.4,16-16C618.1,252.4,610.8,245.1,602.2,245.1z"/>
</svg>
