
<svg version="1.1" id="layer" xmlns="http://www.w3.org/2000/svg" xmlns:xlink="http://www.w3.org/1999/xlink" x="0px" y="0px"
	 viewBox="0 0 652 652" style="enable-background:new 0 0 652 652;" xml:space="preserve">
<style type="text/css">
	.st0{fill:#00285E;}
</style>
<polygon class="st0" points="20.2,237 20.2,272.8 66.9,272.8 66.9,401.1 113.3,401.1 113.3,272.8 161.9,272.8 161.9,237 "/>
<g>
	<path class="st0" d="M120.9,283.4h41.1v72.5c0,0,0.8,11,12.6,11s13-11,13-11v-72.5h42.4v117.7h-42.4v-11c0,0-13.1,14.8-34.9,14.8
		c-19.4,0-27-14.8-27-14.8s-4.8-8.2-4.8-19.8V283.4z"/>
	<path class="st0" d="M277.7,283.4h-41.5v117.7h42.4v-65.4c0,0,1.7-15,24-17.7h7.1v-33.6h-7.2c0,0-18.7,1.8-24.8,16.4V283.4z"/>
	<path class="st0" d="M588.2,283.4h-41.5v117.7h42.4v-65.4c0,0,1.7-15,24-17.7h7.1v-33.6H613c0,0-18.7,1.8-24.8,16.4V283.4z"/>
	<path class="st0" d="M356.6,283.4h-41.7v117.7h41.5v-68.7c0,0,2.6-12.2,12.8-12.2c10.2,0,12.7,12.3,12.7,12.3v68.6H423v-86.2
		c0,0-0.5-34.2-30.4-34.2c0,0-20.4-0.7-36.1,16.1V283.4z"/>
	<path class="st0" d="M483.8,281.2c0,0-56.8-0.6-56.8,62.6c0,0-0.7,61.9,56.8,61.9c0,0,50.3,4,58.8-45h-38.6c0,0-5.2,16.2-18.2,16.2
		c-13,0-17.8-18.8-18.5-23.1h76.5C543.8,353.8,549.8,281.2,483.8,281.2 M467.7,326.6c0,0,4.4-18,17.3-18c15.4,0,18.7,18,18.7,18
		H467.7z"/>
</g>
</svg>
