
<svg version="1.1" id="layer" xmlns="http://www.w3.org/2000/svg" xmlns:xlink="http://www.w3.org/1999/xlink" x="0px" y="0px"
	 viewBox="0 0 652 652" style="enable-background:new 0 0 652 652;" xml:space="preserve">
<style type="text/css">
	.st0{fill:#F89624;}
	.st1{fill:#0A3656;}
</style>
<g id="sound">
	<path class="st0" d="M105.9,334.4c4.3-12.9,10.7-24,18-34.3c-11.1-12-17.1-27.4-17.1-44.6H68.1C68.1,288.1,83.1,315.6,105.9,334.4"
		/>
	<path class="st0" d="M58.3,256.4v-0.9H21c0,55.7,30,104.1,75.9,129.9c0-14.1,2.1-27.9,5.6-40.7C75.9,324.1,58.3,292.4,58.3,256.4
		 M173.1,255.6h-57v0.9c0,13.7,5.1,25.7,13.7,35.6c12-14.6,26.6-27,42.9-36.4"/>
</g>
<path id="waves" class="st1" d="M106.7,386.7c1.3-53.1,30-99.4,72.9-125.1c0,16.3,0.9,32.6,4.3,45.4l14.1-7.7
	c4.3,35.6,24.4,66.4,53.1,87.9H106.7V386.7z M209.6,255.6l52.3,131.6h42.9l-48-131.6 M310.3,255.6l-22.3,60l21.4,60l48.4-120
	 M362.1,255.6h44.6v131.1h-44.1L362.1,255.6z M491.6,255.6v38.6h38.6v93h45.4V255.6 M583.3,255.6H621v36.9h-37.7V255.6z M459,343.9
	l31.7,42.9H441L415.3,349l-0.9-30.9h17.1c6.4-2.1,10.7-6.9,10.7-12.9c0-6.9-6.4-12.9-14.1-12.9h-12.9v-36.9h22.3
	c27,0,49.3,21.4,49.3,47.1c0,18-11.1,33.4-27.4,41.1"/>
</svg>
