<?xml version="1.0" encoding="UTF-8" standalone="no"?>
<svg
   xmlns:dc="http://purl.org/dc/elements/1.1/"
   xmlns:cc="http://creativecommons.org/ns#"
   xmlns:rdf="http://www.w3.org/1999/02/22-rdf-syntax-ns#"
   xmlns:svg="http://www.w3.org/2000/svg"
   xmlns="http://www.w3.org/2000/svg"
   viewBox="0 0 909.94666 735.8667"
   height="735.8667"
   width="909.94666"
   xml:space="preserve"
   id="svg2"
   version="1.1"><metadata
     id="metadata8"><rdf:RDF><cc:Work
         rdf:about=""><dc:format>image/svg+xml</dc:format><dc:type
           rdf:resource="http://purl.org/dc/dcmitype/StillImage" /></cc:Work></rdf:RDF></metadata><defs
     id="defs6" /><g
     transform="matrix(1.3333333,0,0,-1.3333333,0,735.86667)"
     id="g10"><g
       transform="scale(0.1)"
       id="g12"><path
         id="path14"
         style="fill:#35a66e;fill-opacity:1;fill-rule:nonzero;stroke:none"
         d="m 4484.99,566.492 c 0,0 580.01,-273.012 764.3,230 184.3,502.998 299.4,515.098 650,587.498 350.6,72.4 343.1,286.4 311.7,536.9 -31.4,250.5 86.4,360 361.3,423.2 274.9,63.2 392.8,635 0,902.8 -392.8,267.8 -735.1,133.9 -917.29,-211.5 -81.51,-154.5 -205.14,-151.75 -346.43,-149.01 -174.59,3.38 -376.14,6.77 -558.48,-286.49 -329.9,-530.6 -23.6,-902.3 -275,-1164.31 -251.4,-261.99 -277.6,-660.189 9.9,-869.088" /><path
         id="path16"
         style="fill:#a7e0c3;fill-opacity:1;fill-rule:nonzero;stroke:none"
         d="M 4629.38,672.492 4596,684.281 c 37.59,106.449 79.42,210.051 124.6,310.598 17.8,9.561 35.13,19.261 52.24,29.241 -52.5,-113.35 -100.75,-230.651 -143.46,-351.628 m 859.77,1462.778 c 2.36,20.56 4.38,41.4 6.01,61.99 48.24,56.66 96.01,110.62 142.74,161.71 112.51,123 219.2,229.56 313.1,318.25 l -1.45,-4.8 33.88,-10.25 19.09,63.13 c 184.08,169.72 307.51,261.39 307.92,261.7 l 21.1,-28.42 c 0,0 -1.1,-0.82 -3.38,-2.54 -2.28,-1.72 -5.68,-4.31 -10.16,-7.76 -8.95,-6.89 -22.18,-17.22 -39.21,-30.86 -34.06,-27.28 -83.34,-67.86 -144.03,-120.92 -121.38,-106.1 -288.42,-262.1 -470.74,-461.42 -20.76,-22.7 -41.74,-45.98 -62.86,-69.79 l -53.73,-12.67 8.12,-34.46 5.36,1.27 c -23.79,-27.38 -47.73,-55.44 -71.76,-84.16" /><path
         id="path18"
         style="fill:#a7e0c3;fill-opacity:1;fill-rule:nonzero;stroke:none"
         d="m 5951,2677.22 109.75,362.99 33.88,-10.24 -92.11,-304.67 c -16.69,-15.38 -33.89,-31.42 -51.52,-48.08" /><path
         id="path20"
         style="fill:#e0f4e9;fill-opacity:1;fill-rule:nonzero;stroke:none"
         d="m 5983.43,2662.17 -33.88,10.25 1.45,4.8 c 17.63,16.66 34.83,32.7 51.52,48.08 l -19.09,-63.13" /><path
         id="path22"
         style="fill:#a7e0c3;fill-opacity:1;fill-rule:nonzero;stroke:none"
         d="m 5560.91,2219.43 c 13.48,15.52 26.87,30.77 40.25,45.86 l 672.77,158.63 8.12,-34.46 -721.14,-170.03" /><path
         id="path24"
         style="fill:#e0f4e9;fill-opacity:1;fill-rule:nonzero;stroke:none"
         d="m 5555.55,2218.16 -8.12,34.46 53.73,12.67 c -13.38,-15.09 -26.77,-30.34 -40.25,-45.86 l -5.36,-1.27" /><path
         id="path26"
         style="fill:#a7e0c3;fill-opacity:1;fill-rule:nonzero;stroke:none"
         d="m 5359.84,1661.78 c 5.82,12.7 11.42,25.4 16.84,38.23 137.49,19.12 281.5,22.8 373.36,22.81 59.03,0 96.49,-1.54 96.68,-1.54 l -1.46,-35.37 c 0,0 -2.23,0.09 -6.58,0.23 -4.36,0.14 -10.79,0.33 -19.05,0.52 -16.53,0.38 -40.38,0.76 -69.59,0.76 -0.03,0 -0.05,0 -0.08,0 -68.37,0 -166.07,-2.09 -267.66,-11.13 -40.74,-3.61 -82.12,-8.35 -122.46,-14.51" /><path
         id="path28"
         style="fill:#fafcfe;fill-opacity:1;fill-rule:nonzero;stroke:none"
         d="m 3443.4,726.32 c -209.27,0 -437.44,14.762 -686.41,46.371 0,0 -43.77,-3.441 -120.98,-3.441 -123.34,0 -332.15,8.781 -584.73,54.371 70.44,70.942 110.1,186.729 169.71,511.769 107.4,585.6 -282.5,498 -267.9,858.11 14.6,360.09 -409,197.39 -392.8,591.99 1.85,45.06 -0.41,88.53 -6.2,130.33 130.93,-46.19 266.77,-78.46 405.41,-78.46 149.7,0 302.64,37.58 456.39,135.83 590.63,377.43 1318.24,903.74 1949.16,903.74 234.97,0 456.43,-72.93 652.54,-253.74 171.41,-158.04 322.21,-425.26 408.06,-735.43 -20.13,-1.6 -40.85,-2.11 -62.09,-2.11 -17.99,0 -36.33,0.37 -54.99,0.73 -18.65,0.36 -37.64,0.72 -56.84,0.72 -160.62,0 -338.78,-25.27 -501.64,-287.21 -329.9,-530.6 -23.6,-902.3 -275,-1164.31 C 4308.24,1261.7 4240.58,1027.84 4298,829.121 4057.43,763.301 3774.35,726.32 3443.4,726.32" /><path
         id="path30"
         style="fill:#62c49d;fill-opacity:1;fill-rule:nonzero;stroke:none"
         d="m 4298,829.121 c -57.42,198.719 10.24,432.579 177.09,606.459 251.4,262.01 -54.9,633.71 275,1164.31 162.86,261.94 341.02,287.21 501.64,287.21 19.2,0 38.19,-0.36 56.84,-0.72 18.66,-0.36 37,-0.73 54.99,-0.73 21.24,0 41.96,0.51 62.09,2.11 60,-216.78 88.22,-454.49 69.51,-690.5 -63.11,-74.13 -127.09,-152.93 -190.78,-236.15 l 76.1,671.39 -35.17,3.99 -82.85,-730.86 C 5065.59,1641.71 4873.79,1335.81 4720.6,994.879 4597.21,928.621 4456.84,872.59 4298,829.121 m 474.84,194.999 c 87.39,188.7 186.54,366.41 291.5,531.88 27.69,27.07 72.6,50.01 127.35,67.87 49.95,16.38 107.88,28.71 168.15,37.91 -113.56,-247.95 -302.06,-471.4 -587,-637.66 m 339.56,606.2 c 122.14,185.33 250.75,354.34 376.75,504.95 -17.02,-148.47 -53.28,-295.4 -112.47,-435.26 -0.42,-0.06 -0.84,-0.12 -1.26,-0.18 -68.96,-9.65 -136.23,-23.17 -194.75,-42.32 -24.42,-8.04 -47.35,-17 -68.27,-27.19" /><path
         id="path32"
         style="fill:#bee8d9;fill-opacity:1;fill-rule:nonzero;stroke:none"
         d="m 4720.6,994.879 c 153.19,340.931 344.99,646.831 541.86,910.751 l -0.56,-4.95 35.17,-3.98 7.31,64.41 c 63.69,83.22 127.67,162.02 190.78,236.15 -1.63,-20.59 -3.65,-41.43 -6.01,-61.99 -126,-150.61 -254.61,-319.62 -376.75,-504.95 -29.17,-14.2 -54.41,-30.77 -74.3,-50.48 l 24.98,-25.09 c 0.42,0.42 0.83,0.83 1.26,1.25 -104.96,-165.47 -204.11,-343.18 -291.5,-531.88 -17.11,-9.98 -34.44,-19.68 -52.24,-29.241" /><path
         id="path34"
         style="fill:#bee8d9;fill-opacity:1;fill-rule:nonzero;stroke:none"
         d="m 5262.46,1905.63 82.85,730.86 35.17,-3.99 -76.1,-671.39 c -13.99,-18.28 -27.97,-36.77 -41.92,-55.48" /><path
         id="path36"
         style="fill:#e4f4f4;fill-opacity:1;fill-rule:nonzero;stroke:none"
         d="m 5297.07,1896.7 -35.17,3.98 0.56,4.95 c 13.95,18.71 27.93,37.2 41.92,55.48 l -7.31,-64.41" /><path
         id="path38"
         style="fill:#bee8d9;fill-opacity:1;fill-rule:nonzero;stroke:none"
         d="m 5064.34,1556 c 15.89,25.05 31.92,49.83 48.06,74.32 20.92,10.19 43.85,19.15 68.27,27.19 58.52,19.15 125.79,32.67 194.75,42.32 0.42,0.06 0.84,0.12 1.26,0.18 -5.42,-12.83 -11.02,-25.53 -16.84,-38.23 -60.27,-9.2 -118.2,-21.53 -168.15,-37.91 -54.75,-17.86 -99.66,-40.8 -127.35,-67.87" /><path
         id="path40"
         style="fill:#e4f4f4;fill-opacity:1;fill-rule:nonzero;stroke:none"
         d="m 5063.08,1554.75 -24.98,25.09 c 19.89,19.71 45.13,36.28 74.3,50.48 -16.14,-24.49 -32.17,-49.27 -48.06,-74.32 -0.43,-0.42 -0.84,-0.83 -1.26,-1.25" /><path
         id="path42"
         style="fill:#fafcfe;fill-opacity:1;fill-rule:nonzero;stroke:none"
         d="m 482.602,1608.83 c -315.004,312.46 -403.2309,599.92 -359.286,872.9 117.344,-173.76 287.668,-308.8 368.676,-431.64 73.809,-111.94 14.531,-282.41 -9.39,-441.26" /><path
         id="path44"
         style="fill:#35a66e;fill-opacity:1;fill-rule:nonzero;stroke:none"
         d="m 1407.35,2863.02 -0.15,0.97 c -1.5,10.07 -13.97,97.62 -13.97,225.84 -0.01,134.61 13.77,314.04 68.16,495.61 54.41,181.62 149.3,365.2 311.34,509.23 123.64,109.9 227.44,198.78 314.19,281.21 130.06,123.57 222.03,233.06 283.09,376.35 61.06,143.27 91.02,319.38 99.38,576.38 l -23.59,0.76 c -5.53,-170.39 -20.63,-304.14 -47.68,-415.57 -40.65,-167.14 -107.69,-284.18 -211.27,-401.65 -103.58,-117.4 -244.06,-234.77 -429.8,-399.84 -166.14,-147.68 -262.98,-335.52 -318.26,-520.1 -55.29,-184.62 -69.15,-366.17 -69.16,-502.38 0,-138.4 14.34,-230.01 14.41,-230.47 l 23.31,3.66" /><path
         id="path46"
         style="fill:#4fc182;fill-opacity:1;fill-rule:nonzero;stroke:none"
         d="m 1397.69,3341.19 c 0,0 308.3,212.4 245.5,314.2 -62.8,101.8 -229.2,-59.1 -245.5,-314.2" /><path
         id="path48"
         style="fill:#35a66e;fill-opacity:1;fill-rule:nonzero;stroke:none"
         d="m 1460.99,3622.89 c 0,0 147.5,400.9 0,472.2 -147.5,71.3 -104,-414.8 0,-472.2" /><path
         id="path50"
         style="fill:#35a66e;fill-opacity:1;fill-rule:nonzero;stroke:none"
         d="m 1582.79,3894.09 c 0,0 312.2,237.3 363.3,127.4 51.1,-109.9 -209.2,-179.1 -363.3,-127.4" /><path
         id="path52"
         style="fill:#4fc182;fill-opacity:1;fill-rule:nonzero;stroke:none"
         d="m 1764.89,4103.49 c 0,0 204.3,240 113.9,353.5 -90.4,113.5 -188.5,-263.2 -113.9,-353.5" /><path
         id="path54"
         style="fill:#35a66e;fill-opacity:1;fill-rule:nonzero;stroke:none"
         d="m 1976.79,4290.89 c 0,0 283,-50 350,87.6 67,137.6 -185.2,80.1 -350,-87.6" /><path
         id="path56"
         style="fill:#35a66e;fill-opacity:1;fill-rule:nonzero;stroke:none"
         d="m 2172.09,4478.29 c 0,0 140.7,250 40,367.6 -100.7,117.6 -151.1,-295.3 -40,-367.6" /><path
         id="path58"
         style="fill:#4fc182;fill-opacity:1;fill-rule:nonzero;stroke:none"
         d="m 2317.59,4672.59 c 0,0 303.6,102.6 300,240 -3.6,137.4 -226.6,-44.1 -300,-240" /><path
         id="path60"
         style="fill:#4fc182;fill-opacity:1;fill-rule:nonzero;stroke:none"
         d="m 2404.09,4889.39 c 0,0 63.9,313.9 -46.1,333.5 -110,19.6 -84.5,-282.2 46.1,-333.5" /><path
         id="path62"
         style="fill:#35a66e;fill-opacity:1;fill-rule:nonzero;stroke:none"
         d="m 2450.29,5140.49 c 0,0 174.8,161 143.4,310 -31.4,149 -149.3,59.2 -143.4,-310" /><path
         id="path64"
         style="fill:#35a66e;fill-opacity:1;fill-rule:nonzero;stroke:none"
         d="m 4733.06,1493.53 c 0,0 -0.32,-0.63 -1.01,-1.97 C 4721.3,1470.9 4625.02,1290.63 4452.46,1107.93 4366.19,1016.58 4260.87,924.629 4137.8,851.582 4014.72,778.52 3873.95,724.359 3716.39,708.23 3551.83,691.391 3415.64,679.992 3297.07,663.852 3119.3,639.672 2980.66,604.629 2847.33,524.102 2714,443.582 2586.71,318.262 2429.65,114.699 l 18.68,-14.418 c 104.12,134.969 194.6,234.629 281.7,309.199 130.72,111.809 253.56,167.551 406.28,202.27 152.69,34.66 335.28,47.73 582.48,73 166.72,17.063 314.89,75.691 443.14,153.801 192.4,117.199 340.21,278.139 440.11,409.779 99.88,131.65 151.84,234.07 152.07,234.53 l -21.05,10.67" /><path
         id="path66"
         style="fill:#4fc182;fill-opacity:1;fill-rule:nonzero;stroke:none"
         d="m 4460.99,1099.99 c 0,0 -374.3,8.09 -383.09,-111.498 -8.81,-119.601 220.99,-85.801 383.09,111.498" /><path
         id="path68"
         style="fill:#35a66e;fill-opacity:1;fill-rule:nonzero;stroke:none"
         d="m 4245.4,908.492 c 0,0 -354.41,-239 -276.21,-383.101 78.2,-144.102 326.8,275.699 276.21,383.101" /><path
         id="path70"
         style="fill:#35a66e;fill-opacity:1;fill-rule:nonzero;stroke:none"
         d="m 3987.79,759.789 c 0,0 -392.1,-10 -369.2,109.203 22.9,119.199 274.5,22.797 369.2,-109.203" /><path
         id="path72"
         style="fill:#4fc182;fill-opacity:1;fill-rule:nonzero;stroke:none"
         d="m 3717.59,696.492 c 0,0 -305.8,-74.902 -299.1,-220 6.7,-145.101 306.8,103 299.1,220" /><path
         id="path74"
         style="fill:#35a66e;fill-opacity:1;fill-rule:nonzero;stroke:none"
         d="m 3436.09,668.391 c 0,0 -200,206 -334.9,133.5 -134.9,-72.5 103.2,-173.2 334.9,-133.5" /><path
         id="path76"
         style="fill:#35a66e;fill-opacity:1;fill-rule:nonzero;stroke:none"
         d="m 3168.19,630.582 c 0,0 -260,-120 -247.2,-275 12.8,-155 295.2,151.309 247.2,275" /><path
         id="path78"
         style="fill:#4fc182;fill-opacity:1;fill-rule:nonzero;stroke:none"
         d="m 2936.49,558.082 c 0,0 -306.3,94.309 -383.5,-19.492 -77.2,-113.801 209.4,-96.5 383.5,19.492" /><path
         id="path80"
         style="fill:#4fc182;fill-opacity:1;fill-rule:nonzero;stroke:none"
         d="m 2739.49,432.891 c 0,0 -235.4,-217.5 -157.7,-297.5 77.7,-80.0004 233.7,179.398 157.7,297.5" /><path
         id="path82"
         style="fill:#35a66e;fill-opacity:1;fill-rule:nonzero;stroke:none"
         d="m 2555.19,256.191 c 0,0 -236,-28.402 -297.8,-167.8004 -61.8,-139.3984 86.6,-135.1015 297.8,167.8004" /><path
         id="path84"
         style="fill:#4fc182;fill-opacity:1;fill-rule:nonzero;stroke:none"
         d="m 1796.39,654.789 c 0,0 -308.6,-212.098 -570.7,0 -262.1,212.102 136.7,470.001 -443.698,560.901 -580.398,90.9 -132.601,595.7 -290,834.4 -157.402,238.7 -652.004,523.41 -439.9998,1048.8 211.9958,525.4 783.4998,593.3 1004.4978,472.9 221,-120.4 520,-391.7 503.8,-786.3 -16.2,-394.6 407.4,-231.9 392.8,-591.99 -14.6,-360.11 375.3,-272.51 267.9,-858.11 -107.4,-585.601 -150,-491.999 -424.6,-680.601" /><path
         id="path86"
         style="fill:#b4e4c8;fill-opacity:1;fill-rule:nonzero;stroke:none"
         d="m 1661.2,992.391 c -21.03,95.879 -49.31,193.369 -83.24,291.279 7.47,-0.68 11.53,-1.01 11.58,-1.02 l 2.9,35.28 c -0.01,0 -2.31,0.19 -6.75,0.58 -4.68,0.41 -11.7,1.05 -20.73,1.9 -92.78,257.42 -223.21,516.61 -362.38,755.55 7.11,0.47 10.98,0.79 11.08,0.79 l -2.93,35.28 c 0,0 -0.71,-0.06 -2.22,-0.17 -3.91,-0.29 -12.9,-0.92 -26.04,-1.6 -60.71,102.79 -122.83,201.62 -183.954,294.6 -269.086,409.52 -519.098,706.89 -548.153,741.11 -1.843,2.17 -2.777,3.26 -2.808,3.3 l 26.875,23.04 c 0.289,-0.34 225.824,-263.37 486.332,-647.19 -2.141,-14.48 -4.528,-28.97 -7.18,-43.44 l 34.816,-6.38 c 0.426,2.32 0.844,4.64 1.258,6.96 4.121,-6.15 8.223,-12.3 12.354,-18.51 277.45,-417.01 582.83,-959.21 693.77,-1463.758 l -34.58,-7.601 M 447.555,3149.27 v 0 0 0" /><path
         id="path88"
         style="fill:#b4e4c8;fill-opacity:1;fill-rule:nonzero;stroke:none"
         d="m 989.656,2482.26 c -9.676,14.45 -19.308,28.73 -28.894,42.86 11.406,77.22 15.754,154.07 15.754,226.19 0.019,212.33 -37.715,383.57 -42.293,403.44 -0.301,1.32 -0.446,1.92 -0.446,1.92 l 34.43,8.24 c 0.18,-0.85 43.683,-182.71 43.713,-413.6 -0.01,-85.18 -5.94,-177.05 -22.264,-269.05" /><path
         id="path90"
         style="fill:#e5f6ec;fill-opacity:1;fill-rule:nonzero;stroke:none"
         d="m 988.398,2475.3 -34.816,6.38 c 2.652,14.47 5.039,28.96 7.18,43.44 9.586,-14.13 19.218,-28.41 28.894,-42.86 -0.414,-2.32 -0.832,-4.64 -1.258,-6.96" /><path
         id="path92"
         style="fill:#b4e4c8;fill-opacity:1;fill-rule:nonzero;stroke:none"
         d="m 1084.43,2072.43 c -72.9,0.01 -168.414,3.83 -264.68,18.85 -96.27,15.08 -193.34,41.14 -269.781,87.04 l 18.25,30.33 c 70.019,-42.21 163.347,-67.83 256.992,-82.39 93.648,-14.63 187.579,-18.43 259.219,-18.42 0.03,0 0.04,0 0.06,0 41.63,0 75.75,1.27 97.98,2.42 6.74,-11.41 13.41,-22.79 20.11,-34.3 -19.17,-1.24 -61.93,-3.52 -118.15,-3.53" /><path
         id="path94"
         style="fill:#e5f6ec;fill-opacity:1;fill-rule:nonzero;stroke:none"
         d="m 1202.58,2075.96 c -6.7,11.51 -13.37,22.89 -20.11,34.3 13.14,0.68 22.13,1.31 26.04,1.6 1.51,0.11 2.22,0.17 2.22,0.17 l 2.93,-35.28 c -0.1,0 -3.97,-0.32 -11.08,-0.79" /><path
         id="path96"
         style="fill:#b4e4c8;fill-opacity:1;fill-rule:nonzero;stroke:none"
         d="m 1577.96,1283.67 c -52.92,4.75 -276.97,26.4 -460.41,68.12 -69.87,15.93 -133.808,34.63 -181.28,57.21 -27.133,13.02 -49.094,27.07 -64.004,44.57 l 27.05,22.83 c 8.715,-10.46 25.262,-22.22 47.637,-33.23 22.36,-11.08 50.402,-21.66 82.027,-31.45 63.28,-19.6 140.88,-36.11 217.84,-49.45 132.35,-22.95 262.91,-36.61 318.14,-41.86 4.42,-12.24 8.76,-24.51 13,-36.74" /><path
         id="path98"
         style="fill:#e5f6ec;fill-opacity:1;fill-rule:nonzero;stroke:none"
         d="m 1589.54,1282.65 c -0.05,0.01 -4.11,0.34 -11.58,1.02 -4.24,12.23 -8.58,24.5 -13,36.74 9.03,-0.85 16.05,-1.49 20.73,-1.9 4.44,-0.39 6.74,-0.58 6.75,-0.58 l -2.9,-35.28" /><path
         id="path100"
         style="fill:#333494;fill-opacity:1;fill-rule:nonzero;stroke:none"
         d="m 4690.59,4084.29 h -764.5 v 489 h 382 c 211.25,0 382.5,-171.25 382.5,-382.5 v -106.5" /><path
         id="path102"
         style="fill:#4945a4;fill-opacity:1;fill-rule:nonzero;stroke:none"
         d="m 3113.79,4573.39 h 1261.4 v -2056.3 h -1644.2 v 1673.8 c 0,211.25 171.25,382.5 382.5,382.5 h 0.3" /><path
         id="path104"
         style="fill:#dae2f4;fill-opacity:1;fill-rule:nonzero;stroke:none"
         d="m 2880.59,4115.79 h 1345.3 v -125.7 h -1345.3 v 125.7" /><path
         id="path106"
         style="fill:#dae2f4;fill-opacity:1;fill-rule:nonzero;stroke:none"
         d="m 2880.59,3852.59 h 1345.3 v -125.7 h -1345.3 v 125.7" /><path
         id="path108"
         style="fill:#dae2f4;fill-opacity:1;fill-rule:nonzero;stroke:none"
         d="m 2880.59,3589.39 h 1345.3 v -125.7 h -1345.3 v 125.7" /><path
         id="path110"
         style="fill:#dae2f4;fill-opacity:1;fill-rule:nonzero;stroke:none"
         d="m 2880.59,3326.29 h 1345.3 v -125.7 h -1345.3 v 125.7" /><path
         id="path112"
         style="fill:#eef2fa;fill-opacity:1;fill-rule:nonzero;stroke:none"
         d="M 858.395,4063.69 H 2676.99 c 143.15,0 259.2,-116.05 259.2,-259.2 v -2160.4 c 0,-143.15 -116.05,-259.2 -259.2,-259.2 H 858.395 c -143.157,0 -259.207,116.05 -259.207,259.2 v 2160.4 c 0,143.15 116.05,259.2 259.207,259.2" /><path
         id="path114"
         style="fill:#dae2f4;fill-opacity:1;fill-rule:nonzero;stroke:none"
         d="m 2936.19,3804.49 v -259.1 H 599.188 v 259.1 c 0,143.15 116.05,259.2 259.207,259.2 H 2676.99 c 143.1,0.05 259.15,-115.9 259.2,-259 v -0.2" /><path
         id="path116"
         style="fill:#2d2e7e;fill-opacity:1;fill-rule:nonzero;stroke:none"
         d="m 799.492,3857.49 c 29.274,0 52.996,-23.73 52.996,-53 0,-29.27 -23.722,-53 -52.996,-53 -29.273,0 -53.004,23.73 -53.004,53 0,29.27 23.731,53 53.004,53" /><path
         id="path118"
         style="fill:#2d2e7e;fill-opacity:1;fill-rule:nonzero;stroke:none"
         d="m 993.988,3857.49 c 29.272,0 53.002,-23.73 53.002,-53 0,-29.27 -23.73,-53 -53.002,-53 -29.265,0 -52.996,23.73 -52.996,53 0,29.27 23.731,53 52.996,53" /><path
         id="path120"
         style="fill:#2d2e7e;fill-opacity:1;fill-rule:nonzero;stroke:none"
         d="m 1188.39,3857.49 c 29.27,0 53,-23.73 53,-53 0,-29.27 -23.73,-53 -53,-53 -29.27,0 -53,23.73 -53,53 0,29.27 23.73,53 53,53" /><path
         id="path122"
         style="fill:#f9b717;fill-opacity:1;fill-rule:nonzero;stroke:none"
         d="M 1624.39,2643.69 H 775.992 v 677.8 h 343.598 l 161.2,-123.3 h 343.6 v -554.5" /><path
         id="path124"
         style="fill:#df9715;fill-opacity:1;fill-rule:nonzero;stroke:none"
         d="m 818.59,3174.64 h 344.801 v 47.1016 H 818.59 Z" /><path
         id="path126"
         style="fill:#dae2f4;fill-opacity:1;fill-rule:nonzero;stroke:none"
         d="m 2177.79,3119.99 c 95.99,0 173.8,-77.81 173.8,-173.8 0,-95.99 -77.81,-173.8 -173.8,-173.8 -95.99,0 -173.8,77.81 -173.8,173.8 0,95.99 77.81,173.8 173.8,173.8" /><path
         id="path128"
         style="fill:#f36518;fill-opacity:1;fill-rule:nonzero;stroke:none"
         d="m 1967.07,3090.66 212.48,-267.46 350.67,482.16 -76.26,55.46 -277.73,-381.85 -135.32,170.35 -73.84,-58.66" /><path
         id="path130"
         style="fill:#dae2f4;fill-opacity:1;fill-rule:nonzero;stroke:none"
         d="M 775.992,2465.09 H 2775.29 v -94.3 H 775.992 v 94.3" /><path
         id="path132"
         style="fill:#dae2f4;fill-opacity:1;fill-rule:nonzero;stroke:none"
         d="M 775.992,2213.69 H 2775.29 v -94.3 H 775.992 v 94.3" /><path
         id="path134"
         style="fill:#f2518d;fill-opacity:1;fill-rule:nonzero;stroke:none"
         d="M 775.992,1962.29 H 2775.29 v -94.3 H 775.992 v 94.3" /><path
         id="path136"
         style="fill:#4945a4;fill-opacity:1;fill-rule:nonzero;stroke:none"
         d="M 775.992,1710.89 H 2775.29 v -94.3 H 775.992 v 94.3" /><path
         id="path138"
         style="fill:#eef2fa;fill-opacity:1;fill-rule:nonzero;stroke:none"
         d="m 3410.89,3265.79 h 1818.6 c 143.15,0 259.2,-116.05 259.2,-259.2 V 846.191 c 0,-143.152 -116.05,-259.199 -259.2,-259.199 h -1818.6 c -143.15,0 -259.2,116.047 -259.2,259.199 V 3006.59 c 0,143.15 116.05,259.2 259.2,259.2" /><path
         id="path140"
         style="fill:#dae2f4;fill-opacity:1;fill-rule:nonzero;stroke:none"
         d="m 5488.79,3006.49 v -259.2 h -2337.1 v 259.2 c 0.22,143.05 116.25,258.9 259.3,258.9 h 1818.5 c 143.05,0 259.08,-115.85 259.3,-258.9" /><path
         id="path142"
         style="fill:#4945a4;fill-opacity:1;fill-rule:nonzero;stroke:none"
         d="m 3352.09,3059.49 c 29.27,0 53,-23.73 53,-53 0,-29.27 -23.73,-53 -53,-53 -29.27,0 -53,23.73 -53,53 0,29.27 23.73,53 53,53" /><path
         id="path144"
         style="fill:#4945a4;fill-opacity:1;fill-rule:nonzero;stroke:none"
         d="m 3546.49,3059.49 c 29.27,0 53,-23.73 53,-53 0,-29.27 -23.73,-53 -53,-53 -29.27,0 -53,23.73 -53,53 0,29.27 23.73,53 53,53" /><path
         id="path146"
         style="fill:#4945a4;fill-opacity:1;fill-rule:nonzero;stroke:none"
         d="m 3740.89,3059.49 c 29.27,0 53,-23.73 53,-53 0,-29.27 -23.73,-53 -53,-53 -29.27,0 -53,23.73 -53,53 0,29.27 23.73,53 53,53" /><path
         id="path148"
         style="fill:#dae2f4;fill-opacity:1;fill-rule:nonzero;stroke:none"
         d="m 4730.4,2322.09 c 95.98,0 173.79,-77.81 173.79,-173.8 0,-95.99 -77.81,-173.8 -173.79,-173.8 -95.99,0 -173.81,77.81 -173.81,173.8 0,95.99 77.82,173.8 173.81,173.8" /><path
         id="path150"
         style="fill:#f2518d;fill-opacity:1;fill-rule:nonzero;stroke:none"
         d="m 4519.65,2292.78 212.39,-267.61 350.69,482.3 -76.27,55.45 -277.71,-381.92 -135.23,170.4 -73.87,-58.62" /><path
         id="path152"
         style="fill:#f9b717;fill-opacity:1;fill-rule:nonzero;stroke:none"
         d="m 3328.49,1667.09 h 1999.3 v -94.3 h -1999.3 v 94.3" /><path
         id="path154"
         style="fill:#f36518;fill-opacity:1;fill-rule:nonzero;stroke:none"
         d="m 3328.49,1415.69 h 1999.3 v -94.3 h -1999.3 v 94.3" /><path
         id="path156"
         style="fill:#dae2f4;fill-opacity:1;fill-rule:nonzero;stroke:none"
         d="m 3328.49,1164.39 h 1999.3 v -94.3 h -1999.3 v 94.3" /><path
         id="path158"
         style="fill:#dae2f4;fill-opacity:1;fill-rule:nonzero;stroke:none"
         d="m 3328.49,912.992 h 1999.3 v -94.301 h -1999.3 v 94.301" /><path
         id="path160"
         style="fill:#dae2f4;fill-opacity:1;fill-rule:nonzero;stroke:none"
         d="m 4137.19,2198.89 c -0.11,-218.87 -177.62,-396.22 -396.5,-396.1 -218.87,0.11 -396.21,177.63 -396.1,396.5 0.11,218.83 177.57,396.16 396.4,396.1 217.76,1.05 395.15,-174.63 396.2,-392.39 0.01,-1.37 0.01,-2.74 0,-4.11" /><path
         id="path162"
         style="fill:#4945a4;fill-opacity:1;fill-rule:nonzero;stroke:none"
         d="m 3740.89,2476.29 c 56.39,0 102.1,-45.71 102.1,-102.1 0,-56.39 -45.71,-102.1 -102.1,-102.1 -56.39,0 -102.1,45.71 -102.1,102.1 0,56.39 45.71,102.1 102.1,102.1" /><path
         id="path164"
         style="fill:#4945a4;fill-opacity:1;fill-rule:nonzero;stroke:none"
         d="M 4056.49,1959.29 C 3924.12,1784.99 3675.5,1751 3501.2,1883.38 c -28.63,21.75 -54.16,47.28 -75.91,75.91 35.56,174.3 205.68,286.77 379.98,251.22 126.53,-25.81 225.41,-124.69 251.22,-251.22" /><path
         id="path166"
         style="fill:#5660b6;fill-opacity:1;fill-rule:nonzero;stroke:none"
         d="m 3148.79,566.492 v 0 c -523.73,275.34 -851.66,818.298 -851.6,1409.998 v 104.2 l 851.6,435.9 851.61,-435.9 v -104.3 c 0,-591.65 -327.93,-1134.558 -851.61,-1409.898" /><path
         id="path168"
         style="fill:#dae2f4;fill-opacity:1;fill-rule:nonzero;stroke:none"
         d="M 3858.67,1791.62 C 3828.45,1464.2 3680.14,1158.96 3441.42,932.84 l 24.35,-25.699 c 244.96,232.029 397.14,545.239 428.15,881.219 l -35.25,3.26" /><path
         id="path170"
         style="fill:#dae2f4;fill-opacity:1;fill-rule:nonzero;stroke:none"
         d="m 2423.56,1989.94 725.23,371.36 725.24,-371.36 16.13,31.51 -741.37,379.63 -741.36,-379.63 16.13,-31.51" /><path
         id="path172"
         style="fill:#dae2f4;fill-opacity:1;fill-rule:nonzero;stroke:none"
         d="m 2859.61,929.59 c -240.82,226.34 -390.55,532.94 -420.99,862.03 l -35.25,-3.26 c 31.23,-337.69 184.88,-652.3 432,-884.571 l 24.24,25.801" /><path
         id="path174"
         style="fill:#dae2f4;fill-opacity:1;fill-rule:nonzero;stroke:none"
         d="m 3511.03,1656.77 c 11.53,-36.32 17.76,-75 17.76,-115.18 0,-42.28 -6.9,-82.91 -19.63,-120.88 l 22.38,-7.5 c 13.53,40.34 20.85,83.53 20.85,128.38 0,42.62 -6.61,83.73 -18.87,122.32 z m -142.77,-425.43 c -62.01,-43.94 -137.67,-69.74 -219.47,-69.75 -2,0 -3.99,0.02 -5.99,0.05 l -0.36,-23.6 c 2.11,-0.03 4.23,-0.05 6.35,-0.05 86.79,0 167.29,27.44 233.11,74.09 z m -448.59,7.07 c -63.5,48.07 -111.43,115.62 -134.88,193.72 l -22.6,-6.78 c 24.92,-83.01 75.81,-154.72 143.23,-205.75 z m -129.3,429.73 c 27.04,76.61 77.99,141.99 143.88,187.13 l -13.34,19.47 C 2850.95,1826.8 2796.86,1757.41 2768.12,1676 Z m 358.42,253.45 c 83.95,-0.01 161.44,-27.19 224.33,-73.25 l 13.94,19.04 c -66.75,48.91 -149.19,77.81 -238.27,77.81 v -23.6" /><path
         id="path176"
         style="fill:#dae2f4;fill-opacity:1;fill-rule:nonzero;stroke:none"
         d="m 3057.19,1565.09 h 182.7 v 106.1 c -1.67,50.45 -43.92,90 -94.37,88.32 -48.11,-1.59 -86.74,-40.21 -88.33,-88.32 z m 230,-47.1 h -276.9 v 153.2 c 2.06,76.47 65.71,136.79 142.17,134.73 73.58,-1.98 132.75,-61.16 134.73,-134.73 v -153.2" /><path
         id="path178"
         style="fill:#eef2fa;fill-opacity:1;fill-rule:nonzero;stroke:none"
         d="m 2998.79,1594.59 h 299.9 c 14.75,0 26.7,-11.95 26.7,-26.7 v -205.8 c 0,-14.75 -11.95,-26.7 -26.7,-26.7 h -299.9 c -14.75,0 -26.7,11.95 -26.7,26.7 v 205.8 c 0,14.75 11.95,26.7 26.7,26.7" /><path
         id="path180"
         style="fill:#5660b6;fill-opacity:1;fill-rule:nonzero;stroke:none"
         d="m 4690.99,3099.29 v 0 c -315.46,165.92 -513.01,492.97 -513.09,849.4 v 62.8 l 513.09,262.7 513,-262.7 v -62.8 c -0.07,-356.41 -197.58,-683.45 -513,-849.4" /><path
         id="path182"
         style="fill:#dae2f4;fill-opacity:1;fill-rule:nonzero;stroke:none"
         d="m 5111.27,3838.02 c -18.06,-195.53 -106.62,-377.82 -249.15,-512.88 l 24.35,-25.7 c 148.77,140.97 241.2,331.24 260.05,535.32 l -35.25,3.26" /><path
         id="path184"
         style="fill:#dae2f4;fill-opacity:1;fill-rule:nonzero;stroke:none"
         d="m 4256.96,3950.64 433.73,222.07 433.63,-222.07 16.14,31.5 -449.77,230.34 -449.87,-230.33 16.14,-31.51" /><path
         id="path186"
         style="fill:#dae2f4;fill-opacity:1;fill-rule:nonzero;stroke:none"
         d="m 4521.32,3323.19 c -143.79,135.19 -233.17,318.3 -251.31,514.83 l -35.25,-3.26 c 18.93,-205.13 112.23,-396.25 262.31,-537.36 l 24.25,25.79" /><path
         id="path188"
         style="fill:#dae2f4;fill-opacity:1;fill-rule:nonzero;stroke:none"
         d="m 4884.65,3574.26 c -38.86,-66.79 -111.14,-111.67 -193.96,-111.67 h -0.75 l -0.07,-23.6 h 0.82 c 91.5,0 171.48,49.62 214.36,123.41 z m -388.66,1.28 c -18.77,32.79 -29.49,70.72 -29.5,111.25 0.01,41.33 11.16,79.95 30.62,113.18 l -20.36,11.93 c -21.52,-36.71 -33.86,-79.52 -33.86,-125.11 0,-44.71 11.87,-86.74 32.62,-122.97 z m 194.7,335.45 c 83.08,0.01 155.56,-45.16 194.33,-112.3 l 20.44,11.79 c -42.79,74.17 -122.98,124.11 -214.77,124.11 v -23.6" /><path
         id="path190"
         style="fill:#dae2f4;fill-opacity:1;fill-rule:nonzero;stroke:none"
         d="m 4635.59,3700.99 h 110 v 63.8 c 1.84,30.37 -21.31,56.48 -51.68,58.32 -30.38,1.83 -56.48,-21.31 -58.32,-51.69 -0.14,-2.2 -0.14,-4.42 0,-6.63 z m 138.5,-28.4 h -166.9 v 92.2 c -1.59,46.09 34.48,84.74 80.56,86.34 46.09,1.59 84.75,-34.48 86.34,-80.56 0.07,-1.93 0.07,-3.86 0,-5.78 v -92.2" /><path
         id="path192"
         style="fill:#eef2fa;fill-opacity:1;fill-rule:nonzero;stroke:none"
         d="m 4610.89,3718.69 h 159.4 c 14.74,0 26.7,-11.95 26.7,-26.7 v -102.8 c 0,-14.75 -11.96,-26.7 -26.7,-26.7 h -159.4 c -14.74,0 -26.7,11.95 -26.7,26.7 v 102.8 c 0,14.75 11.96,26.7 26.7,26.7" /><path
         id="path194"
         style="fill:#f9b717;fill-opacity:1;fill-rule:nonzero;stroke:none"
         d="m 6182.03,4053.94 c 102.5,41.6 228.58,-30.59 281.6,-161.24 53.03,-130.65 12.92,-270.28 -89.58,-311.88 -102.51,-41.6 -228.59,30.59 -281.61,161.23 -53.02,130.65 -12.91,270.29 89.59,311.89" /><path
         id="path196"
         style="fill:#f9b717;fill-opacity:1;fill-rule:nonzero;stroke:none"
         d="m 5510.09,4072.09 c 55.33,0 100.2,-39.58 100.2,-88.4 0,-48.82 -44.87,-88.4 -100.2,-88.4 -55.34,0 -100.2,39.58 -100.2,88.4 0,48.82 44.86,88.4 100.2,88.4" /><path
         id="path198"
         style="fill:#f9b717;fill-opacity:1;fill-rule:nonzero;stroke:none"
         d="m 4903.93,4850.96 c 77.21,48.41 172.02,36.26 211.78,-27.14 39.75,-63.4 9.39,-154.05 -67.81,-202.45 -77.2,-48.42 -172.02,-36.26 -211.77,27.13 -39.76,63.41 -9.41,154.05 67.8,202.46" /><path
         id="path200"
         style="fill:#100f0d;fill-opacity:1;fill-rule:nonzero;stroke:none"
         d="m 5999.05,1449.03 4.3,-1.62 c 15.44,40.97 38.86,75.11 65.33,98.88 26.47,23.8 55.88,37.11 83.22,37.08 9.64,0 19.04,-1.63 28.07,-5.04 20.22,-7.63 36.09,-23.17 47.06,-44.43 10.94,-21.25 16.84,-48.16 16.84,-77.86 0,-29.13 -5.66,-60.92 -17.61,-92.63 -15.44,-40.97 -38.87,-75.12 -65.33,-98.89 -26.47,-23.79 -55.89,-37.1 -83.23,-37.08 -9.63,0 -19.03,1.63 -28.06,5.04 -20.22,7.63 -36.09,23.17 -47.06,44.44 -10.95,21.24 -16.85,48.16 -16.84,77.86 0,29.13 5.66,60.92 17.61,92.63 l -4.3,1.62 -4.31,1.62 c -12.32,-32.71 -18.2,-65.55 -18.2,-95.87 0,-30.91 6.1,-59.21 17.86,-82.07 11.75,-22.85 29.32,-40.3 51.99,-48.84 10.1,-3.81 20.63,-5.63 31.31,-5.63 30.36,0.03 61.69,14.57 89.38,39.44 27.69,24.89 51.85,60.22 67.79,102.48 12.32,32.72 18.2,65.56 18.2,95.88 -0.01,30.91 -6.1,59.21 -17.86,82.07 -11.75,22.84 -29.32,40.29 -51.99,48.83 -10.11,3.81 -20.64,5.63 -31.32,5.63 -30.36,-0.02 -61.68,-14.57 -89.37,-39.44 -27.7,-24.89 -51.85,-60.22 -67.79,-102.48 l 4.31,-1.62" /><path
         id="path202"
         style="fill:#f9b717;fill-opacity:1;fill-rule:nonzero;stroke:none"
         d="m 4321.59,454.789 c 61.91,0 112.1,-50.187 112.1,-112.098 0,-61.91 -50.19,-112.109 -112.1,-112.109 -61.91,0 -112.1,50.199 -112.1,112.109 0,61.911 50.19,112.098 112.1,112.098" /><path
         id="path204"
         style="fill:#f9b717;fill-opacity:1;fill-rule:nonzero;stroke:none"
         d="m 1469.83,270.402 c 35.29,15.098 87,-26.672 115.5,-93.293 28.5,-66.617 22.99,-132.859 -12.3,-147.9567 -35.29,-15.1015 -87,26.668 -115.5,93.2887 -28.5,66.618 -22.99,132.86 12.3,147.961" /><path
         id="path206"
         style="fill:#f9b717;fill-opacity:1;fill-rule:nonzero;stroke:none"
         d="m 266.391,1860.69 c 48.824,0 88.398,-39.58 88.398,-88.4 0,-48.82 -39.574,-88.4 -88.398,-88.4 -48.825,0 -88.399,39.58 -88.399,88.4 0,48.82 39.574,88.4 88.399,88.4" /><path
         id="path208"
         style="fill:#f9b717;fill-opacity:1;fill-rule:nonzero;stroke:none"
         d="m 777.09,3585.99 c 34.187,0 61.898,-27.71 61.898,-61.9 0,-34.19 -27.711,-61.9 -61.898,-61.9 -34.184,0 -61.899,27.71 -61.899,61.9 0,34.19 27.715,61.9 61.899,61.9" /><path
         id="path210"
         style="fill:#f9b717;fill-opacity:1;fill-rule:nonzero;stroke:none"
         d="m 1135.39,4513.19 c 79.81,0 144.5,-64.7 144.5,-144.5 0,-79.8 -64.69,-144.5 -144.5,-144.5 -79.8,0 -144.495,64.7 -144.495,144.5 0,79.8 64.695,144.5 144.495,144.5" /></g></g></svg>