<?xml version="1.0" encoding="UTF-8" standalone="no"?>
<!-- Created with Inkscape (http://www.inkscape.org/) -->

<svg
   version="1.1"
   id="svg2"
   width="1602.36"
   height="1222.04"
   viewBox="0 0 1602.36 1222.04"
   sodipodi:docname="reshot-illustration-development-teamwork-V5YFTC3X74.eps"
   xmlns:inkscape="http://www.inkscape.org/namespaces/inkscape"
   xmlns:sodipodi="http://sodipodi.sourceforge.net/DTD/sodipodi-0.dtd"
   xmlns="http://www.w3.org/2000/svg"
   xmlns:svg="http://www.w3.org/2000/svg">
  <defs
     id="defs6">
    <clipPath
       clipPathUnits="userSpaceOnUse"
       id="clipPath58">
      <path
         d="m 11016.8,4358.11 h -161.5 v 161.47 h 161.5 z"
         id="path56" />
    </clipPath>
    <linearGradient
       x1="0"
       y1="0"
       x2="1"
       y2="0"
       gradientUnits="userSpaceOnUse"
       gradientTransform="matrix(161.466,0,0,-161.466,10855.3,4438.84)"
       spreadMethod="pad"
       id="linearGradient64">
      <stop
         style="stop-opacity:1;stop-color:#77aee2"
         offset="0"
         id="stop60" />
      <stop
         style="stop-opacity:1;stop-color:#77aee2"
         offset="1"
         id="stop62" />
    </linearGradient>
    <clipPath
       clipPathUnits="userSpaceOnUse"
       id="clipPath74">
      <path
         d="m 11016.8,3994.8 h -161.5 v 161.47 h 161.5 z"
         id="path72" />
    </clipPath>
    <linearGradient
       x1="0"
       y1="0"
       x2="1"
       y2="0"
       gradientUnits="userSpaceOnUse"
       gradientTransform="matrix(161.466,0,0,-161.466,10855.3,4075.54)"
       spreadMethod="pad"
       id="linearGradient80">
      <stop
         style="stop-opacity:1;stop-color:#77aee2"
         offset="0"
         id="stop76" />
      <stop
         style="stop-opacity:1;stop-color:#77aee2"
         offset="1"
         id="stop78" />
    </linearGradient>
    <clipPath
       clipPathUnits="userSpaceOnUse"
       id="clipPath90">
      <path
         d="m 11016.8,3631.47 h -161.5 v 161.49 h 161.5 z"
         id="path88" />
    </clipPath>
    <linearGradient
       x1="0"
       y1="0"
       x2="1"
       y2="0"
       gradientUnits="userSpaceOnUse"
       gradientTransform="matrix(161.466,0,0,-161.466,10855.3,3712.22)"
       spreadMethod="pad"
       id="linearGradient96">
      <stop
         style="stop-opacity:1;stop-color:#77aee2"
         offset="0"
         id="stop92" />
      <stop
         style="stop-opacity:1;stop-color:#77aee2"
         offset="1"
         id="stop94" />
    </linearGradient>
    <clipPath
       clipPathUnits="userSpaceOnUse"
       id="clipPath126">
      <path
         d="m 0,58.3594 h 6363.68 v 6787.93 H 0 Z"
         id="path124" />
    </clipPath>
    <clipPath
       clipPathUnits="userSpaceOnUse"
       id="clipPath242">
      <path
         d="m 6447.08,1299.36 h -410.17 v 410.16 h 410.17 z"
         id="path240" />
    </clipPath>
    <linearGradient
       x1="0"
       y1="0"
       x2="1"
       y2="0"
       gradientUnits="userSpaceOnUse"
       gradientTransform="matrix(410.172,0,0,-410.172,6036.91,1504.44)"
       spreadMethod="pad"
       id="linearGradient248">
      <stop
         style="stop-opacity:1;stop-color:#77aee2"
         offset="0"
         id="stop244" />
      <stop
         style="stop-opacity:1;stop-color:#77aee2"
         offset="1"
         id="stop246" />
    </linearGradient>
    <clipPath
       clipPathUnits="userSpaceOnUse"
       id="clipPath262">
      <path
         d="m 6447.08,581.539 h -410.17 v 410.18 h 410.17 z"
         id="path260" />
    </clipPath>
    <linearGradient
       x1="0"
       y1="0"
       x2="1"
       y2="0"
       gradientUnits="userSpaceOnUse"
       gradientTransform="matrix(410.172,0,0,-410.172,6036.91,786.63)"
       spreadMethod="pad"
       id="linearGradient268">
      <stop
         style="stop-opacity:1;stop-color:#77aee2"
         offset="0"
         id="stop264" />
      <stop
         style="stop-opacity:1;stop-color:#77aee2"
         offset="1"
         id="stop266" />
    </linearGradient>
  </defs>
  <sodipodi:namedview
     id="namedview4"
     pagecolor="#ffffff"
     bordercolor="#000000"
     borderopacity="0.25"
     inkscape:showpageshadow="2"
     inkscape:pageopacity="0.0"
     inkscape:pagecheckerboard="0"
     inkscape:deskcolor="#d1d1d1" />
  <g
     id="g8"
     inkscape:groupmode="layer"
     inkscape:label="ink_ext_XXXXXX"
     transform="matrix(1.3333333,0,0,-1.3333333,0,1222.04)">
    <g
       id="g10"
       transform="scale(0.1)">
      <path
         d="m 9407.96,5587.77 c 507.61,-144.6 1036.34,149.78 1180.94,657.43 144.6,507.84 -149.8,1036.56 -657.56,1181.09 -507.63,144.59 -1036.51,-149.79 -1181.09,-657.64 -144.48,-507.63 149.93,-1036.37 657.71,-1180.88 m -1700.25,218.72 -138.85,551.7 279.72,137.67 c -0.47,80.95 4.5,162.56 15.16,244.43 l -274.88,146.08 155.77,547.32 344.14,-22.93 c 35.95,63.04 75.42,123.39 118.07,180.86 l -180.87,289.26 408.59,396.01 305.54,-204.48 c 56.46,33.51 114.71,63.91 174.44,91.18 l -12.58,360.14 551.76,138.82 164.96,-335.21 c 63.94,1.79 128.38,0.16 193.05,-4.98 l 170.03,320.1 547.24,-155.82 -24,-361.64 c 61.2,-31.54 120.1,-66.33 176.5,-104.05 l 294.8,184.34 396.1,-408.55 -187.7,-280.35 c 42.4,-63.63 80.8,-129.81 114.8,-198.23 l 319.6,11.22 138.7,-551.73 -272.2,-134.04 c 6.5,-85.94 6.8,-172.98 0.7,-260.5 l 251.5,-133.68 -155.7,-547.16 -270.4,17.93 c -42.1,-88.18 -90.8,-171.87 -145.3,-250.52 l 134.4,-214.8 -408.6,-396.03 -205.9,137.87 c -85.5,-57.5 -175.8,-107.67 -269.7,-150.02 l 8.2,-234.6 -551.7,-138.63 -105.86,215.09 c -103.29,-5.54 -207.94,-2.23 -313.04,10.41 l -109.17,-205.4 -547.3,155.68 16.58,250.24 c -89.68,47.63 -174.36,102.1 -253.33,162.77 l -210.66,-131.65 -395.99,408.41 154.46,230.78 c -47.31,78.88 -88.78,161.2 -123.8,246.37 l -277.28,-9.68"
         style="fill:#cbe6f8;fill-opacity:1;fill-rule:nonzero;stroke:none"
         id="path12" />
      <path
         d="m 9670.36,5133.72 c -124.52,0 -251,17.05 -376.7,52.84 -729.21,207.63 -1152.15,967.05 -944.49,1696.36 171.85,603.64 721.82,997.4 1319.74,997.4 124.47,0 250.97,-17.05 376.59,-52.83 729.3,-207.64 1152.3,-967.2 944.6,-1696.48 -171.8,-603.62 -721.9,-997.29 -1319.74,-997.29 m -1.34,2461.57 c -473.8,0 -909.67,-312 -1045.91,-790.44 -164.45,-577.84 170.68,-1179.7 748.67,-1344.19 99.55,-28.36 199.88,-41.89 298.51,-41.9 473.81,-0.02 909.51,311.96 1045.71,790.23 164.6,578.07 -170.5,1179.91 -748.48,1344.41 -99.56,28.36 -199.87,41.89 -298.5,41.89"
         style="fill:#bcdaf3;fill-opacity:1;fill-rule:nonzero;stroke:none"
         id="path14" />
      <path
         d="m 7289.47,7466.03 c 0,0 51.8,-135.55 796.23,-339.72 415.9,-114.22 673.13,-194.84 800.84,-53.61 218.84,242.15 294.41,1262.1 294.41,1262.1 l -402.36,125.24 c 0,0 -131.71,-700.72 -314.79,-799.89 -42.84,-23.17 -497.29,47.39 -939.91,221.93 -186.95,73.9 -226.12,-364.56 -234.42,-416.05"
         style="fill:#de1d25;fill-opacity:1;fill-rule:nonzero;stroke:none"
         id="path16" />
      <path
         d="m 6146.24,4487.17 c 0,0 -827.57,135.75 -645.36,1343.69 182.21,1207.95 43.79,1340.54 331.13,1686.88 635.54,766.05 1188.08,551.32 1188.08,551.32 l 709.14,-248.58 c 0,0 399.89,-400.01 390.17,-677.65 -9.74,-277.64 -140.06,-1240.98 -91.5,-1451.94 48.56,-210.94 247.68,-915.9 247.68,-915.9 L 6146.24,4487.17"
         style="fill:#ee222d;fill-opacity:1;fill-rule:nonzero;stroke:none"
         id="path18" />
      <path
         d="M 5373.74,997.801 H 12017.7 V 6270.84 H 5373.74 V 997.801"
         style="fill:#eff7fd;fill-opacity:1;fill-rule:nonzero;stroke:none"
         id="path20" />
      <path
         d="m 5373.74,5642.51 h 6643.96 v 628.33 H 5373.74 v -628.33"
         style="fill:#a4c8ec;fill-opacity:1;fill-rule:nonzero;stroke:none"
         id="path22" />
      <path
         d="m 11556.9,5956.49 c 0,-69.2 56.2,-125.68 125.8,-125.68 69.2,0 125.7,56.48 125.7,125.68 0,69.74 -56.5,125.73 -125.7,125.73 -69.6,0 -125.8,-55.99 -125.8,-125.73"
         style="fill:#516dbe;fill-opacity:1;fill-rule:nonzero;stroke:none"
         id="path24" />
      <path
         d="m 11159,5956.49 c 0,-69.2 56.1,-125.68 125.7,-125.68 69.2,0 125.4,56.48 125.4,125.68 0,69.74 -56.2,125.73 -125.4,125.73 -69.6,0 -125.7,-55.99 -125.7,-125.73"
         style="fill:#f8d044;fill-opacity:1;fill-rule:nonzero;stroke:none"
         id="path26" />
      <path
         d="m 10761,5956.49 c 0,-69.2 56.2,-125.68 125.6,-125.68 69.3,0 125.6,56.48 125.6,125.68 0,69.74 -56.3,125.73 -125.6,125.73 -69.4,0 -125.6,-55.99 -125.6,-125.73"
         style="fill:#eff7fd;fill-opacity:1;fill-rule:nonzero;stroke:none"
         id="path28" />
      <path
         d="m 8977.13,8324.91 20.69,304.58 -163,11.09 -20.73,-304.74 163.04,-10.93"
         style="fill:#f6ab7a;fill-opacity:1;fill-rule:nonzero;stroke:none"
         id="path30" />
      <path
         d="m 8911,8520.41 c 0,0 -142.92,123.49 -143.93,176.52 -1.24,52.8 7.38,246.13 7.38,246.13 l 6.64,48.97 c 0,0 56.77,18.59 49.64,-111.06 -7.14,-129.92 29.98,-70.72 29.98,-70.72 l 50.21,111.86 72.03,131.79 24.59,63.07 c 0,0 11.22,37.05 21.23,43.08 29.32,17.25 32.77,-13.19 32.77,-13.19 l -74.42,-255.06 132.13,211.75 c 0,0 21.43,23.83 37.55,16.81 15.36,-6.77 10.29,-15.94 10.29,-15.94 l -92.25,-279.77 80.54,100.56 c 0,0 21.75,22.93 37.67,16.61 17.52,-6.77 22.43,-8.07 22.43,-8.07 l -255.51,-435.13 -48.97,21.79"
         style="fill:#f6ab7a;fill-opacity:1;fill-rule:nonzero;stroke:none"
         id="path32" />
      <path
         d="m 9033.39,8878.46 101.84,142.89 c 0,0 19.1,34.67 38.17,44.38 21.8,11.16 33.27,-8.64 33.27,-8.64 l -131.83,-232.44 -41.45,53.81"
         style="fill:#f6ab7a;fill-opacity:1;fill-rule:nonzero;stroke:none"
         id="path34" />
      <path
         d="m 10815,4970.47 h 928.398 v 67.0508 H 10815 Z"
         style="fill:#445fb5;fill-opacity:1;fill-rule:nonzero;stroke:none"
         id="path36" />
      <path
         d="m 11137.9,4486.05 h 565.199 v 67.0508 H 11137.9 Z"
         style="fill:#a4c8ec;fill-opacity:1;fill-rule:nonzero;stroke:none"
         id="path38" />
      <path
         d="m 11137.9,4324.59 h 322.996 v 67.0508 H 11137.9 Z"
         style="fill:#a4c8ec;fill-opacity:1;fill-rule:nonzero;stroke:none"
         id="path40" />
      <path
         d="m 11137.9,4122.75 h 565.199 v 67.0508 H 11137.9 Z"
         style="fill:#a4c8ec;fill-opacity:1;fill-rule:nonzero;stroke:none"
         id="path42" />
      <path
         d="m 11137.9,3961.28 h 322.996 v 67.0391 H 11137.9 Z"
         style="fill:#a4c8ec;fill-opacity:1;fill-rule:nonzero;stroke:none"
         id="path44" />
      <path
         d="m 11137.9,3759.44 h 565.199 v 67.0469 H 11137.9 Z"
         style="fill:#a4c8ec;fill-opacity:1;fill-rule:nonzero;stroke:none"
         id="path46" />
      <path
         d="m 11137.9,3597.95 h 322.996 v 67.043 H 11137.9 Z"
         style="fill:#a4c8ec;fill-opacity:1;fill-rule:nonzero;stroke:none"
         id="path48" />
      <path
         d="m 10815,4809.01 h 767 v 67.0469 h -767 z"
         style="fill:#445fb5;fill-opacity:1;fill-rule:nonzero;stroke:none"
         id="path50" />
      <g
         id="g52">
        <g
           id="g54"
           clip-path="url(#clipPath58)">
          <path
             d="m 11016.8,4358.11 h -161.5 v 161.47 h 161.5 v -161.47"
             style="fill:url(#linearGradient64);fill-opacity:1;fill-rule:nonzero;stroke:none"
             id="path66" />
        </g>
      </g>
      <g
         id="g68">
        <g
           id="g70"
           clip-path="url(#clipPath74)">
          <path
             d="m 11016.8,3994.8 h -161.5 v 161.47 h 161.5 V 3994.8"
             style="fill:url(#linearGradient80);fill-opacity:1;fill-rule:nonzero;stroke:none"
             id="path82" />
        </g>
      </g>
      <g
         id="g84">
        <g
           id="g86"
           clip-path="url(#clipPath90)">
          <path
             d="m 11016.8,3631.47 h -161.5 v 161.49 h 161.5 v -161.49"
             style="fill:url(#linearGradient96);fill-opacity:1;fill-rule:nonzero;stroke:none"
             id="path98" />
        </g>
      </g>
      <path
         d="m 10747.7,4681.05 h -538.3 v 538.28 h 538.3 v -538.28"
         style="fill:#90ca23;fill-opacity:1;fill-rule:nonzero;stroke:none"
         id="path100" />
      <path
         d="m 10306.9,4919.75 124.6,-124.62 265.9,265.89 -47.4,47.41 -218.5,-218.49 -77.2,77.22 -47.4,-47.41"
         style="fill:#ffffff;fill-opacity:1;fill-rule:nonzero;stroke:none"
         id="path102" />
      <path
         d="m 3395.87,6084.52 c -51.72,595.42 -452.28,1046.98 -1101.94,990.53 -649.69,-56.44 -966.27,-570.31 -914.5,-1165.81 40.33,-464.46 380.02,-597.43 689.88,-958.65 61.34,-71.48 32.64,-375.44 32.64,-375.44 l 812.29,70.58 c 0,0 -80.76,294.47 -32.61,375.41 242.89,409.38 554.63,598.84 514.24,1063.38"
         style="fill:#fabb1c;fill-opacity:1;fill-rule:nonzero;stroke:none"
         id="path104" />
      <path
         d="m 2423.83,4803.23 c -428.2,499.2 -897.64,682.92 -953.41,1324.79 -11.98,138.01 -9.59,272.86 6.84,402.09 -84.14,-181.65 -117.47,-395.38 -97.83,-620.87 40.33,-464.46 380.02,-597.43 689.88,-958.65 61.34,-71.48 32.64,-375.44 32.64,-375.44 l 372.57,32.37 c -5.99,83.71 -20.31,160.36 -50.69,195.71"
         style="fill:#f8a20e;fill-opacity:1;fill-rule:nonzero;stroke:none"
         id="path106" />
      <path
         d="m 2088.02,4573.96 9.74,-111.98 c 16.1,-185.6 179.61,-323.04 365.29,-306.92 l 168.03,14.61 c 185.63,16.16 322.98,179.73 306.85,365.33 l -9.71,111.91 -840.2,-72.95"
         style="fill:#3a52ac;fill-opacity:1;fill-rule:nonzero;stroke:none"
         id="path108" />
      <path
         d="m 1969.19,5974.37 89.31,140.59 143.36,-156.8 114.06,179.22 143.39,-156.81 114.28,179.25 143.41,-156.84 114.46,179.34 113.06,-123.25 51.61,47.34 -174.67,190.42 -114.38,-179.21 -143.44,156.88 -114.28,-179.26 -143.45,156.87 -114.05,-179.21 -143.41,156.85 -138.38,-217.82 59.12,-37.56"
         style="fill:#f1db65;fill-opacity:1;fill-rule:nonzero;stroke:none"
         id="path110" />
      <path
         d="m 2068.76,5845.11 232.18,-533.94 60.74,-699.24 69.77,6.06 -61.72,710.63 -236.74,544.42 -64.23,-27.93"
         style="fill:#f1db65;fill-opacity:1;fill-rule:nonzero;stroke:none"
         id="path112" />
      <path
         d="m 2697.06,5922.06 -139.3,-577.05 61.77,-710.71 69.77,6.07 -60.78,699.32 136.62,565.94 -68.08,16.43"
         style="fill:#f1db65;fill-opacity:1;fill-rule:nonzero;stroke:none"
         id="path114" />
      <path
         d="m 2854.46,4494.32 -525.15,-45.59 -7.53,87.28 525.1,45.6 7.58,-87.29"
         style="fill:#445fb5;fill-opacity:1;fill-rule:nonzero;stroke:none"
         id="path116" />
      <path
         d="m 2721.07,4324.01 -378.05,-32.83 -7.59,87.25 378.07,32.86 7.57,-87.28"
         style="fill:#445fb5;fill-opacity:1;fill-rule:nonzero;stroke:none"
         id="path118" />
      <g
         id="g120">
        <g
           id="g122"
           clip-path="url(#clipPath126)">
          <path
             d="m 4563.38,4763.67 -109.98,759.82 c -139.3,146.79 -317.95,225.01 -499.6,198.79 -350.53,-50.79 -579.65,-470.83 -511.92,-938.33 67.66,-467.54 406.57,-805.25 756.9,-754.66 245.29,35.63 430.86,252.12 497.21,538.73 -70.11,43.17 -120.52,112.19 -132.61,195.65"
             style="fill:#1f3b57;fill-opacity:1;fill-rule:nonzero;stroke:none"
             id="path128" />
          <path
             d="m 3171.73,4325.09 c -13.27,-121.47 114.64,-235.06 285.82,-253.84 l 390.35,-43.15 c 171.22,-18.73 320.85,64.29 334.03,185.85 l 121.99,1107.39 c 13.51,121.46 -114.49,235 -285.66,254 l -390.44,42.89 c -171.17,19 -320.7,-64.36 -334.07,-185.71 L 3171.73,4325.09"
             style="fill:#1f3b57;fill-opacity:1;fill-rule:nonzero;stroke:none"
             id="path130" />
          <path
             d="m 4189.66,3849.66 c 231.6,-100.08 347.41,-68.9 170.57,-143.54 -85.02,-104.09 -1171.97,40.91 -1231.12,175.7 -9.77,22.79 431.48,87.54 433.87,104.37 27.1,195.59 37.62,360.97 -16.99,579.64 2.26,17.11 15.38,30.78 29.02,30.39 82.39,-2.35 165.34,-3.07 248.13,-5.41 13.69,-0.7 175.51,-36.37 139.56,-114.06 -17.7,-213.07 -17.91,-521.02 226.96,-627.09"
             style="fill:#e9d5ae;fill-opacity:1;fill-rule:nonzero;stroke:none"
             id="path132" />
          <path
             d="m 4263.42,4491.05 c 3.69,7.65 7.3,15.57 10.9,23.43 0.89,2.43 2.18,4.63 3.25,7.27 4.32,9.72 8.48,19.79 12.57,30.33 1.13,2.79 2.07,5.46 3.04,8.24 2.88,7.76 5.74,15.61 8.39,23.59 1.55,4.28 3.11,8.81 4.51,13.13 2.17,6.78 4.27,13.57 6.46,20.58 1.52,4.67 2.81,9.48 4.21,14.22 2.59,9.02 4.81,18.12 7.45,27.45 1.64,6.75 3.35,13.66 4.93,20.92 1.55,6.21 3.15,12.75 4.55,19.07 1.38,6.39 2.63,12.93 3.92,19.66 1.1,5.51 2.33,11.12 3.26,16.99 0.84,4.56 1.78,8.99 2.77,13.63 l -0.06,0.21 c 13.45,78.79 -13.32,450.01 -75.91,627.01 -7.63,21.5 -30.47,38.16 -62.34,34.89 -190.99,-21.37 -773.09,5.63 -622.68,-524.72 v -0.53 c 0.33,-1.29 8.82,-46.94 13.33,-67.83 0.39,-1.98 0.82,-3.66 1.29,-5.35 4.69,-21.1 9.69,-41.88 15.29,-61.99 0.45,-1.48 0.69,-2.71 1.13,-3.99 5.69,-20.49 11.72,-40.58 18.34,-60.14 l 0.64,-2.05 c 83.32,-250.03 229.21,-415.07 383.72,-404.29 90.11,6.25 169.15,71.38 228.67,175.94 l 0.21,-0.04 c 0.53,0.93 0.9,1.65 1.23,2.48 4.49,7.92 8.99,16.12 13.18,24.47 1.35,2.51 2.56,5.12 3.75,7.42"
             style="fill:#e9d5ae;fill-opacity:1;fill-rule:nonzero;stroke:none"
             id="path134" />
          <path
             d="m 2099.34,3949.06 c 0,0 -4.13,-254.49 -4.6,-358.41 -0.66,-145.81 4.71,-817.43 30.37,-859.29 45.48,-74.22 299.72,64.92 299.72,64.92 0,0 -113.57,522.28 -116.59,685.8 -2.98,163.46 -58.28,381.84 -56.98,445.97 1.88,109.56 -151.92,21.01 -151.92,21.01"
             style="fill:#e9d5ae;fill-opacity:1;fill-rule:nonzero;stroke:none"
             id="path136" />
          <path
             d="m 3030.16,2368.02 1450.58,12.27 177.37,1658.96 -1721.35,-163.46 93.4,-1507.77"
             style="fill:#f9ba0b;fill-opacity:1;fill-rule:nonzero;stroke:none"
             id="path138" />
          <path
             d="m 4563.62,-2574.36 c -713.34,-111.9 -842.23,-17 -1661.94,100 -77.56,-1.2 -409.73,796.7 -175.91,2901.18 48.18,433.68 376.01,781.99 300.97,1959.18 487.64,9.55 975.08,18.85 1462.74,28.26 -194.18,-1070.11 964.97,-1236.31 74.14,-4988.62"
             style="fill:#f9ba0b;fill-opacity:1;fill-rule:nonzero;stroke:none"
             id="path140" />
          <path
             d="m 4612.4,1933.89 -205.91,1454.48 50.04,586.55 c 34.24,34.18 77.33,56.88 125.64,62.89 l 32.77,4.09 c 127,15.39 241.15,-91.47 255.03,-238.91 l 161.87,-1991.47 -419.44,122.37"
             style="fill:#516dbe;fill-opacity:1;fill-rule:nonzero;stroke:none"
             id="path142" />
          <path
             d="m 2466.91,1723.92 601.72,1309.89 88.35,782.05 c -31.04,33.15 -71.88,57.65 -119.49,67.64 l -32.22,7.02 c -124.88,26.53 -247.59,-55.67 -274.38,-183.54 l -616.61,-1561.51 352.63,-421.55"
             style="fill:#516dbe;fill-opacity:1;fill-rule:nonzero;stroke:none"
             id="path144" />
          <path
             d="m 3904.29,4641.56 c -69.99,43.01 -120.38,112.26 -132.53,195.83 l -110.02,759.67 c -6.66,6.99 -13.72,13.04 -20.56,19.62 l -13.36,1.55 c -171.17,19 -320.7,-64.36 -334.07,-185.71 L 3171.73,4325.09 c -10.35,-93.74 63.96,-182.22 176.92,-226.65 19.46,0.45 38.97,1.56 58.51,4.52 245.1,35.5 430.82,251.92 497.13,538.6"
             style="fill:#1f3b57;fill-opacity:1;fill-rule:nonzero;stroke:none"
             id="path146" />
          <path
             d="m 4582.17,4037.81 -444.83,-8.8 c 0,0 -242.26,-1397.62 -242.26,-1807.61 0,-409.88 279.55,-1528.009 260.94,-2049.759 -18.68,-521.77 -6.5,-2500.601 -6.5,-2500.601 h 792.11 c 0,0 127.43,2631.05 -170.71,3637.31 -237.9,803.04 -188.75,2729.46 -188.75,2729.46"
             style="fill:#516dbe;fill-opacity:1;fill-rule:nonzero;stroke:none"
             id="path148" />
          <path
             d="m 4137.34,4029.01 223.61,18.67 -0.72,-341.56 -129.72,-161.62 55.91,-167.68 -186.34,-745.41 V 1159.3 c 0,0 -242.23,1304.33 -167.71,1565.28 74.53,260.88 204.97,1304.43 204.97,1304.43"
             style="fill:#395fb5;fill-opacity:1;fill-rule:nonzero;stroke:none"
             id="path150" />
          <path
             d="m 3391.96,3935.83 -455.2,-60.04 c 0,0 63.89,-1337.5 82.54,-1728.86 18.61,-391.31 -205,-1099.51 -335.43,-1565.34 -228.87,-817.141 -238.59,-2814.55 -238.59,-2814.55 0,0 480.07,-96 1056.18,-96 0,0 132.7,1252.1 114.09,3152.812 -18.62,1900.728 -223.59,3111.978 -223.59,3111.978"
             style="fill:#516dbe;fill-opacity:1;fill-rule:nonzero;stroke:none"
             id="path152" />
          <path
             d="m 3503.77,3991.78 186.31,-1267.2 -93.15,-2012.529 -149.07,2142.989 -186.32,465.87 55.91,167.71 -93.23,93.19 74.61,409.97 h 204.94"
             style="fill:#395fb5;fill-opacity:1;fill-rule:nonzero;stroke:none"
             id="path154" />
          <path
             d="M 3436.22,3448.72 4953.64,3600.46 4435.53,1625.15 3037.91,1476.1 3436.22,3448.72"
             style="fill:#1f3b57;fill-opacity:1;fill-rule:nonzero;stroke:none"
             id="path156" />
          <path
             d="m 4864.11,1923.29 c -222.09,266.49 -488.71,662.66 -666.84,852.5 -120.8,128.73 -102.67,-82.14 -102.67,-82.14 l 580.89,-975.49 c 0,0 374.94,-18.43 188.62,205.13"
             style="fill:#e9d5ae;fill-opacity:1;fill-rule:nonzero;stroke:none"
             id="path158" />
          <path
             d="m 4937.62,2044.79 c 0,0 240.29,-323.07 23.75,-442.73 -122.91,-67.95 -221.73,-25.28 -292.47,73.72 -131.38,183.82 -270.27,399.43 -270.27,399.43 l 234.08,306.34 304.91,-336.76"
             style="fill:#516dbe;fill-opacity:1;fill-rule:nonzero;stroke:none"
             id="path160" />
          <path
             d="m 4176.75,2892.14 -94.86,127.73 -144.25,134.47 c 0,0 -18.42,-20.17 3.95,-53.43 22.37,-33.25 106.39,-131 106.39,-131 l 41.25,-68.66 8.35,-13.91 c 0,0 58.6,-60.21 79.17,4.8"
             style="fill:#e9d5ae;fill-opacity:1;fill-rule:nonzero;stroke:none"
             id="path162" />
          <path
             d="m 4100.46,2918.3 c 0,0 1.03,-43.8 -8.53,-46.94 -9.57,-3.13 -22.9,11.91 -43.58,28.07 -20.68,16.15 -81.62,66.76 -81.62,66.76 l -94.5,57.24 c 0,0 -10.49,-25.77 0.76,-39.72 15.91,-19.75 75.51,-72.92 75.51,-72.92 l 85.25,-90.29 c 0,0 69.26,-54.93 77.01,-40.04 7.75,14.9 0.93,37.38 15.89,45.81 14.96,8.44 49.44,39.17 -26.19,92.03"
             style="fill:#e9d5ae;fill-opacity:1;fill-rule:nonzero;stroke:none"
             id="path164" />
          <path
             d="m 3995.01,2824.43 -51.08,48.18 c 0,0 -59.85,44.63 -64.28,36.12 -4.42,-8.51 -4.42,-8.51 -4.42,-8.51 0,0 12.37,-18.59 29.99,-39.93 6.68,-8.1 37.27,-42.7 45.24,-50.55 28.97,-28.58 52.01,-73.01 57.46,-75.84 5.45,-2.83 73.61,-0.42 -12.91,90.53"
             style="fill:#e9d5ae;fill-opacity:1;fill-rule:nonzero;stroke:none"
             id="path166" />
          <path
             d="m 4213.38,2881.21 2.05,125.99 -78.67,143.64 c 0,0 -19.52,-22.29 -2.82,-71.53 16.71,-49.24 16.57,-54.57 21.71,-59.95 5.14,-5.37 -15.83,-86.39 -15.83,-86.39 0,0 67.63,-78.41 73.56,-51.76"
             style="fill:#e9d5ae;fill-opacity:1;fill-rule:nonzero;stroke:none"
             id="path168" />
          <path
             d="m 4116.51,2842.36 65.06,74.31 c 0,0 41.05,-2.42 39.08,-82.5 -0.71,-28.48 -0.06,-56.3 1.07,-80.33 2.04,-43.5 5.64,-74.56 5.64,-74.56 0,0 -20.18,-48.98 -53.87,-47.68 -33.7,1.3 -87.5,-0.47 -125.67,32.9 -38.18,33.36 -56.06,92.24 -61.57,110.41 -6.56,21.62 26.98,12.97 40.6,22.15 16.71,11.25 16.04,37.99 29.48,41.44 24.39,6.24 60.18,3.86 60.18,3.86"
             style="fill:#e9d5ae;fill-opacity:1;fill-rule:nonzero;stroke:none"
             id="path170" />
          <path
             d="m 2058.42,3255.77 c 0,0 323.88,32.23 355.22,-99.75 31.29,-132.04 222.03,-1197.35 74.83,-1389.76 -186.53,-243.78 -392.85,14.58 -445.58,70.46 -52.72,55.86 15.53,1419.05 15.53,1419.05"
             style="fill:#516dbe;fill-opacity:1;fill-rule:nonzero;stroke:none"
             id="path172" />
          <path
             d="m 2042.66,4096.55 v 361.39 l 267.12,141.42 109.99,-94.28 -31.42,-188.55 -157.13,-94.28 20.04,-294.2 -151.92,21.01 -56.68,147.49"
             style="fill:#e9d5ae;fill-opacity:1;fill-rule:nonzero;stroke:none"
             id="path174" />
          <path
             d="m 4283.03,2945.44 -13.55,-53.73 -49.11,-156.13 -15.4,131.33 c 0,0 73.27,104.27 78.06,78.53"
             style="fill:#e9d5ae;fill-opacity:1;fill-rule:nonzero;stroke:none"
             id="path176" />
          <path
             d="m 2368.7,4438.31 176.77,-78.57 c 0,0 -15.71,-35.35 -86.42,-11.79 -70.7,23.57 -113.92,51.07 -113.92,51.07 l 23.57,39.29"
             style="fill:#e9d5ae;fill-opacity:1;fill-rule:nonzero;stroke:none"
             id="path178" />
          <path
             d="m 2384.42,4509.01 98.2,-58.93 c 0,0 -24.28,-36.15 -84.81,-20.04 -60.53,16.12 -13.39,78.97 -13.39,78.97"
             style="fill:#e9d5ae;fill-opacity:1;fill-rule:nonzero;stroke:none"
             id="path180" />
          <path
             d="m 2345.13,4399.02 141.41,-90.34 c 0,0 -19.63,-39.29 -51.06,-27.5 -31.43,11.78 -106.06,70.7 -106.06,70.7 l 15.71,47.14"
             style="fill:#e9d5ae;fill-opacity:1;fill-rule:nonzero;stroke:none"
             id="path182" />
        </g>
      </g>
      <path
         d="m 1079.52,0 h 10181.7 V 56.4609 H 1079.52 Z"
         style="fill:#8fb0e1;fill-opacity:1;fill-rule:nonzero;stroke:none"
         id="path184" />
      <path
         d="m 6856.71,3552.5 c 187.76,-53.51 383.38,55.38 436.83,243.15 53.49,187.85 -55.44,383.41 -243.23,436.86 -187.76,53.5 -383.36,-55.41 -436.85,-243.26 -53.44,-187.75 55.5,-383.33 243.25,-436.75 z m -792.2,22.44 -62.89,250.09 126.78,62.44 c -0.2,36.67 2.04,73.64 6.87,110.72 l -124.54,66.18 70.57,247.98 155.94,-10.37 c 16.3,28.54 34.18,55.9 53.49,81.94 l -81.94,131.1 185.1,179.45 138.51,-92.7 c 25.57,15.18 51.94,28.97 78.99,41.32 l -5.73,163.19 250,62.84 74.73,-151.82 c 28.99,0.8 58.19,0.07 87.51,-2.24 l 77.1,145.03 247.96,-70.6 -10.89,-163.9 c 27.74,-14.3 54.42,-30.05 79.97,-47.14 l 133.64,83.53 179.43,-185.12 -85.05,-127.02 c 19.2,-28.82 36.58,-58.8 52.03,-89.8 l 144.83,5.08 62.91,-250.03 -123.42,-60.73 c 2.94,-38.94 3.07,-78.35 0.34,-118.01 l 113.97,-60.52 -70.61,-247.99 -122.46,8.09 c -19.09,-39.95 -41.14,-77.87 -65.82,-113.49 l 60.82,-97.29 -185.1,-179.44 -93.32,62.44 c -38.76,-26.07 -79.65,-48.8 -122.22,-67.97 l 3.72,-106.26 -250.03,-62.98 -48,97.58 c -46.77,-2.49 -94.17,-1.02 -141.76,4.74 l -49.51,-93.23 -247.97,70.55 7.56,113.52 c -40.66,21.56 -78.99,46.24 -114.78,73.71 l -95.51,-59.67 -179.44,185.12 70.01,104.59 c -21.43,35.7 -40.19,72.97 -56.05,111.53 l -125.74,-4.44"
         style="fill:#a4c8ec;fill-opacity:1;fill-rule:nonzero;stroke:none"
         id="path186" />
      <path
         d="m 6834.91,3475.89 c 230.07,-65.51 469.66,67.86 535.15,297.94 65.56,230.07 -67.91,469.72 -297.93,535.22 -230.1,65.49 -469.66,-67.97 -535.17,-298.03 -65.53,-230.07 67.91,-469.63 297.95,-535.13 z m 268.25,942.23 c 290.32,-82.66 458.7,-384.97 376.05,-675.32 -82.67,-290.32 -385.02,-458.63 -675.34,-375.96 -290.27,82.63 -458.64,384.94 -375.97,675.26 82.65,290.36 385,458.67 675.26,376.02"
         style="fill:#cbe6f8;fill-opacity:1;fill-rule:nonzero;stroke:none"
         id="path188" />
      <path
         d="m 10220.9,27.5586 c 18.1,88.0504 33.4,184.5504 45.2,290.6794 144.1,1296.472 293.6,1803.862 139.6,2142.682 -108.3,238.29 -616.01,677.65 -616.01,677.65 l -523.29,-54.51 c 0,0 -421.31,-284.24 -575.31,-869.48 -45.83,-174.16 25.05,-1659.92 51.93,-2187.0214 h 1477.88"
         style="fill:#445fb5;fill-opacity:1;fill-rule:nonzero;stroke:none"
         id="path190" />
      <path
         d="m 7719.24,2446.58 -136.27,640.57 -25.06,117.81 c 0,0 -303.04,-72.68 -367.72,-248.42 -64.67,-175.75 237.35,-612.79 310.53,-660.97 73.19,-48.18 218.52,151.01 218.52,151.01"
         style="fill:#f6ab7a;fill-opacity:1;fill-rule:nonzero;stroke:none"
         id="path192" />
      <path
         d="m 7276.51,3367.55 -222.9,-304.08 120.09,-209.5 384.21,350.99 -281.4,162.59"
         style="fill:#ed8656;fill-opacity:1;fill-rule:nonzero;stroke:none"
         id="path194" />
      <path
         d="m 9412.51,2684.2 c 0,0 541.46,53.94 449.04,-716.11 C 9842.14,1806.27 9396.56,1225.95 9101.26,949.691 8805.96,673.449 8574.15,464.672 8348.3,645.859 7559.76,1278.47 7370.33,2239.64 7370.33,2239.64 l 454.3,384.23 c 0,0 796.28,-836.18 800.92,-958.33 4.65,-122.14 514.33,682.12 786.96,1018.66"
         style="fill:#3a52ac;fill-opacity:1;fill-rule:nonzero;stroke:none"
         id="path196" />
      <path
         d="m 9815.33,4481.69 c 0,0 -343.96,0.7 -439.36,139.88 -95.29,139.16 214.17,69.72 64.71,-11.84 -149.5,-81.52 -450.39,114.48 -352.45,264.93 98.05,150.44 236.44,206.6 356.62,103.13 120.17,-103.47 10.69,-146.56 -29.7,-52.22 -40.35,94.33 173.3,296.85 310.22,-30.23 136.93,-327.06 46.06,-343.38 7.94,-131.42 -38.05,211.97 104.62,331.36 181.14,79.44 76.53,-251.96 -84,-358.94 -111.94,-246.78 -28.02,112.21 310.89,313.77 317.39,103.92 6.4,-209.82 4.5,-460.26 -153.76,-449.6 -158.2,10.66 257.76,522.98 363.36,65.3 105.7,-457.74 -173.3,-296.85 -175.8,-195.72 -2.5,101.14 523.9,-132.48 90.3,-241.66 -433.64,-109.14 -259.94,54.91 -286.53,159.52 -26.59,104.63 340.13,-196.77 109.93,-394.44 -230.22,-197.62 -428.19,-139.44 -366.47,82.62 61.66,222.09 289.78,83.34 197.2,-97.36 -92.58,-180.8 15.2,-302.09 58.49,-325.59 43.27,-23.45 -304.34,-132.78 -353.52,53.75 -49.08,186.54 -61.71,1082.98 212.23,1124.37"
         style="fill:#212a50;fill-opacity:1;fill-rule:nonzero;stroke:none"
         id="path198" />
      <path
         d="m 9094.75,4360.04 6.4,94.93 215.8,234.15 c 0,0 7.41,-84.64 316.84,-154.1 461.31,-103.53 41.57,-187.89 -0.12,-390.78 -22.82,-110.85 -6.21,-193.28 23.63,-230.99 -114.23,-163.18 -248.55,-300.06 -388.08,-396.86 -0.51,4.73 -0.79,7.39 -0.79,7.39 0,0 0,0 -207.92,-60.77 -207.89,-60.78 -159.94,151 -159.94,151 l 69.6,395.43 -63.69,137.05 188.27,213.55"
         style="fill:#f6ab7a;fill-opacity:1;fill-rule:nonzero;stroke:none"
         id="path200" />
      <path
         d="m 9094.75,4360.04 6.4,94.93 215.8,234.15 c 0,0 7.41,-84.64 316.84,-154.11 461.31,-103.51 41.57,-187.88 -0.12,-390.76 -41.7,-202.83 48.18,-311.73 110.28,-222.42 62.13,89.32 228.7,119.24 294.45,13.85 65.9,-105.41 -172.46,-257.65 -224.15,-274.73 -51.63,-17.13 -86.01,0.17 -86.01,0.17 0,0 120.76,-511.14 184.59,-764.05 -54.83,-29.44 -445.79,-13.45 -591.36,69.29 1.32,210.34 -53.04,557.41 -53.04,557.41 0,0 0,0 -207.92,-60.75 -207.9,-60.79 -159.94,150.99 -159.94,150.99 l 69.61,395.43 -63.7,137.06 188.27,213.54"
         style="fill:#f6ab7a;fill-opacity:1;fill-rule:nonzero;stroke:none"
         id="path202" />
      <path
         d="m 6432.41,5059.22 525.36,-136.81 96.61,-25.15 c 0,0 -72.31,-245.23 -220.52,-291.25 -148.2,-46.02 -498.29,218.45 -535.3,280.26 -37.01,61.82 133.85,172.95 133.85,172.95"
         style="fill:#f6ab7a;fill-opacity:1;fill-rule:nonzero;stroke:none"
         id="path204" />
      <path
         d="m 7177.89,4660.47 -260.86,-170.48 -168.81,106.56 306.16,300.71 123.51,-236.79"
         style="fill:#ed8656;fill-opacity:1;fill-rule:nonzero;stroke:none"
         id="path206" />
      <path
         d="m 6394.48,6834.81 c 0,0 61.6,739.25 -390.16,780.32 -134.64,12.24 -369.63,-308.02 -533.9,-657.11 -142.02,-301.76 -646.17,-1120.81 -505.04,-1312.85 492.74,-670.48 1281.64,-863.44 1281.64,-863.44 l 336.5,356.78 c 0,0 -661.12,684.84 -762.15,693.46 -101.02,8.61 448.4,653.74 573.11,1002.84"
         style="fill:#de1d25;fill-opacity:1;fill-rule:nonzero;stroke:none"
         id="path208" />
      <path
         d="m 6749.23,8333.85 c -85.47,-112.53 -239.42,-314.68 -331.29,-432.23 31.97,-40.06 334.68,-155.86 472.81,-141.25 47.85,110.6 138.23,262.14 188.57,343.79 l -330.09,229.69"
         style="fill:#f6ab7a;fill-opacity:1;fill-rule:nonzero;stroke:none"
         id="path210" />
      <path
         d="m 7213.75,7986.25 c -4.69,-60.58 -57.62,-105.57 -117.93,-100.82 l -492.39,39.2 c -60.24,4.68 -105.35,57.68 -100.64,118.11 l 58.11,729.1 c 4.61,60.34 57.58,105.52 118.14,100.77 l 492.1,-39.45 c 60.39,-4.64 105.42,-57.45 100.71,-117.96 l -58.1,-728.95"
         style="fill:#f6ab7a;fill-opacity:1;fill-rule:nonzero;stroke:none"
         id="path212" />
      <path
         d="m 7260.55,8564.89 c 0,0 71.68,65.17 87.27,107.72 7.94,21.35 -6.79,105.94 -58.98,142.25 -52.22,36.16 -102.34,-19.36 -102.34,-19.36 0,0 83.41,-55.56 86.5,-74.11 3.09,-18.72 -12.45,-156.5 -12.45,-156.5"
         style="fill:#1f3b57;fill-opacity:1;fill-rule:nonzero;stroke:none"
         id="path214" />
      <path
         d="m 6484.63,8447.88 c 0,0 -52.01,286 -31.94,366.92 20.32,81.18 33.97,137.27 134.78,138.42 151.1,1.58 150.5,-30.35 227.04,9.54 76.52,39.56 216.43,139.01 262.34,146.33 76.77,12.37 192.34,-22.12 185.68,-163.82 -4.9,-104.6 58.91,-135.33 56.74,-139.14 -6.91,-12.19 -35.2,-21.97 -84.79,-42.02 -142.34,-57.51 -225.43,-64.66 -327.92,-28.9 -102.81,35.63 -293.1,110.46 -322.09,34.77 -28.96,-75.67 -38.74,-313.39 -49.16,-330.87 -10.77,-17.53 -33.48,-6.6 -50.68,8.77"
         style="fill:#234465;fill-opacity:1;fill-rule:nonzero;stroke:none"
         id="path216" />
      <path
         d="m 6622.28,8216.6 c -1.69,-20.12 -19.4,-35.15 -39.46,-33.56 l -106.29,8.54 c -20.16,1.48 -35.17,19.26 -33.66,39.29 l 15.44,194.36 c 1.76,20.15 19.27,35.33 39.41,33.77 l 106.34,-8.62 c 20.26,-1.66 35.18,-19.24 33.45,-39.22 l -15.23,-194.56"
         style="fill:#f6ab7a;fill-opacity:1;fill-rule:nonzero;stroke:none"
         id="path218" />
      <path
         d="m 7256.26,8166.39 c -1.5,-20.38 -19.19,-35.35 -39.21,-33.7 l -106.26,8.4 c -20.23,1.61 -35.28,19.26 -33.69,39.53 l 15.56,194.3 c 1.59,19.95 19.16,35.21 39.27,33.56 l 106.42,-8.37 c 20.04,-1.73 35.06,-19.48 33.43,-39.49 l -15.52,-194.23"
         style="fill:#f6ab7a;fill-opacity:1;fill-rule:nonzero;stroke:none"
         id="path220" />
      <path
         d="m 6526.7,8380.08 c 0,0 -22.87,-286.88 -30.5,-382.63 -6.92,-86.57 12.57,-279.26 501.36,-317.91 289.28,-23.28 295.71,190.24 301.2,260.18 4.23,53.15 -43.29,217.24 -71.38,250.2 -0.98,1.01 -9.49,-118.5 -9.49,-118.5 0,0 -51.03,120.18 -188.5,131.11 -221.89,17.74 -282.64,-108.14 -380.24,-98.09 -75.26,7.82 -121.92,134.94 -122.45,275.64"
         style="fill:#234465;fill-opacity:1;fill-rule:nonzero;stroke:none"
         id="path222" />
      <path
         d="m 6923.21,8021.46 151.83,-12.02 c 20.09,-1.69 37.67,13.37 39.36,33.64 l 1.67,21.29 -224.82,17.72 -1.66,-21.23 c -1.51,-20.13 13.47,-37.77 33.62,-39.4"
         style="fill:#f6ab7a;fill-opacity:1;fill-rule:nonzero;stroke:none"
         id="path224" />
      <path
         d="m 6635.02,2282.21 h 489.012 v 85.1602 H 6635.02 Z"
         style="fill:#445fb5;fill-opacity:1;fill-rule:nonzero;stroke:none"
         id="path226" />
      <path
         d="m 6635.02,2077.12 h 403.992 v 85.1602 H 6635.02 Z"
         style="fill:#445fb5;fill-opacity:1;fill-rule:nonzero;stroke:none"
         id="path228" />
      <path
         d="m 6447.08,2017.15 h -410.17 v 410.19 h 410.17 v -410.19"
         style="fill:#688ed1;fill-opacity:1;fill-rule:nonzero;stroke:none"
         id="path230" />
      <path
         d="m 6635.02,1564.39 h 489.012 v 85.1602 H 6635.02 Z"
         style="fill:#a4c8ec;fill-opacity:1;fill-rule:nonzero;stroke:none"
         id="path232" />
      <path
         d="m 6635.02,1359.33 h 403.992 v 85.1602 H 6635.02 Z"
         style="fill:#a4c8ec;fill-opacity:1;fill-rule:nonzero;stroke:none"
         id="path234" />
      <g
         id="g236">
        <g
           id="g238"
           clip-path="url(#clipPath242)">
          <path
             d="m 6447.08,1299.36 h -410.17 v 410.16 h 410.17 v -410.16"
             style="fill:url(#linearGradient248);fill-opacity:1;fill-rule:nonzero;stroke:none"
             id="path250" />
        </g>
      </g>
      <path
         d="m 6635.02,846.609 h 489.012 v 85.1523 H 6635.02 Z"
         style="fill:#a4c8ec;fill-opacity:1;fill-rule:nonzero;stroke:none"
         id="path252" />
      <path
         d="m 6635.02,641.52 h 403.992 v 85.1602 H 6635.02 Z"
         style="fill:#a4c8ec;fill-opacity:1;fill-rule:nonzero;stroke:none"
         id="path254" />
      <g
         id="g256">
        <g
           id="g258"
           clip-path="url(#clipPath262)">
          <path
             d="m 6447.08,581.539 h -410.17 v 410.18 h 410.17 v -410.18"
             style="fill:url(#linearGradient268);fill-opacity:1;fill-rule:nonzero;stroke:none"
             id="path270" />
        </g>
      </g>
      <path
         d="M 5917.34,1931.73 H 5233.7 v 683.67 h 683.64 v -683.67"
         style="fill:#90ca23;fill-opacity:1;fill-rule:nonzero;stroke:none"
         id="path272" />
      <path
         d="m 5357.39,2217.77 158.3,-158.28 337.73,337.74 -60.21,60.22 -277.52,-277.53 -98.08,98.07 -60.21,-60.22"
         style="fill:#ffffff;fill-opacity:1;fill-rule:nonzero;stroke:none"
         id="path274" />
    </g>
  </g>
</svg>
