<?xml version="1.0" encoding="UTF-8" standalone="no"?>
<!-- Created with Inkscape (http://www.inkscape.org/) -->

<svg
   version="1.1"
   id="svg2"
   width="1681.7333"
   height="1285.3333"
   viewBox="0 0 1681.7333 1285.3333"
   sodipodi:docname="reshot-illustration-positive-customer-feedback-EMUSG9D7T4.eps"
   xmlns:inkscape="http://www.inkscape.org/namespaces/inkscape"
   xmlns:sodipodi="http://sodipodi.sourceforge.net/DTD/sodipodi-0.dtd"
   xmlns="http://www.w3.org/2000/svg"
   xmlns:svg="http://www.w3.org/2000/svg">
  <defs
     id="defs6" />
  <sodipodi:namedview
     id="namedview4"
     pagecolor="#ffffff"
     bordercolor="#000000"
     borderopacity="0.25"
     inkscape:showpageshadow="2"
     inkscape:pageopacity="0.0"
     inkscape:pagecheckerboard="0"
     inkscape:deskcolor="#d1d1d1" />
  <g
     id="g8"
     inkscape:groupmode="layer"
     inkscape:label="ink_ext_XXXXXX"
     transform="matrix(1.3333333,0,0,-1.3333333,0,1285.3333)">
    <g
       id="g10"
       transform="scale(0.1)">
      <path
         d="M 3905.56,9380.8 C 2362.22,8481.63 4104.68,7057.7 4683,7884.84 c 903.56,1292.35 1115.17,62.39 1412.99,498.49 542.16,793.86 -956.16,1716.57 -2190.43,997.47"
         style="fill:#f5f6f5;fill-opacity:1;fill-rule:nonzero;stroke:none"
         id="path12" />
      <path
         d="M 12609.6,5887.75 C 12742.6,9094.41 8979.27,10623.3 6554.78,8365.66 5022.48,6938.84 4291.87,7059.27 3482.9,7179.69 3011.88,7249.81 2514.29,7319.93 1816.42,7084.62 -70.5234,6448.38 -1368.81,3703.81 2543.28,1473.8 6455.38,-756.199 12469.4,2509.98 12609.6,5887.75"
         style="fill:#f5f6f5;fill-opacity:1;fill-rule:nonzero;stroke:none"
         id="path14" />
      <path
         d="m 5049.99,8714.95 5206.11,-0.76 V 902.98 L 5049.99,902.219 V 8714.95"
         style="fill:#ffffff;fill-opacity:1;fill-rule:nonzero;stroke:none"
         id="path16" />
      <path
         d="m 5049.99,8714.95 5206.11,-0.07 v -730.56 l -5206.11,-0.08 v 730.71"
         style="fill:#3a44a2;fill-opacity:1;fill-rule:nonzero;stroke:none"
         id="path18" />
      <path
         d="m 6291.44,6897.13 3391.1,-0.64 c 116.92,-0.02 211.68,-97.64 211.68,-218.05 V 1772 c 0,-120.42 -94.76,-218.04 -211.68,-218.05 l -3391.1,-0.64 c -116.93,-0.02 -211.75,97.62 -211.75,218.07 v 4907.69 c 0,120.44 94.82,218.08 211.75,218.06"
         style="fill:#fabbd1;fill-opacity:1;fill-rule:nonzero;stroke:none"
         id="path20" />
      <path
         d="m 5564.26,7575.35 v -0.69 l 1876.86,0.6 v -0.69 l 1876.83,0.61 c 29.21,0 52.88,-23.62 52.88,-52.83 v -0.69 l 0.04,-5226.34 c 0,-29.21 -23.69,-52.92 -52.87,-52.92 v -0.68 l -3753.7,0.52 c -14,-0.04 -27.45,5.49 -37.37,15.45 -9.96,9.98 -15.5,23.41 -15.5,37.46 v -0.69 l -0.06,5228.06 c 0.01,29.21 23.73,52.78 52.89,52.83 29.2,0 52.86,-23.67 52.86,-52.83 v -0.69 l 0.05,-5226.72 -52.87,52.82 3753.7,0.22 -52.85,-52.92 -0.04,5227.07 52.84,-52.86 -1876.83,0.08 v -0.69 l -1876.86,0.79 c -29.19,0 -52.89,23.69 -52.89,52.9 0.01,29.21 23.73,52.78 52.89,52.83"
         style="fill:#3a44a2;fill-opacity:1;fill-rule:nonzero;stroke:none"
         id="path22" />
      <path
         d="m 8326.86,6731.21 c 125.37,-162.12 250.7,-324.33 258.25,-465.88 7.53,-141.56 -102.74,-262.37 -213,-383.23 -496.64,-23.32 -993.26,-46.64 -1369.14,-46.64 -200.27,0 -366.26,6.62 -479.7,23.37 -326.36,48.18 -217.81,180.2 -30.4,265.28 187.39,85.08 453.71,123.48 645.02,210.06 191.3,86.58 307.52,221.52 423.75,356.5 131.21,-77.86 262.41,-155.77 385.63,-155.77 5.01,0 10,0.13 15.01,0.39 127.53,6.74 246.04,101.31 364.58,195.92"
         style="fill:#3a44a2;fill-opacity:1;fill-rule:nonzero;stroke:none"
         id="path24" />
      <path
         d="m 7372.98,6292.59 c -7.6,-23.44 -15.18,-46.89 -30.5,-46.89 -4.72,0 -10.19,2.23 -16.62,7.39 -27.27,21.85 -71.86,96.28 -116.46,170.75 9.53,22.89 19.02,45.82 35.04,45.82 5.02,0 10.67,-2.22 17.18,-7.46 27.22,-21.91 69.3,-95.74 111.36,-169.61"
         style="fill:#ffffff;fill-opacity:1;fill-rule:nonzero;stroke:none"
         id="path26" />
      <path
         d="m 7507.08,6413.53 c -7.62,-23.45 -15.22,-46.89 -30.53,-46.89 -4.74,0 -10.2,2.23 -16.62,7.38 -27.25,21.87 -71.83,96.38 -116.41,170.84 9.49,22.95 18.94,45.83 34.92,45.83 5.02,0 10.71,-2.27 17.23,-7.56 27.25,-21.99 69.33,-95.81 111.41,-169.6"
         style="fill:#ffffff;fill-opacity:1;fill-rule:nonzero;stroke:none"
         id="path28" />
      <path
         d="m 6407.48,6077.65 c -22.08,-13.7 -40.31,-27.62 -54.65,-41.7 25.06,-21.99 53.96,-39.73 86.73,-53.35 82.92,-28.99 142.81,-44.58 179.7,-46.73 49,-7.6 107.62,-13.17 175.77,-17.01 59.25,-3.52 135.7,-5.23 229.35,-5.23 35.94,0 74.38,0.21 115.35,0.77 2.91,-0.04 5.59,-0.04 8.12,-0.04 43.39,0 171.04,4.08 382.94,12.11 145.23,4.8 454.3,22.42 927.28,53 20.33,23.62 37.98,46.38 52.87,68.37 l -1.42,-0.22 c -504.33,-32.29 -831.27,-50.85 -980.81,-55.78 -211.52,-8.08 -338.23,-12.07 -380.21,-12.12 -2.79,0 -5.25,0 -7.27,0.05 -41.81,-0.52 -80.69,-0.81 -116.68,-0.77 -92.27,0.03 -167.53,1.75 -225.78,5.15 -67.16,3.73 -124.72,9.32 -172.64,16.66 l -3.09,0.34 c -30.59,1.81 -83.32,15.72 -158.27,41.79 -21.98,9.11 -41.07,20.66 -57.29,34.71"
         style="fill:#ffffff;fill-opacity:1;fill-rule:nonzero;stroke:none"
         id="path30" />
      <path
         d="m 6121.88,4719.7 v -0.09 0.09 l 933.7,-0.09 c 35.61,-0.04 64.49,-28.99 64.49,-64.47 0,-35.64 -28.91,-64.51 -64.49,-64.42 v -0.09 l -933.72,0.27 c -35.56,-0.22 -64.48,28.68 -64.48,64.24 0.05,35.64 28.9,64.47 64.5,64.56 v -0.09 0.09"
         style="fill:#3a44a2;fill-opacity:1;fill-rule:nonzero;stroke:none"
         id="path32" />
      <path
         d="m 6121.67,4368.91 v 0 l 2662.54,-0.1 c 35.58,0 64.44,-28.86 64.44,-64.45 0,-35.62 -28.86,-64.48 -64.44,-64.48 l -2662.54,0.09 c -35.58,0 -64.44,28.87 -64.44,64.46 0,35.61 28.86,64.48 64.44,64.48"
         style="fill:#3a44a2;fill-opacity:1;fill-rule:nonzero;stroke:none"
         id="path34" />
      <path
         d="m 6121.68,4035.89 v 0 l 1996.81,-0.09 c 35.58,0 64.44,-28.82 64.44,-64.42 0,-35.61 -28.86,-64.43 -64.44,-64.43 l -1996.81,0.09 c -35.58,0 -64.43,28.82 -64.43,64.42 0,35.61 28.85,64.43 64.43,64.43"
         style="fill:#3a44a2;fill-opacity:1;fill-rule:nonzero;stroke:none"
         id="path36" />
      <path
         d="m 7747.01,3962.31 -24.63,-0.68 v 0.68 l 24.63,-0.68 v 0.68"
         style="fill:#86d8ef;fill-opacity:1;fill-rule:nonzero;stroke:none"
         id="path38" />
      <path
         d="m 8692.69,4141.92 v -0.08 0.08 c -1.8,0.56 -3.7,0.81 -5.59,0.81 -7.76,0.1 -14.81,-4.24 -17.93,-10.98 l -51.57,-110.76 -127.1,-5.59 c -8.36,-0.39 -15.45,-5.8 -17.75,-13.57 -2.36,-7.56 0.74,-15.89 7.43,-20.49 l 108.66,-73.73 -48.38,-148 c -2.55,-8.13 0.66,-16.96 8.14,-21.4 1.41,-0.98 3.01,-1.63 4.59,-2.15 6.49,-1.88 13.71,-0.5 18.9,3.97 l 111.69,98.55 138.2,-104.44 c 1.85,-1.55 3.98,-2.54 6.12,-3.14 5.89,-1.71 12.52,-0.81 17.65,2.96 7,5.24 9.58,14.35 6.01,22.21 l -64.25,146.03 97.07,78.76 c 3.31,2.66 5.68,6.4 6.54,10.82 1.8,9.27 -3.88,18.38 -13.3,21.39 -1.85,0.42 -3.7,0.78 -5.62,0.78 l -0.13,0.07 -119.56,7.65 -47.78,109.51 c -2.26,5.25 -6.67,9.16 -12.04,10.74 v -0.69 0.69"
         style="fill:#3a44a2;fill-opacity:1;fill-rule:nonzero;stroke:none"
         id="path40" />
      <path
         d="m 1112.38,3520.29 c -411.064,0 -745.462,-334.4 -745.462,-745.5 0,-411 334.398,-745.41 745.462,-745.41 411.05,0 745.45,334.41 745.45,745.41 0,411.1 -334.4,745.5 -745.45,745.5 z m 0,-1536.36 c -436.091,0 -790.911,354.81 -790.911,790.86 0,436.14 354.82,790.95 790.911,790.95 436.08,0 790.9,-354.81 790.9,-790.95 0,-436.05 -354.82,-790.86 -790.9,-790.86"
         style="fill:#3a44a2;fill-opacity:1;fill-rule:nonzero;stroke:none"
         id="path42" />
      <path
         d="M 617.23,2540.95 H 500.031 L 71.1797,3730.17 H 188.383 L 617.23,2540.95"
         style="fill:#bec3e8;fill-opacity:1;fill-rule:nonzero;stroke:none"
         id="path44" />
      <path
         d="M 942.195,2540.95 H 825 L 396.141,3730.17 H 513.348 L 942.195,2540.95"
         style="fill:#bec3e8;fill-opacity:1;fill-rule:nonzero;stroke:none"
         id="path46" />
      <path
         d="m 1267.17,2540.95 h -117.2 L 721.113,3730.17 H 838.32 l 428.85,-1189.22"
         style="fill:#bec3e8;fill-opacity:1;fill-rule:nonzero;stroke:none"
         id="path48" />
      <path
         d="m 1592.13,2540.95 h -117.19 l -428.86,1189.22 h 117.21 l 428.84,-1189.22"
         style="fill:#bec3e8;fill-opacity:1;fill-rule:nonzero;stroke:none"
         id="path50" />
      <path
         d="m 4851.3,9561.74 c 0,-19.4 -15.73,-35.13 -35.14,-35.13 -19.41,0 -35.14,15.73 -35.14,35.13 0,19.42 15.73,35.14 35.14,35.14 19.41,0 35.14,-15.72 35.14,-35.14"
         style="fill:#3a44a2;fill-opacity:1;fill-rule:nonzero;stroke:none"
         id="path52" />
      <path
         d="m 5105.25,9561.74 c 0,-19.4 -15.73,-35.13 -35.13,-35.13 -19.42,0 -35.14,15.73 -35.14,35.13 0,19.42 15.72,35.14 35.14,35.14 19.4,0 35.13,-15.72 35.13,-35.14"
         style="fill:#3a44a2;fill-opacity:1;fill-rule:nonzero;stroke:none"
         id="path54" />
      <path
         d="m 5359.2,9561.74 c 0,-19.4 -15.73,-35.13 -35.13,-35.13 -19.41,0 -35.14,15.73 -35.14,35.13 0,19.42 15.73,35.14 35.14,35.14 19.4,0 35.13,-15.72 35.13,-35.14"
         style="fill:#3a44a2;fill-opacity:1;fill-rule:nonzero;stroke:none"
         id="path56" />
      <path
         d="m 5613.16,9561.74 c 0,-19.4 -15.73,-35.13 -35.14,-35.13 -19.4,0 -35.14,15.73 -35.14,35.13 0,19.42 15.74,35.14 35.14,35.14 19.41,0 35.14,-15.72 35.14,-35.14"
         style="fill:#3a44a2;fill-opacity:1;fill-rule:nonzero;stroke:none"
         id="path58" />
      <path
         d="m 4851.3,9281.8 c 0,-19.41 -15.73,-35.14 -35.14,-35.14 -19.41,0 -35.14,15.73 -35.14,35.14 0,19.4 15.73,35.14 35.14,35.14 19.41,0 35.14,-15.74 35.14,-35.14"
         style="fill:#3a44a2;fill-opacity:1;fill-rule:nonzero;stroke:none"
         id="path60" />
      <path
         d="m 5105.25,9281.8 c 0,-19.41 -15.73,-35.14 -35.13,-35.14 -19.42,0 -35.14,15.73 -35.14,35.14 0,19.4 15.72,35.14 35.14,35.14 19.4,0 35.13,-15.74 35.13,-35.14"
         style="fill:#3a44a2;fill-opacity:1;fill-rule:nonzero;stroke:none"
         id="path62" />
      <path
         d="m 5359.2,9281.8 c 0,-19.41 -15.73,-35.14 -35.13,-35.14 -19.41,0 -35.14,15.73 -35.14,35.14 0,19.4 15.73,35.14 35.14,35.14 19.4,0 35.13,-15.74 35.13,-35.14"
         style="fill:#3a44a2;fill-opacity:1;fill-rule:nonzero;stroke:none"
         id="path64" />
      <path
         d="m 5613.16,9281.8 c 0,-19.41 -15.73,-35.14 -35.14,-35.14 -19.4,0 -35.14,15.73 -35.14,35.14 0,19.4 15.74,35.14 35.14,35.14 19.41,0 35.14,-15.74 35.14,-35.14"
         style="fill:#3a44a2;fill-opacity:1;fill-rule:nonzero;stroke:none"
         id="path66" />
      <path
         d="m 5867.11,9281.8 c 0,-19.41 -15.73,-35.14 -35.14,-35.14 -19.4,0 -35.13,15.73 -35.13,35.14 0,19.4 15.73,35.14 35.13,35.14 19.41,0 35.14,-15.74 35.14,-35.14"
         style="fill:#3a44a2;fill-opacity:1;fill-rule:nonzero;stroke:none"
         id="path68" />
      <path
         d="m 5105.25,9001.86 c 0,-19.41 -15.73,-35.15 -35.13,-35.15 -19.42,0 -35.14,15.74 -35.14,35.15 0,19.39 15.72,35.13 35.14,35.13 19.4,0 35.13,-15.74 35.13,-35.13"
         style="fill:#3a44a2;fill-opacity:1;fill-rule:nonzero;stroke:none"
         id="path70" />
      <path
         d="m 5359.2,9001.86 c 0,-19.41 -15.73,-35.15 -35.13,-35.15 -19.41,0 -35.14,15.74 -35.14,35.15 0,19.39 15.73,35.13 35.14,35.13 19.4,0 35.13,-15.74 35.13,-35.13"
         style="fill:#3a44a2;fill-opacity:1;fill-rule:nonzero;stroke:none"
         id="path72" />
      <path
         d="m 5613.16,9001.86 c 0,-19.41 -15.73,-35.15 -35.14,-35.15 -19.4,0 -35.14,15.74 -35.14,35.15 0,19.39 15.74,35.13 35.14,35.13 19.41,0 35.14,-15.74 35.14,-35.13"
         style="fill:#3a44a2;fill-opacity:1;fill-rule:nonzero;stroke:none"
         id="path74" />
      <path
         d="m 5867.11,9001.86 c 0,-19.41 -15.73,-35.15 -35.14,-35.15 -19.4,0 -35.13,15.74 -35.13,35.15 0,19.39 15.73,35.13 35.13,35.13 19.41,0 35.14,-15.74 35.14,-35.13"
         style="fill:#3a44a2;fill-opacity:1;fill-rule:nonzero;stroke:none"
         id="path76" />
      <path
         d="m 11113.5,3568.94 c -19.4,0 -35.2,15.73 -35.2,35.13 0,19.41 15.8,35.14 35.2,35.14 19.4,0 35.1,-15.73 35.1,-35.14 0,-19.4 -15.7,-35.13 -35.1,-35.13"
         style="fill:#3a44a2;fill-opacity:1;fill-rule:nonzero;stroke:none"
         id="path78" />
      <path
         d="m 11113.5,3314.98 c -19.4,0 -35.2,15.73 -35.2,35.14 0,19.41 15.8,35.13 35.2,35.13 19.4,0 35.1,-15.72 35.1,-35.13 0,-19.41 -15.7,-35.14 -35.1,-35.14"
         style="fill:#3a44a2;fill-opacity:1;fill-rule:nonzero;stroke:none"
         id="path80" />
      <path
         d="m 11113.5,3061.03 c -19.4,0 -35.2,15.72 -35.2,35.13 0,19.42 15.8,35.14 35.2,35.14 19.4,0 35.1,-15.72 35.1,-35.14 0,-19.41 -15.7,-35.13 -35.1,-35.13"
         style="fill:#3a44a2;fill-opacity:1;fill-rule:nonzero;stroke:none"
         id="path82" />
      <path
         d="m 10833.5,3568.94 c -19.4,0 -35.1,15.73 -35.1,35.13 0,19.41 15.7,35.14 35.1,35.14 19.4,0 35.2,-15.73 35.2,-35.14 0,-19.4 -15.8,-35.13 -35.2,-35.13"
         style="fill:#3a44a2;fill-opacity:1;fill-rule:nonzero;stroke:none"
         id="path84" />
      <path
         d="m 10833.5,3314.98 c -19.4,0 -35.1,15.73 -35.1,35.14 0,19.41 15.7,35.13 35.1,35.13 19.4,0 35.2,-15.72 35.2,-35.13 0,-19.41 -15.8,-35.14 -35.2,-35.14"
         style="fill:#3a44a2;fill-opacity:1;fill-rule:nonzero;stroke:none"
         id="path86" />
      <path
         d="m 10833.5,3061.03 c -19.4,0 -35.1,15.72 -35.1,35.13 0,19.42 15.7,35.14 35.1,35.14 19.4,0 35.2,-15.72 35.2,-35.14 0,-19.41 -15.8,-35.13 -35.2,-35.13"
         style="fill:#3a44a2;fill-opacity:1;fill-rule:nonzero;stroke:none"
         id="path88" />
      <path
         d="m 10833.5,2807.07 c -19.4,0 -35.1,15.73 -35.1,35.14 0,19.4 15.7,35.13 35.1,35.13 19.4,0 35.2,-15.73 35.2,-35.13 0,-19.41 -15.8,-35.14 -35.2,-35.14"
         style="fill:#3a44a2;fill-opacity:1;fill-rule:nonzero;stroke:none"
         id="path90" />
      <path
         d="m 10833.5,2553.12 c -19.4,0 -35.1,15.73 -35.1,35.14 0,19.4 15.7,35.14 35.1,35.14 19.4,0 35.2,-15.74 35.2,-35.14 0,-19.41 -15.8,-35.14 -35.2,-35.14"
         style="fill:#3a44a2;fill-opacity:1;fill-rule:nonzero;stroke:none"
         id="path92" />
      <path
         d="m 10553.6,3061.03 c -19.4,0 -35.2,15.72 -35.2,35.13 0,19.42 15.8,35.14 35.2,35.14 19.4,0 35.1,-15.72 35.1,-35.14 0,-19.41 -15.7,-35.13 -35.1,-35.13"
         style="fill:#3a44a2;fill-opacity:1;fill-rule:nonzero;stroke:none"
         id="path94" />
      <path
         d="m 10553.6,2807.07 c -19.4,0 -35.2,15.73 -35.2,35.14 0,19.4 15.8,35.13 35.2,35.13 19.4,0 35.1,-15.73 35.1,-35.13 0,-19.41 -15.7,-35.14 -35.1,-35.14"
         style="fill:#3a44a2;fill-opacity:1;fill-rule:nonzero;stroke:none"
         id="path96" />
      <path
         d="m 10553.6,2553.12 c -19.4,0 -35.2,15.73 -35.2,35.14 0,19.4 15.8,35.14 35.2,35.14 19.4,0 35.1,-15.74 35.1,-35.14 0,-19.41 -15.7,-35.14 -35.1,-35.14"
         style="fill:#3a44a2;fill-opacity:1;fill-rule:nonzero;stroke:none"
         id="path98" />
      <path
         d="M 6931.51,403.699 H 4071.19 c -9.06,0 -16.39,7.34 -16.39,16.391 v 1100.1 c 0,9.05 7.33,16.39 16.39,16.39 h 2860.32 c 9.06,0 16.39,-7.34 16.39,-16.39 V 420.09 c 0,-9.051 -7.33,-16.391 -16.39,-16.391"
         style="fill:#858ed0;fill-opacity:1;fill-rule:nonzero;stroke:none"
         id="path100" />
      <path
         d="m 4959.27,1134.59 h -554.26 c -25.22,0 -45.67,20.46 -45.67,45.67 0,25.24 20.45,45.69 45.67,45.69 h 554.26 c 25.24,0 45.69,-20.45 45.69,-45.69 0,-25.21 -20.45,-45.67 -45.69,-45.67"
         style="fill:#ffffff;fill-opacity:1;fill-rule:nonzero;stroke:none"
         id="path102" />
      <path
         d="M 5650.58,878.781 H 4405.01 c -25.22,0 -45.67,20.449 -45.67,45.68 0,25.23 20.45,45.691 45.67,45.691 h 1245.57 c 25.22,0 45.67,-20.461 45.67,-45.691 0,-25.231 -20.45,-45.68 -45.67,-45.68"
         style="fill:#ffffff;fill-opacity:1;fill-rule:nonzero;stroke:none"
         id="path104" />
      <path
         d="m 4085.33,3380.13 c 0,-28.42 -1.13,-57.99 -2.27,-88.69 -1.14,-5.68 -1.14,-11.36 -1.14,-17.05 -3.41,-73.9 -12.51,-151.21 -25.01,-231.93 -3.41,-25.02 -7.96,-48.9 -11.37,-73.91 -13.64,-70.47 -28.43,-143.25 -47.76,-216.01 -5.67,-25.01 -12.5,-50.02 -20.46,-75.04 -7.96,-31.84 -17.05,-64.8 -27.29,-96.65 -5.68,-21.6 -12.51,-42.06 -20.47,-63.66 -1.13,-7.96 -4.54,-15.92 -6.81,-22.75 -11.37,-34.1 -22.74,-68.2 -35.25,-101.18 -29.56,-82.99 -62.53,-165.99 -98.91,-247.85 -12.51,-29.56 -25.01,-57.98 -38.66,-87.55 -77.3,-167.13 -167.13,-330.85 -264.9,-492.29 -22.75,-35.25 -44.35,-70.49 -65.95,-105.73 -38.65,-59.13 -78.45,-120.52 -121.65,-183.05 -40.93,-60.27 -83,-120.51 -126.2,-179.63 -45.47,-63.67 -94.37,-128.488 -144.39,-195.558 -22.74,-31.832 -46.61,-62.539 -71.62,-94.36 -1.14,-2.281 -3.42,-5.691 -5.69,-7.961 -27.29,-35.25 -53.44,-69.359 -81.86,-104.601 -113.69,-145.539 -230.8,-291.059 -349.04,-436.59 -29.56,-36.379 -57.99,-71.629 -87.55,-108.008 l -69.35,28.43 -134.15,54.578 14.77,32.949 248.99,543.473 582.12,1271.098 c -4.56,119.38 -9.1,239.89 -12.51,358.13 -2.28,44.35 -3.42,89.83 -3.42,134.15 -2.26,114.84 -3.4,227.39 0,336.54 1.14,59.12 2.29,118.25 4.56,176.23 1.13,17.06 1.13,34.11 2.27,50.02 1.13,12.5 1.13,25.01 2.27,37.53 3.41,45.47 7.96,89.81 12.5,133.01 0,3.42 0,5.69 1.15,9.1 4.54,43.21 10.24,84.13 17.05,125.06 11.37,65.95 25.01,126.2 40.93,184.19 0,1.13 1.14,2.28 1.14,3.41 21.6,73.9 48.89,139.84 81.86,196.69 30.7,52.3 67.08,96.65 106.87,131.89 7.96,7.96 15.91,15.91 25.02,22.74 64.8,51.16 136.42,81.85 210.33,92.09 17.05,3.4 36.38,4.54 54.57,4.54 h 3.41 c 50.02,0 100.05,-9.08 147.8,-29.56 11.36,-4.55 21.6,-9.09 31.84,-13.65 51.15,-26.14 98.91,-63.66 138.7,-113.69 21.61,-30.69 38.66,-55.7 50.02,-76.17 0,0 1.15,0 1.15,-1.13 9.1,-13.65 15.92,-28.43 22.74,-44.35 l 31.83,-88.67 2.27,-7.97 c 11.37,-45.48 21.6,-93.22 27.29,-145.53 2.27,-18.18 4.55,-36.38 5.68,-54.57 1.14,-10.23 1.14,-21.6 2.28,-32.97 1.14,-28.42 2.27,-57.98 2.27,-87.54"
         style="fill:#f7a794;fill-opacity:1;fill-rule:nonzero;stroke:none"
         id="path106" />
      <path
         d="m 4085.33,3380.13 c 0,-28.42 -1.13,-57.99 -2.27,-88.69 -1.14,-5.68 -1.14,-11.36 -1.14,-17.05 -2.27,-27.29 -4.55,-54.58 -6.82,-83 l -18.19,-148.93 c -3.41,-25.02 -7.96,-48.9 -11.37,-73.91 -13.64,-70.47 -28.43,-143.25 -47.76,-216.01 -2.27,-9.1 -4.54,-19.34 -6.81,-28.42 -4.56,-15.93 -7.96,-30.7 -13.65,-46.62 -7.96,-31.84 -17.05,-64.8 -27.29,-96.65 -5.68,-21.6 -12.51,-42.06 -20.47,-63.66 -1.13,-7.96 -4.54,-15.92 -6.81,-22.75 -11.37,-34.1 -22.74,-68.2 -35.25,-101.18 -29.56,-82.99 -62.53,-164.85 -98.91,-247.85 -12.51,-29.56 -25.01,-57.98 -38.66,-87.55 -62.52,-144.38 -150.07,-309.25 -264.9,-492.29 -22.75,-35.25 -44.35,-70.49 -65.95,-105.73 -38.65,-59.13 -78.45,-120.52 -121.65,-183.05 -39.79,-57.98 -81.86,-117.11 -126.2,-179.63 -45.47,-63.67 -94.37,-128.488 -144.39,-195.558 -22.74,-31.832 -46.61,-62.539 -71.62,-94.36 -1.14,-2.281 -3.42,-5.691 -5.69,-7.961 -26.15,-34.109 -53.44,-69.359 -80.73,-104.601 h -11.36 c -57.99,0 -103.46,4.55 -136.44,13.64 -23.87,5.692 -46.61,11.371 -69.36,20.469 -55.7,18.184 -109.14,45.481 -160.3,80.723 l 582.12,1271.098 c -4.56,119.38 -9.1,239.89 -12.51,358.13 -2.28,44.35 -3.42,89.83 -3.42,134.15 -1.12,114.84 -1.12,227.39 0,336.54 1.14,59.12 2.29,118.25 4.56,176.23 1.13,17.06 1.13,34.11 2.27,50.02 1.13,12.5 1.13,25.01 2.27,37.53 3.41,45.47 7.96,89.81 12.5,133.01 0,3.42 0,5.69 1.15,9.1 4.54,43.21 10.24,84.13 17.05,125.06 11.37,65.95 25.01,126.2 40.93,184.19 0,1.13 1.14,2.28 1.14,3.41 50.03,145.53 112.56,254.68 188.73,328.58 7.96,7.96 15.91,15.91 25.02,22.74 61.39,52.29 131.88,84.13 210.33,92.09 17.05,3.4 36.38,4.54 54.57,4.54 h 3.41 c 54.57,-4.54 104.6,-14.78 147.8,-29.56 11.36,-4.55 21.6,-9.09 31.84,-13.65 57.98,-26.14 103.46,-64.8 138.7,-113.69 21.61,-30.69 38.66,-55.7 50.02,-76.17 0,0 1.15,0 1.15,-1.13 12.5,-20.47 19.33,-34.11 22.74,-44.35 l 31.83,-88.67 2.27,-7.97 c 11.37,-45.48 21.6,-93.22 27.29,-145.53 2.27,-18.18 4.55,-36.38 5.68,-54.57 1.14,-10.23 1.14,-21.6 2.28,-32.97 1.14,-28.42 2.27,-57.98 2.27,-87.54"
         style="fill:#3a44a2;fill-opacity:1;fill-rule:nonzero;stroke:none"
         id="path108" />
      <path
         d="M 2899.51,113.691 C 2874.49,65.9492 2616.4,18.1914 2453.83,4.55078 2419.71,1.14063 2389.02,0 2362.87,0 c -96.64,0 -140.98,19.332 -163.72,51.1719 -27.29,42.0586 -18.19,103.4691 -3.42,144.3981 12.52,35.231 29.57,53.422 46.62,70.469 2.28,1.152 4.55,3.422 6.83,5.703 46.61,-15.922 93.22,-30.703 130.75,-37.512 9.09,-2.289 18.18,-3.429 26.15,-3.429 h 6.81 c 38.65,0 64.81,14.789 89.82,30.711 5.68,-1.141 10.23,-2.282 15.92,-3.422 80.72,-19.32 161.44,-38.649 227.39,-57.981 h 1.13 c 100.05,-29.57 166,-57.988 152.36,-86.418"
         style="fill:#3a44a2;fill-opacity:1;fill-rule:nonzero;stroke:none"
         id="path110" />
      <path
         d="m 2379.93,234.23 v 0 c -37.53,6.809 -84.14,21.59 -130.75,37.512 -2.28,-2.281 -4.55,-4.551 -6.83,-5.703 l 248.99,543.473 c 51.16,-35.242 104.6,-62.539 160.3,-80.723 v 0 0 C 2497.03,455.922 2412.89,312.672 2379.93,234.23 m 677.6,2338.66 c -1.23,62.81 -2.14,124.92 -2.14,186.18 -0.01,50.75 0.6,100.9 2.14,150.36 -1.12,-109.15 -1.12,-221.7 0,-336.54"
         style="fill:#dc9584;fill-opacity:1;fill-rule:nonzero;stroke:none"
         id="path112" />
      <path
         d="m 2651.64,728.789 v 0 c -55.7,18.184 -109.14,45.481 -160.3,80.723 l 582.12,1271.098 v 0 c -4.56,119.38 -9.1,239.89 -12.51,358.13 -2.28,44.35 -3.42,89.83 -3.42,134.15 v 0 c -1.12,114.84 -1.12,227.39 0,336.54 v 0 c 1.14,59.12 2.29,118.25 4.56,176.23 1.13,17.06 1.13,34.11 2.27,50.02 1.13,12.5 1.13,25.01 2.27,37.53 3.41,45.47 7.96,89.81 12.5,133.01 0,3.42 0,5.69 1.15,9.1 4.54,43.21 10.24,84.13 17.05,125.06 7.68,44.57 16.4,86.54 26.17,126.96 1.96,-0.7 3.95,-1.4 5.95,-2.1 31.1,-11.26 65.92,-20.25 104.46,-26.98 36.62,-6.64 76.57,-11.25 119.33,-13.03 0.21,-0.01 0.42,-0.02 0.63,-0.04 15.1,-0.89 30.3,-1.39 45.69,-1.39 0.73,0 1.47,0 2.21,0 0.09,0 0.21,0 0.3,0 61.78,0 125.93,7.04 192.48,21.11 32.52,6.57 65.79,14.86 99.68,25.09 1.97,-5.28 4.34,-10.18 6.86,-14.92 1.73,-3.48 3.61,-6.86 5.64,-10.1 v 0 c 2.28,-4.55 5.69,-10.22 7.96,-14.77 7.96,-12.52 15.91,-25.02 25.01,-37.53 0,0 0,0 0,-1.13 v 0 0 0 0 c 9.1,-11.37 19.32,-22.74 29.56,-32.98 5.69,-6.81 12.51,-13.64 20.47,-20.45 21.6,-19.34 45.48,-37.53 70.48,-53.44 1.15,-2.28 3.42,-3.41 5.69,-4.55 10.23,-5.68 20.47,-11.37 30.7,-17.05 26.15,-14.79 54.57,-28.43 85.27,-39.8 9.1,-3.42 17.06,-6.82 26.14,-9.1 12.52,-4.54 26.16,-9.09 39.8,-12.5 11.77,-2.95 23.53,-6.73 35.29,-9.17 -0.01,-0.36 -0.03,-0.71 -0.04,-1.07 -1.14,-5.68 -1.14,-11.36 -1.14,-17.05 v 0 c -369.5,-392.24 -811.78,-281.96 -793.58,-483.2 47.75,-553.68 -292.2,-1454.14 -636.7,-2062.401"
         style="fill:#303d9a;fill-opacity:1;fill-rule:nonzero;stroke:none"
         id="path114" />
      <path
         d="m 2362.87,0 c -96.64,0 -140.98,19.332 -163.72,51.1719 -12.74,19.6367 -17.55,43.4883 -17.55,67.5001 -0.01,27.43 6.26,55.07 14.13,76.898 12.52,35.231 29.57,53.422 46.62,70.469 v 0 c 2.28,1.152 4.55,3.422 6.83,5.703 46.61,-15.922 93.22,-30.703 130.75,-37.512 v 0 0 c -11.38,-23.89 -17.06,-42.078 -18.2,-55.718 -4.54,-40.93 27.29,-42.071 81.87,-53.43 7.92,-1.68 16.31,-2.453 25.09,-2.453 74.39,-0.008 177.67,55.113 277.33,77.48 h 1.13 c 91.26,-26.968 154.14,-52.988 154.14,-78.918 0,-2.5 -0.58,-5 -1.78,-7.5 C 2874.49,65.9492 2616.4,18.1914 2453.83,4.55078 2419.71,1.14063 2389.02,0 2362.87,0"
         style="fill:#303d9a;fill-opacity:1;fill-rule:nonzero;stroke:none"
         id="path116" />
      <path
         d="m 5741.85,3730.31 v -4.55 l -1.13,-9.1 c -3.41,-45.48 -11.38,-93.22 -22.74,-144.38 v -3.42 c 0,-1.14 -1.14,-3.4 -1.14,-4.54 -5.69,-26.16 -13.65,-53.45 -20.46,-81.87 0,0 0,0 0,-1.13 -7.96,-28.43 -17.06,-57.99 -26.15,-88.69 -9.1,-29.55 -19.34,-61.39 -30.7,-92.09 -11.37,-31.83 -22.74,-63.66 -35.25,-96.64 -9.09,-23.87 -18.19,-47.75 -28.42,-72.77 -20.47,-51.15 -42.07,-103.45 -67.08,-158.03 -27.29,-62.52 -56.85,-126.2 -87.54,-191 -17.06,-36.38 -36.39,-76.17 -59.12,-121.66 -17.06,-32.96 -32.98,-64.8 -50.03,-97.76 -17.06,-35.25 -36.39,-71.64 -57.99,-111.43 -10.22,-19.32 -20.46,-39.79 -31.82,-60.26 l -0.27,-0.02 c -117.2,-225.06 -245.57,-457.32 -377.2,-692.38 -19.33,-35.24 -39.8,-71.62 -59.12,-106.87 l -20.47,1.13 -210.33,5.7 25.01,112.55 161.44,721.96 236.49,1055.08 c -1.14,0 -1.14,-1.14 -2.28,-1.14 h -1.13 c -160.32,-72.77 -294.47,-127.33 -401.33,-161.44 -60.28,-18.2 -119.38,-32.98 -178.51,-42.07 -4.55,-1.14 -10.24,-2.27 -14.78,-2.27 -15.92,-1.14 -30.71,-3.42 -44.35,-4.56 -24.47,-2.21 -44.03,-3.25 -61.73,-3.86 -3.65,-0.05 -7.4,-0.68 -11.02,-0.68 -1.14,0 -1.14,0 -2.28,0 h -21.6 c -17.06,0 -29.56,1.14 -36.38,2.27 h -1.14 c -38.65,3.41 -76.18,7.96 -112.56,17.05 -13.64,2.28 -27.28,6.82 -40.93,10.24 -13.64,3.41 -27.28,7.96 -39.8,12.5 -9.08,2.28 -17.04,5.68 -26.14,9.1 -30.7,11.37 -59.12,25.01 -85.27,39.8 -10.23,5.68 -20.47,11.37 -30.7,17.05 -2.27,1.14 -4.54,2.27 -5.69,4.55 -25,15.91 -48.88,34.1 -70.48,53.44 -7.96,6.81 -14.78,13.64 -20.47,20.45 -10.24,10.24 -20.46,21.61 -29.56,32.98 0,1.13 0,1.13 0,1.13 -9.1,12.51 -17.05,25.01 -25.01,37.53 -2.27,4.55 -5.68,10.22 -7.96,14.77 -5.69,9.09 -10.23,19.34 -13.64,29.56 -1.14,1.14 -1.14,1.14 -1.14,2.28 -19.32,50.03 -26.14,103.47 -25.01,159.17 0,11.37 0,21.6 1.13,32.98 4.56,56.84 15.93,114.83 29.56,173.95 l 4.55,18.18 15.92,64.81 13.65,53.44 c 261.49,45.48 524.12,90.95 767.43,122.79 31.83,3.41 62.53,7.96 93.22,11.37 112.56,13.64 221.7,22.73 324.04,27.29 0,0 0,0 1.13,0 11.37,0 22.74,1.12 32.98,1.12 31.83,2.28 62.52,2.28 93.23,2.28 134.15,0 255.81,-11.37 356.99,-37.52 12.51,-3.41 23.87,-6.83 35.25,-10.22 12.5,-3.42 23.87,-6.83 35.24,-11.38 14.77,-4.54 28.43,-10.23 42.07,-17.05 93.23,-40.93 161.45,-103.47 197.82,-189.86 13.64,-31.85 22.75,-65.95 27.29,-104.62 1.14,-6.81 2.28,-14.78 2.28,-22.73 4.55,-37.52 4.55,-77.31 1.13,-120.51"
         style="fill:#f7a794;fill-opacity:1;fill-rule:nonzero;stroke:none"
         id="path118" />
      <path
         d="m 5741.85,3730.31 v -4.55 l -1.13,-9.1 -22.74,-144.38 v -3.42 c 0,-1.14 -1.14,-3.4 -1.14,-4.54 -5.69,-26.16 -13.65,-53.45 -20.46,-81.87 0,0 0,0 0,-1.13 -7.96,-28.43 -17.06,-57.99 -26.15,-88.69 -9.1,-29.55 -19.34,-61.39 -30.7,-92.09 -11.37,-31.83 -22.74,-63.66 -35.25,-96.64 -9.09,-23.87 -18.19,-47.75 -28.42,-72.77 -20.47,-51.15 -42.07,-103.45 -67.08,-158.03 -26.15,-61.39 -55.71,-125.06 -87.54,-191 -17.06,-36.38 -36.39,-76.17 -59.12,-121.66 -14.79,-30.69 -31.84,-63.66 -50.03,-97.76 -17.06,-35.25 -36.39,-71.64 -57.99,-111.43 -10.22,-19.32 -20.46,-39.79 -31.82,-60.26 -85.28,-12.5 -158.04,-18.19 -218.3,-18.19 -31.83,0 -61.39,1.14 -86.41,4.54 -44.33,7.96 -89.82,20.47 -136.43,38.66 -13.64,5.69 -26.15,11.37 -39.8,17.06 L 4975.55,3487 h -1.13 c -160.32,-72.77 -294.47,-127.33 -401.33,-161.44 -71.64,-22.74 -130.76,-37.52 -178.51,-42.07 -4.55,-1.14 -10.24,-2.27 -14.78,-2.27 -15.92,-1.14 -30.71,-3.42 -44.35,-4.56 -37.51,-3.4 -65.93,-4.54 -88.67,-4.54 h -7.96 c -17.06,0 -29.56,1.14 -36.38,2.27 h -1.14 c -38.65,3.41 -76.18,9.1 -112.56,17.05 -13.64,2.28 -27.28,6.82 -40.93,10.24 -13.64,3.41 -27.28,7.96 -39.8,12.5 -9.08,2.28 -17.04,5.68 -26.14,9.1 -30.7,11.37 -59.12,25.01 -85.27,39.8 -10.23,5.68 -20.47,11.37 -30.7,17.05 -2.27,1.14 -4.54,2.27 -5.69,4.55 -25,15.91 -48.88,34.1 -70.48,53.44 -7.96,6.81 -14.78,13.64 -20.47,20.45 -10.24,10.24 -20.46,21.61 -29.56,32.98 0,1.13 0,1.13 0,1.13 -9.1,12.51 -17.05,25.01 -25.01,37.53 -2.27,4.55 -5.68,10.22 -7.96,14.77 -4.55,7.96 -9.1,15.92 -12.5,25.02 0,1.13 -1.14,3.41 -1.14,4.54 -1.14,1.14 -1.14,1.14 -1.14,2.28 -15.92,50.03 -25.01,103.47 -25.01,159.17 0,11.37 0,21.6 1.13,32.98 2.28,52.29 10.24,106.86 26.16,162.57 l 3.4,11.38 4.55,18.18 15.92,64.81 13.65,53.44 c 291.05,54.57 546.86,95.5 767.43,122.79 31.83,3.41 62.53,7.96 93.22,11.37 120.52,12.51 228.53,21.59 324.04,27.29 0,0 0,0 1.13,0 11.37,0 22.74,1.12 32.98,1.12 26.14,1.14 52.29,1.14 77.31,1.14 147.79,0 271.73,-12.5 372.91,-36.38 12.51,-3.41 23.87,-6.83 35.25,-10.22 12.5,-3.42 23.87,-6.83 35.24,-11.38 15.92,-5.69 29.56,-10.23 42.07,-17.05 103.46,-43.2 169.4,-106.88 197.82,-189.86 l 27.29,-104.62 2.28,-10.22 v -12.51 l 1.13,-120.51"
         style="fill:#3a44a2;fill-opacity:1;fill-rule:nonzero;stroke:none"
         id="path120" />
      <path
         d="m 5230.23,1553.07 c -23.88,-47.76 -283.1,-95.51 -445.68,-109.15 -34.11,-3.41 -63.67,-4.54 -89.81,-4.54 -97.78,0 -142.13,19.32 -163.73,51.16 -28.42,42.07 -19.32,103.46 -4.55,144.38 14.78,39.8 34.11,57.99 53.44,76.18 45.48,-14.78 90.95,-30.7 128.48,-37.51 10.22,-2.28 19.32,-3.42 28.42,-3.42 h 6.82 c 38.66,0 64.81,15.92 89.82,30.7 3.41,-1.13 7.96,-2.28 11.37,-2.28 118.24,-28.42 236.48,-55.7 310.38,-84.14 54.58,-20.45 85.27,-40.93 75.04,-61.38"
         style="fill:#3a44a2;fill-opacity:1;fill-rule:nonzero;stroke:none"
         id="path122" />
      <path
         d="m 4708.38,1673.59 c -37.53,6.81 -83,22.73 -128.48,37.51 l 161.44,721.96 c 13.65,-5.69 26.16,-11.37 39.8,-17.06 v 0 0 C 4697,2109.03 4656.08,1820.24 4708.38,1673.59"
         style="fill:#dc9584;fill-opacity:1;fill-rule:nonzero;stroke:none"
         id="path124" />
      <path
         d="m 4262.7,3272.12 c -1.14,0 -1.14,0 -2.28,0 h -13.64 c 6.61,0 13.69,0.1 21.35,0.32 -1.83,-0.17 -3.64,-0.32 -5.43,-0.32 m -61.4,2.27 c -38.65,3.41 -76.18,7.96 -112.56,17.05 36.38,-7.95 73.91,-13.64 112.56,-17.05"
         style="fill:#dc9584;fill-opacity:1;fill-rule:nonzero;stroke:none"
         id="path126" />
      <path
         d="m 4592.4,4213.51 c 112.56,13.64 221.7,22.73 324.04,27.29 -95.51,-5.7 -203.52,-14.78 -324.04,-27.29"
         style="fill:#dc9584;fill-opacity:1;fill-rule:nonzero;stroke:none"
         id="path128" />
      <path
         d="m 4781.14,2416 v 0 c -13.64,5.69 -26.15,11.37 -39.8,17.06 L 4975.55,3487 h -1.13 c -160.32,-72.77 -294.47,-127.33 -401.33,-161.44 -71.64,-22.74 -130.76,-37.52 -178.51,-42.07 -4.55,-1.14 -10.24,-2.27 -14.78,-2.27 -15.92,-1.14 -30.71,-3.42 -44.35,-4.56 v 0 c -24.47,-2.21 -44.03,-3.25 -61.73,-3.86 -1.85,-0.02 -3.72,-0.2 -5.59,-0.36 v 0 c -7.66,-0.22 -14.74,-0.32 -21.35,-0.32 v 0 h -7.96 c -17.06,0 -29.56,1.14 -36.38,2.27 h -1.14 v 0 c -38.65,3.41 -76.18,9.1 -112.56,17.05 v 0 c -1.88,0.32 -3.76,0.68 -5.64,1.07 -11.76,2.44 -23.52,6.22 -35.29,9.17 -13.64,3.41 -27.28,7.96 -39.8,12.5 -9.08,2.28 -17.04,5.68 -26.14,9.1 -30.7,11.37 -59.12,25.01 -85.27,39.8 -10.23,5.68 -20.47,11.37 -30.7,17.05 -2.27,1.14 -4.54,2.27 -5.69,4.55 -25,15.91 -48.88,34.1 -70.48,53.44 -7.96,6.81 -14.78,13.64 -20.47,20.45 -10.24,10.24 -20.46,21.61 -29.56,32.98 0,1.13 0,1.13 0,1.13 v 0 0 c -9.1,12.51 -17.05,25.01 -25.01,37.53 -2.27,4.55 -5.68,10.22 -7.96,14.77 -4.55,7.96 -9.1,15.92 -12.5,25.02 2.36,0.71 4.73,1.44 7.1,2.17 48.78,15.08 98.81,34.18 148.84,56.21 1.33,0.57 2.65,1.15 3.98,1.73 0.24,0.11 0.5,0.24 0.74,0.36 127.95,56.8 255.74,132.53 362.87,208.84 52.83,36.97 99.9,74.08 141.24,111.37 41.72,36.97 75.41,71.73 98.35,101.84 11.15,14.63 19.76,28.18 26.1,40.73 3.72,7.32 6.65,14.29 8.79,20.94 0.15,0.43 0.29,0.87 0.43,1.3 4.38,5.87 5.96,14.49 4.74,25.88 0.58,16.04 -3.76,29.93 -11.94,42.18 -0.03,0.08 -0.07,0.17 -0.1,0.25 -3.05,5.07 -7.18,10.09 -12.4,15.05 8.79,1.12 17.53,2.21 26.21,3.29 31.83,3.41 62.53,7.96 93.22,11.37 v 0 c 120.52,12.51 228.53,21.59 324.04,27.29 v 0 c -390.24,-334.88 -552.28,-652.39 -356.04,-652.39 49.61,0 122.1,20.29 219.6,65.71 143.84,67.44 250.58,99.04 324.13,99.04 188.08,0 159.24,-206.48 -20.57,-548.13 C 4972.15,2991.3 4858.45,2696.83 4781.14,2416"
         style="fill:#303d9a;fill-opacity:1;fill-rule:nonzero;stroke:none"
         id="path130" />
      <path
         d="m 4694.74,1439.38 c -97.78,0 -142.13,19.32 -163.73,51.16 -13.49,19.96 -18.52,44.28 -18.52,68.7 0.01,27.03 6.21,54.18 13.97,75.68 14.78,39.8 34.11,57.99 53.44,76.18 v 0 c 45.48,-14.78 90.95,-30.7 128.48,-37.51 v 0 c 6.81,-17.05 13.64,-32.97 22.73,-45.48 9.1,-13.66 20.47,-26.16 34.11,-35.26 34.49,-27.31 80.09,-38.4 131.45,-38.4 79.03,0 171.7,26.24 258.52,60 47.54,-17.82 76.96,-35.65 76.99,-53.47 0.01,-2.64 -0.63,-5.28 -1.95,-7.91 -23.88,-47.76 -283.1,-95.51 -445.68,-109.15 -34.11,-3.41 -63.67,-4.54 -89.81,-4.54"
         style="fill:#303d9a;fill-opacity:1;fill-rule:nonzero;stroke:none"
         id="path132" />
      <path
         d="m 5554,7439.07 -12.72,21.26 12.72,-21.26"
         style="fill:#303d9a;fill-opacity:1;fill-rule:nonzero;stroke:none"
         id="path134" />
      <path
         d="m 3492.98,4249.57 -46.69,250.19 -666.12,213.96 c 151.29,197.05 302.6,394.01 412.27,496.48 109.67,102.46 177.62,110.24 56.88,291.13 -92.58,138.68 -296.09,379.1 -483.85,379.1 -57.17,0 -112.86,-22.28 -163.52,-76.48 -217.08,-232.26 -341.62,-1050.82 -177.77,-1407.54 85.75,-186.63 250.5,-246.89 452.92,-246.89 184.43,0 400.15,50.03 615.88,100.05"
         style="fill:#7781c4;fill-opacity:1;fill-rule:nonzero;stroke:none"
         id="path136" />
      <path
         d="m 1948.4,4591.28 2036.06,1054.26 c 71.15,36.84 158.69,9.04 195.56,-62.1 l 211.13,-407.4 c 36.87,-71.15 9.1,-158.7 -62.03,-195.59 L 2293.65,3924.97 c -71.16,-36.9 -158.76,-9.11 -195.65,62.06 l -211.72,408.63 c -36.88,71.18 -9.07,158.76 62.12,195.62"
         style="fill:#f68aad;fill-opacity:1;fill-rule:nonzero;stroke:none"
         id="path138" />
      <path
         d="m 4303.75,4271.89 c -117.29,23.64 -234.6,47.35 -336.95,318.47 -102.35,271.12 -189.82,789.65 -277.33,1308.18 -183.58,52.95 -367.1,105.84 -531.33,105.84 -13.35,0 -26.56,-0.32 -39.65,-1.06 -174.03,-9.68 -323.68,-86.44 -473.3,-163.15 -39.07,-249.67 -78.19,-499.35 -14.92,-836.19 63.28,-336.86 229,-760.9 290.01,-1009.55 61,-248.66 17.25,-322.08 122.12,-388.69 66.15,-42.02 191.5,-81.33 350.43,-81.33 93.04,0 197.58,13.47 308.5,47.76 300.45,92.87 647.82,338.33 756.02,480.35 108.21,142.02 -22.7,180.7 -153.6,219.37"
         style="fill:#858ed0;fill-opacity:1;fill-rule:nonzero;stroke:none"
         id="path140" />
      <path
         d="m 4511.26,5212.52 929.79,1158.23 208.79,-130.91 c -304.22,-691.49 -608.49,-1383.03 -1026.1,-1538.68 -66.19,-24.68 -135.23,-35.9 -205.42,-35.9 -372.56,0 -777.09,315.87 -956.88,609.7 -208.62,340.93 -114.84,652.34 101.75,652.34 5.25,0 10.57,-0.18 15.94,-0.55 227.81,-15.61 579.98,-364.92 932.13,-714.23"
         style="fill:#858ed0;fill-opacity:1;fill-rule:nonzero;stroke:none"
         id="path142" />
      <path
         d="m 5439.33,6311.83 c -11.91,61.52 -23.88,123.07 31.97,224.61 55.83,101.54 179.67,243.56 260.13,291.69 24.05,14.36 44.2,20.38 60.15,20.38 37.46,0 51.75,-33.03 38.71,-68.09 -18.6,-49.98 -92.78,-104.04 -166.99,-158.15 57.2,-86.43 114.41,-172.87 108.81,-243.01 -5.61,-70.12 -74.12,-123.99 -142.63,-177.87 -47.39,13.81 -94.77,27.66 -126.46,46.09 -31.68,18.44 -47.68,41.37 -63.69,64.35"
         style="fill:#f7a794;fill-opacity:1;fill-rule:nonzero;stroke:none"
         id="path144" />
      <path
         d="m 3399.56,3523.8 c -15.39,0 -30.59,0.5 -45.69,1.39 -0.21,0.02 -0.42,0.03 -0.63,0.04 12.94,-0.54 26.15,-0.82 39.59,-0.82 62.55,0 130.32,6.09 201.72,20.5 -66.55,-14.07 -130.7,-21.11 -192.48,-21.11 -0.09,0 -0.21,0 -0.3,0 -0.74,0 -1.48,0 -2.21,0 m -165.65,14.46 c -38.54,6.73 -73.36,15.72 -104.46,26.98 30.62,-10.64 65.66,-19.95 104.46,-26.98"
         style="fill:#2b388b;fill-opacity:1;fill-rule:nonzero;stroke:none"
         id="path146" />
      <path
         d="m 3850.17,3628.38 c 1.58,0.7 3.14,1.39 4.72,2.09 -0.24,-0.12 -0.5,-0.25 -0.74,-0.36 -1.33,-0.58 -2.65,-1.16 -3.98,-1.73"
         style="fill:#2b388b;fill-opacity:1;fill-rule:nonzero;stroke:none"
         id="path148" />
      <path
         d="m 2987.71,3659.5 c -0.03,0.04 -0.06,0.08 -0.08,0.11 -2.9,2.14 -6.29,9.42 -10.16,21.82 2.89,-7.74 6.25,-15.01 10.24,-21.93 m -22.68,71.45 c -0.06,0.28 -0.12,0.56 -0.18,0.84 -0.03,0.27 -0.06,0.54 -0.1,0.81 0.1,-0.55 0.19,-1.1 0.28,-1.65"
         style="fill:#dad9d8;fill-opacity:1;fill-rule:nonzero;stroke:none"
         id="path150" />
      <path
         d="m 4217.76,3839.31 c 52.95,37.72 100.85,75.58 141.24,111.37 -41.34,-37.29 -88.41,-74.4 -141.24,-111.37"
         style="fill:#2b388b;fill-opacity:1;fill-rule:nonzero;stroke:none"
         id="path152" />
      <path
         d="m 2946.13,3866.19 c -1.95,12.06 -3.91,23.64 -5.89,34.73 2.19,-12.09 4.14,-23.67 5.89,-34.73 m -25.85,128.24 v 0 l -29.26,100.94 c 0.6,0.1 1.2,0.2 1.8,0.29 10.52,-36.14 19.81,-70.07 27.46,-101.23 v 0"
         style="fill:#dad9d8;fill-opacity:1;fill-rule:nonzero;stroke:none"
         id="path154" />
      <path
         d="m 4483.45,4093.25 c 3.69,7.31 6.6,14.27 8.79,20.94 -2.14,-6.65 -5.07,-13.62 -8.79,-20.94 m 9.22,22.24 c 2.92,9.21 4.45,17.81 4.74,25.88 1.22,-11.39 -0.36,-20.01 -4.74,-25.88"
         style="fill:#2b388b;fill-opacity:1;fill-rule:nonzero;stroke:none"
         id="path156" />
      <path
         d="m 4472.54,4198.8 c -34.98,33.57 -101.89,53.33 -168.79,73.09 -9.93,2 -19.87,4.01 -29.79,6.16 0.16,-0.01 0.31,-0.02 0.46,-0.03 l 29.33,-6.07 c 85.71,-22.89 142.1,-47.27 169.22,-73.1 -0.13,-0.01 -0.29,-0.03 -0.43,-0.05"
         style="fill:#dad9d8;fill-opacity:1;fill-rule:nonzero;stroke:none"
         id="path158" />
      <path
         d="m 4485.47,4183.55 c -3.6,5.39 -7.94,10.46 -12.93,15.25 0.14,0.02 0.3,0.04 0.43,0.05 5.22,-4.96 9.35,-9.98 12.4,-15.05 0.03,-0.08 0.07,-0.17 0.1,-0.25"
         style="fill:#2b388b;fill-opacity:1;fill-rule:nonzero;stroke:none"
         id="path160" />
      <path
         d="m 4102.56,4361.37 c -47.16,44.91 -92.77,115.13 -135.76,228.99 -0.06,0.15 -0.11,0.3 -0.17,0.45 0.06,-0.13 0.11,-0.27 0.17,-0.4 38.78,-100.6 84.03,-176.95 135.76,-229.04"
         style="fill:#dad9d8;fill-opacity:1;fill-rule:nonzero;stroke:none"
         id="path162" />
      <path
         d="m 3928.93,4820.49 c -12.63,7.43 -25.15,15.06 -37.54,22.88 l -0.62,0.12 c -0.1,0.39 -0.21,0.81 -0.31,1.2 12.71,-8.28 25.54,-16.36 38.47,-24.2"
         style="fill:#dd7a99;fill-opacity:1;fill-rule:nonzero;stroke:none"
         id="path164" />
      <path
         d="m 3392.83,3524.41 c -13.44,0 -26.65,0.28 -39.59,0.82 -43.1,2.32 -82.88,6.66 -119.33,13.03 -38.8,7.03 -73.84,16.34 -104.46,26.98 -62.01,22.44 -109.26,53.86 -141.74,94.26 -3.99,6.92 -7.35,14.19 -10.24,21.93 -3.7,11.84 -7.85,28.36 -12.44,49.52 -0.09,0.55 -0.18,1.1 -0.28,1.65 -6.04,49.69 -12.25,94.22 -18.62,133.59 -1.75,11.06 -3.7,22.64 -5.89,34.73 -6.5,36.4 -13.15,67.57 -19.96,93.51 v 0 c -7.65,31.16 -16.94,65.09 -27.46,101.23 8.15,1.28 16.49,1.93 24.93,1.93 2.62,0 5.21,-0.05 7.8,-0.19 1.62,0.51 3.94,0.74 6.97,0.74 14.72,0 45.65,-6.01 92.93,-18.01 241.08,-108.4 385.67,-162.54 433.8,-162.59 1.41,0.05 2.76,0.05 4.03,0.09 24.55,-4.07 48.39,-6.12 71.52,-6.12 73.4,0 139.64,20.57 198.73,61.75 95.61,65.87 138.84,206.69 129.64,422.41 -5.69,127.24 -30.05,300.54 -73.04,519.87 l -1.25,0.24 c -0.12,0.61 -0.24,1.23 -0.37,1.84 32.87,-25.67 66.94,-50.09 101.95,-72.93 0.1,-0.39 0.21,-0.81 0.31,-1.2 l -0.64,0.11 c 28.06,-114.18 53.57,-198.44 76.5,-252.79 0.06,-0.15 0.11,-0.3 0.17,-0.45 42.99,-113.86 88.6,-184.08 135.76,-228.99 50.87,-51.24 108,-79.01 171.4,-83.32 9.92,-2.15 19.86,-4.16 29.79,-6.16 66.9,-19.76 133.81,-39.52 168.79,-73.09 v 0 c 4.99,-4.79 9.33,-9.86 12.93,-15.25 6.75,-16.8 10.73,-30.86 11.94,-42.18 -0.29,-8.07 -1.82,-16.67 -4.74,-25.88 -0.01,-0.01 -0.01,-0.01 -0.02,-0.02 -0.13,-0.43 -0.27,-0.86 -0.41,-1.28 -2.19,-6.67 -5.1,-13.63 -8.79,-20.94 -6.38,-12.56 -15.08,-26.11 -26.1,-40.69 -28.05,-34.09 -60.84,-68.05 -98.35,-101.88 -40.39,-35.79 -88.29,-73.65 -141.24,-111.37 -100.28,-70.18 -221.24,-139.79 -362.87,-208.84 -1.58,-0.7 -3.14,-1.39 -4.72,-2.09 -88.8,-38.38 -174.01,-66.21 -255.62,-83.47 -71.4,-14.41 -139.17,-20.5 -201.72,-20.5"
         style="fill:#737ec3;fill-opacity:1;fill-rule:nonzero;stroke:none"
         id="path166" />
      <path
         d="m 4325.75,4671.5 c -0.37,0.05 -0.74,0.1 -1.12,0.15 -0.19,0.03 -0.39,0.05 -0.58,0.08 0.55,-0.07 1.15,-0.15 1.7,-0.23 m 247.85,13.64 h -0.02 c 16.44,4.4 32.72,9.57 48.85,15.54 -24.19,-10.36 -40.46,-15.54 -48.83,-15.54 m -358.82,9.06 c -18.99,5.19 -37.95,11.04 -56.88,17.56 18.9,-6.48 37.87,-12.34 56.88,-17.56 m 622.33,138.43 c 26.03,22.55 51.62,47.15 76.82,73.64 -25.17,-26.63 -50.77,-51.18 -76.82,-73.64 m 172.41,185.2 c 13.6,17.45 27.08,35.41 40.47,53.88 v -0.14 c -13.38,-18.44 -26.87,-36.35 -40.47,-53.74"
         style="fill:#dad9d8;fill-opacity:1;fill-rule:nonzero;stroke:none"
         id="path168" />
      <path
         d="m 5049.99,5071.57 v 0.14 c 44.04,60.75 86.95,126.86 128.96,197.24 -40.88,-71.65 -68.88,-115.94 -84.02,-132.87 -14.84,-22.18 -29.82,-43.68 -44.94,-64.51 m 291.38,496.54 c 0.04,0.07 0.07,0.14 0.11,0.22 -0.02,-0.05 -0.05,-0.11 -0.07,-0.16 -0.01,-0.01 -0.03,-0.05 -0.04,-0.06 m 156.29,329.46 c 4.6,10.12 9.14,20.15 13.72,30.31 v -0.32 c -4.57,-10.02 -9.14,-20.01 -13.72,-29.99 m 119.48,266.91 v 1.05 c 5.87,13.32 11.74,26.67 17.61,40.01 57.47,45.23 113.8,90.74 131.8,146.16 h 0.14 c -5.01,-16.02 -13.23,-31.45 -24.65,-46.18 -16.23,-23.85 -52.13,-57.67 -107.6,-101.25 -5.76,-13.3 -11.53,-26.56 -17.3,-39.79"
         style="fill:#e7e6e5;fill-opacity:1;fill-rule:nonzero;stroke:none"
         id="path170" />
      <path
         d="m 5511.38,5927.56 v 0.32 c 35.42,78.39 70.63,157.92 105.76,237.65 v -1.05 c -35,-80.17 -70.25,-159.15 -105.76,-236.92"
         style="fill:#303d9a;fill-opacity:1;fill-rule:nonzero;stroke:none"
         id="path172" />
      <path
         d="m 4418.51,4665.31 c -30.19,0 -61.13,2.08 -92.76,6.19 -0.55,0.08 -1.15,0.16 -1.7,0.23 -36.51,5.07 -72.94,12.55 -109.27,22.47 -19.01,5.22 -37.98,11.08 -56.88,17.56 -7.01,2.42 -14.01,4.92 -21.01,7.52 -72.48,28.5 -141.79,62.24 -207.96,101.21 -12.93,7.84 -25.76,15.92 -38.47,24.2 -35.01,22.84 -69.08,47.26 -101.95,72.93 -24.6,123.3 -55.24,261.05 -91.89,413.2 l 1.25,0.28 c 38.92,-36.46 75.42,-70.45 109.44,-102.01 2.55,-13.11 5.06,-26.07 7.58,-38.96 l 1.04,0.24 c -2.36,12.28 -4.71,24.69 -7.11,37.14 l 1.25,0.2 c 194.09,-175.79 325.52,-277.24 394.23,-304.34 95.52,-44.38 154.88,-66.61 178.09,-66.61 0.03,0 0.06,0 0.08,0 0.22,-0.01 0.44,-0.01 0.65,-0.01 1.39,0 2.63,0.14 3.75,0.38 19.69,-3.38 39.16,-5.09 58.46,-5.09 48.79,0 96.3,10.79 142.42,32.42 120.27,74.53 217.58,176.54 291.91,305.91 29.82,31.36 162.64,277.19 398.51,737.4 18.33,40.81 67.42,114.78 147.31,222.02 28.57,34.86 58.43,65.28 89.59,91.25 31,-15.31 72.71,-27.5 114.41,-39.65 1.76,1.38 3.52,2.77 5.27,4.15 -5.87,-13.34 -11.74,-26.69 -17.61,-40.01 -35.13,-79.73 -70.34,-159.26 -105.76,-237.65 -4.58,-10.16 -9.12,-20.19 -13.72,-30.31 -51.53,-112.24 -103.59,-221.99 -156.18,-329.24 -0.04,-0.08 -0.07,-0.15 -0.11,-0.22 -67.18,-127.39 -121.31,-227.1 -162.42,-299.16 -42.01,-70.38 -84.92,-136.49 -128.96,-197.24 -13.39,-18.47 -26.87,-36.43 -40.47,-53.88 -30.14,-38.52 -60.82,-74.46 -92.06,-107.81 -1.18,-1.25 -2.35,-2.5 -3.53,-3.75 -25.2,-26.49 -50.79,-51.09 -76.82,-73.64 -36.24,-31.26 -73.34,-58.48 -111.28,-81.66 -43.34,-22.57 -77.8,-39.33 -103.4,-50.29 -16.13,-5.97 -32.41,-11.14 -48.85,-15.54 h -0.01 c -49.42,-13.21 -101.12,-19.83 -155.06,-19.83"
         style="fill:#737ec3;fill-opacity:1;fill-rule:nonzero;stroke:none"
         id="path174" />
      <path
         d="m 5629.48,6201.39 c -41.7,12.15 -83.41,24.34 -114.41,39.65 75.81,63.2 159.26,100.1 250.32,110.66 h 1.16 c -18,-55.42 -74.33,-100.93 -131.8,-146.16 -1.75,-1.38 -3.51,-2.77 -5.27,-4.15"
         style="fill:#dc9584;fill-opacity:1;fill-rule:nonzero;stroke:none"
         id="path176" />
      <path
         d="m 3008.06,5986.65 c 35.31,-29.33 70.62,-58.74 115.85,-74.03 24.69,-8.33 52.38,-12.41 80.29,-12.41 23.19,0 46.54,2.82 68.46,8.33 48.29,12.19 89.5,37.71 130.7,63.19 -33.14,72.16 -66.31,144.29 -77.26,220.54 -10.95,76.24 0.28,156.7 11.51,237.11 l -257,-5.65 c 5.38,-74.02 10.82,-147.99 -1.25,-220.81 -12.07,-72.82 -41.68,-144.56 -71.3,-216.27"
         style="fill:#f7a794;fill-opacity:1;fill-rule:nonzero;stroke:none"
         id="path178" />
      <path
         d="m 3104.33,5920.34 c -0.76,0.33 -1.52,0.66 -2.27,0.99 -24.71,11.31 -53.11,30.62 -85.19,57.95 l -8.81,7.37 v 0 c 30.05,-24.96 60.1,-49.98 96.27,-66.31"
         style="fill:#737ec3;fill-opacity:1;fill-rule:nonzero;stroke:none"
         id="path180" />
      <path
         d="m 3137.27,5908.74 c -11.01,3.07 -21.99,6.91 -32.94,11.6 -36.17,16.33 -66.22,41.35 -96.27,66.31 40.71,95.56 64.48,167.63 71.3,216.27 4.54,23.69 6.95,53.42 7.24,89.14 84.5,-32.89 168.71,-65.37 236.34,-74.57 0.75,-9.08 1.81,-17.49 3.16,-25.22 0.7,-6.12 1.67,-12.83 2.92,-20.24 l -2.58,0.74 c -2.42,-0.38 -4.81,-0.8 -7.17,-1.21 -2.34,-0.42 -4.7,-0.88 -7.09,-1.48 -2.39,-0.51 -4.82,-1.15 -7.32,-1.76 -2.5,-0.6 -5.16,-1.34 -7.88,-2.13 -2.75,-0.7 -5.62,-1.58 -8.59,-2.46 -2.96,-0.93 -5.2,-1.57 -6.74,-2.09 -1.52,-0.5 -3.1,-0.96 -4.67,-1.47 -1.55,-0.56 -3.15,-1.12 -4.73,-1.57 -1.58,-0.52 -3.13,-1.03 -4.68,-1.58 -1.59,-0.57 -3.12,-1.07 -4.7,-1.58 -1.55,-0.61 -3.12,-1.07 -4.65,-1.62 -1.56,-0.51 -3.11,-1.07 -4.64,-1.62 -1.53,-0.56 -3.4,-1.16 -5.65,-2.03 -2.2,-0.89 -4.7,-1.81 -7.55,-2.88 -2.81,-1.07 -5.53,-2.26 -8.15,-3.43 -2.67,-1.15 -5.21,-2.36 -7.71,-3.56 -2.48,-1.21 -4.89,-2.51 -7.21,-3.76 -2.32,-1.25 -4.53,-2.55 -6.69,-3.84 -2.13,-1.3 -4.17,-2.69 -6.18,-3.94 -2.02,-1.35 -3.92,-2.64 -5.75,-3.98 -1.83,-1.35 -3.54,-2.78 -5.23,-4.17 -1.7,-1.39 -3.32,-2.83 -4.89,-4.36 -1.58,-1.48 -3.13,-3.01 -4.58,-4.73 -1.52,-1.62 -2.93,-3.24 -4.29,-4.99 -1.39,-1.71 -2.71,-3.43 -3.93,-5.19 -1.26,-1.77 -2.44,-3.57 -3.53,-5.38 -1.08,-1.89 -2.15,-3.75 -3.15,-5.65 -0.99,-1.9 -1.92,-3.89 -2.82,-5.84 -0.9,-1.99 -1.77,-3.98 -2.58,-6.02 -0.78,-2.04 -1.57,-4.07 -2.3,-6.11 -0.71,-1.99 -1.4,-4.07 -2.03,-6.11 -0.6,-2.09 -1.18,-4.22 -1.68,-6.26 -0.52,-2.08 -0.98,-4.12 -1.42,-6.2 -0.44,-2.05 -0.84,-4.08 -1.2,-6.16 -0.37,-2.09 -0.74,-4.13 -1.07,-6.26 -0.35,-2.13 -0.67,-4.26 -0.98,-6.48 -0.3,-2.18 -0.55,-4.4 -0.83,-6.72 -0.27,-2.27 -0.54,-4.59 -0.79,-6.9 -0.23,-2.32 -0.48,-4.63 -0.68,-7 -0.21,-2.32 -0.45,-4.72 -0.63,-7.18 -0.21,-2.41 -0.4,-4.9 -0.58,-7.41 -0.19,-2.5 -0.37,-5 -0.52,-7.64 -0.16,-2.55 -0.29,-5.15 -0.43,-7.65 -0.14,-2.49 -0.28,-5.04 -0.42,-7.59 -0.11,-2.6 -0.23,-5.1 -0.35,-7.6 -0.13,-2.59 -0.25,-5.19 -0.42,-7.74 -0.18,-2.54 -0.38,-5.23 -0.62,-7.92 -0.23,-2.73 -0.51,-5.51 -0.86,-8.34 -0.34,-2.87 -0.76,-5.74 -1.25,-8.71 -0.43,-2.96 -1.04,-6.06 -1.71,-9.11 -0.65,-3.11 -1.21,-5.43 -1.65,-6.95 -0.42,-1.63 -0.93,-3.2 -1.46,-4.82 -0.58,-1.63 -1.41,-3.9 -2.54,-6.85"
         style="fill:#dc9584;fill-opacity:1;fill-rule:nonzero;stroke:none"
         id="path182" />
      <path
         d="m 3082.01,6293.85 c 101.35,-39.46 202.73,-78.93 275.99,-78.93 39.92,0 71.49,11.72 90.13,41.6 52.86,84.63 1.95,314.71 -48.98,544.74 l -322.95,-95.65 5.81,-411.76"
         style="fill:#f7a794;fill-opacity:1;fill-rule:nonzero;stroke:none"
         id="path184" />
      <path
         d="m 3155.08,6728.97 c 0,0.01 0,0.02 0,0.02 l 244.07,72.27 -244.07,-72.29 m 258,9.13 c -4.59,20.98 -9.26,42.07 -13.93,63.16 4.98,-21.84 9.62,-42.89 13.93,-63.16"
         style="fill:#dad9d8;fill-opacity:1;fill-rule:nonzero;stroke:none"
         id="path186" />
      <path
         d="m 3252.17,6605.42 c -28.19,0 -51.09,11.16 -68.81,33.53 -10.15,11.67 -18.12,32.85 -24,63.55 -1.63,11.81 -3.09,20.6 -4.28,26.47 l 244.07,72.29 v 0 c 4.67,-21.09 9.34,-42.18 13.93,-63.16 6.04,-28.44 11.42,-55.35 16.16,-80.72 -2.65,-1.56 -4.96,-2.87 -7,-3.88 -26.75,-12.56 -47.36,-21.64 -61.93,-27.15 -42.13,-12.92 -74.55,-19.69 -97.32,-20.43 -3.7,-0.32 -7.33,-0.5 -10.82,-0.5"
         style="fill:#dc9584;fill-opacity:1;fill-rule:nonzero;stroke:none"
         id="path188" />
      <path
         d="m 3203.46,6264.39 c 20.94,28.63 41.86,57.35 19.92,95.7 -21.93,38.36 -86.74,86.49 -93.11,120.95 -4.82,26.12 23.95,44.47 52.3,44.47 9.06,0 18.06,-1.91 25.94,-5.98 32.48,-16.91 45.16,-71.43 50.63,-108.29 5.47,-36.88 3.73,-56.34 21.45,-102.1 16.05,-41.5 48.04,-104.78 98.22,-104.78 5.2,0 10.56,0.7 16.15,2.12 59.55,15.43 141.51,118.41 120.85,168.62 -20.66,50.21 -143.97,47.52 -198.63,87.92 -54.65,40.39 -40.65,123.82 -26.63,207.24 97.28,10.47 194.53,20.94 231.77,73.74 37.24,52.82 14.34,147.87 -57.93,197.53 -32,22 -73.67,35.11 -120.29,35.11 -58.62,0 -125.08,-20.76 -189.85,-70.79 -116.3,-89.77 -227.46,-273.99 -234.42,-405.78 -6.95,-131.78 90.4,-211.13 155.04,-241.7 25.09,-11.86 45.26,-16.36 62.42,-16.36 27.05,0 46.63,11.16 66.17,22.38"
         style="fill:#100f0d;fill-opacity:1;fill-rule:nonzero;stroke:none"
         id="path190" />
    </g>
  </g>
</svg>
